<?xml version="1.0" encoding="UTF-8"?>
<svg xmlns="http://www.w3.org/2000/svg" xmlns:xlink="http://www.w3.org/1999/xlink" version="1.2" >
<font id="Akwe Pro Con SC UltraThin">
<font-face  font-family="Akwe Pro Con SC" units-per-em="1000" ascent="754" descent="-230" font-style="normal" font-weight="150" font-stretch="normal" cap-height="730" x-height="540" underline-position="-75" underline-thickness="50" />
<missing-glyph  horiz-adv-x="580" d="M80.41 -230 L499.5 -230 L499.5 826 L80.41 826 L80.41 -230 Z M88.24 -72 L88.24 814 L491.67 814 L491.67 -72 L88.24 -72 Z M250.16 183.88 L266.66 187.65 C266.66 187.65 260.64 210.7 260.64 239.68 C260.64 318.44 295.92 367.9 331.24 416.55 C366.84 465.55 403.29 513.76 403.29 592.34 C403.29 690.54 363.58 740 286.51 740 C248.04 740 214.11 729.08 182.11 706.54 L186.93 687 C216.35 710.24 248.4 721.48 285.16 721.48 C352.36 721.48 383.47 679.56 383.47 591.43 C383.47 519.89 354.4 476.41 317.62 427.6 C280.86 378.47 243.74 326.96 243.74 239.63 C243.71 207.76 250.17 183.88 250.17 183.88 L250.16 183.88 Z M272.72 -10.03 C290.49 -10.03 297.58 -1.38995 297.58 22.48 C297.58 46.21 290.53 54.8 272.84 54.8 C255.06 54.8 247.97 46.19 247.97 22.39 C247.97 -1.40997 255.03 -10.03 272.72 -10.03 L272.72 -10.03 Z " />
<glyph glyph-name="NULL" d="" />
<glyph glyph-name="CR" unicode="&#xd;" horiz-adv-x="250" d="" />
<glyph glyph-name="space" unicode="&#x20;" horiz-adv-x="172" d="" />
<glyph glyph-name="exclam" unicode="&#x21;" horiz-adv-x="211" d="M98.47 149.91 L112.98 149.91 L116.54 584 L94.91 584 L98.47 149.91 Z M105.57 -8.02 C121.47 -8.02 127.77 -0.680008 127.77 19.59 C127.77 39.71 121.5 46.98 105.7 46.98 C89.81 46.98 83.5 39.67 83.5 19.48 C83.5 -0.710007 89.77 -8.02 105.57 -8.02 L105.57 -8.02 Z " />
<glyph glyph-name="quotedbl" unicode="&#x22;" horiz-adv-x="238" d="M68.21 484.77 L82.16 484.77 L84.74 730 L65.63 730 L68.21 484.77 Z M155.68 484.77 L169.62 484.77 L172.2 730 L153.1 730 L155.68 484.77 Z " />
<glyph glyph-name="numbersign" unicode="&#x23;" horiz-adv-x="462" d="M425.39 495.01 L428.24 512.65 L339.49 512.65 L359.96 690 L340.8 690 L320.33 512.65 L181.63 512.65 L202.14 690 L182.94 690 L162.65 512.65 L75.01 512.65 L72.16 495.01 L160.63 495.01 L124.96 183.14 L36.94 183.14 L34.1 165.5 L122.94 165.5 L104.01 0 L122.33 0 L141.47 165.5 L280.27 165.5 L261.16 0 L280.32 0 L299.42 165.5 L387.33 165.5 L390.18 183.14 L301.46 183.14 L337.46 495.01 L425.39 495.01 Z M282.3 183.14 L143.51 183.14 L179.59 495.01 L318.3 495.01 L282.3 183.14 Z " />
<glyph glyph-name="dollar" unicode="&#x24;" horiz-adv-x="336" d="M278.39 169.31 C278.39 241.35 246.82 263.76 175.81 298.78 L175.81 515.86 C206.08 514.53 233 505.89 256.97 489.88 L261.16 508.58 C234.56 523.84 206.24 532.11 175.81 533.51 L175.81 609.52 L160.27 609.52 L160.27 533.63 C92.83 531.38 59.38 491.68 59.38 413.93 C59.38 340.46 93.2 319.29 160.19 284.52 L160.27 284.48 L160.27 55.16 L158.53 55.16 C119.67 55.16 86.46 63.5 58.31 80.34 L54.19 61.76 C84.27 45.46 118.91 37.38 158.71 37.38 L160.27 37.38 L160.27 -42.7 L175.81 -42.7 L175.81 38.09 C244.38 44.09 278.38 87.64 278.38 169.31 L278.39 169.31 Z M79.51 414.33 C79.51 480.88 105.1 513.34 160.26 515.88 L160.26 306.54 C103.74 335.23 79.51 354.14 79.51 414.33 L79.51 414.33 Z M175.8 56.01 L175.8 276.4 C234.37 245.61 257.98 227.59 257.98 168.29 C257.98 97.95 231.84 61.87 175.8 56.01 L175.8 56.01 Z " />
<glyph glyph-name="percent" unicode="&#x25;" horiz-adv-x="544" d="M162.42 -8.3 L377.75 584.58 L363.09 590.96 L147.67 -1.89 L162.42 -8.3 Z M129.42 329.57 C182.13 329.57 216.57 380.72 216.57 458.71 C216.57 536.5 182.22 587.52 129.65 587.52 C76.96 587.52 42.53 536.44 42.53 458.55 C42.53 380.66 76.87 329.57 129.42 329.57 L129.42 329.57 Z M129.49 346.36 C85.13 346.36 58.49 388.96 58.49 458.55 C58.49 528.13 85.15 570.73 129.58 570.73 C173.96 570.73 200.61 528.15 200.61 458.64 C200.61 388.98 173.95 346.36 129.49 346.36 L129.49 346.36 Z M396.7 -8.26999 C449.41 -8.26999 483.85 43.01 483.85 120.86 C483.85 198.8 449.5 249.67 396.93 249.67 C344.24 249.67 309.82 198.45 309.82 120.7 C309.82 42.67 344.15 -8.26999 396.7 -8.26999 L396.7 -8.26999 Z M396.77 8.51001 C352.42 8.51001 325.77 50.97 325.77 120.7 C325.77 190.14 352.43 232.88 396.86 232.88 C441.25 232.88 467.9 190.44 467.9 120.79 C467.9 51.28 441.23 8.51003 396.77 8.51003 L396.77 8.51001 Z " />
<glyph glyph-name="ampersand" unicode="&#x26;" horiz-adv-x="404" d="M343.52 3.83 L298.1 81.77 C311.45 122.8 317.4 179.26 317.4 253.97 L300.45 253.97 C300.45 188.55 296.33 138.48 286.77 101.21 L164.26 311.44 C167.67 314.68 171.13 317.92 174.63 321.18 C223.26 366.32 264.72 409.83 264.72 483.91 C264.72 552.14 232.46 591.05 175.15 591.05 C117.9 591.05 85.6801 551.91 85.6801 483.27 C85.6801 426.15 97.2601 391.39 142.44 313.58 C97.31 268.71 59.74 219.97 59.74 139.98 C59.74 40.85 99.73 -8.29999 177.59 -8.29999 C231.81 -8.29999 268.08 12.35 290.06 60.85 L331.12 -9.45 L343.52 3.83 Z M103.18 482.69 C103.18 541.83 127.86 573.57 174.97 573.57 C222.1 573.57 246.83 542.08 246.83 483.4 C246.83 417.03 210.48 378.7 163.01 333.46 C160.52 331.1 158.04 328.73 155.57 326.37 C113.1 399.79 103.18 430.8 103.18 482.69 L103.18 482.69 Z M178.68 9.67 C111.29 9.67 79.39 51.32 79.39 140.39 C79.39 214.25 110.03 257.63 151.13 298.69 L279.71 78.56 C261.22 29.56 229.14 9.67999 178.68 9.67999 L178.68 9.67 Z " />
<glyph glyph-name="quotesingle" unicode="&#x27;" horiz-adv-x="137" d="M61.55 484.77 L75.49 484.77 L78.08 730 L58.97 730 L61.55 484.77 Z " />
<glyph glyph-name="parenleft" unicode="&#x28;" horiz-adv-x="187" d="M154.4 -140 L169.41 -135.86 C103.27 -9.93001 73.5 125.87 73.5 292 C73.5 458.12 103.26 593.88 169.37 719.76 L154.4 724 C86.66 602.99 53.08 459.81 53.08 292 C53.08 124.18 86.66 -18.99 154.4 -140 L154.4 -140 Z " />
<glyph glyph-name="parenright" unicode="&#x29;" horiz-adv-x="187" d="M32.89 -140 C100.63 -18.99 134.21 124.18 134.21 292 C134.21 459.81 100.63 602.99 32.89 724 L17.92 719.76 C84.03 593.88 113.8 458.12 113.8 292 C113.8 125.87 84.02 -9.93002 17.88 -135.86 L32.89 -140 Z " />
<glyph glyph-name="asterisk" unicode="&#x2a;" horiz-adv-x="240" d="M125.6 488 C136.62 496.03 165.27 517.11 180.83 530.42 L207.83 553.42 L199.57 569.04 L173.57 546.04 C158.67 532.88 133.78 507.45 123.15 496.49 C124.32 515.62 127.02 562.49 127.02 588.51 L127.02 630.51 L112.2 630.51 L112.2 588.51 C112.2 562.49 114.89 515.61 116.06 496.48 C105.39 507.46 80.34 532.99 65.35 546.04 L39.24 569.04 L31.98 553.42 L58.1 530.42 C73.55 516.99 102.42 496 113.56 488 C102.42 479.99 73.55 459 58.1 445.57 L31.98 422.57 L39.24 406.96 L65.35 429.96 C80.33 443 105.39 468.53 116.06 479.52 C114.89 460.38 112.2 413.51 112.2 387.48 L112.2 345.48 L127.02 345.48 L127.02 387.48 C127.02 413.5 124.32 460.37 123.15 479.51 C133.78 468.55 158.68 443.11 173.57 429.96 L199.57 406.96 L207.83 422.57 L180.83 445.57 C165.28 458.89 136.62 479.97 125.6 488 L125.6 488 Z " />
<glyph glyph-name="plus" unicode="&#x2b;" horiz-adv-x="346" d="M292.99 347.38 L181.81 347.38 L181.81 525.85 L164.27 525.85 L164.27 347.38 L53.08 347.38 L53.08 328.61 L164.27 328.61 L164.27 150.14 L181.81 150.14 L181.81 328.61 L292.99 328.61 L292.99 347.38 Z " />
<glyph glyph-name="comma" unicode="&#x2c;" horiz-adv-x="146" d="M72.1 54.8 C55.11 54.8 48.31 46.19 48.31 22.39 C48.31 -1.41 55.14 -10.03 72.22 -10.03 C75.49 -10.03 78.71 -9.22 81.7 -7.8 C80.95 -36.31 72.2 -69.47 57.85 -99.87 L70.22 -108.4 C87.57 -68.74 97.89 -23.67 97.91 17.38 C97.91 44.86 90.57 54.8 72.1 54.8 L72.1 54.8 Z " />
<glyph glyph-name="hyphen" unicode="&#x2d;" horiz-adv-x="251" d="M53.08 294.67 L198.08 294.67 L198.08 313.32 L53.08 313.32 L53.08 294.67 Z " />
<glyph glyph-name="period" unicode="&#x2e;" horiz-adv-x="146" d="M73.05 -10.03 C90.83 -10.03 97.91 -1.39 97.91 22.48 C97.91 46.21 90.86 54.8 73.17 54.8 C55.39 54.8 48.31 46.19 48.31 22.39 C48.31 -1.41002 55.36 -10.03 73.05 -10.03 L73.05 -10.03 Z " />
<glyph glyph-name="slash" unicode="&#x2f;" horiz-adv-x="298" d="M59.48 -42.05 L255.74 757.37 L238.8 764.05 L42.53 -35.33 L59.48 -42.05 Z " />
<glyph glyph-name="zero" unicode="0" horiz-adv-x="397" d="M198.51 -8.3 C295.15 -8.3 343.05 91 343.05 291.33 C343.05 491.65 295.15 590.96 198.51 590.96 C101.87 590.96 53.97 491.65 53.97 291.33 C53.97 91 101.87 -8.3 198.51 -8.3 L198.51 -8.3 Z M198.51 10.19 C113.45 10.19 74.62 99.23 74.62 291.33 C74.62 483.5 113.45 572.56 198.51 572.56 C283.57 572.56 322.4 483.5 322.4 291.33 C322.4 99.23 283.57 10.19 198.51 10.19 L198.51 10.19 Z " />
<glyph glyph-name="one" unicode="1" horiz-adv-x="229" d="M134.68 0 L154.44 0 L154.44 582.66 L137.22 582.66 L20.1 496.42 L27.11 480.73 L134.68 560.43 L134.68 0 Z " />
<glyph glyph-name="two" unicode="2" horiz-adv-x="330" d="M37.43 0 L279.54 0 L279.54 18.59 L62.64 18.76 L187.36 217.21 C256.65 327.7 275.36 375.17 275.36 445.43 C275.36 537.94 234.43 590.96 163.01 590.96 C122.13 590.96 84.13 577.11 48.32 549.18 L52.98 530 C86.97 558.41 122.85 572.5 161.25 572.5 C222.75 572.5 254.83 527.99 254.83 444.54 C254.83 381.23 238.19 338.26 171.4 230.72 L38.19 16.41 L37.43 0 Z " />
<glyph glyph-name="three" unicode="3" horiz-adv-x="316" d="M132.11 -8.3 C221.95 -8.3 266.47 45.94 266.47 155.22 C266.47 240.6 233.51 291.96 175.1 297.92 C223.57 305.92 250.93 357.65 250.93 449.59 C250.93 544.11 214.75 590.96 141.77 590.96 C109.05 590.96 80.75 582.97 56.21 566.84 L60.87 548.28 C84.75 564.56 111.05 572.63 140.2 572.63 C202.61 572.63 231.05 532.95 231.05 448.04 C231.05 351.62 201.62 305.89 137.85 305.89 L97.74 305.89 L97.74 288.38 L138.62 288.38 C212.05 288.38 245.92 245.87 245.92 156.27 C245.92 56.74 209.87 10.11 130.82 10.11 C97.94 10.11 69.34 17.09 44.46 31.2 L40.42 11.76 C67.82 -1.66997 98.13 -8.29997 132.11 -8.29997 L132.11 -8.3 Z " />
<glyph glyph-name="four" unicode="4" horiz-adv-x="339" d="M225.86 0 L245.14 0 L245.14 131.49 L292.13 131.49 L292.13 149.76 L245.14 149.76 L245.14 582.66 L227.16 582.66 L32.87 148.24 L32.87 131.49 L225.86 131.49 L225.86 0 Z M53.19 149.76 L226.11 537.12 L226.11 149.76 L53.19 149.76 Z " />
<glyph glyph-name="five" unicode="5" horiz-adv-x="318" d="M130.83 -8.3 C224.6 -8.3 271.08 49.99 271.08 167.59 C271.08 284.12 230.33 342.57 149.15 342.57 C119.85 342.57 94.53 332.35 72.75 311.74 L86.84 564.35 L257.81 564.35 L257.81 582.66 L70.57 582.66 L54.31 299.2 L69.7 294.21 C90.88 315.22 114.48 324.85 144.53 324.85 C217.1 324.85 250.64 274.76 250.64 167.45 C250.64 60.25 212.77 10.18 130.06 10.18 C97.85 10.18 70.41 17.18 47.29 31.32 L43.19 11.89 C69.36 -1.61002 98.4 -8.30002 130.83 -8.30002 L130.83 -8.3 Z " />
<glyph glyph-name="six" unicode="6" horiz-adv-x="345" d="M189.93 342.58 C141.72 342.58 102.7 315.86 72.32 261.99 C72.32 263.76 72.32 265.55 72.32 267.34 C72.32 476.01 112.36 572.66 201.62 572.66 C228.52 572.66 252.51 563.25 274.2 544.37 L279.06 563.61 C255.56 581.85 229.39 590.96 201.1 590.96 C101.55 590.96 52.09 483.25 52.09 265.97 C52.09 82.6 96 -8.3 184.58 -8.3 C267.09 -8.3 307.99 52.39 307.99 174.84 C307.99 286.99 268.8 342.58 189.94 342.58 L189.93 342.58 Z M184.64 10.13 C111.28 10.13 75.9299 83.42 72.59 241.69 C103.75 297.25 141.49 324.81 186.35 324.81 C255.9 324.81 287.93 277 287.93 174.58 C287.93 62.49 255.38 10.13 184.64 10.13 L184.64 10.13 Z " />
<glyph glyph-name="seven" unicode="7" horiz-adv-x="285" d="M74.37 0 L95.68 0 L264.02 566.13 L264.02 582.66 L21.88 582.66 L21.88 563.59 L242.56 563.59 L74.37 0 Z " />
<glyph glyph-name="eight" unicode="8" horiz-adv-x="354" d="M177.52 -8.3 C261.5 -8.3 302.95 43.47 302.95 148.56 C302.95 237.33 273.24 288.32 213.3 298.13 C266.24 308.41 292.49 355.76 292.49 440.96 C292.49 541.25 254.42 590.96 177.64 590.96 C100.69 590.96 62.55 541.25 62.55 440.96 C62.55 355.7 88.79 308.32 141.73 298.04 C81.79 288.23 52.08 237.26 52.08 148.56 C52.08 43.47 93.54 -8.29999 177.52 -8.29999 L177.52 -8.3 Z M177.52 306.9 C111.88 306.9 81.66 349.18 81.66 439.79 C81.66 530.68 111.88 573.14 177.52 573.14 C243.15 573.14 273.38 530.68 273.38 439.79 C273.38 349.18 243.15 306.9 177.52 306.9 L177.52 306.9 Z M177.52 9.61002 C105.41 9.61002 72.19 53.9 72.19 149.53 C72.19 243.84 105.41 288.16 177.52 288.16 C249.62 288.16 282.84 243.84 282.84 149.53 C282.84 53.9 249.62 9.61002 177.52 9.61002 L177.52 9.61002 Z " />
<glyph glyph-name="nine" unicode="9" horiz-adv-x="353" d="M168.58 590.96 C86.07 590.96 45.08 530.26 45.08 407.82 C45.08 295.67 84.27 240.07 163.13 240.07 C211.36 240.07 250.22 266.41 280.75 314.37 C280.64 96.62 244.62 9.99001 151.45 9.99001 C122.86 9.99001 97.53 19.31 74.11 38.29 L69.24 19.04 C94.95 0.680008 121.97 -8.29999 151.97 -8.29999 C256.29 -8.29999 300.98 88.84 300.98 316.68 C300.98 500.06 257.16 590.96 168.58 590.96 L168.58 590.96 Z M166.63 257.85 C97.08 257.85 65.14 305.66 65.14 408.07 C65.14 520.17 97.77 572.52 168.52 572.52 C243.01 572.52 278.23 496.95 280.62 333.54 C248.93 282.92 210.97 257.85 166.63 257.85 L166.63 257.85 Z " />
<glyph glyph-name="colon" unicode="&#x3a;" horiz-adv-x="182" d="M94.26 485.88 C112.04 485.88 119.12 494.52 119.12 518.39 C119.12 542.12 112.07 550.71 94.38 550.71 C76.61 550.71 69.52 542.1 69.52 518.3 C69.52 494.5 76.57 485.88 94.26 485.88 L94.26 485.88 Z M94.26 -10.03 C112.04 -10.03 119.12 -1.39001 119.12 22.48 C119.12 46.21 112.07 54.8 94.38 54.8 C76.61 54.8 69.52 46.19 69.52 22.39 C69.52 -1.41003 76.57 -10.03 94.26 -10.03 L94.26 -10.03 Z " />
<glyph glyph-name="semicolon" unicode="&#x3b;" horiz-adv-x="187" d="M94.26 485.12 C112.04 485.12 119.12 493.75 119.12 517.62 C119.12 541.35 112.07 549.94 94.38 549.94 C76.61 549.94 69.52 541.33 69.52 517.53 C69.52 493.73 76.57 485.12 94.26 485.12 L94.26 485.12 Z M93.99 54.8 C77 54.8 70.2 46.19 70.2 22.39 C70.2 -1.41003 77.03 -10.03 94.11 -10.03 C97.39 -10.03 100.6 -9.22003 103.59 -7.80003 C102.84 -36.31 94.1 -69.47 79.75 -99.87 L92.11 -108.4 C109.46 -68.74 119.78 -23.67 119.81 17.38 C119.81 44.86 112.47 54.8 93.99 54.8 L93.99 54.8 Z " />
<glyph glyph-name="less" unicode="&#x3c;" horiz-adv-x="346" d="M292.52 82.34 L292.52 109.24 L75.33 310 L292.52 510.75 L292.52 537.65 L53.08 314.92 L53.08 305.08 L292.52 82.34 Z " />
<glyph glyph-name="equal" unicode="&#x3d;" horiz-adv-x="305" d="M53.08 409.38 L251.44 409.38 L251.44 427.87 L53.08 427.87 L53.08 409.38 Z M53.08 268.13 L251.44 268.13 L251.44 286.61 L53.08 286.61 L53.08 268.13 Z " />
<glyph glyph-name="greater" unicode="&#x3e;" horiz-adv-x="346" d="M53.08 82.34 L292.52 305.08 L292.52 314.92 L53.08 537.65 L53.08 510.98 L270.27 310 L53.08 109.01 L53.08 82.34 Z " />
<glyph glyph-name="question" unicode="&#x3f;" horiz-adv-x="287" d="M96.85 149.09 L112.76 152.4 C112.76 152.4 107.84 170.72 107.84 193.74 C107.84 255.73 136.61 294.01 166.82 332.88 C196.91 371.44 226.97 410.78 226.97 473.8 C226.97 552.33 193.42 592 128.28 592 C95.57 592 66.76 583.22 39.65 565.03 L44.16 546.76 C69 565.46 95.79 574.52 126.53 574.52 C181.97 574.52 207.49 541.91 207.49 472.6 C207.49 416.39 182.75 382.39 153.3 343.27 C123.29 303.82 90.92 263.32 90.92 193.81 C90.92 168.24 96.85 149.09 96.85 149.09 L96.85 149.09 Z M116.65 -8.02 C132.55 -8.02 138.85 -0.680008 138.85 19.59 C138.85 39.71 132.58 46.98 116.78 46.98 C100.89 46.98 94.59 39.67 94.59 19.48 C94.59 -0.710007 100.85 -8.02 116.65 -8.02 L116.65 -8.02 Z " />
<glyph glyph-name="at" unicode="&#x40;" horiz-adv-x="508" d="M254.32 596.53 C123.51 596.53 58.19 494.09 58.19 287.45 C58.19 86.15 123.51 -13.63 254.32 -13.63 C296.57 -13.63 333.89 0.919998 366.91 30.29 L362.97 48.6 C332.08 17.24 299.33 3.29999 254.37 3.29999 C130.21 3.29999 75.07 92.57 75.07 287.54 C75.07 487.92 130.2 579.64 254.31 579.64 C378.08 579.64 433.05 488.12 433.05 288.52 C433.05 183.21 416.01 134.37 376.76 134.37 C346.03 134.37 331.96 156.3 331.98 203.62 L331.98 442.34 L320.82 442.34 L318.3 394.8 L317.87 394.8 C297.55 430.44 272.11 447.9 242.51 447.9 C189.83 447.9 163.51 396.68 163.51 293.03 C163.51 189.51 189.27 138.19 241.09 138.19 C269.26 138.19 294.77 155.06 316.95 188.21 C320.87 141.3 340.6 118.03 376.42 118.03 C425.79 118.03 449.93 174.13 449.93 288.43 C449.93 494.42 384.79 596.53 254.32 596.53 L254.32 596.53 Z M244.68 154.01 C200 154.01 179.73 197.72 179.73 292.97 C179.73 388.34 200.42 432.09 246.01 432.09 C272.94 432.09 296.52 415.26 316.29 381.71 L316.29 202.91 C294.97 170.22 270.94 154.01 244.68 154.01 L244.68 154.01 Z " />
<glyph glyph-name="A" unicode="A" horiz-adv-x="448" d="M391.59 0 L414.22 0 L232.82 730.02 L215.63 730.02 L34.1 0 L56.37 0 L107.86 209.47 L340.16 209.47 L391.59 0 Z M112.47 228.25 L224.07 682.28 L335.55 228.25 L112.47 228.25 Z " />
<glyph glyph-name="B" unicode="B" horiz-adv-x="417" d="M80.41 0 L212.33 0 C318.49 0 371.11 64.41 371.11 194.34 C371.11 302.69 333.58 369.02 258.67 380.44 C318.51 395.53 347.84 455.29 347.84 550.6 C347.84 670.54 303.21 730 213.17 730 L80.41 730 L80.41 0 Z M101.06 389.15 L101.06 711.25 L212.16 711.25 C291.1 711.25 327.53 659.63 327.53 550.25 C327.53 440.8 290.58 389.15 210.3 389.15 L101.06 389.15 Z M101.06 18.9 L101.06 370.35 L211.95 370.35 C306.58 370.35 350.11 314 350.11 194.51 C350.11 75.2 306.33 18.9 211.42 18.9 L101.06 18.9 Z " />
<glyph glyph-name="C" unicode="C" horiz-adv-x="403" d="M254.7 -10 C295.45 -10 331.19 1.42999 356.96 21.66 L352.75 41.85 C329.6 20.29 296.6 9.12 255.31 9.12 C134.04 9.12 79.41 120.37 79.41 363.04 C79.41 608.55 134.07 721.13 257.11 721.13 C289.88 721.13 319.8 709.88 342.91 688.25 L347.78 708.11 C322.72 728.59 290.91 740.18 256.47 740.18 C123.83 740.18 58.2 615.19 58.2 363.04 C58.2 113.63 123.33 -10 254.71 -10 L254.7 -10 Z " />
<glyph glyph-name="D" unicode="D" horiz-adv-x="464" d="M80.41 0 L212.66 0 C341.48 0 405.34 120.32 405.34 363.04 C405.34 608.38 341.48 730 212.66 730 L80.41 730 L80.41 0 Z M101.29 18.95 L101.29 711.12 L212.66 711.12 C330.27 711.12 384.14 599.96 384.14 363.04 C384.14 128.85 330.27 18.95 212.66 18.95 L101.29 18.95 Z " />
<glyph glyph-name="E" unicode="E" horiz-adv-x="399" d="M101.29 18.96 L101.29 360.75 L326.68 360.75 L326.68 379.51 L101.29 379.51 L101.29 711.18 L346.27 711.18 L346.27 730 L80.41 730 L80.41 0 L352.91 0 L352.91 18.96 L101.29 18.96 Z " />
<glyph glyph-name="F" unicode="F" horiz-adv-x="372" d="M329.99 711 L329.99 730 L80.41 730 L80.41 0 L101.38 0 L101.38 352.29 L310.37 352.33 L310.37 371.21 L101.38 371.17 L101.38 711 L329.99 711 Z " />
<glyph glyph-name="G" unicode="G" horiz-adv-x="451" d="M231.96 350.69 L231.96 333.17 L365.37 333.17 L365.37 105.84 C338.98 42.04 299.03 9.09 244.72 9.09 C131.15 9.09 79.33 122.12 79.33 363.03 C79.33 606.71 136.1 721.02 260.75 721.02 C298.59 721.02 329.56 711.04 354.2 690.91 L358.97 711.11 C330.05 730.42 297.26 740 260.06 740 C125.1 740 58.19 615.06 58.19 363.03 C58.19 114.98 119.98 -10 241.39 -10 C297.52 -10 339.91 20.88 368.7 83.18 L369.35 83.18 L371.54 0 L383.61 0 L383.61 350.69 L231.96 350.69 Z " />
<glyph glyph-name="H" unicode="H" horiz-adv-x="480" d="M378.66 730 L378.66 381.59 L101.29 381.59 L101.29 730 L80.41 730 L80.41 0 L101.29 0 L101.29 362.4 L378.66 362.4 L378.66 0 L399.55 0 L399.55 730 L378.66 730 Z " />
<glyph glyph-name="I" unicode="I" horiz-adv-x="182" d="M80.41 0 L101.73 0 L101.73 730 L80.41 730 L80.41 0 Z " />
<glyph glyph-name="J" unicode="J" horiz-adv-x="306" d="M114.99 -10 C190.05 -10 227.26 57.29 227.26 193.03 L227.26 730 L206.37 730 L206.37 192.65 C206.37 68.09 177.33 9.45 114.07 9.45 C85.43 9.45 60.34 19.42 38.38 39.52 L34.1 18 C58.66 -0.720001 85.47 -10 114.99 -10 L114.99 -10 Z " />
<glyph glyph-name="K" unicode="K" horiz-adv-x="412" d="M390.52 0 L122.27 372.14 L369.97 730 L344.2 730 L101.3 373.41 L101.3 730 L80.41 730 L80.41 0 L101.3 0 L101.3 370.75 L363.12 0 L390.52 0 Z " />
<glyph glyph-name="L" unicode="L" horiz-adv-x="366" d="M101.52 19.49 L101.52 730 L80.41 730 L80.41 0 L343.08 0 L343.08 19.49 L101.52 19.49 Z " />
<glyph glyph-name="M" unicode="M" horiz-adv-x="545" d="M58.19 0 L78.73 0 L113.3 685.9 L262.77 112 L280.43 112 L432.33 686.79 L466.75 0 L487.38 0 L449.52 729.89 L424.55 729.89 L271.71 152.23 L121.3 730 L96.06 730 L58.19 0 Z " />
<glyph glyph-name="N" unicode="N" horiz-adv-x="471" d="M73.63 0 L93.42 0 L93.42 675.63 L380 0 L397.63 0 L397.63 730 L377.9 730 L377.9 54.37 L91.38 730 L73.63 730 L73.63 0 Z " />
<glyph glyph-name="O" unicode="O" horiz-adv-x="478" d="M238.97 -10 C359.82 -10 419.74 113.63 419.74 363.04 C419.74 615.06 359.82 740 238.97 740 C118.11 740 58.19 615.06 58.19 363.04 C58.19 113.63 118.11 -10 238.97 -10 L238.97 -10 Z M238.97 9.33 C129.49 9.33 79.42 122.32 79.42 363.04 C79.42 606.48 129.49 720.74 238.97 720.74 C348.44 720.74 398.51 606.48 398.51 363.04 C398.51 122.32 348.44 9.33 238.97 9.33 L238.97 9.33 Z " />
<glyph glyph-name="P" unicode="P" horiz-adv-x="404" d="M214.92 730 L80.41 730 L80.41 0 L101.29 0 L101.29 312.08 L213.73 312.08 C306.95 312.08 353.16 381.48 353.16 521.48 C353.16 660.89 307.34 730 214.92 730 L214.92 730 Z M212.56 330.91 L101.29 330.91 L101.29 711.23 L213.75 711.23 C295.16 711.23 332.73 650.49 332.73 521.49 C332.73 391.95 294.78 330.92 212.56 330.92 L212.56 330.91 Z " />
<glyph glyph-name="Q" unicode="Q" horiz-adv-x="478" d="M297.31 1.84 C378.28 38.19 419.71 158.3 419.71 363.03 C419.71 615.06 359.8 740 238.95 740 C118.1 740 58.19 615.06 58.19 363.03 C58.19 111.63 115.61 -10 238.95 -10 C254.61 -10 269.27 -7.87 282.93 -3.61 C297.87 -79.67 334.37 -125.39 393.01 -141.53 L397.41 -120.93 C346.96 -108.55 313.77 -67.84 297.31 1.84001 L297.31 1.84 Z M238.94 9.34001 C127.38 9.34001 79.23 120.76 79.23 363 C79.23 606.45 129.41 720.74 238.96 720.74 C348.43 720.74 398.5 606.48 398.5 363.04 C398.5 122.37 347.37 9.34001 238.94 9.34001 L238.94 9.34001 Z " />
<glyph glyph-name="R" unicode="R" horiz-adv-x="414" d="M80.41 0 L101.29 0 L101.29 330.5 L202.44 330.5 L349.32 0 L373.76 0 L223.64 331.26 C313.52 335.54 361.41 407.14 361.41 530.71 C361.41 658.15 309.73 730 217.1 730 L80.41 730 L80.41 0 Z M101.06 348.85 L101.06 711.53 L215.93 711.53 C297.77 711.53 340.86 648.16 340.86 530.71 C340.86 412.57 297.35 348.85 214.73 348.85 L101.06 348.85 Z " />
<glyph glyph-name="S" unicode="S" horiz-adv-x="378" d="M176.89 -10 C277.27 -10 327.03 55.28 327.03 186.98 C327.03 297.97 285.63 330.25 194.21 384.8 C110.16 434.73 72.83 460.3 72.83 561.35 C72.83 669.73 108.87 720.96 186.71 720.96 C229.9 720.96 267.68 707.9 300.7 681.56 L305.18 701.96 C268.47 727.37 228.94 739.96 185.91 739.96 C96.33 739.96 51.93 680.69 51.93 561.13 C51.93 449.55 95.11 419.07 181.1 367.18 C270.89 313.15 305.89 286.96 305.89 186.12 C305.89 65.87 265.02 9.03001 176.84 9.03001 C127.29 9.03001 85.26 21.49 50.04 46.63 L45.65 26.37 C83.27 2.05002 126.76 -9.99998 176.89 -9.99998 L176.89 -10 Z " />
<glyph glyph-name="T" unicode="T" horiz-adv-x="353" d="M330.93 730 L22.55 730 L22.55 710.65 L166.18 710.65 L166.18 0 L187.3 0 L187.3 710.65 L330.93 710.65 L330.93 730 Z " />
<glyph glyph-name="U" unicode="U" horiz-adv-x="467" d="M236.68 -10 C341.38 -10 393.28 72.74 393.28 239.66 L393.28 730 L372.61 730 L372.61 239.71 C372.61 83.18 329.81 9.53001 236.68 9.53001 C143.92 9.53001 101.29 83.18 101.29 239.71 L101.29 730 L80.41 730 L80.41 239.66 C80.41 72.74 132.2 -10 236.68 -10 L236.68 -10 Z " />
<glyph glyph-name="V" unicode="V" horiz-adv-x="446" d="M213.54 -0.0299988 L232.31 -0.0299988 L411.85 730 L389.75 730 L223.17 41.02 L56.56 730 L34.1 730 L213.54 -0.0299988 Z " />
<glyph glyph-name="W" unicode="W" horiz-adv-x="670" d="M184.73 -0.0299988 L204.51 -0.0299988 L335.29 682.72 L465.97 -0.0299988 L485.46 -0.0299988 L625.14 730 L603.14 730 L476.12 45.99 L345.27 729.99 L325.58 729.99 L194.78 45.03 L67.76 730 L45.65 730 L184.73 -0.0299988 Z " />
<glyph glyph-name="X" unicode="X" horiz-adv-x="427" d="M33.98 0 L57.66 0 L212.72 357.27 L368.66 0 L393.49 0 L226.31 374.69 L378.16 730 L354.45 730 L212.72 390.28 L71.48 730 L46.69 730 L199.12 373.75 L33.98 0 Z " />
<glyph glyph-name="Y" unicode="Y" horiz-adv-x="404" d="M192.22 0 L212.1 0 L212.07 291.44 L374.77 730 L352.36 730 L202.4 318.72 L52.44 730 L29.21 730 L192.25 292.07 L192.22 0 Z " />
<glyph glyph-name="Z" unicode="Z" horiz-adv-x="384" d="M45.65 0 L338.27 0 L338.27 19.48 L69.62 19.48 L338.03 713.36 L338.03 730 L55.91 730 L55.91 710.66 L315.5 710.66 L45.65 16.7 L45.65 0 Z " />
<glyph glyph-name="bracketleft" unicode="&#x5b;" horiz-adv-x="216" d="M81.84 -130 L198.36 -130 L194.24 -112.32 L100.81 -112.32 L100.81 696.39 L194.24 696.39 L198.36 714 L81.84 714 L81.84 -130 Z " />
<glyph glyph-name="backslash" unicode="&#x5c;" horiz-adv-x="298" d="M238.79 -42.05 L255.74 -35.33 L59.47 764.05 L42.53 757.37 L238.79 -42.05 Z " />
<glyph glyph-name="bracketright" unicode="&#x5d;" horiz-adv-x="216" d="M134.4 -130 L134.4 714 L17.88 714 L22 696.39 L115.44 696.39 L115.44 -112.32 L22 -112.32 L17.88 -130 L134.4 -130 Z " />
<glyph glyph-name="asciicircum" unicode="&#x5e;" horiz-adv-x="359" d="M53.08 453.72 L75.03 453.72 L179.7 706.44 L284.37 453.72 L306.31 453.72 L185.02 738.38 L174.37 738.38 L53.08 453.72 Z " />
<glyph glyph-name="underscore" unicode="&#x5f;" horiz-adv-x="373" d="M49.19 -40.57 L323.45 -40.57 L323.45 -22.11 L49.19 -22.11 L49.19 -40.57 Z " />
<glyph glyph-name="a" unicode="a" horiz-adv-x="377" d="M327.48 0 L349.72 0 L197.76 584.02 L180.19 584.02 L28.1 0 L49.96 0 L92.43 165.74 L285.04 165.74 L327.48 0 Z M96.96 183.4 L188.78 541.71 L280.52 183.4 L96.96 183.4 Z " />
<glyph glyph-name="b" unicode="b" horiz-adv-x="350" d="M66.41 0 L178.82 0 C268.34 0 312.71 51.69 312.71 155.98 C312.71 242.6 281.18 295.51 218.47 304.41 C268.56 316.13 293.22 363.76 293.22 440 C293.22 536.27 255.5 584 179.43 584 L66.41 584 L66.41 0 Z M86.68 312.52 L86.68 566.24 L178.18 566.24 C243.4 566.24 273.31 525.95 273.31 439.41 C273.31 352.82 242.98 312.52 176.65 312.52 L86.68 312.52 Z M86.68 17.95 L86.68 294.8 L178.12 294.8 C256.32 294.8 292.07 250.83 292.07 156.3 C292.07 61.89 256.12 17.95 177.7 17.95 L86.68 17.95 Z " />
<glyph glyph-name="c" unicode="c" horiz-adv-x="338" d="M214.18 -8 C248.51 -8 278.63 1.09 300.51 17.26 L296.45 36.48 C277.05 19.24 249.45 10.32 214.95 10.32 C114.1 10.32 69.03 97.44 69.03 290.44 C69.03 485.75 114.13 573.91 216.45 573.91 C243.84 573.91 268.81 565 288.17 547.85 L292.78 566.75 C271.56 582.99 244.72 592.15 215.61 592.15 C103.61 592.15 48.19 492.15 48.19 290.44 C48.19 90.91 103.21 -8.00002 214.18 -8.00002 L214.18 -8 Z " />
<glyph glyph-name="d" unicode="d" horiz-adv-x="390" d="M66.41 0 L179.03 0 C287.79 0 341.7 96.26 341.7 290.44 C341.7 486.71 287.79 584 179.03 584 L66.41 584 L66.41 0 Z M86.93 18.04 L86.93 566.05 L179.03 566.05 C276.54 566.05 320.85 479.01 320.85 290.44 C320.85 104.08 276.54 18.04 179.03 18.04 L86.93 18.04 Z " />
<glyph glyph-name="e" unicode="e" horiz-adv-x="335" d="M86.93 18.09 L86.93 287.25 L274.84 287.25 L274.84 305.03 L86.93 305.03 L86.93 566.06 L291.29 566.06 L291.29 584 L66.41 584 L66.41 0 L296.9 0 L296.9 18.09 L86.93 18.09 Z " />
<glyph glyph-name="f" unicode="f" horiz-adv-x="312" d="M277.64 565.88 L277.64 584 L66.41 584 L66.41 0 L87 0 L87 280.22 L261.15 280.27 L261.15 298.24 L87 298.2 L87 565.88 L277.64 565.88 Z " />
<glyph glyph-name="g" unicode="g" horiz-adv-x="378" d="M194.81 281.79 L194.81 265.11 L305.25 265.11 L305.25 85.46 C283.58 35.91 250.7 10.32 205.96 10.32 C111.77 10.32 68.98 98.8 68.98 290.44 C68.98 484.33 115.81 573.82 219.65 573.82 C251.25 573.82 277.17 565.82 297.86 549.69 L302.39 568.94 C277.9 584.36 250.17 592 218.72 592 C104.71 592 48.19 492.05 48.19 290.44 C48.19 92.33 100.22 -8 202.1 -8 C249.06 -8 284.53 16.58 308.65 66.16 L309.2 66.16 L311.4 0 L323.04 0 L323.04 281.79 L194.81 281.79 Z " />
<glyph glyph-name="h" unicode="h" horiz-adv-x="403" d="M316.3 584 L316.3 306.83 L86.93 306.83 L86.93 584 L66.41 584 L66.41 0 L86.93 0 L86.93 288.36 L316.3 288.36 L316.3 0 L336.82 0 L336.82 584 L316.3 584 Z " />
<glyph glyph-name="i" unicode="i" horiz-adv-x="154" d="M66.41 0 L87.37 0 L87.37 584 L66.41 584 L66.41 0 Z " />
<glyph glyph-name="j" unicode="j" horiz-adv-x="257" d="M96.6 -8 C160.66 -8 192.41 46.29 192.41 155.8 L192.41 584 L171.89 584 L171.89 155.33 C171.89 56.48 147.93 10.64 95.51 10.64 C71.56 10.64 50.59 18.61 32.22 34.68 L28.1 14.34 C48.84 -0.600006 71.54 -8 96.6 -8 L96.6 -8 Z " />
<glyph glyph-name="k" unicode="k" horiz-adv-x="347" d="M329.68 0 L108.62 297.82 L312.53 584 L287.75 584 L86.93 298.12 L86.93 584 L66.41 584 L66.41 0 L86.93 0 L86.93 297.24 L303.38 0 L329.68 0 Z " />
<glyph glyph-name="l" unicode="l" horiz-adv-x="307" d="M87.17 18.76 L87.17 584 L66.41 584 L66.41 0 L288.63 0 L288.63 18.76 L87.17 18.76 Z " />
<glyph glyph-name="m" unicode="m" horiz-adv-x="459" d="M48.19 0 L68.44 0 L96.77 541.89 L219.91 89.63 L237.64 89.63 L362.69 542.6 L390.99 0 L411.31 0 L379.51 583.91 L355.06 583.91 L228.92 126.7 L104.78 584 L80 584 L48.19 0 Z " />
<glyph glyph-name="n" unicode="n" horiz-adv-x="396" d="M60.74 0 L80.34 0 L80.34 531.54 L318.13 0 L335.26 0 L335.26 584 L315.72 584 L315.72 52.46 L77.98 584 L60.74 584 L60.74 0 Z " />
<glyph glyph-name="o" unicode="o" horiz-adv-x="402" d="M201.13 -8 C303.37 -8 354.06 90.91 354.06 290.44 C354.06 492.05 303.37 592 201.13 592 C98.88 592 48.19 492.05 48.19 290.44 C48.19 90.91 98.88 -8 201.13 -8 L201.13 -8 Z M201.13 10.6 C110.29 10.6 69.09 99.03 69.09 290.44 C69.09 484.06 110.29 573.49 201.13 573.49 C291.96 573.49 333.16 484.06 333.16 290.44 C333.16 99.03 291.96 10.6 201.13 10.6 L201.13 10.6 Z " />
<glyph glyph-name="p" unicode="p" horiz-adv-x="339" d="M180.98 584 L66.41 584 L66.41 0 L86.93 0 L86.93 248.33 L180 248.33 C258.68 248.33 297.68 304.07 297.68 416.49 C297.68 528.48 259 584 180.97 584 L180.98 584 Z M178.55 266.24 L86.92 266.24 L86.92 566.16 L179.53 566.16 C246.8 566.16 277.65 518.72 277.65 416.52 C277.65 313.9 246.49 266.24 178.55 266.24 L178.55 266.24 Z " />
<glyph glyph-name="q" unicode="q" horiz-adv-x="402" d="M251.54 1.94 C319.33 31.58 354.03 127.57 354.03 290.44 C354.03 492.05 303.35 592 201.11 592 C98.88 592 48.19 492.05 48.19 290.44 C48.19 89.31 96.81 -8 201.11 -8 C214.06 -8 226.19 -6.37 237.52 -3.11 C249.96 -64.66 280.93 -101.56 330.93 -114.44 L335.22 -94.92 C293.07 -85.14 265.31 -53.02 251.53 1.94 L251.54 1.94 Z M201.04 10.56 C108.53 10.54 68.92 97.77 68.92 290.43 C68.92 484.05 110.2 573.49 201.11 573.49 C291.94 573.49 333.15 484.06 333.15 290.44 C333.15 99.09 291.01 10.56 201.04 10.56 L201.04 10.56 Z " />
<glyph glyph-name="r" unicode="r" horiz-adv-x="349" d="M66.41 0 L86.93 0 L86.93 263.26 L169.87 263.26 L291.65 0 L315.42 0 L190.16 264.31 C264.91 268.27 304.6 325.42 304.6 423.98 C304.6 526.51 261.13 584 182.9 584 L66.41 584 L66.41 0 Z M86.68 280.63 L86.68 566.49 L181.46 566.49 C249.09 566.49 284.45 517.08 284.45 423.98 C284.45 330.31 248.76 280.63 180.49 280.63 L86.68 280.63 Z " />
<glyph glyph-name="s" unicode="s" horiz-adv-x="317" d="M148.62 -8 C233.54 -8 275.65 44.53 275.65 150.5 C275.65 238.81 240.55 265.14 164.9 308.69 C94.55 349.03 63.65 368.75 63.65 448.44 C63.65 533.81 93.26 573.8 157.6 573.8 C193.6 573.8 225.23 563.32 253.03 542.22 L257.3 561.55 C226.2 581.88 192.84 591.95 156.64 591.95 C80.72 591.95 43.09 544.25 43.09 448.04 C43.09 359.02 79.14 333.29 151.24 292.41 C226.44 249.5 254.83 228.75 254.83 149.56 C254.83 54.64 221.28 10.22 148.48 10.22 C107.03 10.22 71.69 20.24 41.83 40.47 L37.65 21.27 C69.54 1.7 106.32 -8 148.62 -8 L148.62 -8 Z " />
<glyph glyph-name="t" unicode="t" horiz-adv-x="298" d="M279.63 584 L18.55 584 L18.55 565.43 L138.71 565.43 L138.71 0 L159.47 0 L159.47 565.43 L279.63 565.43 L279.63 584 Z " />
<glyph glyph-name="u" unicode="u" horiz-adv-x="392" d="M198.68 -8 C287.27 -8 331.18 58.45 331.18 192.49 L331.18 584 L310.87 584 L310.87 192.51 C310.87 68.37 275.7 10.81 198.68 10.81 C121.95 10.81 86.93 68.37 86.93 192.51 L86.93 584 L66.41 584 L66.41 192.49 C66.41 58.45 110.25 -8 198.68 -8 L198.68 -8 Z " />
<glyph glyph-name="v" unicode="v" horiz-adv-x="375" d="M178.33 -0.0299988 L197.36 -0.0299988 L347.7 584 L325.16 584 L188.1 37.58 L51.02 584 L28.1 584 L178.33 -0.0299988 Z " />
<glyph glyph-name="w" unicode="w" horiz-adv-x="563" d="M154.08 -0.0299988 L174.65 -0.0299988 L281.7 537.53 L388.64 -0.0299988 L408.9 -0.0299988 L525.95 584 L504.12 584 L399.44 44.63 L292.38 584 L271.34 584 L164.31 43.88 L59.62 584 L37.65 584 L154.08 -0.0299988 Z " />
<glyph glyph-name="x" unicode="x" horiz-adv-x="361" d="M27.98 0 L51.03 0 L179.46 282.07 L308.62 0 L332.79 0 L192.77 299.85 L319.8 584 L296.72 584 L179.49 316.13 L62.78 584 L38.64 584 L166.17 299.03 L27.98 0 Z " />
<glyph glyph-name="y" unicode="y" horiz-adv-x="341" d="M161.02 0 L180.48 0 L180.44 232.67 L317.06 584 L295.11 584 L171 259.17 L46.85 584 L24.21 584 L161.05 233.13 L161.02 0 Z " />
<glyph glyph-name="z" unicode="z" horiz-adv-x="323" d="M37.65 0 L285.17 0 L285.17 18.79 L60.98 18.79 L284.91 568.11 L284.91 584 L46.26 584 L46.26 565.39 L262.89 565.39 L37.65 15.98 L37.65 0 Z " />
<glyph glyph-name="braceleft" unicode="&#x7b;" horiz-adv-x="205" d="M143.94 -130 L187 -130 L182.89 -112.32 L149.89 -112.32 C107.51 -112.32 88.57 -82 88.57 -15.9 C88.57 76.33 107.15 147.12 107.15 236.46 C107.15 269.74 94.58 287.9 81.14 292 C94.58 295.54 107.15 313.32 107.15 346.57 C107.15 436.26 88.57 507.4 88.57 599.98 C88.57 666.07 107.51 696.39 149.89 696.39 L182.89 696.39 L187 714 L143.94 714 C95.65 714 69.78 674.97 69.78 602.48 C69.78 516.82 88.36 442.7 88.36 350.8 C88.36 312.96 74.38 300.91 55.72 300.91 L49.19 300.91 L49.19 283.08 L55.72 283.08 C74.38 283.08 88.36 271.04 88.36 233.19 C88.36 141.3 69.78 67.18 69.78 -18.49 C69.78 -90.97 95.69 -130 143.94 -130 L143.94 -130 Z " />
<glyph glyph-name="bar" unicode="&#x7c;" horiz-adv-x="222" d="M102.05 -180 L120.32 -180 L120.32 814 L102.05 814 L102.05 -180 Z " />
<glyph glyph-name="braceright" unicode="&#x7d;" horiz-adv-x="205" d="M60.94 -130 C109.19 -130 135.1 -90.97 135.1 -18.49 C135.1 67.18 116.52 141.3 116.52 233.19 C116.52 271.04 130.5 283.08 149.16 283.08 L155.69 283.08 L155.69 300.91 L149.16 300.91 C130.5 300.91 116.52 312.96 116.52 350.8 C116.52 442.7 135.1 516.82 135.1 602.48 C135.1 674.97 109.23 714 60.94 714 L17.88 714 L21.99 696.39 L54.99 696.39 C97.38 696.39 116.31 666.07 116.31 599.98 C116.31 507.4 97.73 436.26 97.73 346.57 C97.73 313.32 110.31 295.54 123.74 292 C110.31 287.9 97.73 269.74 97.73 236.46 C97.73 147.12 116.31 76.33 116.31 -15.9 C116.31 -82 97.38 -112.32 54.99 -112.32 L21.99 -112.32 L17.88 -130 L60.94 -130 Z " />
<glyph glyph-name="asciitilde" unicode="&#x7e;" horiz-adv-x="337" d="M221.29 329.36 C249.74 329.36 270.61 348.25 284.26 386.57 L270.26 393.5 C260.6 362.99 244.44 347.75 221.14 347.75 C181.76 347.75 164.78 405.75 118.3 405.75 C86.94 405.75 65.32 385.91 53.08 345.66 L67.24 339.7 C77.15 371.49 94.04 387.36 118.42 387.36 C158.6 387.36 175.72 329.36 221.29 329.36 L221.29 329.36 Z " />
<glyph glyph-name="uni00A0" unicode="&#xa0;" horiz-adv-x="172" d="" />
<glyph glyph-name="exclamdown" unicode="&#xa1;" horiz-adv-x="207" d="M103.29 548.01 C87.54 548.01 81.84 540.68 81.84 520.43 C81.84 500.18 87.57 492.85 103.42 492.85 C119.16 492.85 124.86 500.15 124.86 520.31 C124.86 540.65 119.13 548.01 103.29 548.01 L103.29 548.01 Z M96.25 390.01 L92.7 -43.99 L114.18 -43.99 L110.63 390.01 L96.25 390.01 Z " />
<glyph glyph-name="cent" unicode="&#xa2;" horiz-adv-x="304" d="M262.04 118.43 L258.07 137.55 C236.87 123.72 213.42 116.87 187.32 116.87 C185.83 116.87 184.35 116.89 182.89 116.94 L182.89 480.66 C184.35 480.7 185.83 480.73 187.32 480.73 C210.96 480.73 231.72 472.6 251.27 456.12 L255.32 475.01 C234.72 490.83 211.44 498.76 185.47 498.76 C184.6 498.76 183.75 498.76 182.89 498.76 L182.89 582.68 L167.35 582.68 L167.35 497.67 C95.42 488.51 59.74 422.53 59.74 298.82 C59.74 175.11 95.42 109.12 167.35 99.96 L167.35 9.97997 L182.89 9.97997 L182.89 98.88 C183.75 98.86 184.6 98.86 185.47 98.86 C212.02 98.86 237.4 105.36 262.04 118.46 L262.04 118.43 Z M80.46 298.83 C80.46 411.04 107.99 469.06 167.35 479.15 L167.35 118.5 C107.99 128.59 80.46 186.62 80.46 298.83 L80.46 298.83 Z " />
<glyph glyph-name="sterling" unicode="&#xa3;" horiz-adv-x="332" d="M98.1 18.15 L98.1 283.74 L213.9 283.74 L213.9 300.5 L98.1 300.5 L98.1 407.95 C98.1 520.55 125.75 572.79 191.41 572.79 C219.2 572.79 244.54 563.08 267.87 543.51 L271.93 562.64 C246.33 581.57 219.11 590.96 189.81 590.96 C113.83 590.96 78.42 530.15 78.42 407.49 L78.42 300.5 L33.98 300.5 L33.98 283.74 L78.42 283.74 L78.42 18.12 L33.98 14.72 L33.98 -1.52588e-05 L278.28 -1.52588e-05 L278.28 18.15 L98.1 18.15 Z " />
<glyph glyph-name="currency" unicode="&#xa4;" horiz-adv-x="418" d="M358.32 97.29 L309.45 167.28 C328.76 200.41 339.61 245.44 339.61 298.8 C339.61 354.03 327.98 400.33 307.39 433.76 L354.57 501.19 L343.27 513.64 L297.88 447.47 C275.55 476.07 245.21 492.14 209.26 492.14 C173.14 492.14 142.66 476.04 120.24 447.39 L74.8 513.64 L63.49 501.19 L110.72 433.7 C90.07 400.27 78.42 354 78.42 298.8 C78.42 245.47 89.3 200.47 108.65 167.33 L59.74 97.29 L71.05 84.85 L117.91 153.25 C140.54 122.7 171.88 105.45 209.26 105.45 C246.47 105.45 277.67 122.67 300.2 153.18 L347.02 84.85 L358.32 97.29 Z M209.26 124.95 C139.68 124.95 98.5101 190.46 98.5101 298.8 C98.5101 407.21 139.68 472.73 209.26 472.73 C278.53 472.73 319.51 407.21 319.51 298.8 C319.51 190.46 278.53 124.95 209.26 124.95 L209.26 124.95 Z " />
<glyph glyph-name="yen" unicode="&#xa5;" horiz-adv-x="381" d="M335.81 560.72 L314.53 560.72 L191.16 247.79 L67.71 560.72 L45.53 560.72 L150.91 298.71 L97.1 298.71 L97.1 284.39 L156.68 284.39 L181.08 223.7 L181.08 201.8 L97.1 201.8 L97.1 187.47 L181.08 187.47 L181.05 0 L200.51 0 L200.48 187.47 L284.42 187.47 L284.42 201.8 L200.48 201.8 L200.48 223.92 L224.77 284.39 L284.54 284.39 L284.54 298.71 L230.54 298.71 L335.81 560.72 Z " />
<glyph glyph-name="brokenbar" unicode="&#xa6;" horiz-adv-x="196" d="M88.62 458.17 L106.88 458.17 L106.88 814 L88.62 814 L88.62 458.17 Z M88.62 -180 L106.88 -180 L106.88 175.82 L88.62 175.82 L88.62 -180 Z " />
<glyph glyph-name="section" unicode="&#xa7;" horiz-adv-x="426" d="M271.9 95.05 C339.3 125.8 372.73 181.74 372.73 265.75 C372.73 369.06 334.24 420.35 233.14 454.12 C133.85 487.38 98.76 508.31 98.76 609.51 C98.76 698.72 135.66 740.78 216.19 740.78 C257.33 740.78 296.41 728.79 333.98 704.61 L338.75 724.5 C297.43 747.83 256.5 759.39 215.24 759.39 C123.72 759.39 78.35 709.69 78.35 609.44 C78.35 529.5 99.38 492.35 149.93 464.77 C85.19 434.61 53.08 379.54 53.08 296.69 C53.08 191.72 90.08 139.84 186.96 107.52 C290 73.17 326.82 49.34 326.82 -62.3701 C326.82 -170.17 284.5 -220.97 192.14 -220.97 C146.87 -220.97 106.96 -210.18 71.62 -188.41 L67.71 -208.66 C107.05 -229.62 148.34 -240 192.3 -240 C296.04 -240 347.46 -181.02 347.46 -62.0301 C347.46 25.2599 324.95 65.2499 271.9 95.0499 L271.9 95.05 Z M74.07 297.75 C74.07 378.93 104.12 428.69 168.66 455.53 C184.41 448.46 202.44 441.82 222.93 434.93 C318.9 402.61 351.51 358.1 351.51 264.8 C351.51 184.1 319.88 133.82 251.76 105.27 C235.75 112.67 217.53 119.66 196.94 126.94 C105.37 159.16 74.07 203.41 74.07 297.75 L74.07 297.75 Z " />
<glyph glyph-name="dieresis" unicode="&#xa8;" horiz-adv-x="182" d="M42.63 646.11 C58.59 646.11 64.9 653.82 64.9 675.13 C64.9 696.4 58.61 704.09 42.73 704.09 C26.77 704.09 20.46 696.39 20.46 675.1 C20.46 653.82 26.75 646.11 42.63 646.11 L42.63 646.11 Z M137.67 646.11 C153.62 646.11 159.94 653.82 159.94 675.13 C159.94 696.4 153.65 704.09 137.76 704.09 C121.81 704.09 115.5 696.39 115.5 675.1 C115.5 653.82 121.79 646.11 137.67 646.11 L137.67 646.11 Z " />
<glyph glyph-name="copyright" unicode="&#xa9;" horiz-adv-x="535" d="M267.82 -8.3 C406.57 -8.3 475.35 93.48 475.35 298.8 C475.35 509.66 406.57 614.2 267.82 614.2 C128.71 614.2 59.74 509.66 59.74 298.8 C59.74 93.48 128.71 -8.3 267.82 -8.3 L267.82 -8.3 Z M267.82 9.23999 C136.42 9.23999 77.26 100.68 77.26 298.91 C77.26 502.85 136.42 596.88 267.82 596.88 C398.86 596.88 457.85 502.85 457.85 298.91 C457.85 100.68 398.86 9.23999 267.82 9.23999 L267.82 9.23999 Z M279.64 131.88 C304.71 131.88 330.57 138.96 352.69 150.99 L349.35 168.84 C331.31 156.51 305.37 148.56 280.38 148.56 C217.6 148.56 188.63 198.54 188.63 305.4 C188.63 412.25 217.6 462.23 280.38 462.23 C303.38 462.23 323.15 455.65 342.42 438.89 L346.31 456.03 C326.87 471.04 304.89 478.92 279.64 478.92 C207.7 478.92 172.04 421.41 172.04 305.4 C172.04 189.39 207.7 131.88 279.64 131.88 L279.64 131.88 Z " />
<glyph glyph-name="ordfeminine" unicode="&#xaa;" horiz-adv-x="243" d="M100.65 407 C132.74 407 161.35 426.02 185.95 463.9 L186.39 463.9 L189.08 413 L202.19 413 L202.19 634.64 C202.19 711.07 179.98 743 125.98 743 C100.09 743 75.13 734.75 50.62 718.11 L54.39 701.27 C76.79 718.32 99.88 726.8 124.14 726.8 C166.91 726.8 184.14 700.32 184.14 635.47 L184.14 574.31 C159.35 585.14 133.85 590.6 107.75 590.6 C56.77 590.6 31.53 559.73 31.53 498.14 C31.53 437.21 54.44 407 100.65 407 L100.65 407 Z M106.06 422.97 C67.45 422.97 49.53 447.33 49.53 499.08 C49.53 551.08 69.46 575.22 112.85 575.22 C137.67 575.22 161.58 570.28 184.14 560.43 L184.14 477.97 C160.42 441.19 134.54 422.96 106.06 422.96 L106.06 422.97 Z " />
<glyph glyph-name="guillemotleft" unicode="&#xab;" horiz-adv-x="554" d="M353.63 65.09 L369.32 76.9 L230.08 290.94 L369.41 504.97 L354.12 516.8 L208.53 290.94 L353.63 65.09 Z M507.89 65.09 L523.58 76.9 L384.34 290.94 L523.66 504.97 L508.38 516.8 L362.79 290.94 L507.89 65.09 Z " />
<glyph glyph-name="logicalnot" unicode="&#xac;" horiz-adv-x="333" d="M279.97 377.8 L53.08 377.8 L53.08 359.14 L262.41 359.14 L262.41 265.16 L279.97 265.16 L279.97 377.8 Z " />
<glyph glyph-name="registered" unicode="&#xae;" horiz-adv-x="535" d="M267.82 -8.3 C406.57 -8.3 475.35 93.48 475.35 298.8 C475.35 509.66 406.57 614.2 267.82 614.2 C128.71 614.2 59.74 509.66 59.74 298.8 C59.74 93.48 128.71 -8.3 267.82 -8.3 L267.82 -8.3 Z M267.82 9.69 C136.42 9.69 77.26 101.04 77.26 298.91 C77.26 502.31 136.42 596.2 267.82 596.2 C398.86 596.2 457.85 502.31 457.85 298.91 C457.85 101.04 398.86 9.69 267.82 9.69 L267.82 9.69 Z M194.27 135.31 L209.33 135.31 L209.33 275.52 L267.7 275.52 L342.88 135.31 L360.49 135.31 L283.12 276.1 C326.87 276.87 354.15 309.4 354.15 376.39 C354.15 442.71 330.04 475.59 281.4 475.59 L194.27 475.59 L194.27 135.31 Z M209.28 290.37 L209.28 460.67 L278.46 460.67 C318.83 460.67 338.84 432.98 338.84 376.39 C338.84 318.64 318.5 290.37 277.48 290.37 L209.28 290.37 Z " />
<glyph glyph-name="degree" unicode="&#xb0;" horiz-adv-x="254" d="M126.9 493.05 C187.29 493.05 222.09 545.95 222.09 638.15 C222.09 730.16 187.92 782.95 127.13 782.95 C66.77 782.95 31.98 730.1 31.98 638 C31.98 545 66.68 493.05 126.9 493.05 L126.9 493.05 Z M126.97 511.16 C75.9 511.16 48.22 555.31 48.22 638 C48.22 719.79 75.92 764.84 127.07 764.84 C178.7 764.84 205.85 719.81 205.85 638.09 C205.85 556.22 178.14 511.16 126.97 511.16 L126.97 511.16 Z " />
<glyph glyph-name="plusminus" unicode="&#xb1;" horiz-adv-x="346" d="M181.71 389.52 L181.71 527.24 L164.37 527.24 L164.37 389.52 L53.08 389.52 L53.08 370.86 L164.37 370.86 L164.37 233.04 L181.71 233.04 L181.71 370.86 L292.99 370.86 L292.99 389.52 L181.71 389.52 Z M53.08 147.55 L292.99 147.55 L292.99 166.21 L53.08 166.21 L53.08 147.55 Z " />
<glyph glyph-name="uni00B5" unicode="&#xb5;" horiz-adv-x="401" d="M317.83 540 L317.83 103.13 C279.21 43.47 231.36 9.62 185.74 9.62 C124.38 9.62 95.43 65.38 95.43 183.09 L95.43 540 L75.18 540 L75.18 -230 L92.99 -230 L92.99 57.25 C110.05 12.34 139.48 -10 181.2 -10 C231.11 -10 280.78 25.22 319.5 84.81 L320.21 84.81 L323.64 0 L337.86 0 L337.86 540 L317.83 540 Z " />
<glyph glyph-name="paragraph" unicode="&#xb6;" horiz-adv-x="346" d="M265.55 730 L130.35 730 C81.23 730 53.08 690.5 53.08 621.57 C53.08 552.93 80.99 513.48 130.35 513.14 L130.35 -140 L149 -140 L149 711.08 L246.9 711.08 L246.9 -140 L265.55 -140 L265.55 730 Z " />
<glyph glyph-name="periodcentered" unicode="&#xb7;" horiz-adv-x="154" d="M76.94 279.69 C94.71 279.69 101.8 288.32 101.8 312.19 C101.8 335.92 94.75 344.51 77.06 344.51 C59.28 344.51 52.19 335.9 52.19 312.1 C52.19 288.3 59.25 279.69 76.94 279.69 L76.94 279.69 Z " />
<glyph glyph-name="ordmasculine" unicode="&#xba;" horiz-adv-x="266" d="M133.26 407 C199.74 407 232.74 462.8 232.74 575 C232.74 687.2 199.74 743 133.26 743 C66.42 743 33.42 687.2 33.42 575 C33.42 462.8 66.42 407 133.26 407 L133.26 407 Z M133.26 423.41 C77.69 423.41 52.67 470.1 52.67 575 C52.67 679.98 77.69 726.69 133.26 726.69 C188.47 726.69 213.49 679.98 213.49 575 C213.49 470.1 188.47 423.41 133.26 423.41 L133.26 423.41 Z " />
<glyph glyph-name="guillemotright" unicode="&#xbb;" horiz-adv-x="583" d="M46.87 65.09 L191.97 290.94 L46.38 516.8 L31.1 504.97 L170.42 290.94 L31.19 76.9 L46.87 65.09 Z M201.13 65.09 L346.23 290.94 L200.64 516.8 L185.35 504.97 L324.68 290.94 L185.44 76.9 L201.13 65.09 Z " />
<glyph glyph-name="onequarter" unicode="&#xbc;" horiz-adv-x="513" d="M155.95 -8.3 L376.39 584.58 L361.65 590.96 L141.11 -1.89 L155.95 -8.3 Z M104.95 233.23 L121.81 233.23 L121.81 582.82 L107.24 582.82 L30.87 531.12 L36.58 517.33 L104.95 563.28 L104.95 233.23 Z M418.66 0 L434.68 0 L434.68 76.83 L464.88 76.83 L464.88 92.45 L434.68 92.45 L434.68 349.59 L419.7 349.59 L294.45 91.1 L294.45 76.83 L418.66 76.83 L418.66 0 Z M311.27 92.45 L418.98 314.58 L418.98 92.45 L311.27 92.45 Z " />
<glyph glyph-name="onehalf" unicode="&#xbd;" horiz-adv-x="559" d="M155.95 -8.3 L376.39 584.58 L361.65 590.96 L141.11 -1.89 L155.95 -8.3 Z M104.95 233.23 L121.81 233.23 L121.81 582.82 L107.24 582.82 L30.87 531.12 L36.58 517.33 L104.95 563.28 L104.95 233.23 Z M349.84 0 L509.21 0 L509.21 16.31 L370.61 16.29 L449.34 130.43 C494.5 195.48 506.6 223.95 506.6 266.3 C506.6 322.41 479.56 354.57 432.37 354.57 C405.16 354.57 380.1 346.21 356.76 329.33 L360.49 312.9 C382.53 330.01 405.7 338.49 430.42 338.49 C469.26 338.49 489.15 313.33 489.15 264.88 C489.15 228.27 478.58 202.66 436.39 141.04 L349.85 14.17 L349.84 0 Z " />
<glyph glyph-name="threequarters" unicode="&#xbe;" horiz-adv-x="550" d="M192.57 -8.3 L413.01 584.58 L398.27 590.96 L177.73 -1.89 L192.57 -8.3 Z M105 228.25 C164.16 228.25 193.48 260.97 193.48 326.9 C193.48 377.86 172.12 408.5 134.34 412 C165.73 416.91 183.49 447.82 183.49 502.27 C183.49 559.46 159.5 587.8 111.09 587.8 C89.47 587.8 70.78 583 54.48 573.3 L58.18 557.14 C73.73 566.96 90.75 571.84 109.56 571.84 C148.99 571.84 166.68 549.39 166.68 500.33 C166.68 444.77 148.28 418.86 107.68 418.86 L81.85 418.86 L81.85 404.16 L108.07 404.16 C154.85 404.16 176.03 380.01 176.03 328.21 C176.03 270.71 153.62 244.31 103.72 244.31 C82.43 244.31 63.88 248.56 47.72 257.07 L44.42 240.38 C62.59 232.27 82.59 228.25 105 228.25 L105 228.25 Z M455.28 1.52588e-05 L471.3 1.52588e-05 L471.3 76.83 L501.5 76.83 L501.5 92.45 L471.3 92.45 L471.3 349.59 L456.32 349.59 L331.07 91.1 L331.07 76.83 L455.28 76.83 L455.28 1.52588e-05 Z M347.89 92.45 L455.6 314.58 L455.6 92.45 L347.89 92.45 Z " />
<glyph glyph-name="questiondown" unicode="&#xbf;" horiz-adv-x="255" d="M149.83 537 C165.73 537 172.03 544.3 172.03 564.5 C172.03 584.69 165.76 592 149.96 592 C134.07 592 127.76 584.66 127.76 564.38 C127.76 544.27 134.03 537 149.83 537 L149.83 537 Z M138.33 -8.02 C171.04 -8.02 199.86 0.75 226.97 18.95 L222.46 37.22 C197.61 18.52 170.82 9.46001 140.08 9.46001 C84.65 9.46001 59.13 42.07 59.13 111.38 C59.13 167.59 83.86 201.59 113.31 240.71 C143.33 280.16 175.69 320.66 175.69 390.17 C175.69 415.74 169.76 434.89 169.76 434.89 L153.85 431.57 C153.85 431.57 158.77 413.26 158.77 390.24 C158.77 328.25 130 289.97 99.79 251.09 C69.7 212.54 39.65 173.2 39.65 110.18 C39.65 31.65 73.19 -8.02002 138.33 -8.02002 L138.33 -8.02 Z " />
<glyph glyph-name="Agrave" unicode="&#xc0;" horiz-adv-x="448" d="M250 788.71 L136.45 886.98 L127.48 869.21 L243.76 776.32 L250 788.71 Z M391.58 0 L414.21 0 L232.81 730.02 L215.62 730.02 L34.09 0 L56.36 0 L107.85 209.47 L340.15 209.47 L391.58 0 Z M112.46 228.25 L224.06 682.28 L335.54 228.25 L112.46 228.25 Z " />
<glyph glyph-name="Aacute" unicode="&#xc1;" horiz-adv-x="448" d="M320.94 869.21 L311.97 886.98 L198.42 788.71 L204.67 776.32 L320.94 869.21 Z M391.59 0 L414.22 0 L232.82 730.02 L215.63 730.02 L34.1 0 L56.37 0 L107.86 209.47 L340.16 209.47 L391.59 0 Z M112.47 228.25 L224.07 682.28 L335.55 228.25 L112.47 228.25 Z " />
<glyph glyph-name="Acircumflex" unicode="&#xc2;" horiz-adv-x="448" d="M224.19 874.15 L300.1 769.44 L323.17 769.44 L233.98 887.35 L214.4 887.35 L125.22 769.44 L148.28 769.44 L224.19 874.15 Z M391.59 -1.52588e-05 L414.22 -1.52588e-05 L232.82 730.02 L215.63 730.02 L34.1 -1.52588e-05 L56.37 -1.52588e-05 L107.86 209.47 L340.16 209.47 L391.59 -1.52588e-05 Z M112.47 228.25 L224.07 682.28 L335.55 228.25 L112.47 228.25 Z " />
<glyph glyph-name="Atilde" unicode="&#xc3;" horiz-adv-x="448" d="M172.77 883.8 C212.95 883.8 230.06 825.8 275.64 825.8 C304.08 825.8 324.95 844.69 338.61 883 L324.6 889.94 C314.94 859.43 298.78 844.19 275.48 844.19 C236.11 844.19 219.13 902.19 172.65 902.19 C141.28 902.19 119.67 882.35 107.43 842.1 L121.58 836.13 C131.5 867.93 148.39 883.8 172.77 883.8 L172.77 883.8 Z M391.59 0 L414.22 0 L232.82 730.02 L215.63 730.02 L34.1 0 L56.37 0 L107.86 209.47 L340.16 209.47 L391.59 0 Z M112.47 228.25 L224.07 682.28 L335.55 228.25 L112.47 228.25 Z " />
<glyph glyph-name="Adieresis" unicode="&#xc4;" horiz-adv-x="448" d="M172.78 787.21 C188.73 787.21 195.04 794.92 195.04 816.23 C195.04 837.49 188.76 845.19 172.87 845.19 C156.92 845.19 150.61 837.49 150.61 816.2 C150.61 794.91 156.89 787.21 172.78 787.21 L172.78 787.21 Z M273.99 787.21 C289.94 787.21 296.26 794.92 296.26 816.23 C296.26 837.49 289.97 845.19 274.08 845.19 C258.13 845.19 251.82 837.49 251.82 816.2 C251.82 794.91 258.11 787.21 273.99 787.21 L273.99 787.21 Z M391.59 3.05176e-05 L414.22 3.05176e-05 L232.82 730.02 L215.63 730.02 L34.1 3.05176e-05 L56.37 3.05176e-05 L107.86 209.47 L340.16 209.47 L391.59 3.05176e-05 Z M112.47 228.25 L224.07 682.28 L335.55 228.25 L112.47 228.25 Z " />
<glyph glyph-name="Aring" unicode="&#xc5;" horiz-adv-x="448" d="M391.59 0 L414.22 0 L234.86 721.81 C270.74 727.66 291.03 762.74 291.03 820.12 C291.03 881.22 266.88 916.22 224.75 916.22 C182 916.22 157.5 880.65 157.5 818.57 C157.5 761.7 177.76 727.08 213.56 721.67 L34.1 -0.00997925 L56.37 -0.00997925 L107.72 209.46 L340.29 209.46 L391.59 0 Z M172.31 818.57 C172.31 871.15 190.51 899.83 224.63 899.83 C258.27 899.83 276.21 871.6 276.21 819.84 C276.21 766.45 258.01 737.31 223.89 737.31 C190.26 737.31 172.31 766 172.31 818.57 L172.31 818.57 Z M112.32 228.24 L224.07 684.05 L335.7 228.24 L112.32 228.24 Z " />
<glyph glyph-name="AE" unicode="&#xc6;" horiz-adv-x="661" d="M370.55 18.96 L370.55 360.75 L589.42 360.75 L589.42 379.51 L370.55 379.51 L370.55 711.18 L609 711.18 L609 730 L343.09 730 L34.1 0 L58.09 0 L145.9 209.47 L349.69 209.47 L349.69 0 L615.65 0 L615.65 18.96 L370.55 18.96 Z M349.69 228.25 L153.77 228.25 L349.69 695.59 L349.69 228.25 Z " />
<glyph glyph-name="Ccedilla" unicode="&#xc7;" horiz-adv-x="403" d="M252.4 -50.81 L257.05 -9.98999 C296.82 -9.56 331.69 1.82001 356.96 21.66 L352.75 41.85 C329.6 20.29 296.6 9.12001 255.31 9.12001 C134.04 9.12001 79.41 120.37 79.41 363.04 C79.41 608.55 134.07 721.13 257.11 721.13 C289.88 721.13 319.8 709.88 342.91 688.25 L347.78 708.11 C322.72 728.59 290.91 740.18 256.47 740.18 C123.83 740.18 58.2 615.19 58.2 363.04 C58.2 122.01 119.03 -1.56001 241.69 -9.58002 L235.03 -65.98 L246.39 -65.98 C286.47 -65.98 304.97 -86.53 304.97 -129.49 C304.97 -175.4 288.29 -197.41 252.94 -197.41 C231.14 -197.41 212.57 -191.29 196.9 -178.94 L193.62 -197.49 C210.74 -209.04 230.55 -214.76 253.41 -214.76 C299.07 -214.76 321.7 -186.61 321.7 -129.81 C321.7 -76.99 298.74 -50.81 252.41 -50.81 L252.4 -50.81 Z " />
<glyph glyph-name="Egrave" unicode="&#xc8;" horiz-adv-x="399" d="M239.51 788.71 L125.96 886.98 L116.99 869.21 L233.26 776.32 L239.51 788.71 Z M101.29 18.96 L101.29 360.75 L326.68 360.75 L326.68 379.51 L101.29 379.51 L101.29 711.18 L346.27 711.18 L346.27 730 L80.41 730 L80.41 0 L352.91 0 L352.91 18.96 L101.29 18.96 Z " />
<glyph glyph-name="Eacute" unicode="&#xc9;" horiz-adv-x="399" d="M310.43 869.21 L301.46 886.98 L187.91 788.71 L194.16 776.32 L310.43 869.21 Z M101.29 18.96 L101.29 360.75 L326.68 360.75 L326.68 379.51 L101.29 379.51 L101.29 711.18 L346.27 711.18 L346.27 730 L80.41 730 L80.41 0 L352.91 0 L352.91 18.96 L101.29 18.96 Z " />
<glyph glyph-name="Ecircumflex" unicode="&#xca;" horiz-adv-x="399" d="M213.69 874.15 L289.6 769.44 L312.66 769.44 L223.48 887.35 L203.9 887.35 L114.71 769.44 L137.78 769.44 L213.69 874.15 Z M101.29 18.96 L101.29 360.75 L326.68 360.75 L326.68 379.51 L101.29 379.51 L101.29 711.18 L346.27 711.18 L346.27 730 L80.41 730 L80.41 -1.52588e-05 L352.91 -1.52588e-05 L352.91 18.96 L101.29 18.96 Z " />
<glyph glyph-name="Edieresis" unicode="&#xcb;" horiz-adv-x="399" d="M162.27 787.21 C178.22 787.21 184.54 794.92 184.54 816.23 C184.54 837.49 178.25 845.19 162.36 845.19 C146.41 845.19 140.1 837.49 140.1 816.2 C140.1 794.91 146.39 787.21 162.27 787.21 L162.27 787.21 Z M263.49 787.21 C279.44 787.21 285.75 794.92 285.75 816.23 C285.75 837.49 279.46 845.19 263.58 845.19 C247.62 845.19 241.31 837.49 241.31 816.2 C241.31 794.91 247.6 787.21 263.49 787.21 L263.49 787.21 Z M101.29 18.96 L101.29 360.75 L326.68 360.75 L326.68 379.51 L101.29 379.51 L101.29 711.18 L346.27 711.18 L346.27 730 L80.41 730 L80.41 3.05176e-05 L352.91 3.05176e-05 L352.91 18.96 L101.29 18.96 Z " />
<glyph glyph-name="Igrave" unicode="&#xcc;" horiz-adv-x="182" d="M110.71 776.32 L116.95 788.71 L3.40001 886.98 L-5.56999 869.21 L110.71 776.32 Z M80.5 0 L101.82 0 L101.82 730 L80.5 730 L80.5 0 Z " />
<glyph glyph-name="Iacute" unicode="&#xcd;" horiz-adv-x="182" d="M71.34 776.32 L187.61 869.21 L178.65 886.98 L65.1 788.71 L71.34 776.32 Z M80.23 0 L101.55 0 L101.55 730 L80.23 730 L80.23 0 Z " />
<glyph glyph-name="Icircumflex" unicode="&#xce;" horiz-adv-x="182" d="M-8.14 769.44 L14.92 769.44 L90.83 874.15 L166.74 769.44 L189.81 769.44 L100.62 887.35 L81.04 887.35 L-8.14 769.44 Z M80.19 0 L101.51 0 L101.51 730 L80.19 730 L80.19 0 Z " />
<glyph glyph-name="Idieresis" unicode="&#xcf;" horiz-adv-x="181" d="M38.89 787.21 C54.84 787.21 61.15 794.92 61.15 816.23 C61.15 837.49 54.87 845.19 38.98 845.19 C23.03 845.19 16.72 837.49 16.72 816.2 C16.72 794.91 23 787.21 38.89 787.21 L38.89 787.21 Z M140.1 787.21 C156.05 787.21 162.37 794.92 162.37 816.23 C162.37 837.49 156.08 845.19 140.19 845.19 C124.24 845.19 117.93 837.49 117.93 816.2 C117.93 794.91 124.22 787.21 140.1 787.21 L140.1 787.21 Z M79.66 3.05176e-05 L100.98 3.05176e-05 L100.98 730 L79.66 730 L79.66 3.05176e-05 Z " />
<glyph glyph-name="Eth" unicode="&#xd0;" horiz-adv-x="476" d="M225.61 730 L93.36 730 L93.36 377.64 L25.55 377.64 L25.55 360.36 L93.36 360.36 L93.36 0 L225.61 0 C354.44 0 418.3 120.32 418.3 363.04 C418.3 608.38 354.44 730 225.61 730 L225.61 730 Z M225.61 18.95 L114.25 18.95 L114.25 360.36 L222.88 360.36 L222.88 377.64 L114.25 377.64 L114.25 711.12 L225.61 711.12 C343.22 711.12 397.09 599.96 397.09 363.04 C397.09 128.85 343.22 18.95 225.61 18.95 L225.61 18.95 Z " />
<glyph glyph-name="Ntilde" unicode="&#xd1;" horiz-adv-x="471" d="M287.05 825.8 C315.5 825.8 336.37 844.69 350.02 883 L336.02 889.94 C326.35 859.43 310.19 844.19 286.9 844.19 C247.52 844.19 230.54 902.19 184.06 902.19 C152.7 902.19 131.08 882.35 118.84 842.1 L133 836.13 C142.91 867.93 159.8 883.8 184.18 883.8 C224.36 883.8 241.47 825.8 287.05 825.8 L287.05 825.8 Z M73.63 0 L93.42 0 L93.42 675.63 L380 0 L397.63 0 L397.63 730 L377.9 730 L377.9 54.37 L91.38 730 L73.63 730 L73.63 0 Z " />
<glyph glyph-name="Ograve" unicode="&#xd2;" horiz-adv-x="478" d="M258.52 776.32 L264.76 788.71 L151.21 886.98 L142.24 869.21 L258.52 776.32 Z M238.97 -10 C359.82 -10 419.74 113.63 419.74 363.04 C419.74 615.06 359.82 740 238.97 740 C118.11 740 58.19 615.06 58.19 363.04 C58.19 113.63 118.11 -10 238.97 -10 L238.97 -10 Z M238.97 9.33 C129.49 9.33 79.42 122.32 79.42 363.04 C79.42 606.48 129.49 720.74 238.97 720.74 C348.44 720.74 398.51 606.48 398.51 363.04 C398.51 122.32 348.44 9.33 238.97 9.33 L238.97 9.33 Z " />
<glyph glyph-name="Oacute" unicode="&#xd3;" horiz-adv-x="478" d="M219.41 776.32 L335.69 869.21 L326.72 886.98 L213.17 788.71 L219.41 776.32 Z M238.97 -10 C359.82 -10 419.74 113.63 419.74 363.04 C419.74 615.06 359.82 740 238.97 740 C118.11 740 58.19 615.06 58.19 363.04 C58.19 113.63 118.11 -10 238.97 -10 L238.97 -10 Z M238.97 9.33 C129.49 9.33 79.42 122.32 79.42 363.04 C79.42 606.48 129.49 720.74 238.97 720.74 C348.44 720.74 398.51 606.48 398.51 363.04 C398.51 122.32 348.44 9.33 238.97 9.33 L238.97 9.33 Z " />
<glyph glyph-name="Ocircumflex" unicode="&#xd4;" horiz-adv-x="478" d="M139.97 769.44 L163.03 769.44 L238.95 874.15 L314.85 769.44 L337.92 769.44 L248.73 887.35 L229.15 887.35 L139.97 769.44 Z M238.97 -10 C359.82 -10 419.74 113.63 419.74 363.04 C419.74 615.06 359.82 740 238.97 740 C118.11 740 58.19 615.06 58.19 363.04 C58.19 113.63 118.11 -10 238.97 -10 L238.97 -10 Z M238.97 9.33 C129.49 9.33 79.42 122.32 79.42 363.04 C79.42 606.48 129.49 720.74 238.97 720.74 C348.44 720.74 398.51 606.48 398.51 363.04 C398.51 122.32 348.44 9.33 238.97 9.33 L238.97 9.33 Z " />
<glyph glyph-name="Otilde" unicode="&#xd5;" horiz-adv-x="478" d="M290.39 825.8 C318.83 825.8 339.7 844.69 353.36 883 L339.35 889.94 C329.69 859.43 313.53 844.19 290.23 844.19 C250.85 844.19 233.88 902.19 187.4 902.19 C156.03 902.19 134.42 882.35 122.18 842.1 L136.33 836.13 C146.25 867.93 163.14 883.8 187.52 883.8 C227.69 883.8 244.81 825.8 290.39 825.8 L290.39 825.8 Z M238.97 -10 C359.82 -10 419.74 113.63 419.74 363.04 C419.74 615.06 359.82 740 238.97 740 C118.11 740 58.19 615.06 58.19 363.04 C58.19 113.63 118.11 -10 238.97 -10 L238.97 -10 Z M238.97 9.33 C129.49 9.33 79.42 122.32 79.42 363.04 C79.42 606.48 129.49 720.74 238.97 720.74 C348.44 720.74 398.51 606.48 398.51 363.04 C398.51 122.32 348.44 9.33 238.97 9.33 L238.97 9.33 Z " />
<glyph glyph-name="Odieresis" unicode="&#xd6;" horiz-adv-x="478" d="M187.53 787.21 C203.48 787.21 209.79 794.92 209.79 816.23 C209.79 837.49 203.51 845.19 187.62 845.19 C171.67 845.19 165.36 837.49 165.36 816.2 C165.36 794.91 171.64 787.21 187.53 787.21 L187.53 787.21 Z M288.74 787.21 C304.7 787.21 311.01 794.92 311.01 816.23 C311.01 837.49 304.72 845.19 288.83 845.19 C272.88 845.19 266.57 837.49 266.57 816.2 C266.57 794.91 272.86 787.21 288.74 787.21 L288.74 787.21 Z M238.97 -9.99997 C359.82 -9.99997 419.74 113.63 419.74 363.04 C419.74 615.06 359.82 740 238.97 740 C118.11 740 58.19 615.06 58.19 363.04 C58.19 113.63 118.11 -9.99997 238.97 -9.99997 L238.97 -9.99997 Z M238.97 9.33003 C129.49 9.33003 79.42 122.32 79.42 363.04 C79.42 606.48 129.49 720.74 238.97 720.74 C348.44 720.74 398.51 606.48 398.51 363.04 C398.51 122.32 348.44 9.33003 238.97 9.33003 L238.97 9.33003 Z " />
<glyph glyph-name="multiply" unicode="&#xd7;" horiz-adv-x="296" d="M242.71 210.63 L158.57 338.03 L242.67 465.37 L230.27 478.91 L147.9 354.19 L65.52 478.91 L53.08 465.37 L137.2 338 L53.08 210.63 L65.48 197.08 L147.88 321.84 L230.27 197.08 L242.71 210.63 Z " />
<glyph glyph-name="Oslash" unicode="&#xd8;" horiz-adv-x="478" d="M355.49 678.93 L391.8 783.35 L379.17 790 L345.15 692.13 C317.49 724.08 282.11 740 238.97 740 C118.11 740 58.19 615.06 58.19 363.04 C58.19 214.51 79.44 110.59 122.15 50.82 L85.99 -53.17 L98.56 -60 L132.52 37.67 C160.22 5.84996 195.68 -10 238.97 -10 C359.82 -10 419.74 113.63 419.74 363.04 C419.74 513.45 398.39 618.6 355.49 678.93 L355.49 678.93 Z M79.42 363.04 C79.42 606.48 129.49 720.74 238.97 720.74 C280.21 720.74 313.02 704.52 337.9 671.29 L129.94 73.21 C95.69 130.15 79.42 225.85 79.42 363.04 L79.42 363.04 Z M238.97 9.32996 C197.59 9.32996 164.69 25.4799 139.78 58.56 L347.72 656.59 C382.16 599.06 398.51 502.14 398.51 363.04 C398.51 122.32 348.44 9.32994 238.97 9.32994 L238.97 9.32996 Z " />
<glyph glyph-name="Ugrave" unicode="&#xd9;" horiz-adv-x="467" d="M256.14 776.32 L262.39 788.71 L148.84 886.98 L139.87 869.21 L256.14 776.32 Z M236.68 -10 C341.38 -10 393.28 72.74 393.28 239.66 L393.28 730 L372.61 730 L372.61 239.71 C372.61 83.18 329.81 9.53001 236.68 9.53001 C143.92 9.53001 101.29 83.18 101.29 239.71 L101.29 730 L80.41 730 L80.41 239.66 C80.41 72.74 132.2 -10 236.68 -10 L236.68 -10 Z " />
<glyph glyph-name="Uacute" unicode="&#xda;" horiz-adv-x="467" d="M217.04 776.32 L333.31 869.21 L324.34 886.98 L210.79 788.71 L217.04 776.32 Z M236.68 -10 C341.38 -10 393.28 72.74 393.28 239.66 L393.28 730 L372.61 730 L372.61 239.71 C372.61 83.18 329.81 9.53001 236.68 9.53001 C143.92 9.53001 101.29 83.18 101.29 239.71 L101.29 730 L80.41 730 L80.41 239.66 C80.41 72.74 132.2 -10 236.68 -10 L236.68 -10 Z " />
<glyph glyph-name="Ucircumflex" unicode="&#xdb;" horiz-adv-x="467" d="M137.59 769.44 L160.66 769.44 L236.57 874.15 L312.48 769.44 L335.55 769.44 L246.36 887.35 L226.78 887.35 L137.59 769.44 Z M236.68 -10 C341.38 -10 393.28 72.74 393.28 239.66 L393.28 730 L372.61 730 L372.61 239.71 C372.61 83.18 329.81 9.53001 236.68 9.53001 C143.92 9.53001 101.29 83.18 101.29 239.71 L101.29 730 L80.41 730 L80.41 239.66 C80.41 72.74 132.2 -10 236.68 -10 L236.68 -10 Z " />
<glyph glyph-name="Udieresis" unicode="&#xdc;" horiz-adv-x="467" d="M185.15 787.21 C201.11 787.21 207.42 794.92 207.42 816.23 C207.42 837.49 201.13 845.19 185.24 845.19 C169.29 845.19 162.98 837.49 162.98 816.2 C162.98 794.91 169.27 787.21 185.15 787.21 L185.15 787.21 Z M286.37 787.21 C302.32 787.21 308.63 794.92 308.63 816.23 C308.63 837.49 302.34 845.19 286.46 845.19 C270.5 845.19 264.19 837.49 264.19 816.2 C264.19 794.91 270.48 787.21 286.37 787.21 L286.37 787.21 Z M236.68 -9.99997 C341.38 -9.99997 393.28 72.74 393.28 239.66 L393.28 730 L372.61 730 L372.61 239.71 C372.61 83.18 329.81 9.53004 236.68 9.53004 C143.92 9.53004 101.29 83.18 101.29 239.71 L101.29 730 L80.41 730 L80.41 239.66 C80.41 72.74 132.2 -9.99997 236.68 -9.99997 L236.68 -9.99997 Z " />
<glyph glyph-name="Yacute" unicode="&#xdd;" horiz-adv-x="404" d="M183.05 776.32 L299.32 869.21 L290.35 886.98 L176.8 788.71 L183.05 776.32 Z M192.22 0 L212.1 0 L212.07 291.44 L374.77 730 L352.36 730 L202.4 318.72 L52.44 730 L29.21 730 L192.25 292.07 L192.22 0 Z " />
<glyph glyph-name="Thorn" unicode="&#xde;" horiz-adv-x="417" d="M225.6 578.46 L101.29 578.46 L101.29 730 L80.41 730 L80.41 0 L101.29 0 L101.29 166.49 L224.4 166.49 C314.02 166.49 358.44 234.27 358.44 371 C358.44 509.7 314.41 578.46 225.6 578.46 L225.6 578.46 Z M223.15 185.32 L101.29 185.32 L101.29 559.7 L224.34 559.7 C302.06 559.7 338.01 499.26 338.01 371 C338.01 244.81 301.68 185.32 223.15 185.32 L223.15 185.32 Z " />
<glyph glyph-name="germandbls" unicode="&#xdf;" horiz-adv-x="351" d="M199.94 -8 C275.95 -8 313.63 46.44 313.63 156.27 C313.63 312.99 199.05 324.76 199.05 324.76 L288.85 569.76 L288.85 583.99 L169.3 583.99 C100.48 583.99 66.41 536.17 66.41 439.7 L66.41 -0.0100098 L85.96 -0.0100098 L85.96 439.98 C85.96 525.16 112.8 565.93 169.49 565.93 L268.15 565.93 L181.46 326.48 L181.46 312.1 C181.46 312.1 293.27 304.73 293.27 156.6 C293.27 56.66 262.93 10.1 197.44 10.1 C165.96 10.1 140.85 18.1 121.68 34.23 L118.17 15.09 C139.82 -0.350006 167.3 -8.01001 199.94 -8.01001 L199.94 -8 Z " />
<glyph glyph-name="agrave" unicode="&#xe0;" horiz-adv-x="377" d="M226.93 667.93 L126.52 794.56 L114.86 778.77 L218.81 656.91 L226.93 667.93 Z M327.48 0 L349.72 0 L197.76 584.02 L180.19 584.02 L28.1 0 L49.96 0 L92.43 165.74 L285.04 165.74 L327.48 0 Z M96.96 183.4 L188.78 541.71 L280.52 183.4 L96.96 183.4 Z " />
<glyph glyph-name="aacute" unicode="&#xe1;" horiz-adv-x="377" d="M262.41 779.77 L250.75 795.56 L150.34 668.93 L158.47 657.91 L262.41 779.77 Z M327.47 -1.52588e-05 L349.71 -1.52588e-05 L197.75 584.02 L180.18 584.02 L28.09 -1.52588e-05 L49.95 -1.52588e-05 L92.42 165.74 L285.03 165.74 L327.47 -1.52588e-05 Z M96.95 183.4 L188.77 541.71 L280.51 183.4 L96.95 183.4 Z " />
<glyph glyph-name="acircumflex" unicode="&#xe2;" horiz-adv-x="377" d="M188.95 766.1 L253.82 656.06 L276.23 656.06 L198.69 779.93 L179.2 779.93 L101.66 656.06 L124.08 656.06 L188.95 766.1 Z M327.48 1.52588e-05 L349.72 1.52588e-05 L197.76 584.02 L180.19 584.02 L28.1 1.52588e-05 L49.96 1.52588e-05 L92.43 165.74 L285.04 165.74 L327.48 1.52588e-05 Z M96.96 183.4 L188.78 541.71 L280.52 183.4 L96.96 183.4 Z " />
<glyph glyph-name="atilde" unicode="&#xe3;" horiz-adv-x="377" d="M144.13 737.8 C178.98 737.8 194.02 679.8 233.93 679.8 C259.26 679.8 277.73 698.69 289.67 737 L276.21 743.94 C267.87 713.43 253.93 698.19 233.75 698.19 C199.6 698.19 184.72 756.19 143.99 756.19 C116.11 756.19 96.99 736.35 86.29 696.1 L99.92 690.13 C108.49 721.93 123.05 737.8 144.13 737.8 L144.13 737.8 Z M327.48 0 L349.72 0 L197.76 584.02 L180.19 584.02 L28.1 0 L49.96 0 L92.43 165.74 L285.04 165.74 L327.48 0 Z M96.96 183.4 L188.78 541.71 L280.52 183.4 L96.96 183.4 Z " />
<glyph glyph-name="adieresis" unicode="&#xe4;" horiz-adv-x="377" d="M141.38 690.11 C157.33 690.11 163.64 697.82 163.64 719.13 C163.64 740.4 157.36 748.09 141.47 748.09 C125.52 748.09 119.21 740.39 119.21 719.1 C119.21 697.82 125.5 690.11 141.38 690.11 L141.38 690.11 Z M236.42 690.11 C252.37 690.11 258.68 697.82 258.68 719.13 C258.68 740.4 252.4 748.09 236.51 748.09 C220.56 748.09 214.25 740.39 214.25 719.1 C214.25 697.82 220.53 690.11 236.42 690.11 L236.42 690.11 Z M327.48 3.05176e-05 L349.72 3.05176e-05 L197.76 584.02 L180.19 584.02 L28.1 3.05176e-05 L49.96 3.05176e-05 L92.43 165.74 L285.04 165.74 L327.48 3.05176e-05 Z M96.96 183.4 L188.78 541.71 L280.52 183.4 L96.96 183.4 Z " />
<glyph glyph-name="aring" unicode="&#xe5;" horiz-adv-x="377" d="M327.48 0 L349.72 0 L200.74 572.58 C235.91 578.97 255.78 613.92 255.78 670.69 C255.78 731.79 231.64 766.79 189.51 766.79 C146.75 766.79 122.25 731.22 122.25 669.15 C122.25 612.88 142.09 578.39 177.17 572.43 L28.1 -0.010025 L49.96 -0.010025 L92.43 165.73 L285.04 165.73 L327.48 0 Z M137.07 669.15 C137.07 721.72 155.27 750.41 189.38 750.41 C223.02 750.41 240.96 722.17 240.96 670.42 C240.96 617.02 222.76 587.88 188.64 587.88 C155.01 587.88 137.07 616.57 137.07 669.15 L137.07 669.15 Z M96.96 183.39 L188.78 541.7 L280.52 183.39 L96.96 183.39 Z " />
<glyph glyph-name="ae" unicode="&#xe6;" horiz-adv-x="556" d="M314.27 18.09 L314.27 287.22 L496.71 287.22 L496.71 305.05 L314.27 305.05 L314.27 566.06 L513.16 566.06 L513.16 584 L286.94 584 L28.1 0 L51.66 0 L124.44 165.74 L293.77 165.74 L293.77 0 L518.77 0 L518.77 18.09 L314.27 18.09 Z M293.77 183.4 L132.2 183.4 L293.77 551.34 L293.77 183.4 Z " />
<glyph glyph-name="ccedilla" unicode="&#xe7;" horiz-adv-x="338" d="M212.17 -50.81 L217.05 -7.98 C250.19 -7.48999 279.24 1.54001 300.51 17.26 L296.45 36.48 C277.05 19.24 249.45 10.32 214.95 10.32 C114.1 10.32 69.03 97.44 69.03 290.44 C69.03 485.75 114.13 573.91 216.45 573.91 C243.84 573.91 268.81 565 288.17 547.85 L292.78 566.75 C271.56 582.99 244.72 592.15 215.61 592.15 C103.61 592.15 48.19 492.15 48.19 290.44 C48.19 98.54 99.08 -0.289993 201.69 -7.56999 L194.79 -65.98 L206.15 -65.98 C246.23 -65.98 264.73 -86.53 264.73 -129.49 C264.73 -175.4 248.05 -197.41 212.7 -197.41 C190.9 -197.41 172.33 -191.29 156.66 -178.94 L153.38 -197.49 C170.5 -209.04 190.31 -214.76 213.17 -214.76 C258.83 -214.76 281.46 -186.61 281.46 -129.81 C281.46 -76.99 258.5 -50.81 212.17 -50.81 L212.17 -50.81 Z " />
<glyph glyph-name="egrave" unicode="&#xe8;" horiz-adv-x="335" d="M217.12 667.93 L116.71 794.56 L105.05 778.77 L208.99 656.91 L217.12 667.93 Z M86.93 18.09 L86.93 287.25 L274.84 287.25 L274.84 305.03 L86.93 305.03 L86.93 566.06 L291.29 566.06 L291.29 584 L66.41 584 L66.41 0 L296.9 0 L296.9 18.09 L86.93 18.09 Z " />
<glyph glyph-name="eacute" unicode="&#xe9;" horiz-adv-x="335" d="M252.59 779.77 L240.94 795.56 L140.53 668.93 L148.65 657.91 L252.59 779.77 Z M86.93 18.09 L86.93 287.25 L274.84 287.25 L274.84 305.03 L86.93 305.03 L86.93 566.06 L291.29 566.06 L291.29 584 L66.41 584 L66.41 -1.52588e-05 L296.9 -1.52588e-05 L296.9 18.09 L86.93 18.09 Z " />
<glyph glyph-name="ecircumflex" unicode="&#xea;" horiz-adv-x="335" d="M179.13 766.1 L244 656.06 L266.42 656.06 L188.88 779.93 L169.39 779.93 L91.85 656.06 L114.26 656.06 L179.13 766.1 Z M86.93 18.09 L86.93 287.25 L274.84 287.25 L274.84 305.03 L86.93 305.03 L86.93 566.06 L291.29 566.06 L291.29 584 L66.41 584 L66.41 1.52588e-05 L296.9 1.52588e-05 L296.9 18.09 L86.93 18.09 Z " />
<glyph glyph-name="edieresis" unicode="&#xeb;" horiz-adv-x="335" d="M131.57 690.11 C147.52 690.11 153.83 697.82 153.83 719.13 C153.83 740.4 147.55 748.09 131.66 748.09 C115.71 748.09 109.4 740.39 109.4 719.1 C109.4 697.82 115.68 690.11 131.57 690.11 L131.57 690.11 Z M226.61 690.11 C242.56 690.11 248.87 697.82 248.87 719.13 C248.87 740.4 242.58 748.09 226.7 748.09 C210.74 748.09 204.43 740.39 204.43 719.1 C204.43 697.82 210.72 690.11 226.61 690.11 L226.61 690.11 Z M86.93 18.09 L86.93 287.25 L274.84 287.25 L274.84 305.03 L86.93 305.03 L86.93 566.06 L291.29 566.06 L291.29 584 L66.41 584 L66.41 3.05176e-05 L296.9 3.05176e-05 L296.9 18.09 L86.93 18.09 Z " />
<glyph glyph-name="igrave" unicode="&#xec;" horiz-adv-x="154" d="M106.73 656.91 L114.85 667.93 L14.44 794.56 L2.78999 778.77 L106.73 656.91 Z M66.41 1.52588e-05 L87.37 1.52588e-05 L87.37 584 L66.41 584 L66.41 1.52588e-05 Z " />
<glyph glyph-name="iacute" unicode="&#xed;" horiz-adv-x="154" d="M46.39 657.91 L150.33 779.77 L138.67 795.56 L38.26 668.93 L46.39 657.91 Z M66.41 0 L87.37 0 L87.37 584 L66.41 584 L66.41 0 Z " />
<glyph glyph-name="icircumflex" unicode="&#xee;" horiz-adv-x="154" d="M67.12 779.93 L-10.42 656.06 L12 656.06 L76.87 766.1 L141.74 656.06 L164.15 656.06 L86.61 779.93 L67.12 779.93 Z M66.41 0 L87.37 0 L87.37 584 L66.41 584 L66.41 0 Z " />
<glyph glyph-name="idieresis" unicode="&#xef;" horiz-adv-x="154" d="M29.3 690.11 C45.25 690.11 51.57 697.82 51.57 719.13 C51.57 740.4 45.28 748.09 29.39 748.09 C13.44 748.09 7.13002 740.39 7.13002 719.1 C7.13002 697.82 13.42 690.11 29.3 690.11 L29.3 690.11 Z M124.34 690.11 C140.29 690.11 146.6 697.82 146.6 719.13 C146.6 740.4 140.32 748.09 124.43 748.09 C108.48 748.09 102.17 740.39 102.17 719.1 C102.17 697.82 108.45 690.11 124.34 690.11 L124.34 690.11 Z M66.41 3.05176e-05 L87.37 3.05176e-05 L87.37 584 L66.41 584 L66.41 3.05176e-05 Z " />
<glyph glyph-name="eth" unicode="&#xf0;" horiz-adv-x="401" d="M190.32 584 L77.69 584 L77.69 303.54 L21.43 303.54 L21.43 286.86 L77.69 286.86 L77.69 0 L190.32 0 C299.07 0 352.99 96.26 352.99 290.44 C352.99 486.71 299.07 584 190.32 584 L190.32 584 Z M190.32 18.04 L98.22 18.04 L98.22 286.86 L188.68 286.86 L188.68 303.54 L98.22 303.54 L98.22 566.05 L190.32 566.05 C287.83 566.05 332.14 479.01 332.14 290.44 C332.14 104.08 287.83 18.04 190.32 18.04 L190.32 18.04 Z " />
<glyph glyph-name="ntilde" unicode="&#xf1;" horiz-adv-x="396" d="M242.97 679.8 C268.29 679.8 286.77 698.69 298.71 737 L285.25 743.94 C276.91 713.43 262.96 698.19 242.79 698.19 C208.64 698.19 193.76 756.19 153.02 756.19 C125.14 756.19 106.02 736.35 95.33 696.1 L108.96 690.13 C117.52 721.93 132.09 737.8 153.16 737.8 C188.02 737.8 203.06 679.8 242.97 679.8 L242.97 679.8 Z M60.74 0 L80.34 0 L80.34 531.54 L318.13 0 L335.26 0 L335.26 584 L315.72 584 L315.72 52.46 L77.98 584 L60.74 584 L60.74 0 Z " />
<glyph glyph-name="ograve" unicode="&#xf2;" horiz-adv-x="402" d="M230.96 656.91 L239.08 667.93 L138.68 794.56 L127.02 778.77 L230.96 656.91 Z M201.13 -7.99998 C303.37 -7.99998 354.06 90.91 354.06 290.44 C354.06 492.05 303.37 592 201.13 592 C98.88 592 48.19 492.05 48.19 290.44 C48.19 90.91 98.88 -7.99998 201.13 -7.99998 L201.13 -7.99998 Z M201.13 10.6 C110.29 10.6 69.09 99.03 69.09 290.44 C69.09 484.06 110.29 573.49 201.13 573.49 C291.96 573.49 333.16 484.06 333.16 290.44 C333.16 99.03 291.96 10.6 201.13 10.6 L201.13 10.6 Z " />
<glyph glyph-name="oacute" unicode="&#xf3;" horiz-adv-x="402" d="M170.62 657.91 L274.56 779.77 L262.91 795.56 L162.5 668.93 L170.62 657.91 Z M201.13 -8 C303.37 -8 354.06 90.91 354.06 290.44 C354.06 492.05 303.37 592 201.13 592 C98.88 592 48.19 492.05 48.19 290.44 C48.19 90.91 98.88 -8 201.13 -8 L201.13 -8 Z M201.13 10.6 C110.29 10.6 69.09 99.03 69.09 290.44 C69.09 484.06 110.29 573.49 201.13 573.49 C291.96 573.49 333.16 484.06 333.16 290.44 C333.16 99.03 291.96 10.6 201.13 10.6 L201.13 10.6 Z " />
<glyph glyph-name="ocircumflex" unicode="&#xf4;" horiz-adv-x="402" d="M191.36 779.93 L113.82 656.06 L136.23 656.06 L201.1 766.1 L265.97 656.06 L288.39 656.06 L210.85 779.93 L191.36 779.93 Z M201.13 -8 C303.37 -8 354.06 90.91 354.06 290.44 C354.06 492.05 303.37 592 201.13 592 C98.88 592 48.19 492.05 48.19 290.44 C48.19 90.91 98.88 -8 201.13 -8 L201.13 -8 Z M201.13 10.6 C110.29 10.6 69.09 99.03 69.09 290.44 C69.09 484.06 110.29 573.49 201.13 573.49 C291.96 573.49 333.16 484.06 333.16 290.44 C333.16 99.03 291.96 10.6 201.13 10.6 L201.13 10.6 Z " />
<glyph glyph-name="otilde" unicode="&#xf5;" horiz-adv-x="402" d="M246.09 679.8 C271.41 679.8 289.89 698.69 301.83 737 L288.37 743.94 C280.03 713.43 266.08 698.19 245.91 698.19 C211.76 698.19 196.88 756.19 156.14 756.19 C128.27 756.19 109.14 736.35 98.45 696.1 L112.08 690.13 C120.64 721.93 135.21 737.8 156.28 737.8 C191.14 737.8 206.18 679.8 246.09 679.8 L246.09 679.8 Z M201.13 -8 C303.37 -8 354.06 90.91 354.06 290.44 C354.06 492.05 303.37 592 201.13 592 C98.88 592 48.19 492.05 48.19 290.44 C48.19 90.91 98.88 -8 201.13 -8 L201.13 -8 Z M201.13 10.6 C110.29 10.6 69.09 99.03 69.09 290.44 C69.09 484.06 110.29 573.49 201.13 573.49 C291.96 573.49 333.16 484.06 333.16 290.44 C333.16 99.03 291.96 10.6 201.13 10.6 L201.13 10.6 Z " />
<glyph glyph-name="odieresis" unicode="&#xf6;" horiz-adv-x="402" d="M153.54 690.11 C169.49 690.11 175.8 697.82 175.8 719.13 C175.8 740.4 169.52 748.09 153.63 748.09 C137.68 748.09 131.37 740.39 131.37 719.1 C131.37 697.82 137.65 690.11 153.54 690.11 L153.54 690.11 Z M248.58 690.11 C264.53 690.11 270.84 697.82 270.84 719.13 C270.84 740.4 264.55 748.09 248.67 748.09 C232.71 748.09 226.4 740.39 226.4 719.1 C226.4 697.82 232.69 690.11 248.58 690.11 L248.58 690.11 Z M201.13 -7.99997 C303.37 -7.99997 354.06 90.91 354.06 290.44 C354.06 492.05 303.37 592 201.13 592 C98.88 592 48.19 492.05 48.19 290.44 C48.19 90.91 98.88 -7.99997 201.13 -7.99997 L201.13 -7.99997 Z M201.13 10.6 C110.29 10.6 69.09 99.03 69.09 290.44 C69.09 484.06 110.29 573.49 201.13 573.49 C291.96 573.49 333.16 484.06 333.16 290.44 C333.16 99.03 291.96 10.6 201.13 10.6 L201.13 10.6 Z " />
<glyph glyph-name="divide" unicode="&#xf7;" horiz-adv-x="363" d="M187.84 474.27 C205.27 474.27 212.23 482.85 212.23 506.55 C212.23 530.12 205.3 538.65 187.96 538.65 C170.53 538.65 163.57 530.09 163.57 506.46 C163.57 482.82 170.5 474.27 187.84 474.27 L187.84 474.27 Z M53.08 328.75 L309.5 328.75 L309.5 347.24 L53.08 347.24 L53.08 328.75 Z M187.84 148.96 C205.27 148.96 212.23 157.54 212.23 181.24 C212.23 204.81 205.3 213.34 187.96 213.34 C170.53 213.34 163.57 204.79 163.57 181.15 C163.57 157.52 170.5 148.96 187.84 148.96 L187.84 148.96 Z " />
<glyph glyph-name="oslash" unicode="&#xf8;" horiz-adv-x="402" d="M298.25 545.05 L327.68 626.19 L319.03 632 L290.73 553.95 C267.36 579.34 237.51 592 201.13 592 C98.88 592 48.19 492.05 48.19 290.44 C48.19 169.95 66.68 86.15 103.84 38.66 L74.56 -42.05 L83.16 -48 L111.38 29.8 C134.77 4.56999 164.67 -8.00002 201.13 -8.00002 C303.37 -8.00002 354.06 90.91 354.06 290.44 C354.06 412.37 335.52 497.11 298.25 545.05 L298.25 545.05 Z M69.09 290.44 C69.09 484.06 110.29 573.49 201.13 573.49 C235.58 573.49 262.89 560.62 283.52 534.09 L111.49 59.75 C82.69 104.5 69.09 180.47 69.09 290.44 L69.09 290.44 Z M201.13 10.6 C166.6 10.6 139.25 23.38 118.6 49.72 L290.62 524.01 C319.52 478.79 333.16 401.87 333.16 290.44 C333.16 99.03 291.96 10.6 201.13 10.6 L201.13 10.6 Z " />
<glyph glyph-name="ugrave" unicode="&#xf9;" horiz-adv-x="392" d="M228.44 656.91 L236.56 667.93 L136.15 794.56 L124.5 778.77 L228.44 656.91 Z M198.68 -7.99998 C287.27 -7.99998 331.18 58.45 331.18 192.49 L331.18 584 L310.87 584 L310.87 192.51 C310.87 68.37 275.7 10.81 198.68 10.81 C121.95 10.81 86.93 68.37 86.93 192.51 L86.93 584 L66.41 584 L66.41 192.49 C66.41 58.45 110.25 -7.99998 198.68 -7.99998 L198.68 -7.99998 Z " />
<glyph glyph-name="uacute" unicode="&#xfa;" horiz-adv-x="392" d="M168.1 657.91 L272.04 779.77 L260.39 795.56 L159.98 668.93 L168.1 657.91 Z M198.68 -8 C287.27 -8 331.18 58.45 331.18 192.49 L331.18 584 L310.87 584 L310.87 192.51 C310.87 68.37 275.7 10.81 198.68 10.81 C121.95 10.81 86.93 68.37 86.93 192.51 L86.93 584 L66.41 584 L66.41 192.49 C66.41 58.45 110.25 -8 198.68 -8 L198.68 -8 Z " />
<glyph glyph-name="ucircumflex" unicode="&#xfb;" horiz-adv-x="392" d="M188.84 779.93 L111.3 656.06 L133.71 656.06 L198.58 766.1 L263.45 656.06 L285.87 656.06 L208.33 779.93 L188.84 779.93 Z M198.68 -8 C287.27 -8 331.18 58.45 331.18 192.49 L331.18 584 L310.87 584 L310.87 192.51 C310.87 68.37 275.7 10.81 198.68 10.81 C121.95 10.81 86.93 68.37 86.93 192.51 L86.93 584 L66.41 584 L66.41 192.49 C66.41 58.45 110.25 -8 198.68 -8 L198.68 -8 Z " />
<glyph glyph-name="udieresis" unicode="&#xfc;" horiz-adv-x="392" d="M151.02 690.11 C166.97 690.11 173.28 697.82 173.28 719.13 C173.28 740.4 166.99 748.09 151.11 748.09 C135.15 748.09 128.84 740.39 128.84 719.1 C128.84 697.82 135.13 690.11 151.02 690.11 L151.02 690.11 Z M246.05 690.11 C262.01 690.11 268.32 697.82 268.32 719.13 C268.32 740.4 262.03 748.09 246.14 748.09 C230.19 748.09 223.88 740.39 223.88 719.1 C223.88 697.82 230.17 690.11 246.05 690.11 L246.05 690.11 Z M198.68 -7.99997 C287.27 -7.99997 331.18 58.45 331.18 192.49 L331.18 584 L310.87 584 L310.87 192.51 C310.87 68.37 275.7 10.81 198.68 10.81 C121.95 10.81 86.93 68.37 86.93 192.51 L86.93 584 L66.41 584 L66.41 192.49 C66.41 58.45 110.25 -7.99997 198.68 -7.99997 L198.68 -7.99997 Z " />
<glyph glyph-name="yacute" unicode="&#xfd;" horiz-adv-x="341" d="M140.68 657.91 L244.62 779.77 L232.97 795.56 L132.56 668.93 L140.68 657.91 Z M161.02 0 L180.48 0 L180.44 232.67 L317.06 584 L295.11 584 L171 259.17 L46.85 584 L24.21 584 L161.05 233.13 L161.02 0 Z " />
<glyph glyph-name="thorn" unicode="&#xfe;" horiz-adv-x="350" d="M190 463.58 L86.93 463.58 L86.93 584 L66.41 584 L66.41 0 L86.93 0 L86.93 132.36 L189.02 132.36 C264.66 132.36 302.15 186.88 302.15 296.86 C302.15 408.33 264.98 463.58 190 463.58 L190 463.58 Z M187.42 150.27 L86.93 150.27 L86.93 445.75 L188.39 445.75 C252.61 445.75 282.12 398.53 282.12 296.86 C282.12 196.76 252.3 150.27 187.42 150.27 L187.42 150.27 Z " />
<glyph glyph-name="ydieresis" unicode="&#xff;" horiz-adv-x="341" d="M123.6 690.11 C139.55 690.11 145.86 697.82 145.86 719.13 C145.86 740.4 139.57 748.09 123.69 748.09 C107.73 748.09 101.42 740.39 101.42 719.1 C101.42 697.82 107.71 690.11 123.6 690.11 L123.6 690.11 Z M218.63 690.11 C234.59 690.11 240.9 697.82 240.9 719.13 C240.9 740.4 234.61 748.09 218.72 748.09 C202.77 748.09 196.46 740.39 196.46 719.1 C196.46 697.82 202.75 690.11 218.63 690.11 L218.63 690.11 Z M161.02 3.05176e-05 L180.48 3.05176e-05 L180.44 232.67 L317.06 584 L295.11 584 L171 259.17 L46.85 584 L24.21 584 L161.05 233.13 L161.02 3.05176e-05 Z " />
<glyph glyph-name="Amacron" unicode="&#x100;" horiz-adv-x="448" d="M331.49 873.09 L116.94 873.09 L116.94 854.91 L331.49 854.91 L331.49 873.09 Z M391.59 0 L414.22 0 L232.82 730.02 L215.63 730.02 L34.1 0 L56.37 0 L107.86 209.47 L340.16 209.47 L391.59 0 Z M112.47 228.25 L224.07 682.28 L335.55 228.25 L112.47 228.25 Z " />
<glyph glyph-name="amacron" unicode="&#x101;" horiz-adv-x="377" d="M287 727.09 L90.94 727.09 L90.94 708.91 L287 708.91 L287 727.09 Z M327.48 0 L349.72 0 L197.76 584.02 L180.19 584.02 L28.1 0 L49.96 0 L92.43 165.74 L285.04 165.74 L327.48 0 Z M96.96 183.4 L188.78 541.71 L280.52 183.4 L96.96 183.4 Z " />
<glyph glyph-name="Abreve" unicode="&#x102;" horiz-adv-x="448" d="M391.59 0 L414.22 0 L235.36 719.79 C280.65 724.44 306.29 756.34 312.69 815.94 L297.91 815.75 C291.93 762.44 268.37 737.22 223.45 737.22 C179.13 737.22 155.84 762.05 149.89 814.52 L135.11 814.52 C141.57 755.12 167.41 723.63 213.05 719.63 L34.1 -1.52588e-05 L56.37 -1.52588e-05 L107.72 209.47 L340.29 209.47 L391.59 0 Z M112.32 228.25 L224.07 684.06 L335.7 228.25 L112.32 228.25 Z " />
<glyph glyph-name="abreve" unicode="&#x103;" horiz-adv-x="377" d="M327.48 0 L349.72 0 L199.68 576.66 C239.61 581.53 262.17 614.99 267.71 677.49 L253.42 677.29 C248.22 621 228.13 594.3 189.19 594.3 C150.76 594.3 130.9 620.59 125.72 675.99 L111.43 675.99 C116.94 614.59 139.11 581.64 178.28 576.69 L28.1 1.52588e-05 L49.96 1.52588e-05 L92.43 165.74 L285.04 165.74 L327.48 0 Z M96.96 183.4 L188.78 541.71 L280.52 183.4 L96.96 183.4 Z " />
<glyph glyph-name="Aogonek" unicode="&#x104;" horiz-adv-x="448" d="M411.08 -161.48 C400.63 -171.25 388.62 -176.1 375.02 -176.1 C352.48 -176.1 339.7 -156.04 339.7 -120.71 C339.7 -72.8 366.37 -28.89 414.22 0 L232.82 730.02 L215.63 730.02 L34.1 0 L56.37 0 L107.86 209.47 L340.16 209.47 L391.59 0 L393.03 0 C348.55 -28.16 322.49 -72.95 322.49 -122.65 C322.49 -167.6 340.7 -193.36 372.49 -193.36 C387.59 -193.36 402.05 -188.83 416.13 -179.69 L411.08 -161.48 Z M112.47 228.25 L224.07 682.28 L335.55 228.25 L112.47 228.25 Z " />
<glyph glyph-name="aogonek" unicode="&#x105;" horiz-adv-x="377" d="M346.57 -161.48 C336.12 -171.25 324.12 -176.1 310.52 -176.1 C287.98 -176.1 275.2 -156.04 275.2 -120.71 C275.2 -72.8 301.87 -28.89 349.72 0 L197.76 584.02 L180.19 584.02 L28.1 0 L49.96 0 L92.43 165.74 L285.04 165.74 L327.48 0 L328.53 0 C284.05 -28.16 257.99 -72.95 257.99 -122.65 C257.99 -167.6 276.2 -193.36 307.99 -193.36 C323.08 -193.36 337.55 -188.83 351.63 -179.69 L346.57 -161.48 Z M96.96 183.4 L188.78 541.71 L280.52 183.4 L96.96 183.4 Z " />
<glyph glyph-name="Cacute" unicode="&#x106;" horiz-adv-x="403" d="M230.41 776.32 L346.68 869.21 L337.71 886.98 L224.16 788.71 L230.41 776.32 Z M254.7 -10 C295.45 -10 331.19 1.42999 356.96 21.66 L352.75 41.85 C329.6 20.29 296.6 9.12 255.31 9.12 C134.04 9.12 79.41 120.37 79.41 363.04 C79.41 608.55 134.07 721.13 257.11 721.13 C289.88 721.13 319.8 709.88 342.91 688.25 L347.78 708.11 C322.72 728.59 290.91 740.18 256.47 740.18 C123.83 740.18 58.2 615.19 58.2 363.04 C58.2 113.63 123.33 -10 254.71 -10 L254.7 -10 Z " />
<glyph glyph-name="cacute" unicode="&#x107;" horiz-adv-x="338" d="M179.38 657.91 L283.32 779.77 L271.67 795.56 L171.26 668.93 L179.38 657.91 Z M214.18 -8 C248.51 -8 278.63 1.09 300.51 17.26 L296.45 36.48 C277.05 19.24 249.45 10.32 214.95 10.32 C114.1 10.32 69.03 97.44 69.03 290.44 C69.03 485.75 114.13 573.91 216.45 573.91 C243.84 573.91 268.81 565 288.17 547.85 L292.78 566.75 C271.56 582.99 244.72 592.15 215.61 592.15 C103.61 592.15 48.19 492.15 48.19 290.44 C48.19 90.91 103.21 -8.00002 214.18 -8.00002 L214.18 -8 Z " />
<glyph glyph-name="Ccircumflex" unicode="&#x108;" horiz-adv-x="403" d="M150.96 769.44 L174.03 769.44 L249.94 874.15 L325.85 769.44 L348.92 769.44 L259.73 887.35 L240.15 887.35 L150.96 769.44 Z M254.7 -10 C295.45 -10 331.19 1.42999 356.96 21.66 L352.75 41.85 C329.6 20.29 296.6 9.12 255.31 9.12 C134.04 9.12 79.41 120.37 79.41 363.04 C79.41 608.55 134.07 721.13 257.11 721.13 C289.88 721.13 319.8 709.88 342.91 688.25 L347.78 708.11 C322.72 728.59 290.91 740.18 256.47 740.18 C123.83 740.18 58.2 615.19 58.2 363.04 C58.2 113.63 123.33 -10 254.71 -10 L254.7 -10 Z " />
<glyph glyph-name="ccircumflex" unicode="&#x109;" horiz-adv-x="338" d="M200.12 779.93 L122.58 656.06 L144.99 656.06 L209.86 766.1 L274.73 656.06 L297.15 656.06 L219.61 779.93 L200.12 779.93 Z M214.18 -8 C248.51 -8 278.63 1.09 300.51 17.26 L296.45 36.48 C277.05 19.24 249.45 10.32 214.95 10.32 C114.1 10.32 69.03 97.44 69.03 290.44 C69.03 485.75 114.13 573.91 216.45 573.91 C243.84 573.91 268.81 565 288.17 547.85 L292.78 566.75 C271.56 582.99 244.72 592.15 215.61 592.15 C103.61 592.15 48.19 492.15 48.19 290.44 C48.19 90.91 103.21 -8.00002 214.18 -8.00002 L214.18 -8 Z " />
<glyph glyph-name="Cdotaccent" unicode="&#x10a;" horiz-adv-x="403" d="M250.05 786.98 C266.38 786.98 272.83 794.79 272.83 816.36 C272.83 837.83 266.41 845.6 250.16 845.6 C233.77 845.6 227.3 837.81 227.3 816.29 C227.3 794.77 233.74 786.98 250.05 786.98 L250.05 786.98 Z M254.7 -9.99998 C295.45 -9.99998 331.19 1.43001 356.96 21.66 L352.75 41.85 C329.6 20.29 296.6 9.12001 255.31 9.12001 C134.04 9.12001 79.41 120.37 79.41 363.04 C79.41 608.55 134.07 721.13 257.11 721.13 C289.88 721.13 319.8 709.88 342.91 688.25 L347.78 708.11 C322.72 728.59 290.91 740.18 256.47 740.18 C123.83 740.18 58.2 615.19 58.2 363.04 C58.2 113.63 123.33 -10 254.71 -10 L254.7 -9.99998 Z " />
<glyph glyph-name="cdotaccent" unicode="&#x10b;" horiz-adv-x="338" d="M209.97 689.88 C226.31 689.88 232.22 697.69 232.22 719.27 C232.22 740.73 226.34 748.5 210.08 748.5 C193.69 748.5 187.76 740.71 187.76 719.19 C187.76 697.67 193.66 689.88 209.97 689.88 L209.97 689.88 Z M214.18 -7.99998 C248.51 -7.99998 278.63 1.09001 300.51 17.26 L296.45 36.48 C277.05 19.24 249.45 10.32 214.95 10.32 C114.1 10.32 69.03 97.44 69.03 290.44 C69.03 485.75 114.13 573.91 216.45 573.91 C243.84 573.91 268.81 565 288.17 547.85 L292.78 566.75 C271.56 582.99 244.72 592.15 215.61 592.15 C103.61 592.15 48.19 492.15 48.19 290.44 C48.19 90.91 103.21 -8 214.18 -8 L214.18 -7.99998 Z " />
<glyph glyph-name="Ccaron" unicode="&#x10c;" horiz-adv-x="403" d="M240.15 769.44 L259.73 769.44 L348.92 887.35 L325.85 887.35 L249.94 782.64 L174.03 887.35 L150.96 887.35 L240.15 769.44 Z M254.7 -10 C295.45 -10 331.19 1.42999 356.96 21.66 L352.75 41.85 C329.6 20.29 296.6 9.12 255.31 9.12 C134.04 9.12 79.41 120.37 79.41 363.04 C79.41 608.55 134.07 721.13 257.11 721.13 C289.88 721.13 319.8 709.88 342.91 688.25 L347.78 708.11 C322.72 728.59 290.91 740.18 256.47 740.18 C123.83 740.18 58.2 615.19 58.2 363.04 C58.2 113.63 123.33 -10 254.71 -10 L254.7 -10 Z " />
<glyph glyph-name="ccaron" unicode="&#x10d;" horiz-adv-x="338" d="M200.12 656.06 L219.61 656.06 L297.15 779.93 L274.73 779.93 L209.86 669.89 L144.99 779.93 L122.58 779.93 L200.12 656.06 Z M214.18 -8 C248.51 -8 278.63 1.09 300.51 17.26 L296.45 36.48 C277.05 19.24 249.45 10.32 214.95 10.32 C114.1 10.32 69.03 97.44 69.03 290.44 C69.03 485.75 114.13 573.91 216.45 573.91 C243.84 573.91 268.81 565 288.17 547.85 L292.78 566.75 C271.56 582.99 244.72 592.15 215.61 592.15 C103.61 592.15 48.19 492.15 48.19 290.44 C48.19 90.91 103.21 -8.00002 214.18 -8.00002 L214.18 -8 Z " />
<glyph glyph-name="Dcaron" unicode="&#x10e;" horiz-adv-x="464" d="M197 769.44 L216.58 769.44 L305.77 887.35 L282.7 887.35 L206.79 782.64 L130.88 887.35 L107.82 887.35 L197 769.44 Z M80.4 0 L212.65 0 C341.47 0 405.33 120.32 405.33 363.04 C405.33 608.38 341.47 730 212.65 730 L80.4 730 L80.4 0 Z M101.28 18.95 L101.28 711.12 L212.65 711.12 C330.26 711.12 384.13 599.96 384.13 363.04 C384.13 128.85 330.26 18.95 212.65 18.95 L101.28 18.95 Z " />
<glyph glyph-name="dcaron" unicode="&#x10f;" horiz-adv-x="390" d="M164.52 656.06 L184.01 656.06 L261.55 779.93 L239.14 779.93 L174.27 669.89 L109.39 779.93 L86.98 779.93 L164.52 656.06 Z M66.41 0 L179.03 0 C287.79 0 341.7 96.26 341.7 290.44 C341.7 486.71 287.79 584 179.03 584 L66.41 584 L66.41 0 Z M86.93 18.04 L86.93 566.05 L179.03 566.05 C276.54 566.05 320.85 479.01 320.85 290.44 C320.85 104.08 276.54 18.04 179.03 18.04 L86.93 18.04 Z " />
<glyph glyph-name="Dcroat" unicode="&#x110;" horiz-adv-x="476" d="M225.61 730 L93.36 730 L93.36 377.64 L25.55 377.64 L25.55 360.36 L93.36 360.36 L93.36 0 L225.61 0 C354.44 0 418.3 120.32 418.3 363.04 C418.3 608.38 354.44 730 225.61 730 L225.61 730 Z M225.61 18.95 L114.25 18.95 L114.25 360.36 L222.88 360.36 L222.88 377.64 L114.25 377.64 L114.25 711.12 L225.61 711.12 C343.22 711.12 397.09 599.96 397.09 363.04 C397.09 128.85 343.22 18.95 225.61 18.95 L225.61 18.95 Z " />
<glyph glyph-name="dcroat" unicode="&#x111;" horiz-adv-x="401" d="M190.32 584 L77.69 584 L77.69 303.54 L21.43 303.54 L21.43 286.86 L77.69 286.86 L77.69 0 L190.32 0 C299.07 0 352.99 96.26 352.99 290.44 C352.99 486.71 299.07 584 190.32 584 L190.32 584 Z M190.32 18.04 L98.22 18.04 L98.22 286.86 L188.68 286.86 L188.68 303.54 L98.22 303.54 L98.22 566.05 L190.32 566.05 C287.83 566.05 332.14 479.01 332.14 290.44 C332.14 104.08 287.83 18.04 190.32 18.04 L190.32 18.04 Z " />
<glyph glyph-name="Emacron" unicode="&#x112;" horiz-adv-x="399" d="M320.99 873.09 L106.43 873.09 L106.43 854.91 L320.99 854.91 L320.99 873.09 Z M101.29 18.96 L101.29 360.75 L326.68 360.75 L326.68 379.51 L101.29 379.51 L101.29 711.18 L346.27 711.18 L346.27 730 L80.41 730 L80.41 0 L352.91 0 L352.91 18.96 L101.29 18.96 Z " />
<glyph glyph-name="emacron" unicode="&#x113;" horiz-adv-x="335" d="M277.18 727.09 L81.13 727.09 L81.13 708.91 L277.18 708.91 L277.18 727.09 Z M86.93 18.09 L86.93 287.25 L274.84 287.25 L274.84 305.03 L86.93 305.03 L86.93 566.06 L291.29 566.06 L291.29 584 L66.41 584 L66.41 0 L296.9 0 L296.9 18.09 L86.93 18.09 Z " />
<glyph glyph-name="Ebreve" unicode="&#x114;" horiz-adv-x="399" d="M213.85 770.79 C266.65 770.79 296.26 802.86 303.2 867.54 L288.42 867.35 C282.44 814.04 258.88 788.82 213.97 788.82 C169.64 788.82 146.36 813.65 140.4 866.12 L125.62 866.12 C132.55 802.39 161.79 770.79 213.85 770.79 L213.85 770.79 Z M101.29 18.96 L101.29 360.75 L326.68 360.75 L326.68 379.51 L101.29 379.51 L101.29 711.18 L346.27 711.18 L346.27 730 L80.41 730 L80.41 -1.52588e-05 L352.91 -1.52588e-05 L352.91 18.96 L101.29 18.96 Z " />
<glyph glyph-name="ebreve" unicode="&#x115;" horiz-adv-x="335" d="M179.27 667.16 C225.83 667.16 251.89 700.79 257.9 768.61 L243.6 768.41 C238.41 712.13 218.31 685.43 179.38 685.43 C140.94 685.43 121.09 711.71 115.91 767.12 L101.61 767.12 C107.62 700.29 133.36 667.16 179.27 667.16 L179.27 667.16 Z M86.93 18.09 L86.93 287.25 L274.84 287.25 L274.84 305.03 L86.93 305.03 L86.93 566.06 L291.29 566.06 L291.29 584 L66.41 584 L66.41 1.52588e-05 L296.9 1.52588e-05 L296.9 18.09 L86.93 18.09 Z " />
<glyph glyph-name="Edotaccent" unicode="&#x116;" horiz-adv-x="399" d="M213.8 786.98 C230.13 786.98 236.58 794.79 236.58 816.36 C236.58 837.83 230.16 845.6 213.91 845.6 C197.52 845.6 191.05 837.81 191.05 816.29 C191.05 794.77 197.49 786.98 213.8 786.98 L213.8 786.98 Z M101.29 18.96 L101.29 360.75 L326.68 360.75 L326.68 379.51 L101.29 379.51 L101.29 711.18 L346.27 711.18 L346.27 730 L80.41 730 L80.41 0 L352.91 0 L352.91 18.96 L101.29 18.96 Z " />
<glyph glyph-name="edotaccent" unicode="&#x117;" horiz-adv-x="335" d="M179.25 689.88 C195.58 689.88 201.49 697.69 201.49 719.27 C201.49 740.73 195.61 748.5 179.36 748.5 C162.96 748.5 157.03 740.71 157.03 719.19 C157.03 697.67 162.93 689.88 179.25 689.88 L179.25 689.88 Z M86.93 18.09 L86.93 287.25 L274.84 287.25 L274.84 305.03 L86.93 305.03 L86.93 566.06 L291.29 566.06 L291.29 584 L66.41 584 L66.41 3.05176e-05 L296.9 3.05176e-05 L296.9 18.09 L86.93 18.09 Z " />
<glyph glyph-name="Eogonek" unicode="&#x118;" horiz-adv-x="399" d="M349.76 -161.48 C339.31 -171.25 327.3 -176.1 313.7 -176.1 C291.17 -176.1 278.39 -156.04 278.39 -120.71 C278.39 -72.8 305.05 -28.89 352.91 0 L352.91 18.96 L101.29 18.96 L101.29 360.75 L326.68 360.75 L326.68 379.51 L101.29 379.51 L101.29 711.18 L346.27 711.18 L346.27 730 L80.41 730 L80.41 0 L331.72 0 C287.23 -28.16 261.17 -72.95 261.17 -122.65 C261.17 -167.6 279.39 -193.36 311.17 -193.36 C326.27 -193.36 340.74 -188.83 354.82 -179.69 L349.76 -161.48 Z " />
<glyph glyph-name="eogonek" unicode="&#x119;" horiz-adv-x="335" d="M293.75 -161.48 C283.3 -171.25 271.3 -176.1 257.7 -176.1 C235.16 -176.1 222.38 -156.04 222.38 -120.71 C222.38 -72.8 249.05 -28.89 296.9 0 L296.9 18.09 L86.93 18.09 L86.93 287.25 L274.84 287.25 L274.84 305.03 L86.93 305.03 L86.93 566.06 L291.29 566.06 L291.29 584 L66.41 584 L66.41 0 L275.71 0 C231.23 -28.16 205.17 -72.95 205.17 -122.65 C205.17 -167.6 223.38 -193.36 255.17 -193.36 C270.26 -193.36 284.73 -188.83 298.81 -179.69 L293.75 -161.48 Z " />
<glyph glyph-name="Ecaron" unicode="&#x11a;" horiz-adv-x="399" d="M223.48 769.44 L312.66 887.35 L289.6 887.35 L213.69 782.64 L137.78 887.35 L114.71 887.35 L203.9 769.44 L223.48 769.44 Z M101.29 18.96 L101.29 360.75 L326.68 360.75 L326.68 379.51 L101.29 379.51 L101.29 711.18 L346.27 711.18 L346.27 730 L80.41 730 L80.41 0 L352.91 0 L352.91 18.96 L101.29 18.96 Z " />
<glyph glyph-name="ecaron" unicode="&#x11b;" horiz-adv-x="335" d="M188.88 656.06 L266.42 779.93 L244 779.93 L179.13 669.89 L114.26 779.93 L91.85 779.93 L169.39 656.06 L188.88 656.06 Z M86.93 18.09 L86.93 287.25 L274.84 287.25 L274.84 305.03 L86.93 305.03 L86.93 566.06 L291.29 566.06 L291.29 584 L66.41 584 L66.41 0 L296.9 0 L296.9 18.09 L86.93 18.09 Z " />
<glyph glyph-name="Gcircumflex" unicode="&#x11c;" horiz-adv-x="451" d="M250.16 874.34 L326.07 769.63 L349.13 769.63 L259.95 887.54 L240.37 887.54 L151.18 769.63 L174.25 769.63 L250.16 874.34 Z M231.96 350.69 L231.96 333.17 L365.37 333.17 L365.37 105.84 C338.98 42.04 299.03 9.08998 244.72 9.08998 C131.15 9.08998 79.33 122.12 79.33 363.03 C79.33 606.71 136.1 721.02 260.75 721.02 C298.59 721.02 329.56 711.04 354.2 690.91 L358.97 711.11 C330.05 730.42 297.26 740 260.06 740 C125.1 740 58.19 615.06 58.19 363.03 C58.19 114.98 119.98 -10 241.39 -10 C297.52 -10 339.91 20.88 368.7 83.18 L369.35 83.18 L371.54 -1.52588e-05 L383.61 -1.52588e-05 L383.61 350.69 L231.96 350.69 Z " />
<glyph glyph-name="gcircumflex" unicode="&#x11d;" horiz-adv-x="378" d="M210.14 766.26 L275.01 656.22 L297.43 656.22 L219.89 780.08 L200.4 780.08 L122.86 656.22 L145.27 656.22 L210.14 766.26 Z M194.81 281.79 L194.81 265.11 L305.25 265.11 L305.25 85.46 C283.58 35.91 250.7 10.32 205.96 10.32 C111.77 10.32 68.98 98.8 68.98 290.44 C68.98 484.33 115.81 573.82 219.65 573.82 C251.25 573.82 277.17 565.82 297.86 549.69 L302.39 568.94 C277.9 584.36 250.17 592 218.72 592 C104.71 592 48.19 492.05 48.19 290.44 C48.19 92.33 100.22 -7.99998 202.1 -7.99998 C249.06 -7.99998 284.53 16.58 308.65 66.16 L309.2 66.16 L311.4 1.52588e-05 L323.04 1.52588e-05 L323.04 281.79 L194.81 281.79 Z " />
<glyph glyph-name="Gbreve" unicode="&#x11e;" horiz-adv-x="451" d="M250.32 770.98 C303.12 770.98 332.73 803.05 339.67 867.73 L324.89 867.54 C318.91 814.23 295.35 789.01 250.44 789.01 C206.11 789.01 182.83 813.84 176.87 866.31 L162.09 866.31 C169.02 802.58 198.26 770.98 250.32 770.98 L250.32 770.98 Z M231.96 350.69 L231.96 333.17 L365.37 333.17 L365.37 105.84 C338.98 42.04 299.03 9.09 244.72 9.09 C131.15 9.09 79.33 122.12 79.33 363.03 C79.33 606.71 136.1 721.02 260.75 721.02 C298.59 721.02 329.56 711.04 354.2 690.91 L358.97 711.11 C330.05 730.42 297.26 740 260.06 740 C125.1 740 58.19 615.06 58.19 363.03 C58.19 114.98 119.98 -10 241.39 -10 C297.52 -10 339.91 20.88 368.7 83.18 L369.35 83.18 L371.54 0 L383.61 0 L383.61 350.69 L231.96 350.69 Z " />
<glyph glyph-name="gbreve" unicode="&#x11f;" horiz-adv-x="378" d="M210.28 667.32 C256.84 667.32 282.9 700.94 288.91 768.77 L274.61 768.57 C269.42 712.29 249.32 685.59 210.39 685.59 C171.96 685.59 152.1 711.87 146.92 767.27 L132.63 767.27 C138.63 700.44 164.37 667.32 210.28 667.32 L210.28 667.32 Z M194.81 281.79 L194.81 265.11 L305.25 265.11 L305.25 85.46 C283.58 35.91 250.7 10.32 205.96 10.32 C111.77 10.32 68.98 98.8 68.98 290.44 C68.98 484.33 115.81 573.82 219.65 573.82 C251.25 573.82 277.17 565.82 297.86 549.69 L302.39 568.94 C277.9 584.36 250.17 592 218.72 592 C104.71 592 48.19 492.05 48.19 290.44 C48.19 92.33 100.22 -7.99998 202.1 -7.99998 C249.06 -7.99998 284.53 16.58 308.65 66.16 L309.2 66.16 L311.4 1.52588e-05 L323.04 1.52588e-05 L323.04 281.79 L194.81 281.79 Z " />
<glyph glyph-name="Gdotaccent" unicode="&#x120;" horiz-adv-x="451" d="M250.27 787.17 C266.6 787.17 273.05 794.98 273.05 816.55 C273.05 838.02 266.63 845.79 250.38 845.79 C233.99 845.79 227.52 838 227.52 816.48 C227.52 794.96 233.96 787.17 250.27 787.17 L250.27 787.17 Z M231.96 350.69 L231.96 333.17 L365.37 333.17 L365.37 105.84 C338.98 42.04 299.03 9.09001 244.72 9.09001 C131.15 9.09001 79.33 122.12 79.33 363.03 C79.33 606.71 136.1 721.02 260.75 721.02 C298.59 721.02 329.56 711.04 354.2 690.91 L358.97 711.11 C330.05 730.42 297.26 740 260.06 740 C125.1 740 58.19 615.06 58.19 363.03 C58.19 114.98 119.98 -10 241.39 -10 C297.52 -10 339.91 20.88 368.7 83.18 L369.35 83.18 L371.54 1.52588e-05 L383.61 1.52588e-05 L383.61 350.69 L231.96 350.69 Z " />
<glyph glyph-name="gdotaccent" unicode="&#x121;" horiz-adv-x="378" d="M210.26 690.04 C226.59 690.04 232.5 697.85 232.5 719.42 C232.5 740.89 226.62 748.66 210.37 748.66 C193.97 748.66 188.04 740.87 188.04 719.35 C188.04 697.83 193.95 690.04 210.26 690.04 L210.26 690.04 Z M194.81 281.79 L194.81 265.11 L305.25 265.11 L305.25 85.46 C283.58 35.91 250.7 10.32 205.96 10.32 C111.77 10.32 68.98 98.8 68.98 290.44 C68.98 484.33 115.81 573.82 219.65 573.82 C251.25 573.82 277.17 565.82 297.86 549.69 L302.39 568.94 C277.9 584.36 250.17 592 218.72 592 C104.71 592 48.19 492.05 48.19 290.44 C48.19 92.33 100.22 -7.99998 202.1 -7.99998 C249.06 -7.99998 284.53 16.58 308.65 66.16 L309.2 66.16 L311.4 1.52588e-05 L323.04 1.52588e-05 L323.04 281.79 L194.81 281.79 Z " />
<glyph glyph-name="Gcommaaccent" unicode="&#x122;" horiz-adv-x="451" d="M231.96 350.69 L231.96 333.17 L365.37 333.17 L365.37 105.84 C338.98 42.04 299.03 9.09 244.72 9.09 C131.15 9.09 79.33 122.12 79.33 363.03 C79.33 606.71 136.1 721.02 260.75 721.02 C298.59 721.02 329.56 711.04 354.2 690.91 L358.97 711.11 C330.05 730.42 297.26 740 260.06 740 C125.1 740 58.19 615.06 58.19 363.03 C58.19 114.98 119.98 -10 241.39 -10 C297.52 -10 339.91 20.88 368.7 83.18 L369.35 83.18 L371.54 0 L383.61 0 L383.61 350.69 L231.96 350.69 Z M241.63 -65.8 C225.84 -65.8 219.52 -73.86 219.52 -96.11 C219.52 -118.36 225.5 -126.41 239.72 -126.41 C244.13 -126.41 247.04 -124.78 249.81 -121.49 C249.55 -128.47 245.25 -152.75 228.33 -173.64 L240.63 -183.06 C256.77 -159.36 265.37 -132.84 265.37 -101.08 C265.37 -75.39 258.7 -65.8 241.63 -65.8 L241.63 -65.8 Z " />
<glyph glyph-name="gcommaaccent" unicode="&#x123;" horiz-adv-x="378" d="M194.81 281.79 L194.81 265.11 L305.25 265.11 L305.25 85.46 C283.58 35.91 250.7 10.32 205.96 10.32 C111.77 10.32 68.98 98.8 68.98 290.44 C68.98 484.33 115.81 573.82 219.65 573.82 C251.25 573.82 277.17 565.82 297.86 549.69 L302.39 568.94 C277.9 584.36 250.17 592 218.72 592 C104.71 592 48.19 492.05 48.19 290.44 C48.19 92.33 100.22 -8 202.1 -8 C249.06 -8 284.53 16.58 308.65 66.16 L309.2 66.16 L311.4 0 L323.04 0 L323.04 281.79 L194.81 281.79 Z M202.29 -65.8 C186.49 -65.8 180.17 -73.86 180.17 -96.11 C180.17 -118.36 186.15 -126.41 200.37 -126.41 C204.79 -126.41 207.69 -124.78 210.46 -121.49 C210.21 -128.47 205.9 -152.75 188.99 -173.64 L201.29 -183.06 C217.43 -159.36 226.02 -132.84 226.02 -101.08 C226.02 -75.39 219.35 -65.8 202.29 -65.8 L202.29 -65.8 Z " />
<glyph glyph-name="Hcircumflex" unicode="&#x124;" horiz-adv-x="480" d="M239.93 874.15 L315.84 769.44 L338.9 769.44 L249.72 887.35 L230.14 887.35 L140.95 769.44 L164.02 769.44 L239.93 874.15 Z M378.66 730 L378.66 381.59 L101.29 381.59 L101.29 730 L80.41 730 L80.41 -1.52588e-05 L101.29 -1.52588e-05 L101.29 362.4 L378.66 362.4 L378.66 -1.52588e-05 L399.55 -1.52588e-05 L399.55 730 L378.66 730 Z " />
<glyph glyph-name="hcircumflex" unicode="&#x125;" horiz-adv-x="403" d="M201.57 698.57 L264.25 615.58 L286.08 615.58 L211.12 710.77 L192.02 710.77 L117.06 615.58 L138.89 615.58 L201.57 698.57 Z M316.3 584 L316.3 306.83 L86.93 306.83 L86.93 584 L66.41 584 L66.41 0 L86.93 0 L86.93 288.36 L316.3 288.36 L316.3 0 L336.82 0 L336.82 584 L316.3 584 Z " />
<glyph glyph-name="Hbar" unicode="&#x126;" horiz-adv-x="472" d="M446.48 582.5 L395.42 582.5 L395.42 730 L374.53 730 L374.53 582.5 L97.16 582.5 L97.16 730 L76.27 730 L76.27 582.5 L25.32 582.5 L25.32 566.49 L76.27 566.49 L76.27 0 L97.16 0 L97.16 362.4 L374.53 362.4 L374.53 0 L395.42 0 L395.42 566.49 L446.48 566.49 L446.48 582.5 Z M374.53 381.59 L97.16 381.59 L97.16 566.49 L374.53 566.49 L374.53 381.59 Z " />
<glyph glyph-name="hbar" unicode="&#x127;" horiz-adv-x="398" d="M376.88 467.16 L334.26 467.16 L334.26 584 L313.74 584 L313.74 467.16 L84.37 467.16 L84.37 584 L63.85 584 L63.85 467.16 L21.32 467.16 L21.32 452.06 L63.85 452.06 L63.85 0 L84.37 0 L84.37 288.36 L313.74 288.36 L313.74 0 L334.26 0 L334.26 452.06 L376.88 452.06 L376.88 467.16 Z M313.74 306.83 L84.37 306.83 L84.37 452.06 L313.74 452.06 L313.74 306.83 Z " />
<glyph glyph-name="Itilde" unicode="&#x128;" horiz-adv-x="182" d="M142.29 825.8 C170.74 825.8 191.61 844.69 205.26 883 L191.26 889.94 C181.6 859.43 165.44 844.19 142.14 844.19 C102.76 844.19 85.78 902.19 39.3 902.19 C7.93997 902.19 -13.68 882.35 -25.92 842.1 L-11.76 836.13 C-1.85002 867.93 15.04 883.8 39.42 883.8 C79.6 883.8 96.72 825.8 142.29 825.8 L142.29 825.8 Z M80.21 0 L101.53 0 L101.53 730 L80.21 730 L80.21 0 Z " />
<glyph glyph-name="itilde" unicode="&#x129;" horiz-adv-x="154" d="M121.85 679.8 C147.18 679.8 165.65 698.69 177.59 737 L164.13 743.94 C155.79 713.43 141.85 698.19 121.67 698.19 C87.52 698.19 72.64 756.19 31.91 756.19 C4.03001 756.19 -15.09 736.35 -25.79 696.1 L-12.16 690.13 C-3.58997 721.93 10.97 737.8 32.05 737.8 C66.9 737.8 81.94 679.8 121.85 679.8 L121.85 679.8 Z M66.41 0 L87.37 0 L87.37 584 L66.41 584 L66.41 0 Z " />
<glyph glyph-name="Imacron" unicode="&#x12a;" horiz-adv-x="181" d="M-16.57 854.91 L197.99 854.91 L197.99 873.09 L-16.57 873.09 L-16.57 854.91 Z M80.05 0 L101.37 0 L101.37 730 L80.05 730 L80.05 0 Z " />
<glyph glyph-name="imacron" unicode="&#x12b;" horiz-adv-x="154" d="M-21.14 708.91 L174.92 708.91 L174.92 727.09 L-21.14 727.09 L-21.14 708.91 Z M66.41 0 L87.37 0 L87.37 584 L66.41 584 L66.41 0 Z " />
<glyph glyph-name="Ibreve" unicode="&#x12c;" horiz-adv-x="181" d="M90.99 770.79 C143.78 770.79 173.39 802.86 180.33 867.54 L165.56 867.35 C159.58 814.04 136.01 788.82 91.1 788.82 C46.77 788.82 23.49 813.65 17.53 866.12 L2.75998 866.12 C9.67998 802.39 38.93 770.79 90.99 770.79 L90.99 770.79 Z M80.18 0 L101.5 0 L101.5 730 L80.18 730 L80.18 0 Z " />
<glyph glyph-name="ibreve" unicode="&#x12d;" horiz-adv-x="154" d="M77 667.16 C123.56 667.16 149.62 700.79 155.64 768.61 L141.34 768.41 C136.14 712.13 116.05 685.43 77.11 685.43 C38.68 685.43 18.82 711.71 13.65 767.12 L-0.649994 767.12 C5.35001 700.29 31.09 667.16 77 667.16 L77 667.16 Z M66.41 1.52588e-05 L87.37 1.52588e-05 L87.37 584 L66.41 584 L66.41 1.52588e-05 Z " />
<glyph glyph-name="Iogonek" unicode="&#x12e;" horiz-adv-x="182" d="M98.94 -161.48 C88.49 -171.25 76.48 -176.1 62.88 -176.1 C40.35 -176.1 27.57 -156.04 27.57 -120.71 C27.57 -72.8 54.23 -28.89 102.09 0 L102.09 730 L80.77 730 L80.77 0 L80.9 0 C36.41 -28.16 10.35 -72.95 10.35 -122.65 C10.35 -167.6 28.56 -193.36 60.35 -193.36 C75.45 -193.36 89.91 -188.83 103.99 -179.69 L98.94 -161.48 Z " />
<glyph glyph-name="iogonek" unicode="&#x12f;" horiz-adv-x="154" d="M84.22 -161.48 C73.77 -171.25 61.77 -176.1 48.17 -176.1 C25.63 -176.1 12.85 -156.04 12.85 -120.71 C12.85 -72.8 39.52 -28.89 87.37 0 L87.37 584 L66.41 584 L66.41 0.139999 C21.78 -28.01 -4.36 -72.87 -4.36 -122.65 C-4.36 -167.6 13.85 -193.36 45.64 -193.36 C60.73 -193.36 75.2 -188.83 89.28 -179.69 L84.22 -161.48 Z " />
<glyph glyph-name="Idotaccent" unicode="&#x130;" horiz-adv-x="181" d="M91.06 786.98 C107.39 786.98 113.84 794.79 113.84 816.36 C113.84 837.83 107.42 845.6 91.17 845.6 C74.78 845.6 68.31 837.81 68.31 816.29 C68.31 794.77 74.75 786.98 91.06 786.98 L91.06 786.98 Z M80.31 1.52588e-05 L101.63 1.52588e-05 L101.63 730 L80.31 730 L80.31 1.52588e-05 Z " />
<glyph glyph-name="IJ" unicode="&#x132;" horiz-adv-x="447" d="M80.41 0 L101.73 0 L101.73 730 L80.41 730 L80.41 0 Z M255.97 -10 C331.03 -10 368.24 57.29 368.24 193.03 L368.24 730 L347.35 730 L347.35 192.65 C347.35 68.09 318.31 9.45 255.04 9.45 C226.4 9.45 201.31 19.42 179.35 39.52 L175.07 18 C199.64 -0.720001 226.45 -10 255.97 -10 L255.97 -10 Z " />
<glyph glyph-name="ij" unicode="&#x133;" horiz-adv-x="377" d="M66.41 0 L87.37 0 L87.37 584 L66.41 584 L66.41 0 Z M216.3 -8 C280.36 -8 312.11 46.29 312.11 155.8 L312.11 584 L291.59 584 L291.59 155.33 C291.59 56.48 267.63 10.64 215.22 10.64 C191.28 10.64 170.29 18.61 151.92 34.68 L147.8 14.34 C168.54 -0.600006 191.25 -8 216.3 -8 L216.3 -8 Z " />
<glyph glyph-name="Jcircumflex" unicode="&#x134;" horiz-adv-x="305" d="M117.49 769.44 L140.55 769.44 L216.46 874.15 L292.37 769.44 L315.44 769.44 L226.25 887.35 L206.67 887.35 L117.49 769.44 Z M114.99 -10 C190.05 -10 227.26 57.29 227.26 193.03 L227.26 730 L206.37 730 L206.37 192.65 C206.37 68.09 177.33 9.45 114.07 9.45 C85.43 9.45 60.34 19.42 38.38 39.52 L34.1 18 C58.66 -0.720001 85.47 -10 114.99 -10 L114.99 -10 Z " />
<glyph glyph-name="jcircumflex" unicode="&#x135;" horiz-adv-x="257" d="M172.1 779.93 L94.56 656.06 L116.98 656.06 L181.85 766.1 L246.72 656.06 L269.13 656.06 L191.59 779.93 L172.1 779.93 Z M96.6 -8 C160.66 -8 192.41 46.29 192.41 155.8 L192.41 584 L171.89 584 L171.89 155.33 C171.89 56.48 147.93 10.64 95.51 10.64 C71.56 10.64 50.59 18.61 32.22 34.68 L28.1 14.34 C48.84 -0.600006 71.54 -8 96.6 -8 L96.6 -8 Z " />
<glyph glyph-name="Kcommaaccent" unicode="&#x136;" horiz-adv-x="412" d="M122.27 372.14 L369.97 730 L344.2 730 L101.3 373.41 L101.3 730 L80.41 730 L80.41 0 L101.3 0 L101.3 370.75 L363.12 0 L390.52 0 L122.27 372.14 Z M237.97 -65.8 C222.17 -65.8 215.85 -73.86 215.85 -96.11 C215.85 -118.36 221.83 -126.41 236.05 -126.41 C240.47 -126.41 243.37 -124.78 246.14 -121.49 C245.89 -128.47 241.58 -152.75 224.67 -173.64 L236.97 -183.06 C253.11 -159.36 261.7 -132.84 261.7 -101.08 C261.7 -75.39 255.03 -65.8 237.97 -65.8 L237.97 -65.8 Z " />
<glyph glyph-name="kcommaaccent" unicode="&#x137;" horiz-adv-x="347" d="M108.62 297.82 L312.53 584 L287.75 584 L86.93 298.12 L86.93 584 L66.41 584 L66.41 0 L86.93 0 L86.93 297.24 L303.38 0 L329.68 0 L108.62 297.82 Z M200.08 -65.8 C184.28 -65.8 177.96 -73.86 177.96 -96.11 C177.96 -118.36 183.94 -126.41 198.16 -126.41 C202.58 -126.41 205.48 -124.78 208.25 -121.49 C208 -128.47 203.69 -152.75 186.78 -173.64 L199.08 -183.06 C215.22 -159.36 223.81 -132.84 223.81 -101.08 C223.81 -75.39 217.14 -65.8 200.08 -65.8 L200.08 -65.8 Z " />
<glyph glyph-name="Lacute" unicode="&#x139;" horiz-adv-x="365" d="M178.53 886.98 L64.98 788.71 L71.23 776.32 L187.5 869.21 L178.53 886.98 Z M101.34 19.49 L101.34 730 L80.22 730 L80.22 -1.52588e-05 L342.9 -1.52588e-05 L342.9 19.49 L101.34 19.49 Z " />
<glyph glyph-name="lacute" unicode="&#x13a;" horiz-adv-x="307" d="M138.57 795.56 L38.17 668.93 L46.29 657.91 L150.23 779.77 L138.57 795.56 Z M87.17 18.76 L87.17 584 L66.41 584 L66.41 0 L288.63 0 L288.63 18.76 L87.17 18.76 Z " />
<glyph glyph-name="Lcommaaccent" unicode="&#x13b;" horiz-adv-x="366" d="M101.52 19.49 L101.52 730 L80.41 730 L80.41 0 L343.08 0 L343.08 19.49 L101.52 19.49 Z M211.2 -65.8 C195.4 -65.8 189.08 -73.86 189.08 -96.11 C189.08 -118.36 195.06 -126.41 209.28 -126.41 C213.69 -126.41 216.6 -124.78 219.37 -121.49 C219.12 -128.47 214.81 -152.75 197.9 -173.64 L210.2 -183.06 C226.34 -159.36 235.08 -131.95 235.08 -101.08 C235.08 -75.39 228.26 -65.8 211.2 -65.8 L211.2 -65.8 Z " />
<glyph glyph-name="lcommaaccent" unicode="&#x13c;" horiz-adv-x="307" d="M87.17 18.76 L87.17 584 L66.41 584 L66.41 0 L288.63 0 L288.63 18.76 L87.17 18.76 Z M177.01 -65.8 C161.22 -65.8 154.89 -73.86 154.89 -96.11 C154.89 -118.36 160.88 -126.41 175.1 -126.41 C179.51 -126.41 182.41 -124.78 185.18 -121.49 C184.93 -128.47 180.63 -152.75 163.71 -173.64 L176.01 -183.06 C192.15 -159.36 200.74 -132.84 200.74 -101.08 C200.74 -75.39 194.08 -65.8 177.01 -65.8 L177.01 -65.8 Z " />
<glyph glyph-name="Lcaron" unicode="&#x13d;" horiz-adv-x="366" d="M222.26 696.58 C226.68 696.58 229.58 698.21 232.35 701.5 C232.1 694.52 227.8 670.24 210.88 649.36 L223.18 639.93 C239.32 663.63 248.15 690.97 248.15 721.94 C248.15 747.63 241.24 757.19 224.18 757.19 C208.39 757.19 202.06 749.14 202.06 726.88 C202.06 704.63 208.05 696.58 222.26 696.58 L222.26 696.58 Z M101.52 19.49 L101.52 730 L80.41 730 L80.41 0 L343.08 0 L343.08 19.49 L101.52 19.49 Z " />
<glyph glyph-name="lcaron" unicode="&#x13e;" horiz-adv-x="307" d="M193.1 550.58 C197.51 550.58 200.42 552.21 203.19 555.5 C202.93 548.52 198.63 524.24 181.71 503.36 L194.01 493.93 C210.15 517.63 218.75 544.19 218.75 575.94 C218.75 601.63 212.08 611.19 195.01 611.19 C179.22 611.19 172.89 603.14 172.89 580.88 C172.89 558.63 178.88 550.58 193.1 550.58 L193.1 550.58 Z M87.17 18.76 L87.17 584 L66.41 584 L66.41 0 L288.63 0 L288.63 18.76 L87.17 18.76 Z " />
<glyph glyph-name="Ldot" unicode="&#x13f;" horiz-adv-x="368" d="M101.52 19.49 L101.52 730 L80.41 730 L80.41 0 L343.08 0 L343.08 19.49 L101.52 19.49 Z M242.89 283.46 C260.66 283.46 267.75 292.1 267.75 315.96 C267.75 339.7 260.7 348.28 243.01 348.28 C225.23 348.28 218.14 339.67 218.14 315.87 C218.14 292.07 225.2 283.46 242.89 283.46 L242.89 283.46 Z " />
<glyph glyph-name="ldot" unicode="&#x140;" horiz-adv-x="309" d="M87.17 18.76 L87.17 584 L66.41 584 L66.41 0 L288.63 0 L288.63 18.76 L87.17 18.76 Z M204.99 226.94 C220.88 226.94 227.19 234.28 227.19 254.55 C227.19 274.66 220.92 281.94 205.12 281.94 C189.22 281.94 182.92 274.63 182.92 254.44 C182.92 234.25 189.19 226.94 204.99 226.94 L204.99 226.94 Z " />
<glyph glyph-name="Lslash" unicode="&#x141;" horiz-adv-x="372" d="M108.21 19.49 L108.21 350.95 L212.78 455.09 L208.14 472.42 L108.21 372.89 L108.21 730 L87.09 730 L87.09 351.86 L21.55 286.59 L26.18 269.26 L87.09 329.92 L87.09 1.52588e-05 L349.77 1.52588e-05 L349.77 19.49 L108.21 19.49 Z " />
<glyph glyph-name="lslash" unicode="&#x142;" horiz-adv-x="313" d="M92.97 18.76 L92.97 280.83 L180.17 363.19 L175.84 379.75 L92.97 301.49 L92.97 584 L72.21 584 L72.21 281.87 L17.55 230.24 L21.88 213.68 L72.21 261.22 L72.21 -1.52588e-05 L294.44 -1.52588e-05 L294.44 18.76 L92.97 18.76 Z " />
<glyph glyph-name="Nacute" unicode="&#x143;" horiz-adv-x="471" d="M216.08 776.32 L332.35 869.21 L323.38 886.98 L209.83 788.71 L216.08 776.32 Z M73.63 0 L93.42 0 L93.42 675.63 L380 0 L397.63 0 L397.63 730 L377.9 730 L377.9 54.37 L91.38 730 L73.63 730 L73.63 0 Z " />
<glyph glyph-name="nacute" unicode="&#x144;" horiz-adv-x="396" d="M167.5 657.91 L271.44 779.77 L259.79 795.56 L159.38 668.93 L167.5 657.91 Z M60.74 0 L80.34 0 L80.34 531.54 L318.13 0 L335.26 0 L335.26 584 L315.72 584 L315.72 52.46 L77.98 584 L60.74 584 L60.74 0 Z " />
<glyph glyph-name="Ncommaaccent" unicode="&#x145;" horiz-adv-x="471" d="M73.63 0 L93.42 0 L93.42 675.63 L380 0 L397.63 0 L397.63 730 L377.9 730 L377.9 54.37 L91.38 730 L73.63 730 L73.63 0 Z M234.55 -183.06 C250.69 -159.36 259.28 -132.84 259.28 -101.08 C259.28 -75.39 252.61 -65.8 235.55 -65.8 C219.75 -65.8 213.43 -73.86 213.43 -96.11 C213.43 -118.36 219.41 -126.41 233.63 -126.41 C238.05 -126.41 240.95 -124.78 243.72 -121.49 C243.47 -128.47 239.16 -152.75 222.25 -173.64 L234.55 -183.06 Z " />
<glyph glyph-name="ncommaaccent" unicode="&#x146;" horiz-adv-x="396" d="M60.74 0 L80.34 0 L80.34 531.54 L318.13 0 L335.26 0 L335.26 584 L315.72 584 L315.72 52.46 L77.98 584 L60.74 584 L60.74 0 Z M196.93 -183.06 C213.06 -159.36 221.66 -132.84 221.66 -101.08 C221.66 -75.39 214.99 -65.8 197.93 -65.8 C182.13 -65.8 175.81 -73.86 175.81 -96.11 C175.81 -118.36 181.79 -126.41 196.01 -126.41 C200.42 -126.41 203.33 -124.78 206.1 -121.49 C205.84 -128.47 201.54 -152.75 184.63 -173.64 L196.93 -183.06 Z " />
<glyph glyph-name="Ncaron" unicode="&#x147;" horiz-adv-x="471" d="M225.82 769.44 L245.4 769.44 L334.58 887.35 L311.52 887.35 L235.61 782.64 L159.7 887.35 L136.63 887.35 L225.82 769.44 Z M73.63 0 L93.42 0 L93.42 675.63 L380 0 L397.63 0 L397.63 730 L377.9 730 L377.9 54.37 L91.38 730 L73.63 730 L73.63 0 Z " />
<glyph glyph-name="ncaron" unicode="&#x148;" horiz-adv-x="396" d="M188.24 656.06 L207.73 656.06 L285.27 779.93 L262.85 779.93 L197.98 669.89 L133.11 779.93 L110.7 779.93 L188.24 656.06 Z M60.74 0 L80.34 0 L80.34 531.54 L318.13 0 L335.26 0 L335.26 584 L315.72 584 L315.72 52.46 L77.98 584 L60.74 584 L60.74 0 Z " />
<glyph glyph-name="Eng" unicode="&#x14a;" horiz-adv-x="471" d="M320.81 -240 C372.1 -240 397.52 -195.58 397.52 -105.73 L397.52 730 L377.78 730 L377.78 53.58 L91.43 730 L73.63 730 L73.63 0 L93.45 0 L93.45 675.29 L377.82 2.06 L377.82 -105.29 C377.82 -184.96 359.29 -220.88 318.76 -220.88 C297.12 -220.88 280.99 -212.99 267.04 -197.1 L261.37 -216.22 C278.29 -231.22 296.54 -240 320.81 -240 L320.81 -240 Z " />
<glyph glyph-name="eng" unicode="&#x14b;" horiz-adv-x="396" d="M268.82 -192 C313.12 -192 335.18 -155.75 335.18 -82.43 L335.18 584 L315.64 584 L315.64 51.33 L78.04 584 L60.74 584 L60.74 0 L80.37 0 L80.37 531.54 L315.67 2.42999 L315.67 -82.08 C315.67 -145.36 300.31 -173.5 266.42 -173.5 C248.43 -173.5 235.04 -167.21 223.44 -154.67 L218.16 -173.09 C232.53 -185.03 248.21 -192 268.82 -192 L268.82 -192 Z " />
<glyph glyph-name="Omacron" unicode="&#x14c;" horiz-adv-x="478" d="M131.69 854.91 L346.24 854.91 L346.24 873.09 L131.69 873.09 L131.69 854.91 Z M238.97 -10 C359.82 -10 419.74 113.63 419.74 363.04 C419.74 615.06 359.82 740 238.97 740 C118.11 740 58.19 615.06 58.19 363.04 C58.19 113.63 118.11 -10 238.97 -10 L238.97 -10 Z M238.97 9.33 C129.49 9.33 79.42 122.32 79.42 363.04 C79.42 606.48 129.49 720.74 238.97 720.74 C348.44 720.74 398.51 606.48 398.51 363.04 C398.51 122.32 348.44 9.33 238.97 9.33 L238.97 9.33 Z " />
<glyph glyph-name="omacron" unicode="&#x14d;" horiz-adv-x="402" d="M103.1 708.91 L299.15 708.91 L299.15 727.09 L103.1 727.09 L103.1 708.91 Z M201.13 -8 C303.37 -8 354.06 90.91 354.06 290.44 C354.06 492.05 303.37 592 201.13 592 C98.88 592 48.19 492.05 48.19 290.44 C48.19 90.91 98.88 -8 201.13 -8 L201.13 -8 Z M201.13 10.6 C110.29 10.6 69.09 99.03 69.09 290.44 C69.09 484.06 110.29 573.49 201.13 573.49 C291.96 573.49 333.16 484.06 333.16 290.44 C333.16 99.03 291.96 10.6 201.13 10.6 L201.13 10.6 Z " />
<glyph glyph-name="Obreve" unicode="&#x14e;" horiz-adv-x="478" d="M239.11 770.79 C291.91 770.79 321.52 802.86 328.45 867.54 L313.68 867.35 C307.7 814.04 284.14 788.82 239.22 788.82 C194.9 788.82 171.61 813.65 165.65 866.12 L150.88 866.12 C157.81 802.39 187.05 770.79 239.11 770.79 L239.11 770.79 Z M238.97 -10 C359.82 -10 419.74 113.63 419.74 363.04 C419.74 615.06 359.82 740 238.97 740 C118.11 740 58.19 615.06 58.19 363.04 C58.19 113.63 118.11 -10 238.97 -10 L238.97 -10 Z M238.97 9.33 C129.49 9.33 79.42 122.32 79.42 363.04 C79.42 606.48 129.49 720.74 238.97 720.74 C348.44 720.74 398.51 606.48 398.51 363.04 C398.51 122.32 348.44 9.33 238.97 9.33 L238.97 9.33 Z " />
<glyph glyph-name="obreve" unicode="&#x14f;" horiz-adv-x="402" d="M201.24 667.16 C247.8 667.16 273.86 700.79 279.87 768.61 L265.57 768.41 C260.38 712.13 240.28 685.43 201.35 685.43 C162.91 685.43 143.06 711.71 137.88 767.12 L123.58 767.12 C129.59 700.29 155.33 667.16 201.24 667.16 L201.24 667.16 Z M201.13 -7.99998 C303.37 -7.99998 354.06 90.91 354.06 290.44 C354.06 492.05 303.37 592 201.13 592 C98.88 592 48.19 492.05 48.19 290.44 C48.19 90.91 98.88 -7.99998 201.13 -7.99998 L201.13 -7.99998 Z M201.13 10.6 C110.29 10.6 69.09 99.03 69.09 290.44 C69.09 484.06 110.29 573.49 201.13 573.49 C291.96 573.49 333.16 484.06 333.16 290.44 C333.16 99.03 291.96 10.6 201.13 10.6 L201.13 10.6 Z " />
<glyph glyph-name="Ohungarumlaut" unicode="&#x150;" horiz-adv-x="478" d="M205.66 758.33 L255.62 941.93 L238.31 949.22 L193.58 763.45 L205.66 758.33 Z M289.11 758.33 L339.07 941.93 L321.76 949.22 L277.03 763.45 L289.11 758.33 Z M238.97 -10 C359.82 -10 419.74 113.63 419.74 363.04 C419.74 615.06 359.82 740 238.97 740 C118.11 740 58.19 615.06 58.19 363.04 C58.19 113.63 118.11 -10 238.97 -10 L238.97 -10 Z M238.97 9.33 C129.49 9.33 79.42 122.32 79.42 363.04 C79.42 606.48 129.49 720.74 238.97 720.74 C348.44 720.74 398.51 606.48 398.51 363.04 C398.51 122.32 348.44 9.33 238.97 9.33 L238.97 9.33 Z " />
<glyph glyph-name="ohungarumlaut" unicode="&#x151;" horiz-adv-x="402" d="M167.82 632.33 L217.78 815.93 L200.47 823.22 L155.74 637.45 L167.82 632.33 Z M251.27 632.33 L301.23 815.93 L283.92 823.22 L239.19 637.45 L251.27 632.33 Z M201.13 -8 C303.37 -8 354.06 90.91 354.06 290.44 C354.06 492.05 303.37 592 201.13 592 C98.88 592 48.19 492.05 48.19 290.44 C48.19 90.91 98.88 -8 201.13 -8 L201.13 -8 Z M201.13 10.6 C110.29 10.6 69.09 99.03 69.09 290.44 C69.09 484.06 110.29 573.49 201.13 573.49 C291.96 573.49 333.16 484.06 333.16 290.44 C333.16 99.03 291.96 10.6 201.13 10.6 L201.13 10.6 Z " />
<glyph glyph-name="OE" unicode="&#x152;" horiz-adv-x="705" d="M414.56 18.96 L414.56 360.75 L633.43 360.75 L633.43 379.51 L414.56 379.51 L414.56 711.18 L653.01 711.18 L653.01 730 L394.9 730 L395.92 554.43 C373.18 677.62 322.59 740 238.22 740 C118.38 740 58.19 615.02 58.19 363.04 C58.19 113.97 118.38 -10 238.22 -10 C322.31 -10 373.16 52.24 395.98 174.82 L394.9 0 L659.65 0 L659.65 18.96 L414.56 18.96 Z M238.97 9.33 C129.4 9.33 79.42 122.63 79.42 363.04 C79.42 606.46 129.4 720.74 238.97 720.74 C347.69 720.74 392.53 604.27 392.53 363.04 C392.53 124.83 347.69 9.33 238.97 9.33 L238.97 9.33 Z " />
<glyph glyph-name="oe" unicode="&#x153;" horiz-adv-x="593" d="M350.59 18.09 L350.59 287.25 L533.03 287.25 L533.03 305.03 L350.59 305.03 L350.59 566.06 L549.48 566.06 L549.48 584 L331.07 584 L332.05 448.35 C312.4 543.61 270 592 200.23 592 C99.11 592 48.19 492.02 48.19 290.44 C48.19 91.17 99.11 -8 200.23 -8 C269.79 -8 312.4 40.29 332.1 135.12 L331.07 0 L555.09 0 L555.09 18.09 L350.59 18.09 Z M201.13 10.6 C110.22 10.6 69.09 99.27 69.09 290.44 C69.09 484.04 110.22 573.49 201.13 573.49 C291.22 573.49 328.22 482.06 328.22 290.44 C328.22 101.25 291.22 10.6 201.13 10.6 L201.13 10.6 Z " />
<glyph glyph-name="Racute" unicode="&#x154;" horiz-adv-x="414" d="M188.22 776.32 L304.49 869.21 L295.52 886.98 L181.97 788.71 L188.22 776.32 Z M80.41 0 L101.29 0 L101.29 330.5 L202.44 330.5 L349.32 0 L373.76 0 L223.64 331.26 C313.52 335.54 361.41 407.14 361.41 530.71 C361.41 658.15 309.73 730 217.1 730 L80.41 730 L80.41 0 Z M101.06 348.85 L101.06 711.53 L215.93 711.53 C297.77 711.53 340.86 648.16 340.86 530.71 C340.86 412.57 297.35 348.85 214.73 348.85 L101.06 348.85 Z " />
<glyph glyph-name="racute" unicode="&#x155;" horiz-adv-x="349" d="M144.03 657.91 L247.98 779.77 L236.32 795.56 L135.91 668.93 L144.03 657.91 Z M66.41 0 L86.93 0 L86.93 263.26 L169.87 263.26 L291.65 0 L315.42 0 L190.16 264.31 C264.91 268.27 304.6 325.42 304.6 423.98 C304.6 526.51 261.13 584 182.9 584 L66.41 584 L66.41 0 Z M86.68 280.63 L86.68 566.49 L181.46 566.49 C249.09 566.49 284.45 517.08 284.45 423.98 C284.45 330.31 248.76 280.63 180.49 280.63 L86.68 280.63 Z " />
<glyph glyph-name="Rcommaaccent" unicode="&#x156;" horiz-adv-x="414" d="M80.41 0 L101.29 0 L101.29 330.5 L202.44 330.5 L349.32 0 L373.76 0 L223.64 331.26 C313.52 335.54 361.41 407.14 361.41 530.71 C361.41 658.15 309.73 730 217.1 730 L80.41 730 L80.41 0 Z M101.06 348.85 L101.06 711.53 L215.93 711.53 C297.77 711.53 340.86 648.16 340.86 530.71 C340.86 412.57 297.35 348.85 214.73 348.85 L101.06 348.85 Z M219.14 -183.06 C235.28 -159.36 243.87 -132.84 243.87 -101.08 C243.87 -75.39 237.2 -65.8 220.14 -65.8 C204.34 -65.8 198.02 -73.86 198.02 -96.11 C198.02 -118.36 204 -126.41 218.22 -126.41 C222.64 -126.41 225.54 -124.78 228.31 -121.49 C228.06 -128.47 223.75 -152.75 206.84 -173.64 L219.14 -183.06 Z " />
<glyph glyph-name="rcommaaccent" unicode="&#x157;" horiz-adv-x="349" d="M66.41 0 L86.93 0 L86.93 263.26 L169.87 263.26 L291.65 0 L315.42 0 L190.16 264.31 C264.91 268.27 304.6 325.42 304.6 423.98 C304.6 526.51 261.13 584 182.9 584 L66.41 584 L66.41 0 Z M86.68 280.63 L86.68 566.49 L181.46 566.49 C249.09 566.49 284.45 517.08 284.45 423.98 C284.45 330.31 248.76 280.63 180.49 280.63 L86.68 280.63 Z M184.07 -183.06 C200.21 -159.36 208.8 -132.84 208.8 -101.08 C208.8 -75.39 202.13 -65.8 185.07 -65.8 C169.27 -65.8 162.95 -73.86 162.95 -96.11 C162.95 -118.36 168.93 -126.41 183.15 -126.41 C187.57 -126.41 190.47 -124.78 193.24 -121.49 C192.99 -128.47 188.69 -152.75 171.77 -173.64 L184.07 -183.06 Z " />
<glyph glyph-name="Rcaron" unicode="&#x158;" horiz-adv-x="414" d="M197.96 769.44 L217.54 769.44 L306.72 887.35 L283.66 887.35 L207.75 782.64 L131.83 887.35 L108.77 887.35 L197.96 769.44 Z M80.41 0 L101.29 0 L101.29 330.5 L202.44 330.5 L349.32 0 L373.76 0 L223.64 331.26 C313.52 335.54 361.41 407.14 361.41 530.71 C361.41 658.15 309.73 730 217.1 730 L80.41 730 L80.41 0 Z M101.06 348.85 L101.06 711.53 L215.93 711.53 C297.77 711.53 340.86 648.16 340.86 530.71 C340.86 412.57 297.35 348.85 214.73 348.85 L101.06 348.85 Z " />
<glyph glyph-name="rcaron" unicode="&#x159;" horiz-adv-x="349" d="M164.77 656.06 L184.26 656.06 L261.8 779.93 L239.39 779.93 L174.52 669.89 L109.65 779.93 L87.23 779.93 L164.77 656.06 Z M66.41 0 L86.93 0 L86.93 263.26 L169.87 263.26 L291.65 0 L315.42 0 L190.16 264.31 C264.91 268.27 304.6 325.42 304.6 423.98 C304.6 526.51 261.13 584 182.9 584 L66.41 584 L66.41 0 Z M86.68 280.63 L86.68 566.49 L181.46 566.49 C249.09 566.49 284.45 517.08 284.45 423.98 C284.45 330.31 248.76 280.63 180.49 280.63 L86.68 280.63 Z " />
<glyph glyph-name="Sacute" unicode="&#x15a;" horiz-adv-x="378" d="M166.36 776.32 L282.63 869.21 L273.66 886.98 L160.11 788.71 L166.36 776.32 Z M176.89 -10 C277.27 -10 327.03 55.28 327.03 186.98 C327.03 297.97 285.63 330.25 194.21 384.8 C110.16 434.73 72.83 460.3 72.83 561.35 C72.83 669.73 108.87 720.96 186.71 720.96 C229.9 720.96 267.68 707.9 300.7 681.56 L305.18 701.96 C268.47 727.37 228.94 739.96 185.91 739.96 C96.33 739.96 51.93 680.69 51.93 561.13 C51.93 449.55 95.11 419.07 181.1 367.18 C270.89 313.15 305.89 286.96 305.89 186.12 C305.89 65.87 265.02 9.03001 176.84 9.03001 C127.29 9.03001 85.26 21.49 50.04 46.63 L45.65 26.37 C83.27 2.05002 126.76 -9.99998 176.89 -9.99998 L176.89 -10 Z " />
<glyph glyph-name="sacute" unicode="&#x15b;" horiz-adv-x="317" d="M126.13 657.91 L230.07 779.77 L218.42 795.56 L118.01 668.93 L126.13 657.91 Z M148.62 -8 C233.54 -8 275.65 44.53 275.65 150.5 C275.65 238.81 240.55 265.14 164.9 308.69 C94.55 349.03 63.65 368.75 63.65 448.44 C63.65 533.81 93.26 573.8 157.6 573.8 C193.6 573.8 225.23 563.32 253.03 542.22 L257.3 561.55 C226.2 581.88 192.84 591.95 156.64 591.95 C80.72 591.95 43.09 544.25 43.09 448.04 C43.09 359.02 79.14 333.29 151.24 292.41 C226.44 249.5 254.83 228.75 254.83 149.56 C254.83 54.64 221.28 10.22 148.48 10.22 C107.03 10.22 71.69 20.24 41.83 40.47 L37.65 21.27 C69.54 1.7 106.32 -8 148.62 -8 L148.62 -8 Z " />
<glyph glyph-name="Scircumflex" unicode="&#x15c;" horiz-adv-x="378" d="M86.91 769.44 L109.98 769.44 L185.89 874.15 L261.8 769.44 L284.86 769.44 L195.68 887.35 L176.1 887.35 L86.91 769.44 Z M176.89 -10 C277.27 -10 327.03 55.28 327.03 186.98 C327.03 297.97 285.63 330.25 194.21 384.8 C110.16 434.73 72.83 460.3 72.83 561.35 C72.83 669.73 108.87 720.96 186.71 720.96 C229.9 720.96 267.68 707.9 300.7 681.56 L305.18 701.96 C268.47 727.37 228.94 739.96 185.91 739.96 C96.33 739.96 51.93 680.69 51.93 561.13 C51.93 449.55 95.11 419.07 181.1 367.18 C270.89 313.15 305.89 286.96 305.89 186.12 C305.89 65.87 265.02 9.03001 176.84 9.03001 C127.29 9.03001 85.26 21.49 50.04 46.63 L45.65 26.37 C83.27 2.05002 126.76 -9.99998 176.89 -9.99998 L176.89 -10 Z " />
<glyph glyph-name="scircumflex" unicode="&#x15d;" horiz-adv-x="317" d="M146.87 779.93 L69.33 656.06 L91.74 656.06 L156.61 766.1 L221.48 656.06 L243.9 656.06 L166.36 779.93 L146.87 779.93 Z M148.62 -8 C233.54 -8 275.65 44.53 275.65 150.5 C275.65 238.81 240.55 265.14 164.9 308.69 C94.55 349.03 63.65 368.75 63.65 448.44 C63.65 533.81 93.26 573.8 157.6 573.8 C193.6 573.8 225.23 563.32 253.03 542.22 L257.3 561.55 C226.2 581.88 192.84 591.95 156.64 591.95 C80.72 591.95 43.09 544.25 43.09 448.04 C43.09 359.02 79.14 333.29 151.24 292.41 C226.44 249.5 254.83 228.75 254.83 149.56 C254.83 54.64 221.28 10.22 148.48 10.22 C107.03 10.22 71.69 20.24 41.83 40.47 L37.65 21.27 C69.54 1.7 106.32 -8 148.62 -8 L148.62 -8 Z " />
<glyph glyph-name="Scedilla" unicode="&#x15e;" horiz-adv-x="378" d="M327.03 186.98 C327.03 297.97 285.63 330.25 194.21 384.8 C110.16 434.73 72.83 460.3 72.83 561.35 C72.83 669.73 108.87 720.96 186.71 720.96 C229.9 720.96 267.68 707.9 300.7 681.56 L305.18 701.96 C268.47 727.37 228.94 739.96 185.91 739.96 C96.33 739.96 51.93 680.69 51.93 561.13 C51.93 449.55 95.11 419.07 181.1 367.18 C270.89 313.15 305.89 286.96 305.89 186.12 C305.89 65.87 265.02 9.03001 176.84 9.03001 C127.29 9.03001 85.26 21.49 50.04 46.63 L45.65 26.37 C80.89 3.59003 121.28 -8.42998 167.45 -9.85997 L160.82 -65.98 L172.18 -65.98 C212.26 -65.98 230.76 -86.53 230.76 -129.49 C230.76 -175.4 214.08 -197.41 178.74 -197.41 C156.93 -197.41 138.36 -191.29 122.7 -178.94 L119.41 -197.49 C136.53 -209.04 156.35 -214.76 179.2 -214.76 C224.86 -214.76 247.5 -186.61 247.5 -129.81 C247.5 -76.99 224.53 -50.81 178.2 -50.81 L182.86 -9.91998 C279.24 -7.35999 327.03 57.92 327.03 186.98 L327.03 186.98 Z " />
<glyph glyph-name="scedilla" unicode="&#x15f;" horiz-adv-x="317" d="M275.65 150.5 C275.65 238.81 240.55 265.14 164.9 308.69 C94.55 349.03 63.65 368.75 63.65 448.44 C63.65 533.81 93.26 573.8 157.6 573.8 C193.6 573.8 225.23 563.32 253.03 542.22 L257.3 561.55 C226.2 581.88 192.84 591.95 156.64 591.95 C80.72 591.95 43.09 544.25 43.09 448.04 C43.09 359.02 79.14 333.29 151.24 292.41 C226.44 249.5 254.83 228.75 254.83 149.56 C254.83 54.64 221.28 10.22 148.48 10.22 C107.03 10.22 71.69 20.24 41.83 40.47 L37.65 21.27 C67.23 3.11 101.03 -6.55 139.53 -7.85001 L132.66 -65.98 L144.01 -65.98 C184.1 -65.98 202.59 -86.53 202.59 -129.49 C202.59 -175.4 185.92 -197.41 150.57 -197.41 C128.77 -197.41 110.2 -191.29 94.53 -178.94 L91.25 -197.49 C108.36 -209.04 128.18 -214.76 151.04 -214.76 C196.7 -214.76 219.33 -186.61 219.33 -129.81 C219.33 -76.99 196.36 -50.81 150.04 -50.81 L154.93 -7.90002 C235.63 -5.33002 275.65 47.19 275.65 150.5 L275.65 150.5 Z " />
<glyph glyph-name="Scaron" unicode="&#x160;" horiz-adv-x="378" d="M176.1 769.44 L195.68 769.44 L284.86 887.35 L261.8 887.35 L185.89 782.64 L109.98 887.35 L86.91 887.35 L176.1 769.44 Z M176.89 -10 C277.27 -10 327.03 55.28 327.03 186.98 C327.03 297.97 285.63 330.25 194.21 384.8 C110.16 434.73 72.83 460.3 72.83 561.35 C72.83 669.73 108.87 720.96 186.71 720.96 C229.9 720.96 267.68 707.9 300.7 681.56 L305.18 701.96 C268.47 727.37 228.94 739.96 185.91 739.96 C96.33 739.96 51.93 680.69 51.93 561.13 C51.93 449.55 95.11 419.07 181.1 367.18 C270.89 313.15 305.89 286.96 305.89 186.12 C305.89 65.87 265.02 9.03001 176.84 9.03001 C127.29 9.03001 85.26 21.49 50.04 46.63 L45.65 26.37 C83.27 2.05002 126.76 -9.99998 176.89 -9.99998 L176.89 -10 Z " />
<glyph glyph-name="scaron" unicode="&#x161;" horiz-adv-x="317" d="M146.87 656.06 L166.36 656.06 L243.9 779.93 L221.48 779.93 L156.61 669.89 L91.74 779.93 L69.33 779.93 L146.87 656.06 Z M148.62 -8 C233.54 -8 275.65 44.53 275.65 150.5 C275.65 238.81 240.55 265.14 164.9 308.69 C94.55 349.03 63.65 368.75 63.65 448.44 C63.65 533.81 93.26 573.8 157.6 573.8 C193.6 573.8 225.23 563.32 253.03 542.22 L257.3 561.55 C226.2 581.88 192.84 591.95 156.64 591.95 C80.72 591.95 43.09 544.25 43.09 448.04 C43.09 359.02 79.14 333.29 151.24 292.41 C226.44 249.5 254.83 228.75 254.83 149.56 C254.83 54.64 221.28 10.22 148.48 10.22 C107.03 10.22 71.69 20.24 41.83 40.47 L37.65 21.27 C69.54 1.7 106.32 -8 148.62 -8 L148.62 -8 Z " />
<glyph glyph-name="uni0162" unicode="&#x162;" horiz-adv-x="353" d="M187.3 0 L187.3 710.65 L330.93 710.65 L330.93 730 L22.55 730 L22.55 710.65 L166.18 710.65 L166.18 0 L169.14 0 L161.35 -65.98 L172.7 -65.98 C212.78 -65.98 231.28 -86.53 231.28 -129.49 C231.28 -175.4 214.6 -197.41 179.26 -197.41 C157.46 -197.41 138.89 -191.29 123.22 -178.94 L119.94 -197.49 C137.05 -209.04 156.87 -214.76 179.73 -214.76 C225.39 -214.76 248.02 -186.61 248.02 -129.81 C248.02 -76.99 225.05 -50.81 178.73 -50.81 L184.52 -1.52588e-05 L187.3 0 Z " />
<glyph glyph-name="uni0163" unicode="&#x163;" horiz-adv-x="298" d="M159.47 0 L159.47 565.43 L279.63 565.43 L279.63 584 L18.55 584 L18.55 565.43 L138.71 565.43 L138.71 0 L141.5 0 L133.7 -65.98 L145.05 -65.98 C185.13 -65.98 203.63 -86.53 203.63 -129.49 C203.63 -175.4 186.95 -197.41 151.61 -197.41 C129.81 -197.41 111.24 -191.29 95.57 -178.94 L92.29 -197.49 C109.4 -209.04 129.22 -214.76 152.08 -214.76 C197.74 -214.76 220.37 -186.61 220.37 -129.81 C220.37 -76.99 197.4 -50.81 151.07 -50.81 L156.87 -1.52588e-05 L159.47 0 Z " />
<glyph glyph-name="Tcaron" unicode="&#x164;" horiz-adv-x="353" d="M186.51 769.44 L275.69 887.35 L252.63 887.35 L176.72 782.64 L100.81 887.35 L77.74 887.35 L166.93 769.44 L186.51 769.44 Z M330.93 730 L22.55 730 L22.55 710.65 L166.18 710.65 L166.18 0 L187.3 0 L187.3 710.65 L330.93 710.65 L330.93 730 Z " />
<glyph glyph-name="tcaron" unicode="&#x165;" horiz-adv-x="298" d="M158.81 656.06 L236.35 779.93 L213.94 779.93 L149.07 669.89 L84.2 779.93 L61.78 779.93 L139.32 656.06 L158.81 656.06 Z M279.63 584 L18.55 584 L18.55 565.43 L138.71 565.43 L138.71 0 L159.47 0 L159.47 565.43 L279.63 565.43 L279.63 584 Z " />
<glyph glyph-name="Tbar" unicode="&#x166;" horiz-adv-x="377" d="M342.48 710.65 L342.48 730 L34.1 730 L34.1 710.65 L177.73 710.65 L177.73 377.2 L95.87 377.2 L95.87 360.14 L177.73 360.14 L177.73 0 L198.85 0 L198.85 360.14 L280.64 360.14 L280.64 377.2 L198.85 377.2 L198.85 710.65 L342.48 710.65 Z " />
<glyph glyph-name="tbar" unicode="&#x167;" horiz-adv-x="317" d="M289.18 565.43 L289.18 584 L28.1 584 L28.1 565.43 L148.25 565.43 L148.25 303.02 L79.99 303.02 L79.99 286.74 L148.25 286.74 L148.25 -1.52588e-05 L169.02 -1.52588e-05 L169.02 286.74 L237.24 286.74 L237.24 303.02 L169.02 303.02 L169.02 565.43 L289.18 565.43 Z " />
<glyph glyph-name="Utilde" unicode="&#x168;" horiz-adv-x="467" d="M288.01 825.8 C316.46 825.8 337.33 844.69 350.98 883 L336.98 889.94 C327.32 859.43 311.16 844.19 287.86 844.19 C248.48 844.19 231.5 902.19 185.02 902.19 C153.66 902.19 132.04 882.35 119.8 842.1 L133.96 836.13 C143.87 867.93 160.76 883.8 185.14 883.8 C225.32 883.8 242.44 825.8 288.01 825.8 L288.01 825.8 Z M236.68 -10 C341.38 -10 393.28 72.74 393.28 239.66 L393.28 730 L372.61 730 L372.61 239.71 C372.61 83.18 329.81 9.53001 236.68 9.53001 C143.92 9.53001 101.29 83.18 101.29 239.71 L101.29 730 L80.41 730 L80.41 239.66 C80.41 72.74 132.2 -10 236.68 -10 L236.68 -10 Z " />
<glyph glyph-name="utilde" unicode="&#x169;" horiz-adv-x="392" d="M243.57 679.8 C268.89 679.8 287.37 698.69 299.31 737 L285.85 743.94 C277.5 713.43 263.56 698.19 243.38 698.19 C209.24 698.19 194.36 756.19 153.62 756.19 C125.74 756.19 106.62 736.35 95.93 696.1 L109.56 690.13 C118.12 721.93 132.69 737.8 153.76 737.8 C188.62 737.8 203.66 679.8 243.57 679.8 L243.57 679.8 Z M198.68 -8 C287.27 -8 331.18 58.45 331.18 192.49 L331.18 584 L310.87 584 L310.87 192.51 C310.87 68.37 275.7 10.81 198.68 10.81 C121.95 10.81 86.93 68.37 86.93 192.51 L86.93 584 L66.41 584 L66.41 192.49 C66.41 58.45 110.25 -8 198.68 -8 L198.68 -8 Z " />
<glyph glyph-name="Umacron" unicode="&#x16a;" horiz-adv-x="467" d="M129.31 854.91 L343.87 854.91 L343.87 873.09 L129.31 873.09 L129.31 854.91 Z M236.68 -10 C341.38 -10 393.28 72.74 393.28 239.66 L393.28 730 L372.61 730 L372.61 239.71 C372.61 83.18 329.81 9.53001 236.68 9.53001 C143.92 9.53001 101.29 83.18 101.29 239.71 L101.29 730 L80.41 730 L80.41 239.66 C80.41 72.74 132.2 -10 236.68 -10 L236.68 -10 Z " />
<glyph glyph-name="umacron" unicode="&#x16b;" horiz-adv-x="392" d="M100.57 708.91 L296.63 708.91 L296.63 727.09 L100.57 727.09 L100.57 708.91 Z M198.68 -8 C287.27 -8 331.18 58.45 331.18 192.49 L331.18 584 L310.87 584 L310.87 192.51 C310.87 68.37 275.7 10.81 198.68 10.81 C121.95 10.81 86.93 68.37 86.93 192.51 L86.93 584 L66.41 584 L66.41 192.49 C66.41 58.45 110.25 -8 198.68 -8 L198.68 -8 Z " />
<glyph glyph-name="Ubreve" unicode="&#x16c;" horiz-adv-x="467" d="M236.73 770.79 C289.53 770.79 319.14 802.86 326.08 867.54 L311.31 867.35 C305.33 814.04 281.76 788.82 236.85 788.82 C192.52 788.82 169.24 813.65 163.28 866.12 L148.51 866.12 C155.43 802.39 184.67 770.79 236.73 770.79 L236.73 770.79 Z M236.68 -10 C341.38 -10 393.28 72.74 393.28 239.66 L393.28 730 L372.61 730 L372.61 239.71 C372.61 83.18 329.81 9.53001 236.68 9.53001 C143.92 9.53001 101.29 83.18 101.29 239.71 L101.29 730 L80.41 730 L80.41 239.66 C80.41 72.74 132.2 -10 236.68 -10 L236.68 -10 Z " />
<glyph glyph-name="ubreve" unicode="&#x16d;" horiz-adv-x="392" d="M198.71 667.16 C245.27 667.16 271.33 700.79 277.35 768.61 L263.05 768.41 C257.86 712.13 237.76 685.43 198.82 685.43 C160.39 685.43 140.53 711.71 135.36 767.12 L121.06 767.12 C127.07 700.29 152.8 667.16 198.71 667.16 L198.71 667.16 Z M198.68 -7.99998 C287.27 -7.99998 331.18 58.45 331.18 192.49 L331.18 584 L310.87 584 L310.87 192.51 C310.87 68.37 275.7 10.81 198.68 10.81 C121.95 10.81 86.93 68.37 86.93 192.51 L86.93 584 L66.41 584 L66.41 192.49 C66.41 58.45 110.25 -7.99998 198.68 -7.99998 L198.68 -7.99998 Z " />
<glyph glyph-name="Uring" unicode="&#x16e;" horiz-adv-x="467" d="M236.14 777.58 C278.9 777.58 303.4 813.71 303.4 876.76 C303.4 937.86 279.26 972.86 237.13 972.86 C194.37 972.86 169.87 937.29 169.87 875.22 C169.87 813.14 194.01 777.57 236.14 777.57 L236.14 777.58 Z M236.27 793.95 C202.63 793.95 184.69 822.64 184.69 875.22 C184.69 927.79 202.89 956.48 237.01 956.48 C270.64 956.48 288.59 928.24 288.59 876.49 C288.59 823.09 270.38 793.95 236.27 793.95 L236.27 793.95 Z M236.68 -10.01 C341.38 -10.01 393.28 72.73 393.28 239.65 L393.28 729.99 L372.61 729.99 L372.61 239.7 C372.61 83.17 329.81 9.52002 236.68 9.52002 C143.92 9.52002 101.29 83.17 101.29 239.7 L101.29 729.99 L80.41 729.99 L80.41 239.65 C80.41 72.73 132.2 -10.01 236.68 -10.01 L236.68 -10.01 Z " />
<glyph glyph-name="uring" unicode="&#x16f;" horiz-adv-x="392" d="M198.16 631.58 C240.91 631.58 265.41 667.71 265.41 730.76 C265.41 791.86 241.27 826.86 199.14 826.86 C156.38 826.86 131.88 791.29 131.88 729.22 C131.88 667.14 156.03 631.57 198.16 631.57 L198.16 631.58 Z M198.28 647.95 C164.65 647.95 146.7 676.64 146.7 729.22 C146.7 781.79 164.9 810.48 199.02 810.48 C232.65 810.48 250.6 782.24 250.6 730.49 C250.6 677.09 232.4 647.95 198.28 647.95 L198.28 647.95 Z M198.68 -8.00999 C287.27 -8.00999 331.18 58.44 331.18 192.48 L331.18 583.99 L310.87 583.99 L310.87 192.5 C310.87 68.36 275.7 10.8 198.68 10.8 C121.95 10.8 86.93 68.36 86.93 192.5 L86.93 583.99 L66.41 583.99 L66.41 192.48 C66.41 58.44 110.25 -8.00999 198.68 -8.00999 L198.68 -8.00999 Z " />
<glyph glyph-name="Uhungarumlaut" unicode="&#x170;" horiz-adv-x="467" d="M203.28 758.33 L253.24 941.93 L235.93 949.22 L191.21 763.45 L203.28 758.33 Z M286.74 758.33 L336.69 941.93 L319.39 949.22 L274.66 763.45 L286.74 758.33 Z M236.68 -10 C341.38 -10 393.28 72.74 393.28 239.66 L393.28 730 L372.61 730 L372.61 239.71 C372.61 83.18 329.81 9.53001 236.68 9.53001 C143.92 9.53001 101.29 83.18 101.29 239.71 L101.29 730 L80.41 730 L80.41 239.66 C80.41 72.74 132.2 -10 236.68 -10 L236.68 -10 Z " />
<glyph glyph-name="uhungarumlaut" unicode="&#x171;" horiz-adv-x="392" d="M165.3 632.33 L215.25 815.93 L197.95 823.22 L153.22 637.45 L165.3 632.33 Z M248.75 632.33 L298.71 815.93 L281.4 823.22 L236.67 637.45 L248.75 632.33 Z M198.68 -8 C287.27 -8 331.18 58.45 331.18 192.49 L331.18 584 L310.87 584 L310.87 192.51 C310.87 68.37 275.7 10.81 198.68 10.81 C121.95 10.81 86.93 68.37 86.93 192.51 L86.93 584 L66.41 584 L66.41 192.49 C66.41 58.45 110.25 -8 198.68 -8 L198.68 -8 Z " />
<glyph glyph-name="Uogonek" unicode="&#x172;" horiz-adv-x="467" d="M372.61 730 L372.61 239.71 C372.61 83.18 329.81 9.53001 236.68 9.53001 C143.92 9.53001 101.29 83.18 101.29 239.71 L101.29 730 L80.41 730 L80.41 239.66 C80.41 83.5 125.74 1.00999 217.15 -8.97 C171.65 -37.06 144.95 -82.34 144.95 -132.65 C144.95 -177.6 163.16 -203.36 194.95 -203.36 C210.05 -203.36 224.51 -198.83 238.59 -189.69 L233.54 -171.48 C223.09 -181.25 211.08 -186.1 197.48 -186.1 C174.95 -186.1 162.17 -166.04 162.17 -130.71 C162.17 -82.8 188.83 -38.89 236.68 -9.99998 C341.38 -9.99998 393.28 72.74 393.28 239.66 L393.28 730 L372.61 730 Z " />
<glyph glyph-name="uogonek" unicode="&#x173;" horiz-adv-x="392" d="M310.87 584 L310.87 192.51 C310.87 68.37 275.7 10.81 198.68 10.81 C121.95 10.81 86.93 68.37 86.93 192.51 L86.93 584 L66.41 584 L66.41 192.49 C66.41 68.61 103.85 2.47 179.33 -6.85001 C133.72 -34.93 106.94 -80.27 106.94 -130.65 C106.94 -175.6 125.16 -201.36 156.95 -201.36 C172.04 -201.36 186.51 -196.83 200.59 -187.69 L195.53 -169.48 C185.08 -179.25 173.08 -184.1 159.48 -184.1 C136.94 -184.1 124.16 -164.04 124.16 -128.71 C124.16 -80.8 150.83 -36.89 198.68 -8 C287.27 -8 331.18 58.45 331.18 192.49 L331.18 584 L310.87 584 Z " />
<glyph glyph-name="Wcircumflex" unicode="&#x174;" horiz-adv-x="670" d="M236.48 769.44 L259.55 769.44 L335.46 874.15 L411.37 769.44 L434.43 769.44 L345.25 887.35 L325.67 887.35 L236.48 769.44 Z M184.73 -0.0299988 L204.51 -0.0299988 L335.29 682.72 L465.97 -0.0299988 L485.46 -0.0299988 L625.14 730 L603.14 730 L476.12 45.99 L345.27 729.99 L325.58 729.99 L194.78 45.03 L67.76 730 L45.65 730 L184.73 -0.0299988 Z " />
<glyph glyph-name="wcircumflex" unicode="&#x175;" horiz-adv-x="563" d="M272.13 779.93 L194.59 656.06 L217.01 656.06 L281.88 766.1 L346.75 656.06 L369.16 656.06 L291.62 779.93 L272.13 779.93 Z M154.08 -0.030014 L174.65 -0.030014 L281.7 537.53 L388.64 -0.030014 L408.9 -0.030014 L525.95 584 L504.12 584 L399.44 44.63 L292.38 584 L271.34 584 L164.31 43.88 L59.62 584 L37.65 584 L154.08 -0.030014 Z " />
<glyph glyph-name="Ycircumflex" unicode="&#x176;" horiz-adv-x="404" d="M103.6 769.44 L126.67 769.44 L202.58 874.15 L278.49 769.44 L301.55 769.44 L212.37 887.35 L192.79 887.35 L103.6 769.44 Z M192.22 0 L212.1 0 L212.07 291.44 L374.77 730 L352.36 730 L202.4 318.72 L52.44 730 L29.21 730 L192.25 292.07 L192.22 0 Z " />
<glyph glyph-name="ycircumflex" unicode="&#x177;" horiz-adv-x="341" d="M161.42 779.93 L83.88 656.06 L106.29 656.06 L171.16 766.1 L236.03 656.06 L258.45 656.06 L180.9 779.93 L161.42 779.93 Z M161.02 0 L180.48 0 L180.44 232.67 L317.06 584 L295.11 584 L171 259.17 L46.85 584 L24.21 584 L161.05 233.13 L161.02 0 Z " />
<glyph glyph-name="Ydieresis" unicode="&#x178;" horiz-adv-x="404" d="M151.16 787.21 C167.11 787.21 173.42 794.92 173.42 816.23 C173.42 837.49 167.14 845.19 151.25 845.19 C135.3 845.19 128.99 837.49 128.99 816.2 C128.99 794.91 135.28 787.21 151.16 787.21 L151.16 787.21 Z M252.37 787.21 C268.33 787.21 274.64 794.92 274.64 816.23 C274.64 837.49 268.35 845.19 252.47 845.19 C236.51 845.19 230.2 837.49 230.2 816.2 C230.2 794.91 236.49 787.21 252.37 787.21 L252.37 787.21 Z M192.22 3.05176e-05 L212.1 3.05176e-05 L212.07 291.44 L374.77 730 L352.36 730 L202.4 318.72 L52.44 730 L29.21 730 L192.25 292.07 L192.22 3.05176e-05 Z " />
<glyph glyph-name="Zacute" unicode="&#x179;" horiz-adv-x="384" d="M177.42 776.32 L293.69 869.21 L284.72 886.98 L171.17 788.71 L177.42 776.32 Z M45.65 0 L338.27 0 L338.27 19.48 L69.62 19.48 L338.03 713.36 L338.03 730 L55.91 730 L55.91 710.66 L315.5 710.66 L45.65 16.7 L45.65 0 Z " />
<glyph glyph-name="zacute" unicode="&#x17a;" horiz-adv-x="323" d="M135.09 657.91 L239.03 779.77 L227.37 795.56 L126.96 668.93 L135.09 657.91 Z M37.65 0 L285.17 0 L285.17 18.79 L60.98 18.79 L284.91 568.11 L284.91 584 L46.26 584 L46.26 565.39 L262.89 565.39 L37.65 15.98 L37.65 0 Z " />
<glyph glyph-name="Zdotaccent" unicode="&#x17b;" horiz-adv-x="384" d="M197.06 786.98 C213.39 786.98 219.84 794.79 219.84 816.36 C219.84 837.83 213.42 845.6 197.17 845.6 C180.77 845.6 174.3 837.81 174.3 816.29 C174.3 794.77 180.74 786.98 197.06 786.98 L197.06 786.98 Z M45.65 1.52588e-05 L338.27 1.52588e-05 L338.27 19.48 L69.62 19.48 L338.03 713.36 L338.03 730 L55.91 730 L55.91 710.66 L315.5 710.66 L45.65 16.7 L45.65 1.52588e-05 Z " />
<glyph glyph-name="zdotaccent" unicode="&#x17c;" horiz-adv-x="323" d="M165.68 689.88 C182.01 689.88 187.92 697.69 187.92 719.27 C187.92 740.73 182.04 748.5 165.79 748.5 C149.4 748.5 143.46 740.71 143.46 719.19 C143.46 697.67 149.37 689.88 165.68 689.88 L165.68 689.88 Z M37.65 1.52588e-05 L285.17 1.52588e-05 L285.17 18.79 L60.98 18.79 L284.91 568.11 L284.91 584 L46.26 584 L46.26 565.39 L262.89 565.39 L37.65 15.98 L37.65 1.52588e-05 Z " />
<glyph glyph-name="Zcaron" unicode="&#x17d;" horiz-adv-x="384" d="M187.15 769.44 L206.73 769.44 L295.92 887.35 L272.85 887.35 L196.94 782.64 L121.03 887.35 L97.97 887.35 L187.15 769.44 Z M45.65 0 L338.27 0 L338.27 19.48 L69.62 19.48 L338.03 713.36 L338.03 730 L55.91 730 L55.91 710.66 L315.5 710.66 L45.65 16.7 L45.65 0 Z " />
<glyph glyph-name="zcaron" unicode="&#x17e;" horiz-adv-x="323" d="M155.82 656.06 L175.31 656.06 L252.85 779.93 L230.44 779.93 L165.57 669.89 L100.7 779.93 L78.28 779.93 L155.82 656.06 Z M37.65 0 L285.17 0 L285.17 18.79 L60.98 18.79 L284.91 568.11 L284.91 584 L46.26 584 L46.26 565.39 L262.89 565.39 L37.65 15.98 L37.65 0 Z " />
<glyph glyph-name="longs" unicode="&#x17f;" horiz-adv-x="225" d="M145.6 609.63 C91.04 609.63 64 563.2 64 469.53 L64 432 L21.43 432 L21.43 415.22 L64 415.22 L64 1.52588e-05 L83.76 1.52588e-05 L83.76 470.18 C83.76 553.22 103.46 591.74 146.58 591.74 C164.6 591.74 182.45 585.32 195.82 574.1 L200.77 591.89 C183.19 603.77 164.97 609.63 145.6 609.63 L145.6 609.63 Z " />
<glyph glyph-name="uni018F" unicode="&#x18f;" horiz-adv-x="458" d="M208.99 739.75 C166.75 739.75 125.69 726.74 86.48 700.95 L92.19 680.8 C124.08 705.53 165.94 719.77 207.76 719.77 C320.32 719.77 373.82 607.9 376.07 378.24 L69.89 378.24 C53.91 127.91 106.99 -13.45 226.06 -13.45 C339.49 -13.45 397 111.57 397 363.15 C397 615.3 335.17 739.75 208.99 739.75 L208.99 739.75 Z M226.24 6.47002 C125.04 6.47002 76.96 134.73 88.68 358.51 L376.14 358.51 C375.55 121.78 327.6 6.47002 226.24 6.47002 L226.24 6.47002 Z " />
<glyph glyph-name="florin" unicode="&#x192;" horiz-adv-x="313" d="M218.64 573 C236.87 573 254.99 566.28 268.54 554.7 L273.52 572.57 C255.72 584.94 237.28 590.97 217.68 590.97 C162.57 590.97 143.26 542.14 135.58 445.84 L125.76 323.39 L56.57 323.39 L56.57 306.51 L124.41 306.51 L97.26 -32.19 C90.43 -117.29 76.43 -158 33.79 -158 C15.56 -158 -2.51003 -151.28 -16.05 -139.69 L-21.03 -157.57 C-3.23001 -169.85 15.15 -175.96 34.75 -175.96 C89.86 -175.96 109.24 -127.15 116.92 -30.85 L144.04 306.51 L224.12 306.51 L224.12 323.39 L145.4 323.39 L155.36 447.29 C162.13 532.3 176 573 218.64 573 L218.64 573 Z " />
<glyph glyph-name="uni01C4" unicode="&#x1c4;" horiz-adv-x="828" d="M631.7 769.44 L651.28 769.44 L740.46 887.35 L717.4 887.35 L641.49 782.64 L565.57 887.35 L542.51 887.35 L631.7 769.44 Z M80.41 0 L212.66 0 C341.48 0 405.34 120.32 405.34 363.04 C405.34 608.38 341.48 730 212.66 730 L80.41 730 L80.41 0 Z M490.19 0 L782.81 0 L782.81 19.48 L514.16 19.48 L782.57 713.36 L782.57 730 L500.45 730 L500.45 710.66 L760.04 710.66 L490.19 16.7 L490.19 0 Z M101.29 18.95 L101.29 711.12 L212.66 711.12 C330.27 711.12 384.14 599.96 384.14 363.04 C384.14 128.85 330.27 18.95 212.66 18.95 L101.29 18.95 Z " />
<glyph glyph-name="uni01C5" unicode="&#x1c5;" horiz-adv-x="767" d="M600.36 656.06 L619.85 656.06 L697.39 779.93 L674.98 779.93 L610.11 669.89 L545.24 779.93 L522.82 779.93 L600.36 656.06 Z M80.41 0 L212.66 0 C341.48 0 405.34 120.32 405.34 363.04 C405.34 608.38 341.48 730 212.66 730 L80.41 730 L80.41 0 Z M101.29 18.95 L101.29 711.12 L212.66 711.12 C330.27 711.12 384.14 599.96 384.14 363.04 C384.14 128.85 330.27 18.95 212.66 18.95 L101.29 18.95 Z M482.19 0 L729.71 0 L729.71 18.79 L505.52 18.79 L729.46 568.11 L729.46 584 L490.8 584 L490.8 565.39 L707.43 565.39 L482.19 15.98 L482.19 0 Z " />
<glyph glyph-name="uni01C6" unicode="&#x1c6;" horiz-adv-x="694" d="M526.72 656.06 L546.21 656.06 L623.75 779.93 L601.33 779.93 L536.46 669.89 L471.59 779.93 L449.18 779.93 L526.72 656.06 Z M66.41 0 L179.03 0 C287.79 0 341.7 96.26 341.7 290.44 C341.7 486.71 287.79 584 179.03 584 L66.41 584 L66.41 0 Z M408.54 -1.52588e-05 L656.07 -1.52588e-05 L656.07 18.79 L431.88 18.79 L655.81 568.11 L655.81 584 L417.16 584 L417.16 565.39 L633.79 565.39 L408.54 15.98 L408.54 -1.52588e-05 Z M86.93 18.04 L86.93 566.05 L179.03 566.05 C276.54 566.05 320.85 479.01 320.85 290.44 C320.85 104.08 276.54 18.04 179.03 18.04 L86.93 18.04 Z " />
<glyph glyph-name="uni01C7" unicode="&#x1c7;" horiz-adv-x="668" d="M101.52 730 L80.41 730 L80.41 0 L343.08 0 L343.08 19.49 L101.52 19.49 L101.52 730 Z M568.1 730 L568.1 192.65 C568.1 68.09 539.05 9.45 475.79 9.45 C447.15 9.45 422.06 19.42 400.1 39.52 L395.82 18 C420.39 -0.720001 447.2 -10 476.72 -10 C551.78 -10 588.98 57.29 588.98 193.03 L588.98 730 L568.1 730 Z " />
<glyph glyph-name="uni01C8" unicode="&#x1c8;" horiz-adv-x="636" d="M101.52 730 L80.41 730 L80.41 0 L343.08 0 L343.08 19.49 L101.52 19.49 L101.52 730 Z M541.51 584 L541.51 155.37 C541.51 58.32 515.35 10.61 462.14 10.61 C439.22 10.61 414.58 17 394.51 28.16 L390.95 10.4 C413.51 -1.3 439.85 -8 463.27 -8 C529.74 -8 561.83 45.88 561.83 155.86 L561.83 584 L541.51 584 Z " />
<glyph glyph-name="uni01C9" unicode="&#x1c9;" horiz-adv-x="564" d="M87.17 584 L66.41 584 L66.41 0 L288.63 0 L288.63 18.76 L87.17 18.76 L87.17 584 Z M479.07 584 L479.07 155.33 C479.07 56.48 455.12 10.64 402.69 10.64 C378.75 10.64 357.77 18.61 339.4 34.68 L335.28 14.34 C356.02 -0.599991 378.73 -7.99998 403.79 -7.99998 C467.84 -7.99998 499.6 46.29 499.6 155.8 L499.6 584 L479.07 584 Z " />
<glyph glyph-name="uni01CA" unicode="&#x1ca;" horiz-adv-x="757" d="M73.63 0 L93.42 0 L93.42 675.63 L380 0 L397.63 0 L397.63 730 L377.9 730 L377.9 54.37 L91.38 730 L73.63 730 L73.63 0 Z M566.68 -10 C641.74 -10 678.95 57.29 678.95 193.03 L678.95 730 L658.06 730 L658.06 192.65 C658.06 68.09 629.02 9.45 565.76 9.45 C537.12 9.45 512.03 19.42 490.07 39.52 L485.79 18 C510.35 -0.720001 537.16 -10 566.68 -10 L566.68 -10 Z " />
<glyph glyph-name="uni01CB" unicode="&#x1cb;" horiz-adv-x="709" d="M73.63 0 L93.42 0 L93.42 675.63 L380 0 L397.63 0 L397.63 730 L377.9 730 L377.9 54.37 L91.38 730 L73.63 730 L73.63 0 Z M548.29 -8 C612.35 -8 644.1 46.29 644.1 155.8 L644.1 584 L623.58 584 L623.58 155.33 C623.58 56.48 599.62 10.64 547.2 10.64 C523.26 10.64 502.28 18.61 483.91 34.68 L479.79 14.34 C500.53 -0.600006 523.23 -8 548.29 -8 L548.29 -8 Z " />
<glyph glyph-name="uni01CC" unicode="&#x1cc;" horiz-adv-x="634" d="M60.74 0 L80.34 0 L80.34 531.54 L318.13 0 L335.26 0 L335.26 584 L315.72 584 L315.72 52.46 L77.98 584 L60.74 584 L60.74 0 Z M473.29 -8 C537.35 -8 569.1 46.29 569.1 155.8 L569.1 584 L548.58 584 L548.58 155.33 C548.58 56.48 524.62 10.64 472.2 10.64 C448.26 10.64 427.28 18.61 408.91 34.68 L404.79 14.34 C425.53 -0.600006 448.23 -8 473.29 -8 L473.29 -8 Z " />
<glyph glyph-name="uni01CD" unicode="&#x1cd;" horiz-adv-x="448" d="M233.98 769.44 L323.17 887.35 L300.1 887.35 L224.19 782.64 L148.28 887.35 L125.22 887.35 L214.4 769.44 L233.98 769.44 Z M391.59 0 L414.22 0 L232.82 730.02 L215.63 730.02 L34.1 0 L56.37 0 L107.86 209.47 L340.16 209.47 L391.59 0 Z M112.47 228.25 L224.07 682.28 L335.55 228.25 L112.47 228.25 Z " />
<glyph glyph-name="uni01CE" unicode="&#x1ce;" horiz-adv-x="377" d="M198.69 656.06 L276.23 779.93 L253.82 779.93 L188.95 669.89 L124.08 779.93 L101.66 779.93 L179.2 656.06 L198.69 656.06 Z M327.48 0 L349.72 0 L197.76 584.02 L180.19 584.02 L28.1 0 L49.96 0 L92.43 165.74 L285.04 165.74 L327.48 0 Z M96.96 183.4 L188.78 541.71 L280.52 183.4 L96.96 183.4 Z " />
<glyph glyph-name="uni01CF" unicode="&#x1cf;" horiz-adv-x="182" d="M81.04 769.44 L100.62 769.44 L189.81 887.35 L166.74 887.35 L90.83 782.64 L14.92 887.35 L-8.14001 887.35 L81.04 769.44 Z M80.19 0 L101.51 0 L101.51 730 L80.19 730 L80.19 0 Z " />
<glyph glyph-name="uni01D0" unicode="&#x1d0;" horiz-adv-x="154" d="M67.12 656.06 L86.61 656.06 L164.15 779.93 L141.74 779.93 L76.87 669.89 L12 779.93 L-10.42 779.93 L67.12 656.06 Z M66.41 0 L87.37 0 L87.37 584 L66.41 584 L66.41 0 Z " />
<glyph glyph-name="uni01D1" unicode="&#x1d1;" horiz-adv-x="478" d="M229.15 769.44 L248.73 769.44 L337.92 887.35 L314.85 887.35 L238.95 782.64 L163.03 887.35 L139.97 887.35 L229.15 769.44 Z M238.97 -10 C359.82 -10 419.74 113.63 419.74 363.04 C419.74 615.06 359.82 740 238.97 740 C118.11 740 58.19 615.06 58.19 363.04 C58.19 113.63 118.11 -10 238.97 -10 L238.97 -10 Z M238.97 9.33 C129.49 9.33 79.42 122.32 79.42 363.04 C79.42 606.48 129.49 720.74 238.97 720.74 C348.44 720.74 398.51 606.48 398.51 363.04 C398.51 122.32 348.44 9.33 238.97 9.33 L238.97 9.33 Z " />
<glyph glyph-name="uni01D2" unicode="&#x1d2;" horiz-adv-x="402" d="M191.36 656.06 L210.85 656.06 L288.39 779.93 L265.97 779.93 L201.1 669.89 L136.23 779.93 L113.82 779.93 L191.36 656.06 Z M201.13 -8 C303.37 -8 354.06 90.91 354.06 290.44 C354.06 492.05 303.37 592 201.13 592 C98.88 592 48.19 492.05 48.19 290.44 C48.19 90.91 98.88 -8 201.13 -8 L201.13 -8 Z M201.13 10.6 C110.29 10.6 69.09 99.03 69.09 290.44 C69.09 484.06 110.29 573.49 201.13 573.49 C291.96 573.49 333.16 484.06 333.16 290.44 C333.16 99.03 291.96 10.6 201.13 10.6 L201.13 10.6 Z " />
<glyph glyph-name="uni01D3" unicode="&#x1d3;" horiz-adv-x="467" d="M226.78 769.44 L246.36 769.44 L335.55 887.35 L312.48 887.35 L236.57 782.64 L160.66 887.35 L137.59 887.35 L226.78 769.44 Z M236.68 -10 C341.38 -10 393.28 72.74 393.28 239.66 L393.28 730 L372.61 730 L372.61 239.71 C372.61 83.18 329.81 9.53001 236.68 9.53001 C143.92 9.53001 101.29 83.18 101.29 239.71 L101.29 730 L80.41 730 L80.41 239.66 C80.41 72.74 132.2 -10 236.68 -10 L236.68 -10 Z " />
<glyph glyph-name="uni01D4" unicode="&#x1d4;" horiz-adv-x="392" d="M188.84 656.06 L208.33 656.06 L285.87 779.93 L263.45 779.93 L198.58 669.89 L133.71 779.93 L111.3 779.93 L188.84 656.06 Z M198.68 -8 C287.27 -8 331.18 58.45 331.18 192.49 L331.18 584 L310.87 584 L310.87 192.51 C310.87 68.37 275.7 10.81 198.68 10.81 C121.95 10.81 86.93 68.37 86.93 192.51 L86.93 584 L66.41 584 L66.41 192.49 C66.41 58.45 110.25 -8 198.68 -8 L198.68 -8 Z " />
<glyph glyph-name="uni01D5" unicode="&#x1d5;" horiz-adv-x="467" d="M129.23 949.51 L343.79 949.51 L343.79 967.69 L129.23 967.69 L129.23 949.51 Z M185.15 787.21 C201.11 787.21 207.42 794.92 207.42 816.23 C207.42 837.49 201.13 845.19 185.24 845.19 C169.29 845.19 162.98 837.49 162.98 816.2 C162.98 794.91 169.27 787.21 185.15 787.21 L185.15 787.21 Z M286.37 787.21 C302.32 787.21 308.63 794.92 308.63 816.23 C308.63 837.49 302.34 845.19 286.46 845.19 C270.5 845.19 264.19 837.49 264.19 816.2 C264.19 794.91 270.48 787.21 286.37 787.21 L286.37 787.21 Z M236.68 -9.99998 C341.38 -9.99998 393.28 72.74 393.28 239.66 L393.28 730 L372.61 730 L372.61 239.71 C372.61 83.18 329.81 9.53003 236.68 9.53003 C143.92 9.53003 101.29 83.18 101.29 239.71 L101.29 730 L80.41 730 L80.41 239.66 C80.41 72.74 132.2 -9.99998 236.68 -9.99998 L236.68 -9.99998 Z " />
<glyph glyph-name="uni01D6" unicode="&#x1d6;" horiz-adv-x="392" d="M100.57 851.16 L296.63 851.16 L296.63 869.34 L100.57 869.34 L100.57 851.16 Z M151.02 690.11 C166.97 690.11 173.28 697.82 173.28 719.13 C173.28 740.4 166.99 748.09 151.11 748.09 C135.15 748.09 128.84 740.39 128.84 719.1 C128.84 697.82 135.13 690.11 151.02 690.11 L151.02 690.11 Z M246.05 690.11 C262.01 690.11 268.32 697.82 268.32 719.13 C268.32 740.4 262.03 748.09 246.14 748.09 C230.19 748.09 223.88 740.39 223.88 719.1 C223.88 697.82 230.17 690.11 246.05 690.11 L246.05 690.11 Z M198.68 -7.99997 C287.27 -7.99997 331.18 58.45 331.18 192.49 L331.18 584 L310.87 584 L310.87 192.51 C310.87 68.37 275.7 10.81 198.68 10.81 C121.95 10.81 86.93 68.37 86.93 192.51 L86.93 584 L66.41 584 L66.41 192.49 C66.41 58.45 110.25 -7.99997 198.68 -7.99997 L198.68 -7.99997 Z " />
<glyph glyph-name="uni01D7" unicode="&#x1d7;" horiz-adv-x="467" d="M236.26 881.39 L352.53 974.28 L343.56 992.05 L230.02 893.78 L236.26 881.39 Z M185.15 787.21 C201.11 787.21 207.42 794.92 207.42 816.23 C207.42 837.49 201.13 845.19 185.24 845.19 C169.29 845.19 162.98 837.49 162.98 816.2 C162.98 794.91 169.27 787.21 185.15 787.21 L185.15 787.21 Z M286.37 787.21 C302.32 787.21 308.63 794.92 308.63 816.23 C308.63 837.49 302.34 845.19 286.46 845.19 C270.5 845.19 264.19 837.49 264.19 816.2 C264.19 794.91 270.48 787.21 286.37 787.21 L286.37 787.21 Z M236.68 -9.99998 C341.38 -9.99998 393.28 72.74 393.28 239.66 L393.28 730 L372.61 730 L372.61 239.71 C372.61 83.18 329.81 9.53003 236.68 9.53003 C143.92 9.53003 101.29 83.18 101.29 239.71 L101.29 730 L80.41 730 L80.41 239.66 C80.41 72.74 132.2 -9.99998 236.68 -9.99998 L236.68 -9.99998 Z " />
<glyph glyph-name="uni01D8" unicode="&#x1d8;" horiz-adv-x="392" d="M189.23 790.17 L293.17 912.02 L281.51 927.82 L181.1 801.18 L189.23 790.17 Z M151.02 690.11 C166.97 690.11 173.28 697.82 173.28 719.13 C173.28 740.4 166.99 748.09 151.11 748.09 C135.15 748.09 128.84 740.39 128.84 719.1 C128.84 697.82 135.13 690.11 151.02 690.11 L151.02 690.11 Z M246.05 690.11 C262.01 690.11 268.32 697.82 268.32 719.13 C268.32 740.4 262.03 748.09 246.14 748.09 C230.19 748.09 223.88 740.39 223.88 719.1 C223.88 697.82 230.17 690.11 246.05 690.11 L246.05 690.11 Z M198.68 -7.99997 C287.27 -7.99997 331.18 58.45 331.18 192.49 L331.18 584 L310.87 584 L310.87 192.51 C310.87 68.37 275.7 10.81 198.68 10.81 C121.95 10.81 86.93 68.37 86.93 192.51 L86.93 584 L66.41 584 L66.41 192.49 C66.41 58.45 110.25 -7.99997 198.68 -7.99997 L198.68 -7.99997 Z " />
<glyph glyph-name="uni01D9" unicode="&#x1d9;" horiz-adv-x="467" d="M226.78 874.92 L246.36 874.92 L335.55 992.83 L312.48 992.83 L236.57 888.12 L160.66 992.83 L137.59 992.83 L226.78 874.92 Z M185.15 787.21 C201.11 787.21 207.42 794.92 207.42 816.23 C207.42 837.49 201.13 845.19 185.24 845.19 C169.29 845.19 162.98 837.49 162.98 816.2 C162.98 794.91 169.27 787.21 185.15 787.21 L185.15 787.21 Z M286.37 787.21 C302.32 787.21 308.63 794.92 308.63 816.23 C308.63 837.49 302.34 845.19 286.46 845.19 C270.5 845.19 264.19 837.49 264.19 816.2 C264.19 794.91 270.48 787.21 286.37 787.21 L286.37 787.21 Z M236.68 -9.99997 C341.38 -9.99997 393.28 72.74 393.28 239.66 L393.28 730 L372.61 730 L372.61 239.71 C372.61 83.18 329.81 9.53004 236.68 9.53004 C143.92 9.53004 101.29 83.18 101.29 239.71 L101.29 730 L80.41 730 L80.41 239.66 C80.41 72.74 132.2 -9.99997 236.68 -9.99997 L236.68 -9.99997 Z " />
<glyph glyph-name="uni01DA" unicode="&#x1da;" horiz-adv-x="392" d="M188.84 789.44 L208.33 789.44 L285.87 913.31 L263.45 913.31 L198.58 803.27 L133.71 913.31 L111.3 913.31 L188.84 789.44 Z M151.02 690.11 C166.97 690.11 173.28 697.82 173.28 719.13 C173.28 740.4 166.99 748.09 151.11 748.09 C135.15 748.09 128.84 740.39 128.84 719.1 C128.84 697.82 135.13 690.11 151.02 690.11 L151.02 690.11 Z M246.05 690.11 C262.01 690.11 268.32 697.82 268.32 719.13 C268.32 740.4 262.03 748.09 246.14 748.09 C230.19 748.09 223.88 740.39 223.88 719.1 C223.88 697.82 230.17 690.11 246.05 690.11 L246.05 690.11 Z M198.68 -7.99997 C287.27 -7.99997 331.18 58.45 331.18 192.49 L331.18 584 L310.87 584 L310.87 192.51 C310.87 68.37 275.7 10.81 198.68 10.81 C121.95 10.81 86.93 68.37 86.93 192.51 L86.93 584 L66.41 584 L66.41 192.49 C66.41 58.45 110.25 -7.99997 198.68 -7.99997 L198.68 -7.99997 Z " />
<glyph glyph-name="uni01DB" unicode="&#x1db;" horiz-adv-x="467" d="M236.2 879.61 L242.44 892 L128.89 990.27 L119.92 972.5 L236.2 879.61 Z M185.15 787.21 C201.11 787.21 207.42 794.92 207.42 816.23 C207.42 837.49 201.13 845.19 185.24 845.19 C169.29 845.19 162.98 837.49 162.98 816.2 C162.98 794.91 169.27 787.21 185.15 787.21 L185.15 787.21 Z M286.37 787.21 C302.32 787.21 308.63 794.92 308.63 816.23 C308.63 837.49 302.34 845.19 286.46 845.19 C270.5 845.19 264.19 837.49 264.19 816.2 C264.19 794.91 270.48 787.21 286.37 787.21 L286.37 787.21 Z M236.68 -9.99997 C341.38 -9.99997 393.28 72.74 393.28 239.66 L393.28 730 L372.61 730 L372.61 239.71 C372.61 83.18 329.81 9.53004 236.68 9.53004 C143.92 9.53004 101.29 83.18 101.29 239.71 L101.29 730 L80.41 730 L80.41 239.66 C80.41 72.74 132.2 -9.99997 236.68 -9.99997 L236.68 -9.99997 Z " />
<glyph glyph-name="uni01DC" unicode="&#x1dc;" horiz-adv-x="392" d="M207.31 789.17 L215.44 800.18 L115.03 926.82 L103.37 911.02 L207.31 789.17 Z M151.02 690.11 C166.97 690.11 173.28 697.82 173.28 719.13 C173.28 740.4 166.99 748.09 151.11 748.09 C135.15 748.09 128.84 740.39 128.84 719.1 C128.84 697.82 135.13 690.11 151.02 690.11 L151.02 690.11 Z M246.05 690.11 C262.01 690.11 268.32 697.82 268.32 719.13 C268.32 740.4 262.03 748.09 246.14 748.09 C230.19 748.09 223.88 740.39 223.88 719.1 C223.88 697.82 230.17 690.11 246.05 690.11 L246.05 690.11 Z M198.68 -7.99998 C287.27 -7.99998 331.18 58.45 331.18 192.49 L331.18 584 L310.87 584 L310.87 192.51 C310.87 68.37 275.7 10.81 198.68 10.81 C121.95 10.81 86.93 68.37 86.93 192.51 L86.93 584 L66.41 584 L66.41 192.49 C66.41 58.45 110.25 -7.99998 198.68 -7.99998 L198.68 -7.99998 Z " />
<glyph glyph-name="uni01EA" unicode="&#x1ea;" horiz-adv-x="478" d="M287.18 -2.37 C375.77 28.03 419.74 149.38 419.74 363.04 C419.74 615.06 359.82 740 238.97 740 C118.11 740 58.19 615.06 58.19 363.04 C58.19 113.63 118.11 -10 238.97 -10 C245.1 -10 251.07 -9.67999 256.89 -9.04999 C220.33 -37.27 199.28 -77.98 199.28 -122.65 C199.28 -167.6 217.49 -193.36 249.28 -193.36 C264.38 -193.36 278.84 -188.83 292.92 -179.69 L287.87 -161.48 C277.42 -171.25 265.41 -176.1 251.81 -176.1 C229.27 -176.1 216.49 -156.04 216.49 -120.71 C216.49 -74.09 241.74 -31.26 287.18 -2.37 L287.18 -2.37 Z M79.42 363.04 C79.42 606.48 129.49 720.74 238.97 720.74 C348.44 720.74 398.51 606.48 398.51 363.04 C398.51 122.32 348.44 9.33 238.97 9.33 C129.49 9.33 79.42 122.32 79.42 363.04 L79.42 363.04 Z " />
<glyph glyph-name="uni01EB" unicode="&#x1eb;" horiz-adv-x="402" d="M242.16 -1.82001 C316.94 22.64 354.06 119.7 354.06 290.44 C354.06 492.05 303.37 592 201.13 592 C98.88 592 48.19 492.05 48.19 290.44 C48.19 90.91 98.88 -8 201.13 -8 C205.16 -8 209.11 -7.85001 212.98 -7.54001 C175.2 -35.81 153.38 -77.18 153.38 -122.65 C153.38 -167.6 171.59 -193.36 203.38 -193.36 C218.48 -193.36 232.94 -188.83 247.02 -179.69 L241.97 -161.48 C231.52 -171.25 219.51 -176.1 205.91 -176.1 C183.38 -176.1 170.6 -156.04 170.6 -120.71 C170.6 -73.79 196.16 -30.71 242.16 -1.82001 L242.16 -1.82001 Z M69.09 290.44 C69.09 484.06 110.29 573.49 201.13 573.49 C291.96 573.49 333.16 484.06 333.16 290.44 C333.16 99.03 291.96 10.6 201.13 10.6 C110.29 10.6 69.09 99.03 69.09 290.44 L69.09 290.44 Z " />
<glyph glyph-name="uni01F1" unicode="&#x1f1;" horiz-adv-x="828" d="M80.41 0 L212.66 0 C341.48 0 405.34 120.32 405.34 363.04 C405.34 608.38 341.48 730 212.66 730 L80.41 730 L80.41 0 Z M490.19 0 L782.81 0 L782.81 19.48 L514.16 19.48 L782.57 713.36 L782.57 730 L500.45 730 L500.45 710.66 L760.04 710.66 L490.19 16.7 L490.19 0 Z M101.29 18.95 L101.29 711.12 L212.66 711.12 C330.27 711.12 384.14 599.96 384.14 363.04 C384.14 128.85 330.27 18.95 212.66 18.95 L101.29 18.95 Z " />
<glyph glyph-name="uni01F2" unicode="&#x1f2;" horiz-adv-x="767" d="M80.41 0 L212.66 0 C341.48 0 405.34 120.32 405.34 363.04 C405.34 608.38 341.48 730 212.66 730 L80.41 730 L80.41 0 Z M101.29 18.95 L101.29 711.12 L212.66 711.12 C330.27 711.12 384.14 599.96 384.14 363.04 C384.14 128.85 330.27 18.95 212.66 18.95 L101.29 18.95 Z M482.19 0 L729.71 0 L729.71 18.79 L505.52 18.79 L729.46 568.11 L729.46 584 L490.8 584 L490.8 565.39 L707.43 565.39 L482.19 15.98 L482.19 0 Z " />
<glyph glyph-name="uni01F3" unicode="&#x1f3;" horiz-adv-x="694" d="M66.41 0 L179.03 0 C287.79 0 341.7 96.26 341.7 290.44 C341.7 486.71 287.79 584 179.03 584 L66.41 584 L66.41 0 Z M408.54 -1.52588e-05 L656.07 -1.52588e-05 L656.07 18.79 L431.88 18.79 L655.81 568.11 L655.81 584 L417.16 584 L417.16 565.39 L633.79 565.39 L408.54 15.98 L408.54 -1.52588e-05 Z M86.93 18.04 L86.93 566.05 L179.03 566.05 C276.54 566.05 320.85 479.01 320.85 290.44 C320.85 104.08 276.54 18.04 179.03 18.04 L86.93 18.04 Z " />
<glyph glyph-name="uni01F4" unicode="&#x1f4;" horiz-adv-x="451" d="M346.9 869.4 L337.93 887.17 L224.38 788.9 L230.63 776.52 L346.9 869.4 Z M231.96 350.69 L231.96 333.17 L365.37 333.17 L365.37 105.84 C338.98 42.04 299.03 9.08998 244.72 9.08998 C131.15 9.08998 79.33 122.12 79.33 363.03 C79.33 606.71 136.1 721.02 260.75 721.02 C298.59 721.02 329.56 711.04 354.2 690.91 L358.97 711.11 C330.05 730.42 297.26 740 260.06 740 C125.1 740 58.19 615.06 58.19 363.03 C58.19 114.98 119.98 -10 241.39 -10 C297.52 -10 339.91 20.88 368.7 83.18 L369.35 83.18 L371.54 -1.52588e-05 L383.61 -1.52588e-05 L383.61 350.69 L231.96 350.69 Z " />
<glyph glyph-name="uni01F5" unicode="&#x1f5;" horiz-adv-x="378" d="M283.6 779.92 L271.95 795.72 L171.54 669.08 L179.66 658.07 L283.6 779.92 Z M194.81 281.79 L194.81 265.11 L305.25 265.11 L305.25 85.46 C283.58 35.91 250.7 10.32 205.96 10.32 C111.77 10.32 68.98 98.8 68.98 290.44 C68.98 484.33 115.81 573.82 219.65 573.82 C251.25 573.82 277.17 565.82 297.86 549.69 L302.39 568.94 C277.9 584.36 250.17 592 218.72 592 C104.71 592 48.19 492.05 48.19 290.44 C48.19 92.33 100.22 -7.99998 202.1 -7.99998 C249.06 -7.99998 284.53 16.58 308.65 66.16 L309.2 66.16 L311.4 1.52588e-05 L323.04 1.52588e-05 L323.04 281.79 L194.81 281.79 Z " />
<glyph glyph-name="Aringacute" unicode="&#x1fa;" horiz-adv-x="448" d="M320.94 1040.74 L311.97 1058.52 L198.42 960.24 L204.67 947.86 L320.94 1040.74 Z M391.59 0 L414.22 0 L234.86 721.81 C270.74 727.66 291.03 762.74 291.03 820.12 C291.03 881.22 266.88 916.22 224.75 916.22 C182 916.22 157.5 880.65 157.5 818.57 C157.5 761.7 177.76 727.08 213.56 721.67 L34.1 -0.00997925 L56.37 -0.00997925 L107.72 209.46 L340.29 209.46 L391.59 0 Z M172.31 818.57 C172.31 871.15 190.51 899.83 224.63 899.83 C258.27 899.83 276.21 871.6 276.21 819.84 C276.21 766.45 258.01 737.31 223.89 737.31 C190.26 737.31 172.31 766 172.31 818.57 L172.31 818.57 Z M112.32 228.24 L224.07 684.05 L335.7 228.24 L112.32 228.24 Z " />
<glyph glyph-name="aringacute" unicode="&#x1fb;" horiz-adv-x="377" d="M262.41 918.64 L250.75 934.44 L150.34 807.8 L158.47 796.79 L262.41 918.64 Z M327.47 1.52588e-05 L349.71 1.52588e-05 L200.73 572.58 C235.9 578.97 255.77 613.92 255.77 670.69 C255.77 731.79 231.63 766.79 189.5 766.79 C146.74 766.79 122.24 731.22 122.24 669.15 C122.24 612.88 142.08 578.39 177.16 572.43 L28.09 -0.0100098 L49.95 -0.0100098 L92.42 165.73 L285.03 165.73 L327.47 1.52588e-05 Z M137.06 669.15 C137.06 721.72 155.26 750.41 189.37 750.41 C223.01 750.41 240.95 722.17 240.95 670.42 C240.95 617.02 222.75 587.88 188.63 587.88 C155 587.88 137.06 616.57 137.06 669.15 L137.06 669.15 Z M96.95 183.39 L188.77 541.7 L280.51 183.39 L96.95 183.39 Z " />
<glyph glyph-name="AEacute" unicode="&#x1fc;" horiz-adv-x="661" d="M477.73 869.21 L468.76 886.98 L355.21 788.71 L361.46 776.32 L477.73 869.21 Z M370.55 18.96 L370.55 360.75 L589.42 360.75 L589.42 379.51 L370.55 379.51 L370.55 711.18 L609 711.18 L609 730 L343.09 730 L34.1 0 L58.09 0 L145.9 209.47 L349.69 209.47 L349.69 0 L615.65 0 L615.65 18.96 L370.55 18.96 Z M349.69 228.25 L153.77 228.25 L349.69 695.59 L349.69 228.25 Z " />
<glyph glyph-name="aeacute" unicode="&#x1fd;" horiz-adv-x="556" d="M393.35 779.77 L381.7 795.56 L281.29 668.93 L289.41 657.91 L393.35 779.77 Z M314.27 18.09 L314.27 287.22 L496.71 287.22 L496.71 305.05 L314.27 305.05 L314.27 566.06 L513.16 566.06 L513.16 584 L286.94 584 L28.1 -1.52588e-05 L51.66 -1.52588e-05 L124.44 165.74 L293.77 165.74 L293.77 -1.52588e-05 L518.77 -1.52588e-05 L518.77 18.09 L314.27 18.09 Z M293.77 183.4 L132.2 183.4 L293.77 551.34 L293.77 183.4 Z " />
<glyph glyph-name="Oslashacute" unicode="&#x1fe;" horiz-adv-x="478" d="M335.69 869.21 L326.72 886.98 L213.17 788.71 L219.41 776.32 L335.69 869.21 Z M355.49 678.93 L391.8 783.35 L379.17 790 L345.15 692.13 C317.49 724.08 282.11 740 238.97 740 C118.11 740 58.19 615.06 58.19 363.04 C58.19 214.51 79.44 110.59 122.15 50.82 L85.99 -53.17 L98.56 -60 L132.52 37.67 C160.22 5.84998 195.68 -10 238.97 -10 C359.82 -10 419.74 113.63 419.74 363.04 C419.74 513.45 398.39 618.6 355.49 678.93 L355.49 678.93 Z M79.42 363.04 C79.42 606.48 129.49 720.74 238.97 720.74 C280.21 720.74 313.02 704.52 337.9 671.29 L129.94 73.21 C95.69 130.15 79.42 225.85 79.42 363.04 L79.42 363.04 Z M238.97 9.32997 C197.59 9.32997 164.69 25.48 139.78 58.56 L347.72 656.59 C382.16 599.06 398.51 502.14 398.51 363.04 C398.51 122.32 348.44 9.32996 238.97 9.32996 L238.97 9.32997 Z " />
<glyph glyph-name="oslashacute" unicode="&#x1ff;" horiz-adv-x="402" d="M274.56 779.77 L262.91 795.56 L162.5 668.93 L170.62 657.91 L274.56 779.77 Z M298.25 545.05 L327.68 626.19 L319.03 632 L290.73 553.95 C267.36 579.34 237.51 592 201.13 592 C98.88 592 48.19 492.05 48.19 290.44 C48.19 169.95 66.68 86.15 103.84 38.66 L74.56 -42.05 L83.16 -48 L111.38 29.8 C134.77 4.56998 164.67 -8.00003 201.13 -8.00003 C303.37 -8.00003 354.06 90.91 354.06 290.44 C354.06 412.37 335.52 497.11 298.25 545.05 L298.25 545.05 Z M69.09 290.44 C69.09 484.06 110.29 573.49 201.13 573.49 C235.58 573.49 262.89 560.62 283.52 534.09 L111.49 59.75 C82.69 104.5 69.09 180.47 69.09 290.44 L69.09 290.44 Z M201.13 10.6 C166.6 10.6 139.25 23.38 118.6 49.72 L290.62 524.01 C319.52 478.79 333.16 401.87 333.16 290.44 C333.16 99.03 291.96 10.6 201.13 10.6 L201.13 10.6 Z " />
<glyph glyph-name="uni0200" unicode="&#x200;" horiz-adv-x="448" d="M186.49 763.45 L141.77 949.22 L124.46 941.93 L174.42 758.33 L186.49 763.45 Z M269.95 763.45 L225.22 949.22 L207.91 941.93 L257.87 758.33 L269.95 763.45 Z M391.59 0 L414.22 0 L232.82 730.02 L215.63 730.02 L34.1 0 L56.37 0 L107.86 209.47 L340.16 209.47 L391.59 0 Z M112.47 228.25 L224.07 682.28 L335.55 228.25 L112.47 228.25 Z " />
<glyph glyph-name="uni0201" unicode="&#x201;" horiz-adv-x="377" d="M151.25 637.45 L106.52 823.22 L89.21 815.93 L139.17 632.33 L151.25 637.45 Z M234.7 637.45 L189.97 823.22 L172.66 815.93 L222.62 632.33 L234.7 637.45 Z M327.48 0 L349.72 0 L197.76 584.02 L180.19 584.02 L28.1 0 L49.96 0 L92.43 165.74 L285.04 165.74 L327.48 0 Z M96.96 183.4 L188.78 541.71 L280.52 183.4 L96.96 183.4 Z " />
<glyph glyph-name="uni0202" unicode="&#x202;" horiz-adv-x="448" d="M223.9 906.25 C262.84 906.25 282.93 879.55 288.13 823.27 L302.42 823.07 C296.41 890.9 270.35 924.52 223.79 924.52 C177.88 924.52 152.14 891.39 146.14 824.57 L160.43 824.57 C165.61 879.97 185.47 906.25 223.9 906.25 L223.9 906.25 Z M391.59 -1.52588e-05 L414.22 -1.52588e-05 L232.82 730.02 L215.63 730.02 L34.1 -1.52588e-05 L56.37 -1.52588e-05 L107.86 209.47 L340.16 209.47 L391.59 -1.52588e-05 Z M112.47 228.25 L224.07 682.28 L335.55 228.25 L112.47 228.25 Z " />
<glyph glyph-name="uni0203" unicode="&#x203;" horiz-adv-x="377" d="M188.65 760.25 C227.59 760.25 247.68 733.55 252.88 677.27 L267.18 677.07 C261.16 744.9 235.1 778.52 188.54 778.52 C142.63 778.52 116.89 745.39 110.89 678.57 L125.19 678.57 C130.36 733.97 150.22 760.25 188.65 760.25 L188.65 760.25 Z M327.48 -1.52588e-05 L349.72 -1.52588e-05 L197.76 584.02 L180.19 584.02 L28.1 -1.52588e-05 L49.96 -1.52588e-05 L92.43 165.74 L285.04 165.74 L327.48 -1.52588e-05 Z M96.96 183.4 L188.78 541.71 L280.52 183.4 L96.96 183.4 Z " />
<glyph glyph-name="uni0204" unicode="&#x204;" horiz-adv-x="399" d="M175.99 763.45 L131.26 949.22 L113.95 941.93 L163.91 758.33 L175.99 763.45 Z M259.44 763.45 L214.71 949.22 L197.4 941.93 L247.36 758.33 L259.44 763.45 Z M101.29 18.96 L101.29 360.75 L326.68 360.75 L326.68 379.51 L101.29 379.51 L101.29 711.18 L346.27 711.18 L346.27 730 L80.41 730 L80.41 0 L352.91 0 L352.91 18.96 L101.29 18.96 Z " />
<glyph glyph-name="uni0205" unicode="&#x205;" horiz-adv-x="335" d="M141.43 637.45 L96.71 823.22 L79.4 815.93 L129.36 632.33 L141.43 637.45 Z M224.89 637.45 L180.16 823.22 L162.85 815.93 L212.81 632.33 L224.89 637.45 Z M86.93 18.09 L86.93 287.25 L274.84 287.25 L274.84 305.03 L86.93 305.03 L86.93 566.06 L291.29 566.06 L291.29 584 L66.41 584 L66.41 0 L296.9 0 L296.9 18.09 L86.93 18.09 Z " />
<glyph glyph-name="uni0206" unicode="&#x206;" horiz-adv-x="399" d="M213.41 847.65 C258.32 847.65 281.89 822.43 287.87 769.12 L302.64 768.93 C295.71 833.61 266.09 865.68 213.29 865.68 C161.24 865.68 131.99 834.08 125.07 770.35 L139.84 770.35 C145.8 822.82 169.08 847.65 213.41 847.65 L213.41 847.65 Z M101.29 18.96 L101.29 360.75 L326.68 360.75 L326.68 379.51 L101.29 379.51 L101.29 711.18 L346.27 711.18 L346.27 730 L80.41 730 L80.41 -1.52588e-05 L352.91 -1.52588e-05 L352.91 18.96 L101.29 18.96 Z " />
<glyph glyph-name="uni0207" unicode="&#x207;" horiz-adv-x="335" d="M178.84 760.25 C217.78 760.25 237.87 733.55 243.07 677.27 L257.36 677.07 C251.35 744.9 225.29 778.52 178.73 778.52 C132.82 778.52 107.08 745.39 101.08 678.57 L115.37 678.57 C120.55 733.97 140.41 760.25 178.84 760.25 L178.84 760.25 Z M86.93 18.09 L86.93 287.25 L274.84 287.25 L274.84 305.03 L86.93 305.03 L86.93 566.06 L291.29 566.06 L291.29 584 L66.41 584 L66.41 -1.52588e-05 L296.9 -1.52588e-05 L296.9 18.09 L86.93 18.09 Z " />
<glyph glyph-name="uni0208" unicode="&#x208;" horiz-adv-x="182" d="M41.8 758.33 L53.88 763.45 L9.15001 949.22 L-8.15999 941.93 L41.8 758.33 Z M125.25 758.33 L137.33 763.45 L92.6 949.22 L75.3 941.93 L125.25 758.33 Z M80.94 1.52588e-05 L102.26 1.52588e-05 L102.26 730 L80.94 730 L80.94 1.52588e-05 Z " />
<glyph glyph-name="uni0209" unicode="&#x209;" horiz-adv-x="154" d="M27.09 632.33 L39.17 637.45 L-5.56 823.22 L-22.87 815.93 L27.09 632.33 Z M110.54 632.33 L122.62 637.45 L77.89 823.22 L60.59 815.93 L110.54 632.33 Z M66.41 1.52588e-05 L87.37 1.52588e-05 L87.37 584 L66.41 584 L66.41 1.52588e-05 Z " />
<glyph glyph-name="uni020A" unicode="&#x20a;" horiz-adv-x="181" d="M89.99 865.68 C37.93 865.68 8.68001 834.08 1.76001 770.35 L16.53 770.35 C22.49 822.82 45.77 847.65 90.1 847.65 C135.01 847.65 158.58 822.43 164.56 769.12 L179.33 768.93 C172.39 833.61 142.78 865.68 89.99 865.68 L89.99 865.68 Z M79.74 0 L101.06 0 L101.06 730 L79.74 730 L79.74 0 Z " />
<glyph glyph-name="uni020B" unicode="&#x20b;" horiz-adv-x="154" d="M76.46 778.52 C30.55 778.52 4.81 745.39 -1.19 678.57 L13.11 678.57 C18.28 733.97 38.14 760.25 76.57 760.25 C115.51 760.25 135.6 733.55 140.8 677.27 L155.1 677.07 C149.08 744.9 123.02 778.52 76.46 778.52 L76.46 778.52 Z M66.41 -1.52588e-05 L87.37 -1.52588e-05 L87.37 584 L66.41 584 L66.41 -1.52588e-05 Z " />
<glyph glyph-name="uni020C" unicode="&#x20c;" horiz-adv-x="478" d="M189.17 758.33 L201.24 763.45 L156.51 949.22 L139.21 941.93 L189.17 758.33 Z M272.62 758.33 L284.7 763.45 L239.97 949.22 L222.66 941.93 L272.62 758.33 Z M238.97 -9.99998 C359.82 -9.99998 419.74 113.63 419.74 363.04 C419.74 615.06 359.82 740 238.97 740 C118.11 740 58.19 615.06 58.19 363.04 C58.19 113.63 118.11 -9.99998 238.97 -9.99998 L238.97 -9.99998 Z M238.97 9.33002 C129.49 9.33002 79.42 122.32 79.42 363.04 C79.42 606.48 129.49 720.74 238.97 720.74 C348.44 720.74 398.51 606.48 398.51 363.04 C398.51 122.32 348.44 9.33002 238.97 9.33002 L238.97 9.33002 Z " />
<glyph glyph-name="uni020D" unicode="&#x20d;" horiz-adv-x="402" d="M151.33 632.33 L163.4 637.45 L118.68 823.22 L101.37 815.93 L151.33 632.33 Z M234.78 632.33 L246.86 637.45 L202.13 823.22 L184.82 815.93 L234.78 632.33 Z M201.13 -7.99998 C303.37 -7.99998 354.06 90.91 354.06 290.44 C354.06 492.05 303.37 592 201.13 592 C98.88 592 48.19 492.05 48.19 290.44 C48.19 90.91 98.88 -7.99998 201.13 -7.99998 L201.13 -7.99998 Z M201.13 10.6 C110.29 10.6 69.09 99.03 69.09 290.44 C69.09 484.06 110.29 573.49 201.13 573.49 C291.96 573.49 333.16 484.06 333.16 290.44 C333.16 99.03 291.96 10.6 201.13 10.6 L201.13 10.6 Z " />
<glyph glyph-name="uni020E" unicode="&#x20e;" horiz-adv-x="478" d="M238.55 865.68 C186.49 865.68 157.25 834.08 150.33 770.35 L165.1 770.35 C171.06 822.82 194.34 847.65 238.67 847.65 C283.58 847.65 307.15 822.43 313.13 769.12 L327.9 768.93 C320.96 833.61 291.35 865.68 238.55 865.68 L238.55 865.68 Z M238.97 -10 C359.82 -10 419.74 113.63 419.74 363.04 C419.74 615.06 359.82 740 238.97 740 C118.11 740 58.19 615.06 58.19 363.04 C58.19 113.63 118.11 -10 238.97 -10 L238.97 -10 Z M238.97 9.33 C129.49 9.33 79.42 122.32 79.42 363.04 C79.42 606.48 129.49 720.74 238.97 720.74 C348.44 720.74 398.51 606.48 398.51 363.04 C398.51 122.32 348.44 9.33 238.97 9.33 L238.97 9.33 Z " />
<glyph glyph-name="uni020F" unicode="&#x20f;" horiz-adv-x="402" d="M200.7 778.52 C154.79 778.52 129.05 745.39 123.05 678.57 L137.34 678.57 C142.52 733.97 162.38 760.25 200.81 760.25 C239.75 760.25 259.84 733.55 265.04 677.27 L279.33 677.07 C273.32 744.9 247.26 778.52 200.7 778.52 L200.7 778.52 Z M201.13 -8.00002 C303.37 -8.00002 354.06 90.91 354.06 290.44 C354.06 492.05 303.37 592 201.13 592 C98.88 592 48.19 492.05 48.19 290.44 C48.19 90.91 98.88 -8.00002 201.13 -8.00002 L201.13 -8.00002 Z M201.13 10.6 C110.29 10.6 69.09 99.03 69.09 290.44 C69.09 484.06 110.29 573.49 201.13 573.49 C291.96 573.49 333.16 484.06 333.16 290.44 C333.16 99.03 291.96 10.6 201.13 10.6 L201.13 10.6 Z " />
<glyph glyph-name="uni0210" unicode="&#x210;" horiz-adv-x="414" d="M157.97 758.33 L170.04 763.45 L125.32 949.22 L108.01 941.93 L157.97 758.33 Z M241.42 758.33 L253.5 763.45 L208.77 949.22 L191.46 941.93 L241.42 758.33 Z M80.41 1.52588e-05 L101.29 1.52588e-05 L101.29 330.5 L202.44 330.5 L349.32 1.52588e-05 L373.76 1.52588e-05 L223.64 331.26 C313.52 335.54 361.41 407.14 361.41 530.71 C361.41 658.15 309.73 730 217.1 730 L80.41 730 L80.41 1.52588e-05 Z M101.06 348.85 L101.06 711.53 L215.93 711.53 C297.77 711.53 340.86 648.16 340.86 530.71 C340.86 412.57 297.35 348.85 214.73 348.85 L101.06 348.85 Z " />
<glyph glyph-name="uni0211" unicode="&#x211;" horiz-adv-x="349" d="M124.74 632.33 L136.82 637.45 L92.09 823.22 L74.78 815.93 L124.74 632.33 Z M208.19 632.33 L220.27 637.45 L175.54 823.22 L158.23 815.93 L208.19 632.33 Z M66.41 1.52588e-05 L86.93 1.52588e-05 L86.93 263.26 L169.87 263.26 L291.65 1.52588e-05 L315.42 1.52588e-05 L190.16 264.31 C264.91 268.27 304.6 325.42 304.6 423.98 C304.6 526.51 261.13 584 182.9 584 L66.41 584 L66.41 1.52588e-05 Z M86.68 280.63 L86.68 566.49 L181.46 566.49 C249.09 566.49 284.45 517.08 284.45 423.98 C284.45 330.31 248.76 280.63 180.49 280.63 L86.68 280.63 Z " />
<glyph glyph-name="uni0212" unicode="&#x212;" horiz-adv-x="414" d="M207.35 865.68 C155.29 865.68 126.05 834.08 119.13 770.35 L133.9 770.35 C139.86 822.82 163.14 847.65 207.47 847.65 C252.38 847.65 275.95 822.43 281.93 769.12 L296.7 768.93 C289.76 833.61 260.15 865.68 207.35 865.68 L207.35 865.68 Z M80.41 0 L101.29 0 L101.29 330.5 L202.44 330.5 L349.16 0 L373.76 0 L224.07 331.26 C313.52 335.54 361.41 407.14 361.41 530.71 C361.41 658.15 309.73 730 217.1 730 L80.41 730 L80.41 0 Z M101.06 348.85 L101.06 711.53 L215.93 711.53 C297.77 711.53 340.86 648.16 340.86 530.71 C340.86 412.57 297.35 348.85 214.73 348.85 L101.06 348.85 Z " />
<glyph glyph-name="uni0213" unicode="&#x213;" horiz-adv-x="349" d="M174.11 778.52 C128.2 778.52 102.46 745.39 96.46 678.57 L110.76 678.57 C115.93 733.97 135.79 760.25 174.22 760.25 C213.16 760.25 233.25 733.55 238.45 677.27 L252.75 677.07 C246.73 744.9 220.67 778.52 174.11 778.52 L174.11 778.52 Z M66.41 -1.52588e-05 L86.93 -1.52588e-05 L86.93 263.26 L169.87 263.26 L291.65 -1.52588e-05 L315.42 -1.52588e-05 L190.16 264.31 C264.91 268.27 304.6 325.42 304.6 423.98 C304.6 526.51 261.13 584 182.9 584 L66.41 584 L66.41 -1.52588e-05 Z M86.68 280.63 L86.68 566.49 L181.46 566.49 C249.09 566.49 284.45 517.08 284.45 423.98 C284.45 330.31 248.76 280.63 180.49 280.63 L86.68 280.63 Z " />
<glyph glyph-name="uni0214" unicode="&#x214;" horiz-adv-x="467" d="M186.79 758.33 L198.87 763.45 L154.14 949.22 L136.83 941.93 L186.79 758.33 Z M270.24 758.33 L282.32 763.45 L237.59 949.22 L220.29 941.93 L270.24 758.33 Z M236.68 -9.99998 C341.38 -9.99998 393.28 72.74 393.28 239.66 L393.28 730 L372.61 730 L372.61 239.71 C372.61 83.18 329.81 9.53003 236.68 9.53003 C143.92 9.53003 101.29 83.18 101.29 239.71 L101.29 730 L80.41 730 L80.41 239.66 C80.41 72.74 132.2 -9.99998 236.68 -9.99998 L236.68 -9.99998 Z " />
<glyph glyph-name="uni0215" unicode="&#x215;" horiz-adv-x="392" d="M148.8 632.33 L160.88 637.45 L116.15 823.22 L98.85 815.93 L148.8 632.33 Z M232.26 632.33 L244.33 637.45 L199.61 823.22 L182.3 815.93 L232.26 632.33 Z M198.68 -7.99998 C287.27 -7.99998 331.18 58.45 331.18 192.49 L331.18 584 L310.87 584 L310.87 192.51 C310.87 68.37 275.7 10.81 198.68 10.81 C121.95 10.81 86.93 68.37 86.93 192.51 L86.93 584 L66.41 584 L66.41 192.49 C66.41 58.45 110.25 -7.99998 198.68 -7.99998 L198.68 -7.99998 Z " />
<glyph glyph-name="uni0216" unicode="&#x216;" horiz-adv-x="467" d="M236.18 865.68 C184.12 865.68 154.88 834.08 147.95 770.35 L162.72 770.35 C168.68 822.82 191.97 847.65 236.29 847.65 C281.21 847.65 304.77 822.43 310.75 769.12 L325.52 768.93 C318.59 833.61 288.98 865.68 236.18 865.68 L236.18 865.68 Z M236.68 -10 C341.38 -10 393.28 72.74 393.28 239.66 L393.28 730 L372.61 730 L372.61 239.71 C372.61 83.18 329.81 9.53001 236.68 9.53001 C143.92 9.53001 101.29 83.18 101.29 239.71 L101.29 730 L80.41 730 L80.41 239.66 C80.41 72.74 132.2 -10 236.68 -10 L236.68 -10 Z " />
<glyph glyph-name="uni0217" unicode="&#x217;" horiz-adv-x="392" d="M198.18 778.52 C152.27 778.52 126.53 745.39 120.52 678.57 L134.82 678.57 C140 733.97 159.85 760.25 198.29 760.25 C237.22 760.25 257.32 733.55 262.51 677.27 L276.81 677.07 C270.8 744.9 244.74 778.52 198.18 778.52 L198.18 778.52 Z M198.68 -8.00002 C287.27 -8.00002 331.18 58.45 331.18 192.49 L331.18 584 L310.87 584 L310.87 192.51 C310.87 68.37 275.7 10.81 198.68 10.81 C121.95 10.81 86.93 68.37 86.93 192.51 L86.93 584 L66.41 584 L66.41 192.49 C66.41 58.45 110.25 -8.00002 198.68 -8.00002 L198.68 -8.00002 Z " />
<glyph glyph-name="Scommaaccent" unicode="&#x218;" horiz-adv-x="378" d="M176.89 -10 C277.27 -10 327.03 55.28 327.03 186.98 C327.03 297.97 285.63 330.25 194.21 384.8 C110.16 434.73 72.83 460.3 72.83 561.35 C72.83 669.73 108.87 720.96 186.71 720.96 C229.9 720.96 267.68 707.9 300.7 681.56 L305.18 701.96 C268.47 727.37 228.94 739.96 185.91 739.96 C96.33 739.96 51.93 680.69 51.93 561.13 C51.93 449.55 95.11 419.07 181.1 367.18 C270.89 313.15 305.89 286.96 305.89 186.12 C305.89 65.87 265.02 9.03001 176.84 9.03001 C127.29 9.03001 85.26 21.49 50.04 46.63 L45.65 26.37 C83.27 2.05002 126.76 -9.99998 176.89 -9.99998 L176.89 -10 Z M175.14 -183.06 C191.27 -159.36 200.15 -131.84 200.15 -101.08 C200.15 -75.39 193.2 -65.8 176.14 -65.8 C160.34 -65.8 154.02 -73.86 154.02 -96.11 C154.02 -118.36 160 -126.41 174.22 -126.41 C178.63 -126.41 181.54 -124.78 184.31 -121.49 C184.05 -128.47 179.75 -152.75 162.84 -173.64 L175.14 -183.06 Z " />
<glyph glyph-name="scommaaccent" unicode="&#x219;" horiz-adv-x="317" d="M148.62 -8 C233.54 -8 275.65 44.53 275.65 150.5 C275.65 238.81 240.55 265.14 164.9 308.69 C94.55 349.03 63.65 368.75 63.65 448.44 C63.65 533.81 93.26 573.8 157.6 573.8 C193.6 573.8 225.23 563.32 253.03 542.22 L257.3 561.55 C226.2 581.88 192.84 591.95 156.64 591.95 C80.72 591.95 43.09 544.25 43.09 448.04 C43.09 359.02 79.14 333.29 151.24 292.41 C226.44 249.5 254.83 228.75 254.83 149.56 C254.83 54.64 221.28 10.22 148.48 10.22 C107.03 10.22 71.69 20.24 41.83 40.47 L37.65 21.27 C69.54 1.7 106.32 -8 148.62 -8 L148.62 -8 Z M146.97 -183.06 C163.11 -159.36 171.7 -132.84 171.7 -101.08 C171.7 -75.39 165.03 -65.8 147.97 -65.8 C132.17 -65.8 125.85 -73.86 125.85 -96.11 C125.85 -118.36 131.83 -126.41 146.05 -126.41 C150.47 -126.41 153.37 -124.78 156.14 -121.49 C155.89 -128.47 151.58 -152.75 134.67 -173.64 L146.97 -183.06 Z " />
<glyph glyph-name="uni021A" unicode="&#x21a;" horiz-adv-x="353" d="M330.93 730 L22.55 730 L22.55 710.65 L166.18 710.65 L166.18 0 L187.3 0 L187.3 710.65 L330.93 710.65 L330.93 730 Z M176.66 -65.8 C160.86 -65.8 154.54 -73.86 154.54 -96.11 C154.54 -118.36 160.52 -126.41 174.74 -126.41 C179.16 -126.41 182.06 -124.78 184.83 -121.49 C184.58 -128.47 180.27 -152.75 163.36 -173.64 L175.66 -183.06 C191.8 -159.36 200.54 -131.84 200.54 -101.08 C200.54 -75.39 193.72 -65.8 176.66 -65.8 L176.66 -65.8 Z " />
<glyph glyph-name="uni021B" unicode="&#x21b;" horiz-adv-x="298" d="M279.63 584 L18.55 584 L18.55 565.43 L138.71 565.43 L138.71 0 L159.47 0 L159.47 565.43 L279.63 565.43 L279.63 584 Z M149.01 -65.8 C133.21 -65.8 126.89 -73.86 126.89 -96.11 C126.89 -118.36 132.87 -126.41 147.09 -126.41 C151.51 -126.41 154.41 -124.78 157.18 -121.49 C156.93 -128.47 152.62 -152.75 135.71 -173.64 L148.01 -183.06 C164.15 -159.36 172.74 -132.84 172.74 -101.08 C172.74 -75.39 166.07 -65.8 149.01 -65.8 L149.01 -65.8 Z " />
<glyph glyph-name="uni0259" unicode="&#x259;" horiz-adv-x="385" d="M175.51 591.8 C139.83 591.8 105.07 581.4 72.1 560.91 L77.36 541.45 C104.09 561.19 139.21 572.59 174.29 572.59 C268.06 572.59 312.29 485.6 314.39 303.92 L58.42 303.92 C44.73 102.39 89.52 -10.76 190.35 -10.76 C286 -10.76 334.85 89.43 334.85 290.52 C334.85 492.51 282.52 591.8 175.51 591.8 L175.51 591.8 Z M190.52 8.32001 C106.76 8.32001 67.22 108.25 76.92 285.23 L314.46 285.23 C313.78 97.97 274.31 8.32001 190.52 8.32001 L190.52 8.32001 Z " />
<glyph glyph-name="caron" unicode="&#x2c7;" horiz-adv-x="248" d="M114.43 612.06 L133.91 612.06 L211.46 735.93 L189.04 735.93 L124.17 625.89 L59.3 735.93 L36.88 735.93 L114.43 612.06 Z " />
<glyph glyph-name="gravecomb" unicode="&#x300;" d="M-33.22 612.91 L-25.1 623.93 L-125.51 750.56 L-137.16 734.77 L-33.22 612.91 Z " />
<glyph glyph-name="acutecomb" unicode="&#x301;" d="M-144.28 613.91 L-40.34 735.77 L-51.99 751.56 L-152.4 624.93 L-144.28 613.91 Z " />
<glyph glyph-name="uni0302" unicode="&#x302;" d="M-133.92 735.93 L-211.46 612.06 L-189.05 612.06 L-124.17 722.1 L-59.3 612.06 L-36.89 612.06 L-114.43 735.93 L-133.92 735.93 Z " />
<glyph glyph-name="tildecomb" unicode="&#x303;" d="M-92.74 635.8 C-67.42 635.8 -48.94 654.69 -37 693 L-50.46 699.94 C-58.8 669.43 -72.75 654.19 -92.92 654.19 C-127.07 654.19 -141.95 712.19 -182.69 712.19 C-210.57 712.19 -229.69 692.35 -240.38 652.1 L-226.75 646.13 C-218.19 677.93 -203.62 693.8 -182.55 693.8 C-147.69 693.8 -132.65 635.8 -92.74 635.8 L-92.74 635.8 Z " />
<glyph glyph-name="uni0304" unicode="&#x304;" d="M-238.27 664.91 L-42.21 664.91 L-42.21 683.09 L-238.27 683.09 L-238.27 664.91 Z " />
<glyph glyph-name="uni0306" unicode="&#x306;" d="M-115.53 623.16 C-68.97 623.16 -42.91 656.79 -36.89 724.61 L-51.19 724.41 C-56.38 668.13 -76.48 641.43 -115.42 641.43 C-153.85 641.43 -173.7 667.71 -178.88 723.12 L-193.18 723.12 C-187.17 656.29 -161.44 623.16 -115.53 623.16 L-115.53 623.16 Z " />
<glyph glyph-name="uni0307" unicode="&#x307;" d="M-57.68 645.88 C-41.35 645.88 -35.44 653.69 -35.44 675.27 C-35.44 696.73 -41.32 704.5 -57.57 704.5 C-73.96 704.5 -79.9 696.71 -79.9 675.19 C-79.9 653.67 -73.99 645.88 -57.68 645.88 L-57.68 645.88 Z " />
<glyph glyph-name="uni0308" unicode="&#x308;" d="M-139.56 646.11 C-123.6 646.11 -117.29 653.82 -117.29 675.13 C-117.29 696.4 -123.58 704.09 -139.46 704.09 C-155.42 704.09 -161.73 696.39 -161.73 675.1 C-161.73 653.82 -155.44 646.11 -139.56 646.11 L-139.56 646.11 Z M-44.52 646.11 C-28.57 646.11 -22.26 653.82 -22.26 675.13 C-22.26 696.4 -28.54 704.09 -44.43 704.09 C-60.38 704.09 -66.69 696.39 -66.69 675.1 C-66.69 653.82 -60.41 646.11 -44.52 646.11 L-44.52 646.11 Z " />
<glyph glyph-name="uni030A" unicode="&#x30a;" d="M-103.7 587.58 C-60.94 587.58 -36.44 623.71 -36.44 686.76 C-36.44 747.86 -60.58 782.86 -102.71 782.86 C-145.47 782.86 -169.97 747.29 -169.97 685.22 C-169.97 623.14 -145.83 587.57 -103.7 587.57 L-103.7 587.58 Z M-103.57 603.95 C-137.21 603.95 -155.15 632.64 -155.15 685.22 C-155.15 737.79 -136.95 766.48 -102.83 766.48 C-69.2 766.48 -51.25 738.24 -51.25 686.49 C-51.25 633.09 -69.46 603.95 -103.57 603.95 L-103.57 603.95 Z " />
<glyph glyph-name="uni030B" unicode="&#x30b;" d="M-175.09 588.33 L-125.13 771.93 L-142.44 779.22 L-187.17 593.45 L-175.09 588.33 Z M-91.64 588.33 L-41.68 771.93 L-58.98 779.22 L-103.71 593.45 L-91.64 588.33 Z " />
<glyph glyph-name="uni030C" unicode="&#x30c;" d="M-133.92 612.06 L-114.43 612.06 L-36.89 735.93 L-59.3 735.93 L-124.17 625.89 L-189.05 735.93 L-211.46 735.93 L-133.92 612.06 Z " />
<glyph glyph-name="uni030F" unicode="&#x30f;" d="M-154.81 588.33 L-142.74 593.45 L-187.47 779.22 L-204.77 771.93 L-154.81 588.33 Z M-71.36 588.33 L-59.28 593.45 L-104.01 779.22 L-121.32 771.93 L-71.36 588.33 Z " />
<glyph glyph-name="uni0312" unicode="&#x312;" d="M-50.56 740.03 C-66.7 716.33 -75.24 689.07 -75.24 658.09 C-75.24 632.4 -68.62 622.77 -51.56 622.77 C-35.76 622.77 -29.44 630.82 -29.44 653.08 C-29.44 675.33 -35.42 683.38 -49.64 683.38 C-54.06 683.38 -56.96 681.75 -59.73 678.46 C-59.48 685.44 -55.17 709.72 -38.26 730.61 L-50.56 740.03 Z " />
<glyph glyph-name="dotbelowcomb" unicode="&#x323;" d="M-57.79 -163.5 C-41.46 -163.5 -35.55 -155.69 -35.55 -134.11 C-35.55 -112.65 -41.43 -104.88 -57.69 -104.88 C-74.08 -104.88 -80.01 -112.67 -80.01 -134.19 C-80.01 -155.71 -74.11 -163.5 -57.79 -163.5 L-57.79 -163.5 Z " />
<glyph glyph-name="uni0326" unicode="&#x326;" d="M-66.06 -183.06 C-49.92 -159.36 -41.33 -132.84 -41.33 -101.08 C-41.33 -75.39 -48 -65.8 -65.06 -65.8 C-80.85 -65.8 -87.18 -73.86 -87.18 -96.11 C-87.18 -118.36 -81.2 -126.41 -66.98 -126.41 C-62.56 -126.41 -59.66 -124.78 -56.89 -121.49 C-57.14 -128.47 -61.44 -152.75 -78.36 -173.64 L-66.06 -183.06 Z " />
<glyph glyph-name="uni0327" unicode="&#x327;" d="M-105.18 -214.76 C-59.52 -214.76 -36.89 -186.61 -36.89 -129.81 C-36.89 -76.99 -59.86 -50.81 -106.19 -50.81 L-100.05 3.02 L-115.4 3.08 L-123.56 -65.98 L-112.21 -65.98 C-72.13 -65.98 -53.63 -86.53 -53.63 -129.49 C-53.63 -175.4 -70.31 -197.41 -105.65 -197.41 C-127.45 -197.41 -146.02 -191.29 -161.69 -178.94 L-164.97 -197.49 C-147.86 -209.04 -128.04 -214.76 -105.18 -214.76 L-105.18 -214.76 Z " />
<glyph glyph-name="uni0328" unicode="&#x328;" d="M-80.53 -193.36 C-65.43 -193.36 -50.97 -188.83 -36.89 -179.69 L-41.94 -161.48 C-52.39 -171.25 -64.4 -176.1 -78 -176.1 C-100.54 -176.1 -113.32 -156.04 -113.32 -120.71 C-113.32 -72.8 -86.65 -28.89 -38.8 0 L-48.44 6.71001 C-99.93 -20.7 -130.53 -68.79 -130.53 -122.65 C-130.53 -167.6 -112.32 -193.36 -80.53 -193.36 L-80.53 -193.36 Z " />
<glyph glyph-name="uni0394" unicode="&#x394;" horiz-adv-x="508" d="M53.08 0 L454.6 0 L454.6 17.29 L262.03 730.01 L245.54 730.01 L53.08 17.29 L53.08 0 Z M75.2 19.4 L254.19 690.53 L432.6 19.4 L75.2 19.4 Z " />
<glyph glyph-name="delta" unicode="&#x3b4;" horiz-adv-x="402" d="M34.1 0 L367.84 0 L367.84 16.27 L209.21 467.19 L192.6 467.19 L34.1 16.27 L34.1 0 Z M55.59 18.5 L201.27 438.67 L346.47 18.5 L55.59 18.5 Z " />
<glyph glyph-name="uni03BC" unicode="&#x3bc;" horiz-adv-x="401" d="M317.72 540 L317.72 106.68 C280.5 41.79 236.72 9.62 185.3 9.62 C124.44 9.62 95.33 52.64 95.33 143.09 L95.33 540 L75.18 540 L75.18 -230 L92.99 -230 L92.99 42.8 C110.01 7.54001 139.34 -9.99998 181.1 -9.99998 C236.52 -9.99998 282.35 21.42 319.4 84.81 L320.11 84.81 L323.53 1.52588e-05 L337.76 1.52588e-05 L337.76 540 L317.72 540 Z " />
<glyph glyph-name="pi" unicode="&#x3c0;" horiz-adv-x="456" d="M403.32 521.49 L403.32 540 L53.08 540 L53.08 521.49 L104.08 521.49 L104.08 0 L123.73 0 L123.73 521.49 L332.67 521.49 L332.67 94.84 C332.67 35.96 351.57 1.10001 389.69 -10.33 L394.17 9.93001 C365.49 18.97 352.32 47 352.32 97.87 L352.32 521.49 L403.32 521.49 Z " />
<glyph glyph-name="uni1E0C" unicode="&#x1e0c;" horiz-adv-x="464" d="M80.41 0 L212.66 0 C341.48 0 405.34 120.32 405.34 363.04 C405.34 608.38 341.48 730 212.66 730 L80.41 730 L80.41 0 Z M101.29 18.95 L101.29 711.12 L212.66 711.12 C330.27 711.12 384.14 599.96 384.14 363.04 C384.14 128.85 330.27 18.95 212.66 18.95 L101.29 18.95 Z M206.33 -163.5 C222.66 -163.5 228.57 -155.69 228.57 -134.11 C228.57 -112.65 222.69 -104.88 206.44 -104.88 C190.04 -104.88 184.11 -112.67 184.11 -134.19 C184.11 -155.71 190.01 -163.5 206.33 -163.5 L206.33 -163.5 Z " />
<glyph glyph-name="uni1E0D" unicode="&#x1e0d;" horiz-adv-x="390" d="M66.41 0 L179.03 0 C287.79 0 341.7 96.26 341.7 290.44 C341.7 486.71 287.79 584 179.03 584 L66.41 584 L66.41 0 Z M86.93 18.04 L86.93 566.05 L179.03 566.05 C276.54 566.05 320.85 479.01 320.85 290.44 C320.85 104.08 276.54 18.04 179.03 18.04 L86.93 18.04 Z M173.87 -163.5 C190.2 -163.5 196.11 -155.69 196.11 -134.11 C196.11 -112.65 190.23 -104.88 173.98 -104.88 C157.59 -104.88 151.65 -112.67 151.65 -134.19 C151.65 -155.71 157.56 -163.5 173.87 -163.5 L173.87 -163.5 Z " />
<glyph glyph-name="uni1E24" unicode="&#x1e24;" horiz-adv-x="480" d="M378.66 730 L378.66 381.59 L101.29 381.59 L101.29 730 L80.41 730 L80.41 0 L101.29 0 L101.29 362.4 L378.66 362.4 L378.66 0 L399.55 0 L399.55 730 L378.66 730 Z M240 -104.88 C223.61 -104.88 217.68 -112.67 217.68 -134.19 C217.68 -155.71 223.58 -163.5 239.89 -163.5 C256.22 -163.5 262.14 -155.69 262.14 -134.11 C262.14 -112.65 256.25 -104.88 240 -104.88 L240 -104.88 Z " />
<glyph glyph-name="uni1E25" unicode="&#x1e25;" horiz-adv-x="403" d="M316.3 584 L316.3 306.83 L86.93 306.83 L86.93 584 L66.41 584 L66.41 0 L86.93 0 L86.93 288.36 L316.3 288.36 L316.3 0 L336.82 0 L336.82 584 L316.3 584 Z M201.62 -82.41 C186.86 -82.41 181.51 -89.05 181.51 -107.39 C181.51 -125.74 186.82 -132.38 201.5 -132.38 C216.21 -132.38 221.53 -125.71 221.53 -107.3 C221.53 -89.03 216.24 -82.41 201.62 -82.41 L201.62 -82.41 Z " />
<glyph glyph-name="uni1E44" unicode="&#x1e44;" horiz-adv-x="471" d="M235.72 786.98 C252.05 786.98 258.5 794.79 258.5 816.36 C258.5 837.83 252.08 845.6 235.83 845.6 C219.44 845.6 212.97 837.81 212.97 816.29 C212.97 794.77 219.41 786.98 235.72 786.98 L235.72 786.98 Z M73.63 1.52588e-05 L93.42 1.52588e-05 L93.42 675.63 L380 1.52588e-05 L397.63 1.52588e-05 L397.63 730 L377.9 730 L377.9 54.37 L91.38 730 L73.63 730 L73.63 1.52588e-05 Z " />
<glyph glyph-name="uni1E45" unicode="&#x1e45;" horiz-adv-x="396" d="M198.09 689.88 C214.43 689.88 220.34 697.69 220.34 719.27 C220.34 740.73 214.46 748.5 198.2 748.5 C181.81 748.5 175.88 740.71 175.88 719.19 C175.88 697.67 181.78 689.88 198.09 689.88 L198.09 689.88 Z M60.74 1.52588e-05 L80.34 1.52588e-05 L80.34 531.54 L318.13 1.52588e-05 L335.26 1.52588e-05 L335.26 584 L315.72 584 L315.72 52.46 L77.98 584 L60.74 584 L60.74 1.52588e-05 Z " />
<glyph glyph-name="uni1E5A" unicode="&#x1e5a;" horiz-adv-x="414" d="M80.41 0 L101.29 0 L101.29 330.5 L202.44 330.5 L349.32 0 L373.76 0 L223.64 331.26 C313.52 335.54 361.41 407.14 361.41 530.71 C361.41 658.15 309.73 730 217.1 730 L80.41 730 L80.41 0 Z M101.06 348.85 L101.06 711.53 L215.93 711.53 C297.77 711.53 340.86 648.16 340.86 530.71 C340.86 412.57 297.35 348.85 214.73 348.85 L101.06 348.85 Z M220.16 -150.26 C236.49 -150.26 242.4 -142.45 242.4 -120.88 C242.4 -99.41 236.52 -91.64 220.27 -91.64 C203.88 -91.64 197.95 -99.43 197.95 -120.95 C197.95 -142.47 203.85 -150.26 220.16 -150.26 L220.16 -150.26 Z " />
<glyph glyph-name="uni1E5B" unicode="&#x1e5b;" horiz-adv-x="349" d="M66.41 0 L86.93 0 L86.93 263.26 L169.87 263.26 L291.65 0 L315.42 0 L190.16 264.31 C264.91 268.27 304.6 325.42 304.6 423.98 C304.6 526.51 261.13 584 182.9 584 L66.41 584 L66.41 0 Z M86.68 280.63 L86.68 566.49 L181.46 566.49 C249.09 566.49 284.45 517.08 284.45 423.98 C284.45 330.31 248.76 280.63 180.49 280.63 L86.68 280.63 Z M185.09 -163.5 C201.43 -163.5 207.34 -155.69 207.34 -134.11 C207.34 -112.65 201.46 -104.88 185.2 -104.88 C168.81 -104.88 162.88 -112.67 162.88 -134.19 C162.88 -155.71 168.78 -163.5 185.09 -163.5 L185.09 -163.5 Z " />
<glyph glyph-name="uni1E62" unicode="&#x1e62;" horiz-adv-x="378" d="M176.89 -10 C277.27 -10 327.03 55.28 327.03 186.98 C327.03 297.97 285.63 330.25 194.21 384.8 C110.16 434.73 72.83 460.3 72.83 561.35 C72.83 669.73 108.87 720.96 186.71 720.96 C229.9 720.96 267.68 707.9 300.7 681.56 L305.18 701.96 C268.47 727.37 228.94 739.96 185.91 739.96 C96.33 739.96 51.93 680.69 51.93 561.13 C51.93 449.55 95.11 419.07 181.1 367.18 C270.89 313.15 305.89 286.96 305.89 186.12 C305.89 65.87 265.02 9.03001 176.84 9.03001 C127.29 9.03001 85.26 21.49 50.04 46.63 L45.65 26.37 C83.27 2.05002 126.76 -9.99998 176.89 -9.99998 L176.89 -10 Z M176.16 -163.5 C192.49 -163.5 198.4 -155.69 198.4 -134.11 C198.4 -112.65 192.52 -104.88 176.27 -104.88 C159.87 -104.88 153.94 -112.67 153.94 -134.19 C153.94 -155.71 159.85 -163.5 176.16 -163.5 L176.16 -163.5 Z " />
<glyph glyph-name="uni1E63" unicode="&#x1e63;" horiz-adv-x="317" d="M148.62 -8 C233.54 -8 275.65 44.53 275.65 150.5 C275.65 238.81 240.55 265.14 164.9 308.69 C94.55 349.03 63.65 368.75 63.65 448.44 C63.65 533.81 93.26 573.8 157.6 573.8 C193.6 573.8 225.23 563.32 253.03 542.22 L257.3 561.55 C226.2 581.88 192.84 591.95 156.64 591.95 C80.72 591.95 43.09 544.25 43.09 448.04 C43.09 359.02 79.14 333.29 151.24 292.41 C226.44 249.5 254.83 228.75 254.83 149.56 C254.83 54.64 221.28 10.22 148.48 10.22 C107.03 10.22 71.69 20.24 41.83 40.47 L37.65 21.27 C69.54 1.7 106.32 -8 148.62 -8 L148.62 -8 Z M147.99 -163.5 C164.32 -163.5 170.24 -155.69 170.24 -134.11 C170.24 -112.65 164.35 -104.88 148.1 -104.88 C131.71 -104.88 125.78 -112.67 125.78 -134.19 C125.78 -155.71 131.68 -163.5 147.99 -163.5 L147.99 -163.5 Z " />
<glyph glyph-name="uni1E6C" unicode="&#x1e6c;" horiz-adv-x="353" d="M330.93 730 L22.55 730 L22.55 710.65 L166.18 710.65 L166.18 0 L187.3 0 L187.3 710.65 L330.93 710.65 L330.93 730 Z M176.79 -104.88 C160.4 -104.88 154.47 -112.67 154.47 -134.19 C154.47 -155.71 160.37 -163.5 176.68 -163.5 C193.01 -163.5 198.92 -155.69 198.92 -134.11 C198.92 -112.65 193.04 -104.88 176.79 -104.88 L176.79 -104.88 Z " />
<glyph glyph-name="uni1E6D" unicode="&#x1e6d;" horiz-adv-x="298" d="M279.63 584 L18.55 584 L18.55 565.43 L138.71 565.43 L138.71 0 L159.47 0 L159.47 565.43 L279.63 565.43 L279.63 584 Z M149.14 -104.88 C132.75 -104.88 126.82 -112.67 126.82 -134.19 C126.82 -155.71 132.72 -163.5 149.03 -163.5 C165.36 -163.5 171.27 -155.69 171.27 -134.11 C171.27 -112.65 165.39 -104.88 149.14 -104.88 L149.14 -104.88 Z " />
<glyph glyph-name="Wgrave" unicode="&#x1e80;" horiz-adv-x="670" d="M355.03 776.32 L361.28 788.71 L247.73 886.98 L238.76 869.21 L355.03 776.32 Z M184.73 -0.0299988 L204.51 -0.0299988 L335.29 682.72 L465.97 -0.0299988 L485.46 -0.0299988 L625.14 730 L603.14 730 L476.12 45.99 L345.27 729.99 L325.58 729.99 L194.78 45.03 L67.76 730 L45.65 730 L184.73 -0.0299988 Z " />
<glyph glyph-name="wgrave" unicode="&#x1e81;" horiz-adv-x="563" d="M311.74 656.91 L319.86 667.93 L219.45 794.56 L207.8 778.77 L311.74 656.91 Z M154.08 -0.0299835 L174.65 -0.0299835 L281.7 537.53 L388.64 -0.0299835 L408.9 -0.0299835 L525.95 584 L504.12 584 L399.44 44.63 L292.38 584 L271.34 584 L164.31 43.88 L59.62 584 L37.65 584 L154.08 -0.0299835 Z " />
<glyph glyph-name="Wacute" unicode="&#x1e82;" horiz-adv-x="670" d="M315.93 776.32 L432.2 869.21 L423.23 886.98 L309.68 788.71 L315.93 776.32 Z M184.73 -0.0299988 L204.51 -0.0299988 L335.29 682.72 L465.97 -0.0299988 L485.46 -0.0299988 L625.14 730 L603.14 730 L476.12 45.99 L345.27 729.99 L325.58 729.99 L194.78 45.03 L67.76 730 L45.65 730 L184.73 -0.0299988 Z " />
<glyph glyph-name="wacute" unicode="&#x1e83;" horiz-adv-x="563" d="M251.4 657.91 L355.34 779.77 L343.68 795.56 L243.27 668.93 L251.4 657.91 Z M154.08 -0.030014 L174.65 -0.030014 L281.7 537.53 L388.64 -0.030014 L408.9 -0.030014 L525.95 584 L504.12 584 L399.44 44.63 L292.38 584 L271.34 584 L164.31 43.88 L59.62 584 L37.65 584 L154.08 -0.030014 Z " />
<glyph glyph-name="Wdieresis" unicode="&#x1e84;" horiz-adv-x="670" d="M284.04 787.21 C299.99 787.21 306.3 794.92 306.3 816.23 C306.3 837.49 300.02 845.19 284.13 845.19 C268.18 845.19 261.87 837.49 261.87 816.2 C261.87 794.91 268.16 787.21 284.04 787.21 L284.04 787.21 Z M385.25 787.21 C401.21 787.21 407.52 794.92 407.52 816.23 C407.52 837.49 401.23 845.19 385.35 845.19 C369.39 845.19 363.08 837.49 363.08 816.2 C363.08 794.91 369.37 787.21 385.25 787.21 L385.25 787.21 Z M184.73 -0.0299683 L204.51 -0.0299683 L335.29 682.72 L465.97 -0.0299683 L485.46 -0.0299683 L625.14 730 L603.14 730 L476.12 45.99 L345.27 729.99 L325.58 729.99 L194.78 45.03 L67.76 730 L45.65 730 L184.73 -0.0299683 Z " />
<glyph glyph-name="wdieresis" unicode="&#x1e85;" horiz-adv-x="563" d="M234.31 690.11 C250.27 690.11 256.58 697.82 256.58 719.13 C256.58 740.4 250.29 748.09 234.4 748.09 C218.45 748.09 212.14 740.39 212.14 719.1 C212.14 697.82 218.43 690.11 234.31 690.11 L234.31 690.11 Z M329.35 690.11 C345.3 690.11 351.61 697.82 351.61 719.13 C351.61 740.4 345.33 748.09 329.44 748.09 C313.49 748.09 307.18 740.39 307.18 719.1 C307.18 697.82 313.46 690.11 329.35 690.11 L329.35 690.11 Z M154.08 -0.0299683 L174.65 -0.0299683 L281.7 537.53 L388.64 -0.0299683 L408.9 -0.0299683 L525.95 584 L504.12 584 L399.44 44.63 L292.38 584 L271.34 584 L164.31 43.88 L59.62 584 L37.65 584 L154.08 -0.0299683 Z " />
<glyph glyph-name="uni1E92" unicode="&#x1e92;" horiz-adv-x="384" d="M45.65 0 L338.27 0 L338.27 19.48 L69.62 19.48 L338.03 713.36 L338.03 730 L55.91 730 L55.91 710.66 L315.5 710.66 L45.65 16.7 L45.65 0 Z M191.89 -150.26 C208.22 -150.26 214.13 -142.45 214.13 -120.88 C214.13 -99.41 208.25 -91.64 192 -91.64 C175.61 -91.64 169.67 -99.43 169.67 -120.95 C169.67 -142.47 175.58 -150.26 191.89 -150.26 L191.89 -150.26 Z " />
<glyph glyph-name="uni1E93" unicode="&#x1e93;" horiz-adv-x="323" d="M37.65 0 L285.17 0 L285.17 18.79 L60.98 18.79 L284.91 568.11 L284.91 584 L46.26 584 L46.26 565.39 L262.89 565.39 L37.65 15.98 L37.65 0 Z M161.35 -163.5 C177.68 -163.5 183.59 -155.69 183.59 -134.11 C183.59 -112.65 177.71 -104.88 161.45 -104.88 C145.06 -104.88 139.13 -112.67 139.13 -134.19 C139.13 -155.71 145.03 -163.5 161.35 -163.5 L161.35 -163.5 Z " />
<glyph glyph-name="uni1E9E" unicode="&#x1e9e;" horiz-adv-x="418" d="M237.16 -10 C327.5 -10 372.28 57.97 372.28 195.08 C372.28 391.49 234.81 406.24 234.81 406.24 L342.54 715.06 L342.54 730 L201.54 730 C120.54 730 80.42 670.75 80.42 551.23 L80.42 1.52588e-05 L100.45 1.52588e-05 L100.45 551.46 C100.45 659.16 133.13 711.25 201.71 711.25 L320.95 711.25 L216.27 407.42 L216.27 392.53 C216.27 392.53 351.41 383.02 351.41 195.23 C351.41 68.66 314.47 8.93002 234.97 8.93002 C196.82 8.93002 166.39 18.98 143.15 39.25 L139.52 18.92 C165.45 -0.419968 198.1 -9.99997 237.17 -9.99997 L237.16 -10 Z " />
<glyph glyph-name="uni1EA0" unicode="&#x1ea0;" horiz-adv-x="448" d="M414.22 0 L232.82 730.02 L215.63 730.02 L34.1 0 L56.37 0 L107.86 209.47 L340.16 209.47 L391.59 0 L414.22 0 Z M112.47 228.25 L224.07 682.28 L335.55 228.25 L112.47 228.25 Z M224.06 -91.64 C207.67 -91.64 201.73 -99.43 201.73 -120.95 C201.73 -142.47 207.64 -150.26 223.95 -150.26 C240.28 -150.26 246.19 -142.45 246.19 -120.88 C246.19 -99.41 240.31 -91.64 224.06 -91.64 L224.06 -91.64 Z " />
<glyph glyph-name="uni1EA1" unicode="&#x1ea1;" horiz-adv-x="377" d="M349.72 0 L197.76 584.02 L180.19 584.02 L28.1 0 L49.96 0 L92.43 165.74 L285.04 165.74 L327.48 0 L349.72 0 Z M96.96 183.4 L188.78 541.71 L280.52 183.4 L96.96 183.4 Z M188.83 -104.88 C172.44 -104.88 166.51 -112.67 166.51 -134.19 C166.51 -155.71 172.41 -163.5 188.73 -163.5 C205.06 -163.5 210.97 -155.69 210.97 -134.11 C210.97 -112.65 205.09 -104.88 188.83 -104.88 L188.83 -104.88 Z " />
<glyph glyph-name="uni1EA4" unicode="&#x1ea4;" horiz-adv-x="448" d="M321.48 1005.29 L312.51 1023.06 L198.96 924.79 L205.21 912.41 L321.48 1005.29 Z M224.14 873.65 L300.05 768.94 L323.11 768.94 L233.93 886.85 L214.35 886.85 L125.16 768.94 L148.22 768.94 L224.14 873.65 Z M391.59 -1.52588e-05 L414.22 -1.52588e-05 L232.82 730.02 L215.63 730.02 L34.1 -1.52588e-05 L56.37 -1.52588e-05 L107.86 209.47 L340.16 209.47 L391.59 -1.52588e-05 Z M112.47 228.25 L224.07 682.28 L335.55 228.25 L112.47 228.25 Z " />
<glyph glyph-name="uni1EA5" unicode="&#x1ea5;" horiz-adv-x="377" d="M280.65 941.05 L269 956.85 L168.59 830.22 L176.71 819.2 L280.65 941.05 Z M188.95 766.1 L253.82 656.06 L276.23 656.06 L198.69 779.93 L179.2 779.93 L101.66 656.06 L124.08 656.06 L188.95 766.1 Z M327.48 0 L349.72 0 L197.76 584.02 L180.19 584.02 L28.1 0 L49.96 0 L92.43 165.74 L285.04 165.74 L327.48 0 Z M96.96 183.4 L188.78 541.71 L280.52 183.4 L96.96 183.4 Z " />
<glyph glyph-name="uni1EA6" unicode="&#x1ea6;" horiz-adv-x="448" d="M249.47 924.79 L135.92 1023.06 L126.95 1005.29 L243.22 912.41 L249.47 924.79 Z M224.3 873.65 L300.21 768.94 L323.27 768.94 L234.09 886.85 L214.51 886.85 L125.32 768.94 L148.39 768.94 L224.3 873.65 Z M391.59 -1.52588e-05 L414.22 -1.52588e-05 L232.82 730.02 L215.63 730.02 L34.1 -1.52588e-05 L56.37 -1.52588e-05 L107.86 209.47 L340.16 209.47 L391.59 -1.52588e-05 Z M112.47 228.25 L224.07 682.28 L335.55 228.25 L112.47 228.25 Z " />
<glyph glyph-name="uni1EA7" unicode="&#x1ea7;" horiz-adv-x="377" d="M209.35 830.22 L108.94 956.85 L97.28 941.05 L201.22 819.2 L209.35 830.22 Z M179.25 779.93 L101.7 656.06 L124.12 656.06 L188.99 766.1 L253.86 656.06 L276.27 656.06 L198.73 779.93 L179.25 779.93 Z M327.48 0 L349.72 0 L197.76 584.02 L180.19 584.02 L28.1 0 L49.96 0 L92.43 165.74 L285.04 165.74 L327.48 0 Z M96.96 183.4 L188.78 541.71 L280.52 183.4 L96.96 183.4 Z " />
<glyph glyph-name="uni1EAA" unicode="&#x1eaa;" horiz-adv-x="448" d="M173.76 974.84 C213.93 974.84 231.05 916.84 276.63 916.84 C305.07 916.84 325.94 935.73 339.6 974.05 L325.59 980.98 C315.93 950.47 299.77 935.23 276.47 935.23 C237.09 935.23 220.12 993.23 173.64 993.23 C142.27 993.23 120.66 973.39 108.42 933.14 L122.57 927.18 C132.49 958.97 149.38 974.84 173.76 974.84 L173.76 974.84 Z M214.05 886.85 L124.86 768.94 L147.93 768.94 L223.84 873.65 L299.75 768.94 L322.81 768.94 L233.63 886.85 L214.05 886.85 Z M391.59 -3.05176e-05 L414.22 -3.05176e-05 L232.82 730.02 L215.63 730.02 L34.1 -3.05176e-05 L56.37 -3.05176e-05 L107.86 209.47 L340.16 209.47 L391.59 -3.05176e-05 Z M112.47 228.25 L224.07 682.28 L335.55 228.25 L112.47 228.25 Z " />
<glyph glyph-name="uni1EAB" unicode="&#x1eab;" horiz-adv-x="377" d="M145.08 882.1 C179.94 882.1 194.98 824.1 234.89 824.1 C260.21 824.1 278.69 842.99 290.63 881.31 L277.17 888.24 C268.83 857.73 254.88 842.49 234.71 842.49 C200.56 842.49 185.68 900.49 144.94 900.49 C117.07 900.49 97.94 880.65 87.25 840.4 L100.88 834.44 C109.44 866.23 124.01 882.1 145.08 882.1 L145.08 882.1 Z M179.2 779.93 L101.66 656.06 L124.07 656.06 L188.95 766.1 L253.82 656.06 L276.23 656.06 L198.69 779.93 L179.2 779.93 Z M327.48 0 L349.72 0 L197.76 584.02 L180.19 584.02 L28.1 0 L49.96 0 L92.43 165.74 L285.04 165.74 L327.48 0 Z M96.96 183.4 L188.78 541.71 L280.52 183.4 L96.96 183.4 Z " />
</font>
</svg>
