<?xml version="1.0" encoding="UTF-8"?>
<svg xmlns="http://www.w3.org/2000/svg" xmlns:xlink="http://www.w3.org/1999/xlink" version="1.2" >
<font id="Akwe Pro Nar SC Hairline Italic">
<font-face  font-family="Akwe Pro Nar SC" units-per-em="1000" ascent="754" descent="-230" font-style="italic" font-weight="100" font-stretch="normal" slope="-8" cap-height="730" x-height="540" underline-position="-75" underline-thickness="50" />
<missing-glyph  horiz-adv-x="728" d="M31.62 -230 L555.5 -230 L703.91 826 L180.03 826 L31.62 -230 Z M63.62 -72 L188.14 814 L692.43 814 L567.91 -72 L63.62 -72 Z M304.17 179.18 L315.61 182.21 C315.61 182.21 311.02 205.21 315.09 234.21 C326.59 316.04 380.42 367.03 432.42 416.98 C484.04 466.54 535.64 514.71 546.51 592.01 C560.41 690.93 519.45 740 423.97 740 C378.11 740 334.89 729.06 292.86 706.98 L294.75 693.74 C334.29 716.49 376.51 727.75 422.72 727.75 C510.48 727.75 546.96 682.8 534.2 591.98 C523.84 518.27 474.89 471.2 425.21 424.13 C371.75 373.7 315.93 322.19 303.56 234.21 C299.13 202.81 304.17 179.18 304.17 179.18 L304.17 179.18 Z M301.17 -10 C319.33 -10 327.81 -2.26001 330.81 19.13 C333.81 40.51 327.52 48.25 309.37 48.25 C291.2 48.25 282.72 40.51 279.72 19.12 C276.72 -2.26001 283.02 -10 301.17 -10 L301.17 -10 Z " />
<glyph glyph-name="NULL" d="" />
<glyph glyph-name="CR" unicode="&#xd;" horiz-adv-x="250" d="" />
<glyph glyph-name="space" unicode="&#x20;" horiz-adv-x="207" d="" />
<glyph glyph-name="exclam" unicode="&#x21;" horiz-adv-x="261" d="M105.28 145.63 L114.81 145.63 L178.4 584 L164.91 584 L105.28 145.63 Z M88.27 -8.00999 C104.14 -8.00999 110.8 -1.53 113.31 16.37 C115.82 34.23 111 40.69 95.15 40.69 C79.28 40.69 72.63 34.22 70.11 16.34 C67.6 -1.54001 72.43 -8.01001 88.27 -8.01001 L88.27 -8.00999 Z " />
<glyph glyph-name="quotedbl" unicode="&#x22;" horiz-adv-x="285" d="M116.43 487.88 L126.12 487.88 L162.06 730 L148.55 730 L116.43 487.88 Z M220.24 487.88 L229.93 487.88 L265.87 730 L252.35 730 L220.24 487.88 Z " />
<glyph glyph-name="numbersign" unicode="&#x23;" horiz-adv-x="569" d="M557.32 498.85 L560.85 510.1 L447.05 510.1 L498.29 690 L486.02 690 L434.78 510.1 L250.09 510.1 L301.39 690 L289.11 690 L238.13 510.1 L125.32 510.1 L121.79 498.85 L234.94 498.85 L144.35 179.15 L30.82 179.15 L27.29 167.9 L141.16 167.9 L93.58 1.52588e-05 L104.63 1.52588e-05 L152.51 167.9 L337.31 167.9 L289.49 1.52588e-05 L301.77 1.52588e-05 L349.59 167.9 L462.82 167.9 L466.35 179.15 L352.79 179.15 L443.85 498.85 L557.32 498.85 Z M340.52 179.15 L155.71 179.15 L246.88 498.85 L431.57 498.85 L340.52 179.15 Z " />
<glyph glyph-name="dollar" unicode="&#x24;" horiz-adv-x="394" d="M340.93 524.39 L345.6 537.06 C314.88 554.41 280.45 563.54 241.8 564.58 L253.5 647.87 L242.8 647.87 L231.1 564.66 C147.29 563.62 99.77 520.7 87.76 435.2 C76.44 354.72 114.3 333.29 193.35 295.98 L156.16 31.37 C154.65 31.34 153.13 31.34 151.6 31.34 C102.7 31.34 63.06 40.33 31.98 58.48 L27.33 45.87 C60.85 28.26 101.49 19.53 149.94 19.53 C151.47 19.53 152.99 19.53 154.5 19.56 L142.13 -68.44 L152.83 -68.44 L165.25 19.94 C252.2 24.79 301.61 71.96 314.28 162.15 C325.54 242.25 289.62 265.58 205.29 304.78 L240.14 552.8 C279.61 551.78 313.03 542.36 340.93 524.39 L340.93 524.39 Z M100.6 435.32 C111.57 513.38 153.47 551.75 229.45 552.87 L195.24 309.45 C123.48 342.99 90.5 363.46 100.6 435.32 L100.6 435.32 Z M301.31 161.8 C289.68 79.07 245.92 36.52 166.92 31.78 L203.38 291.25 C280.1 254.87 311.39 233.49 301.31 161.8 L301.31 161.8 Z " />
<glyph glyph-name="percent" unicode="&#x25;" horiz-adv-x="642" d="M125.72 -8.34 L477.33 588.27 L468.23 593.81 L116.6 -2.77 L125.72 -8.34 Z M138.71 333.02 C202.72 333.02 251.99 384.14 262.9 461.77 C273.8 539.34 238.93 590.43 174.98 590.43 C110.99 590.43 61.73 539.32 50.83 461.72 C39.92 384.12 74.78 333.02 138.71 333.02 L138.71 333.02 Z M140.29 344.05 C82.57 344.05 52.3 390.23 62.35 461.72 C72.4 533.21 115.65 579.4 173.41 579.4 C231.14 579.4 261.41 533.22 251.37 461.75 C241.32 390.24 198.06 344.05 140.29 344.05 L140.29 344.05 Z M420.38 -8.33002 C484.39 -8.33002 533.68 42.95 544.57 120.42 C555.49 198.15 520.6 249.08 456.65 249.08 C392.66 249.08 343.38 197.81 332.5 120.38 C321.57 42.62 356.45 -8.33002 420.38 -8.33002 L420.38 -8.33002 Z M421.96 2.69998 C364.24 2.69998 333.95 48.73 344.02 120.38 C354.04 191.7 397.32 238.05 455.08 238.05 C512.81 238.05 543.11 192.03 533.04 120.4 C523.01 49.05 479.73 2.69997 421.96 2.69997 L421.96 2.69998 Z " />
<glyph glyph-name="ampersand" unicode="&#x26;" horiz-adv-x="455" d="M383.82 251.45 L372.08 251.45 C362.28 181.7 348.74 129.03 329.2 90.59 L199.37 312.49 C204.76 316.3 210.19 320.09 215.64 323.89 C280.31 368.77 340.65 410.89 351.14 485.47 C360.56 552.55 326.73 590.98 258.11 590.98 C189.65 590.98 145.08 552.29 135.59 484.75 C127.54 427.46 136.97 392.76 182.65 314.34 C121.23 270.71 65.85 220.42 54.4 138.93 C40.56 40.5 82.39 -8.3 176.7 -8.3 C246.51 -8.3 294.7 13.55 328.29 66.14 L371.81 -8.02 L382.12 0.139999 L335.93 79.09 C358.1 119.76 373.24 176.16 383.82 251.45 L383.82 251.45 Z M147.26 484.56 C155.76 545.05 194.7 579.1 256.38 579.1 C318.19 579.1 347.7 545.32 339.26 485.32 C329.72 417.41 275.02 377.11 209.74 333.06 C204.4 329.44 199.06 325.8 193.75 322.13 C149.52 398.29 139.71 430.89 147.26 484.57 L147.26 484.56 Z M178.55 3.64999 C91.85 3.64999 54.5 48.05 67.29 139.04 C78.2 216.7 129.91 262.51 188.34 304.64 L321.8 77.2 C290.46 25.02 245.2 3.65001 178.55 3.65001 L178.55 3.64999 Z " />
<glyph glyph-name="quotesingle" unicode="&#x27;" horiz-adv-x="163" d="M107.44 487.88 L117.14 487.88 L153.08 730 L139.56 730 L107.44 487.88 Z " />
<glyph glyph-name="parenleft" unicode="&#x28;" horiz-adv-x="222" d="M130.51 -140 L141.55 -137.11 C76.53 -15.98 56.68 126.01 80.01 292 C103.32 457.91 163.08 599.86 262.14 720.98 L251.94 724 C151.92 603.64 90.59 460.47 66.92 292 C43.24 123.53 64.32 -19.65 130.51 -140 L130.51 -140 Z " />
<glyph glyph-name="parenright" unicode="&#x29;" horiz-adv-x="222" d="M-30.1 -140 C69.93 -19.65 131.25 123.53 154.93 292 C178.6 460.47 157.53 603.64 91.33 724 L80.29 720.98 C145.3 599.86 165.16 457.91 141.84 292 C118.51 126.01 58.75 -15.98 -40.32 -137.11 L-30.1 -140 Z " />
<glyph glyph-name="asterisk" unicode="&#x2a;" horiz-adv-x="290" d="M177.86 488 C191.34 495.78 231.4 519 251.86 531.94 L288.1 554.94 L282.58 566.11 L247.34 543.11 C227.2 530.09 189.41 503.42 176.12 494 C179.28 511.24 188.34 561.32 191.96 587.05 L197.86 629.05 L186.45 629.05 L180.55 587.05 C176.93 561.31 171.92 511.22 170.23 493.99 C159.53 503.41 128.93 530.19 112.34 543.11 L82.57 566.11 L75.91 554.94 L105.68 531.94 C122.5 519 155.68 495.78 166.85 488 C153.49 480.22 113.78 457 93.33 444.06 L57.09 421.06 L60.62 409.88 L96.85 432.88 C117.07 445.81 155.19 472.59 168.54 482.01 C165.39 464.78 156.32 414.68 152.71 388.94 L146.8 346.94 L158.21 346.94 L164.11 388.94 C167.73 414.68 172.74 464.75 174.43 481.99 C185.07 472.58 215.37 445.91 231.85 432.88 L260.62 409.88 L269.28 421.06 L239.51 444.06 C222.69 457 189.16 480.21 177.86 488 L177.86 488 Z " />
<glyph glyph-name="plus" unicode="&#x2b;" horiz-adv-x="429" d="M372.11 344.12 L230.71 344.12 L256 524.07 L244.02 524.07 L218.73 344.12 L77.34 344.12 L75.61 331.87 L217.01 331.87 L191.72 151.93 L203.7 151.93 L228.99 331.87 L370.39 331.87 L372.11 344.12 Z " />
<glyph glyph-name="comma" unicode="&#x2c;" horiz-adv-x="173" d="M54.41 48.25 C36.91 48.25 28.67 40.51 25.67 19.12 C22.67 -2.26001 28.92 -10 46.95 -10 C51.21 -10 55.43 -8.83002 59.29 -6.85002 C54.83 -34.82 40.97 -67.43 21.32 -98.23 L30.91 -104.81 C53.91 -66.34 70.89 -22.7 76.2 15.09 C79.63 39.44 73.24 48.25 54.42 48.25 L54.41 48.25 Z " />
<glyph glyph-name="hyphen" unicode="&#x2d;" horiz-adv-x="311" d="M70.84 297.87 L247.92 297.87 L249.64 310.12 L72.56 310.12 L70.84 297.87 Z " />
<glyph glyph-name="period" unicode="&#x2e;" horiz-adv-x="173" d="M47.11 -10 C65.28 -10 73.76 -2.25999 76.76 19.13 C79.76 40.51 73.46 48.25 55.31 48.25 C37.14 48.25 28.66 40.51 25.66 19.12 C22.66 -2.25999 28.96 -10 47.11 -10 L47.11 -10 Z " />
<glyph glyph-name="slash" unicode="&#x2f;" horiz-adv-x="363" d="M19.93 -42.07 L379.24 759.96 L368.98 764.07 L9.65999 -37.93 L19.93 -42.07 Z " />
<glyph glyph-name="zero" unicode="0" horiz-adv-x="521" d="M218.29 -8.3 C336.36 -8.3 408.84 91 437 291.33 C465.15 491.65 420.58 590.96 302.51 590.96 C184.44 590.96 111.96 491.65 83.8 291.33 C55.65 91 100.22 -8.3 218.29 -8.3 L218.29 -8.3 Z M219.98 3.75 C109.61 3.75 69.67 97.9 96.85 291.33 C124.04 484.77 190.45 578.93 300.82 578.93 C411.19 578.93 451.13 484.77 423.95 291.33 C396.76 97.9 330.36 3.75 219.98 3.75 L219.98 3.75 Z " />
<glyph glyph-name="one" unicode="1" horiz-adv-x="305" d="M141.37 0 L153.63 0 L235.52 582.66 L224.51 582.66 L66.67 496.38 L70.13 486.26 L221.24 568.3 L141.37 0 Z " />
<glyph glyph-name="two" unicode="2" horiz-adv-x="435" d="M19.92 0 L316.39 0 L318.08 12.06 L39.08 12.26 L229.8 217.97 C334.23 330.62 363.77 376.82 373.62 446.88 C386.49 538.47 344.06 590.96 257.15 590.96 C208.04 590.96 159.67 577.18 111.19 549.39 L112.95 536.54 C159.57 564.87 206.69 578.92 255.13 578.92 C334.88 578.92 372.46 531.34 360.56 446.69 C351.36 381.26 324.98 338.58 221.87 227.13 L21.56 11.2 L19.92 0 Z " />
<glyph glyph-name="three" unicode="3" horiz-adv-x="421" d="M136.33 -8.3 C246.23 -8.3 308.29 45.7 323.59 154.58 C335.53 239.53 300.96 291.57 228.18 297.9 C290.38 305.96 332.43 358.15 345.39 450.43 C358.6 544.38 321.41 590.96 233.17 590.96 C193.68 590.96 158.14 582.98 125.92 566.88 L127.8 554.82 C159.95 570.95 194.16 578.95 231.03 578.95 C311.75 578.95 344.68 536.69 332.5 450.05 C318.64 351.38 272.24 303.05 190.49 303.05 L139.6 303.05 L137.94 291.22 L190.14 291.22 C284.2 291.22 323.46 246.38 310.59 154.83 C296.32 53.29 240.04 3.73001 137.66 3.73001 C96.11 3.73001 61.15 10.63 32.15 24.57 L27.51 11.65 C58.99 -1.7 95.05 -8.3 136.33 -8.3 L136.33 -8.3 Z " />
<glyph glyph-name="four" unicode="4" horiz-adv-x="445" d="M259.43 0 L271.68 0 L290.57 134.35 L350.52 134.35 L352.21 146.35 L292.25 146.35 L353.57 582.66 L342.24 582.66 L35.32 145.36 L33.77 134.35 L278.32 134.35 L259.43 0 Z M49.57 146.35 L337.87 557.62 L280.07 146.35 L49.57 146.35 Z " />
<glyph glyph-name="five" unicode="5" horiz-adv-x="418" d="M131.47 -8.3 C246.74 -8.3 312.02 49.59 328.43 166.38 C344.81 282.91 301.88 340.87 199.17 340.87 C161.23 340.87 126.72 330.47 95.03 309.5 L150.52 570.64 L368.31 570.64 L370 582.66 L141.24 582.66 L81.79 302.02 L92.93 298.29 C124.2 318.97 157.7 329 195.9 329 C291.84 329 330.74 275.68 315.37 166.35 C300.01 57.05 240.59 3.74998 132.99 3.74998 C92.74 3.74998 59.66 10.66 33.19 24.6 L28.52 11.68 C58.22 -1.68001 92.34 -8.3 131.47 -8.3 L131.47 -8.3 Z " />
<glyph glyph-name="six" unicode="6" horiz-adv-x="454" d="M301.47 578.75 C334.58 578.75 363.59 569.59 388.89 550.7 L394.34 563.58 C367.51 581.88 337.22 590.96 303.07 590.96 C181.96 590.96 106.8 483.36 76.3 266.32 C50.49 82.71 91.45 -8.29999 199.89 -8.29999 C300.72 -8.29999 359.19 52.05 376.3 173.79 C392 285.5 351.03 340.87 252.69 340.87 C189.92 340.87 135.15 311.89 87.54 253.47 C88.09 257.81 88.67 262.2 89.3 266.65 C118.82 476.7 187.42 578.75 301.47 578.75 L301.47 578.75 Z M249.43 328.98 C340.91 328.98 377.94 278.09 363.28 173.74 C347.21 59.46 294.51 3.72002 201.59 3.72002 C106.57 3.72002 68.77 80.32 85.67 237.51 C134.83 298.66 189.13 328.98 249.43 328.98 L249.43 328.98 Z " />
<glyph glyph-name="seven" unicode="7" horiz-adv-x="376" d="M66 0 L79.85 0 L374.76 571.65 L376.3 582.66 L79.84 582.66 L78.12 570.46 L361.5 570.46 L66 0 Z " />
<glyph glyph-name="eight" unicode="8" horiz-adv-x="466" d="M191.31 -8.3 C294.17 -8.3 352.14 43.23 366.86 147.93 C379.29 236.37 348.55 287.71 273.45 298 C342.92 308.71 383.28 356.24 395.26 441.42 C409.31 541.4 369.63 590.96 275.56 590.96 C181.44 590.96 127.81 541.4 113.76 441.42 C101.79 356.23 128.8 308.69 195.25 297.98 C117.26 287.68 72.09 236.36 59.67 147.93 C44.95 43.23 88.44 -8.30002 191.31 -8.30002 L191.31 -8.3 Z M235.19 303.94 C148.82 303.94 113.44 348.91 126.4 441.13 C139.42 533.83 187.49 579.05 273.85 579.05 C360.22 579.05 395.57 533.83 382.54 441.13 C369.58 348.91 321.55 303.94 235.19 303.94 L235.19 303.94 Z M192.98 3.62999 C98.15 3.62999 58.93 50.75 72.63 148.18 C86.1 244.03 138.56 291.16 233.39 291.16 C328.22 291.16 367.44 244.03 353.97 148.18 C340.27 50.75 287.82 3.62999 192.98 3.62999 L192.98 3.62999 Z " />
<glyph glyph-name="nine" unicode="9" horiz-adv-x="465" d="M264.79 590.96 C163.95 590.96 105.44 530.6 88.33 408.86 C72.63 297.16 113.6 241.78 211.94 241.78 C274.75 241.78 329.51 270.68 376.21 322.4 C375.92 320.28 375.63 318.15 375.33 316.01 C344.38 95.79 281.98 3.25 163.13 3.25 C127.73 3.25 96.96 13.04 69.97 31.95 L64.52 19.08 C93.09 0.75 125.11 -8.3 161.56 -8.3 C288.59 -8.3 356.33 88.63 388.33 316.34 C414.13 499.94 373.22 590.96 264.79 590.96 L264.79 590.96 Z M215.15 253.67 C123.68 253.67 86.69 304.56 101.35 408.92 C117.41 523.2 170.16 578.94 263.08 578.94 C359.7 578.94 397.12 499.72 378.05 337.11 C328.95 281.33 274.55 253.67 215.15 253.67 L215.15 253.67 Z " />
<glyph glyph-name="colon" unicode="&#x3a;" horiz-adv-x="219" d="M148.68 535.74 C166.85 535.74 175.33 543.48 178.33 564.87 C181.33 586.26 175.03 594 156.88 594 C138.72 594 130.24 586.26 127.24 564.87 C124.24 543.48 130.53 535.74 148.68 535.74 L148.68 535.74 Z M71.98 -10 C90.15 -10 98.63 -2.25999 101.63 19.13 C104.63 40.51 98.33 48.25 80.19 48.25 C62.02 48.25 53.54 40.51 50.54 19.12 C47.54 -2.25999 53.83 -10 71.98 -10 L71.98 -10 Z " />
<glyph glyph-name="semicolon" unicode="&#x3b;" horiz-adv-x="226" d="M156.9 594 C138.73 594 130.25 586.26 127.25 564.87 C124.25 543.48 130.54 535.74 148.69 535.74 C166.86 535.74 175.34 543.48 178.34 564.88 C181.34 586.26 175.04 594 156.9 594 L156.9 594 Z M80.11 48.25 C62.61 48.25 54.37 40.51 51.37 19.12 C48.37 -2.26001 54.62 -10 72.64 -10 C76.9 -10 81.13 -8.83002 84.99 -6.85002 C80.52 -34.82 66.67 -67.43 47.02 -98.23 L56.61 -104.81 C79.61 -66.34 96.59 -22.7 101.9 15.09 C105.32 39.44 98.94 48.25 80.1199 48.25 L80.11 48.25 Z " />
<glyph glyph-name="less" unicode="&#x3c;" horiz-adv-x="430" d="M336.65 84.9 L338.65 99.2 L92.7 310 L397.91 520.8 L399.91 535.1 L72.83 312.11 L72.23 307.89 L336.65 84.9 Z " />
<glyph glyph-name="equal" unicode="&#x3d;" horiz-adv-x="377" d="M86.86 411.9 L330.15 411.9 L331.87 424.14 L88.58 424.14 L86.86 411.9 Z M67.18 271.85 L310.47 271.85 L312.19 284.1 L68.9 284.1 L67.18 271.85 Z " />
<glyph glyph-name="greater" unicode="&#x3e;" horiz-adv-x="430" d="M40.9 84.9 L367.99 307.89 L368.59 312.11 L104.18 535.1 L102.18 520.8 L348.13 310 L42.92 99.2 L40.9 84.9 Z " />
<glyph glyph-name="question" unicode="&#x3f;" horiz-adv-x="312" d="M92.98 144.83 L104.11 147.49 C104.11 147.49 100.11 166.19 103.34 189.18 C112.4 253.69 156.03 293.04 199.62 332.99 C242.73 372.44 286.4 411.48 295.15 473.7 C306.24 552.62 271.24 592 190.97 592 C152.07 592 115.76 583.25 80.39 565.44 L82.12 552.86 C115.3 571.21 150.59 580.22 189.4 580.22 C262.59 580.22 292.95 545.2 282.86 473.39 C274.67 415.12 235.93 379.15 192.41 340.12 C147.84 300.22 102.2 259.16 92.36 189.18 C88.81 163.92 92.98 144.83 92.98 144.83 L92.98 144.83 Z M92.06 -8.00998 C107.93 -8.00998 114.59 -1.52998 117.1 16.37 C119.61 34.23 114.79 40.69 98.95 40.69 C83.0699 40.69 76.42 34.22 73.8999 16.34 C71.39 -1.53999 76.22 -8.00999 92.06 -8.00999 L92.06 -8.00998 Z " />
<glyph glyph-name="at" unicode="&#x40;" horiz-adv-x="631" d="M358.51 595.85 C196.14 595.85 101.27 493.65 72.29 287.48 C44.06 86.62 110.58 -12.96 272.95 -12.96 C325.72 -12.96 374.33 1.8 419.6 31.56 L418.58 44.59 C374.68 13.65 328.87 -0.910004 274.64 -0.910004 C118.5 -0.910004 57.46 93.16 84.77 287.51 C112.83 487.18 200.68 583.82 356.81 583.82 C512.52 583.82 573 487.23 544.97 287.78 C529.95 180.9 498.55 129.06 447.18 129.06 C406.67 129.06 390.48 152.31 397.22 200.22 L431.25 442.34 L423.05 442.34 L414.34 394.27 L413.87 394.27 C392.7 430.41 363.06 447.89 325.48 447.89 C259.52 447.89 219.46 396.61 204.9 293.03 C190.35 189.51 215.32 138.19 280.12 138.19 C316.17 138.19 351.1 155.56 384.71 190.04 C380.92 141.64 401.09 117.63 445.5 117.63 C504.44 117.63 541.46 174 557.44 287.75 C586.39 493.74 520.45 595.85 358.51 595.85 L358.51 595.85 Z M282.94 149.18 C224.34 149.18 203.14 195.4 216.86 292.99 C230.58 390.66 265.36 436.9 325.18 436.9 C361.21 436.9 390.08 419.15 411.59 383.61 L385.91 200.91 C352.53 166.33 318.15 149.18 282.94 149.18 L282.94 149.18 Z " />
<glyph glyph-name="A" unicode="A" horiz-adv-x="548" d="M454.61 0 L468.8 0 L343.02 730 L335.03 730 L4.00999 0 L18.11 0 L114.68 213.83 L418.14 213.83 L454.61 0 Z M120.21 226.08 L334.96 701.6 L416.05 226.08 L120.21 226.08 Z " />
<glyph glyph-name="B" unicode="B" horiz-adv-x="513" d="M63.95 0 L221.98 0 C353.21 0 427.25 63.98 445.39 193.05 C460.57 301.09 423.02 367.98 329.1 380.4 C408.04 396.91 453.18 457.12 466.5 551.95 C483.23 670.99 436.7 729.99 326.11 729.99 L166.54 729.99 L63.95 0 Z M131.34 386.11 L177.95 717.73 L324.27 717.73 C426.78 717.73 469.03 662.84 453.44 551.92 C437.85 441 379.59 386.11 275.75 386.11 L131.34 386.11 Z M78.8 12.25 L129.62 373.85 L275.73 373.85 C398.05 373.85 449.19 314 432.19 193.04 C415.19 72.1 346.77 12.25 223.6 12.25 L78.8 12.25 Z " />
<glyph glyph-name="C" unicode="C" horiz-adv-x="497" d="M275.44 -10 C325.71 -10 371.83 1.46001 405.86 21.8 L404.28 35.46 C372.77 13.76 329.19 2.26001 276.04 2.26001 C122.07 2.26001 65 119.34 99.15 362.34 C133.79 608.8 224.68 727.92 381.66 727.92 C422.88 727.92 459.36 716.49 485.16 694.17 L490.28 707.02 C462.72 727.98 424.85 740.18 382.02 740.18 C219.41 740.18 121.49 615.52 86.09 363.69 C51 113.96 113.84 -9.99998 275.44 -9.99998 L275.44 -10 Z " />
<glyph glyph-name="D" unicode="D" horiz-adv-x="571" d="M63.95 0 L222.73 0 C381.4 0 476.97 120.31 511.08 363 C545.56 608.36 484 730 325.32 730 L166.54 730 L63.95 0 Z M78.85 12.26 L177.99 717.74 L323.6 717.74 C474.34 717.74 531.19 600.33 497.83 363 C464.86 128.35 375.19 12.26 224.45 12.26 L78.85 12.26 Z " />
<glyph glyph-name="E" unicode="E" horiz-adv-x="493" d="M490.76 717.74 L492.48 730 L166.54 730 L63.95 0 L398.07 0 L399.79 12.26 L78.85 12.26 L128.26 363.88 L416.55 363.88 L418.27 376.13 L129.98 376.13 L178 717.74 L490.76 717.74 Z " />
<glyph glyph-name="F" unicode="F" horiz-adv-x="459" d="M470.36 717.74 L472.08 730 L166.54 730 L63.95 0 L77.15 0 L127.15 355.86 L395 355.86 L396.72 368.12 L128.87 368.12 L178.01 717.74 L470.36 717.74 Z " />
<glyph glyph-name="G" unicode="G" horiz-adv-x="558" d="M385.14 727.74 C432.95 727.74 470.57 717.79 498.66 697.73 L504.23 711 C471.18 730.39 432.24 740 386.75 740 C221.1 740 121.42 615.05 86 363 C50.96 113.67 109.74 -9.99998 262.48 -9.99998 C333.58 -9.99998 391.53 21.14 436.51 83.97 L437.33 83.97 L426.66 1.52588e-05 L435.28 1.52588e-05 L484.2 348.1 L298.26 348.1 L296.68 336.85 L470.66 336.85 L437.81 103.1 C393.69 35.69 336.43 2.26003 265.04 2.26003 C118.64 2.26003 65.31 121.66 99.23 363 C133.52 607 227.25 727.73 385.14 727.73 L385.14 727.74 Z " />
<glyph glyph-name="H" unicode="H" horiz-adv-x="593" d="M542.16 730 L492.71 378.13 L130.27 378.13 L179.72 730 L166.54 730 L63.95 0 L77.12 0 L128.54 365.86 L490.99 365.86 L439.57 0 L452.74 0 L555.34 730 L542.16 730 Z " />
<glyph glyph-name="I" unicode="I" horiz-adv-x="217" d="M63.95 0 L77.22 0 L179.81 730 L166.54 730 L63.95 0 Z " />
<glyph glyph-name="J" unicode="J" horiz-adv-x="375" d="M101.72 -10 C191.01 -10 244.59 56.32 263.4 190.11 L339.27 730 L326.1 730 L250.22 190.1 C232.56 64.45 184.37 2.28001 103.27 2.28001 C66.95 2.28001 36.53 12.22 11.5 32.28 L6.53996 18 C34.25 -0.719986 65.79 -9.99998 101.72 -9.99998 L101.72 -10 Z " />
<glyph glyph-name="K" unicode="K" horiz-adv-x="504" d="M516.3 730 L498.64 730 L129.82 374.97 L179.72 730 L166.54 730 L63.95 0 L77.12 0 L129 369.14 L421.19 0 L439.64 0 L142.78 372 L516.3 730 Z " />
<glyph glyph-name="L" unicode="L" horiz-adv-x="451" d="M78.9 12.28 L179.76 730 L166.54 730 L63.95 0 L385.82 0 L387.55 12.28 L78.9 12.28 Z " />
<glyph glyph-name="M" unicode="M" horiz-adv-x="670" d="M34.96 0 L48.14 0 L192.16 701.51 L307.81 112 L315.8 112 L600.43 702.51 L546.94 0 L560.08 0 L615.34 729.99 L600.6 729.99 L315.26 138.34 L199.54 730 L184.88 730 L34.96 0 Z " />
<glyph glyph-name="N" unicode="N" horiz-adv-x="580" d="M54.96 0 L67.3 0 L166.12 702.33 L437.92 0 L449.69 0 L552.28 730 L539.97 730 L441.15 27.67 L169.38 730 L157.55 730 L54.96 0 Z " />
<glyph glyph-name="O" unicode="O" horiz-adv-x="588" d="M254.83 -10 C402.75 -10 493.46 113.62 528.51 363 C563.93 615.05 508.16 740 360.24 740 C212.31 740 121.42 615.05 86 363 C50.95 113.62 106.91 -10 254.83 -10 L254.83 -10 Z M256.55 2.27 C116.62 2.27 65.33 121.67 99.24 363 C133.54 607 218.57 727.72 358.51 727.72 C498.45 727.72 549.55 607 515.26 363 C481.34 121.67 396.49 2.27 256.55 2.27 L256.55 2.27 Z " />
<glyph glyph-name="P" unicode="P" horiz-adv-x="496" d="M327.84 730 L166.54 730 L63.95 0 L77.12 0 L121.38 314.89 L267.89 314.89 C382.78 314.89 449.43 383.84 468.98 522.94 C488.43 661.37 441.65 730 327.84 730 L327.84 730 Z M455.9 522.94 C437.49 391.96 376.3 327.14 269.46 327.14 L123.1 327.14 L178 717.74 L325.97 717.74 C431.73 717.74 474.21 653.26 455.9 522.94 L455.9 522.94 Z " />
<glyph glyph-name="Q" unicode="Q" horiz-adv-x="588" d="M528.49 363 C563.92 615.05 508.15 740 360.23 740 C212.31 740 121.42 615.05 86 363 C50.67 111.62 103.66 -10 254.82 -10 C275.3 -10 294.73 -7.58 313.08 -2.72 C321.7 -77.6 359.62 -122.76 427.45 -138.98 L432.4 -124.73 C370.43 -112.13 334.29 -70.67 323.44 0.309998 C430.27 34.7 499.29 155.19 528.49 363 L528.49 363 Z M256.54 2.27 C113.48 2.27 64.76 120.03 98.9 363 C133.2 607 218.56 727.73 358.51 727.73 C498.44 727.73 549.55 607.01 515.26 363.01 C481.34 121.68 394.93 2.28 256.54 2.28 L256.54 2.27 Z " />
<glyph glyph-name="R" unicode="R" horiz-adv-x="507" d="M63.95 0 L77.12 0 L123.91 332.9 L260.55 332.9 L403.39 0 L419.46 0 L274.8 333 C390.87 335.7 463.35 407.82 480.79 531.95 C498.49 657.88 443.92 730 330.32 730 L166.54 730 L63.95 0 Z M125.58 345.14 L177.95 717.76 L328.45 717.76 C434.34 717.76 484.3 650.16 467.69 531.95 C450.98 413.1 381.39 345.14 274.48 345.14 L125.58 345.14 Z " />
<glyph glyph-name="S" unicode="S" horiz-adv-x="465" d="M179.13 -10 C301.66 -10 371.29 54.31 389.57 184.39 C405.36 296.72 356.9 327.69 247 382.77 C148.19 432.29 103.74 458.89 118.26 562.25 C133.81 672.83 191.04 727.73 292.34 727.73 C346.82 727.73 392.66 714.99 430.37 688.9 L434.69 701.83 C393.2 727.23 346.23 740 292.64 740 C183.86 740 121.9 681.65 105.31 563.61 C89.51 451.17 140.1 422.03 243.06 370.19 C347.42 317.64 391.06 288.94 376.56 185.73 C359.32 63.11 294.58 2.25999 179.61 2.25999 C117.03 2.25999 66.44 14.36 27.23 39.11 L22.89 26.17 C65.32 2.09 116.99 -10 179.13 -10 L179.13 -10 Z " />
<glyph glyph-name="T" unicode="T" horiz-adv-x="430" d="M468.01 730 L91.62 730 L89.9 717.72 L271.48 717.72 L170.61 0 L183.83 0 L284.7 717.72 L466.28 717.72 L468.01 730 Z " />
<glyph glyph-name="U" unicode="U" horiz-adv-x="578" d="M253.53 -10 C381.71 -10 456.81 72.21 480.12 238.06 L549.25 730 L536.13 730 L467 238.06 C444.83 80.33 375.38 2.28001 255.26 2.28001 C135.67 2.28001 88.41 80.33 110.58 238.06 L179.72 730 L166.54 730 L97.41 238.06 C74.1 72.21 125.84 -10 253.53 -10 L253.53 -10 Z " />
<glyph glyph-name="V" unicode="V" horiz-adv-x="545" d="M230.23 0 L239.96 0 L568.71 730 L554.69 730 L238.47 25.4 L120.46 730 L106.69 730 L230.23 0 Z " />
<glyph glyph-name="W" unicode="W" horiz-adv-x="831" d="M194.22 0 L204.13 0 L476.7 701.5 L551.75 0 L561.73 0 L839.62 730 L825.41 730 L561.25 32.44 L485.64 730 L475.36 730 L203.41 31.44 L135.61 730 L121.66 730 L194.22 0 Z " />
<glyph glyph-name="X" unicode="X" horiz-adv-x="519" d="M3.89 0 L18.5 0 L272 364.87 L424.35 0 L439.38 0 L281.7 373.34 L523.59 730 L508.99 730 L274.42 382.12 L137.7 730 L122.67 730 L264.56 372.65 L3.89 0 Z " />
<glyph glyph-name="Y" unicode="Y" horiz-adv-x="490" d="M201.04 0 L213.95 0 L255.15 292.41 L520.1 730 L505.8 730 L250.42 305.21 L114.48 730 L99.72 730 L242.36 293.18 L201.04 0 Z " />
<glyph glyph-name="Z" unicode="Z" horiz-adv-x="472" d="M19 0 L377.26 0 L378.98 12.28 L36.24 12.28 L478.33 718.79 L479.79 730 L134.42 730 L132.7 717.72 L463.76 717.72 L20.46 11.21 L19 0 Z " />
<glyph glyph-name="bracketleft" unicode="&#x5b;" horiz-adv-x="261" d="M45.56 -130 L181.39 -130 L180.05 -118.75 L59.31 -118.75 L174.76 702.75 L295.5 702.75 L300 714 L164.18 714 L45.56 -130 Z " />
<glyph glyph-name="backslash" unicode="&#x5c;" horiz-adv-x="363" d="M255.67 -42.07 L267.1 -37.93 L133.21 764.07 L121.79 759.96 L255.67 -42.07 Z " />
<glyph glyph-name="bracketright" unicode="&#x5d;" horiz-adv-x="261" d="M96.5 -130 L215.12 714 L79.29 714 L80.63 702.75 L201.38 702.75 L85.92 -118.75 L-34.82 -118.75 L-39.32 -130 L96.5 -130 Z " />
<glyph glyph-name="asciicircum" unicode="&#x5e;" horiz-adv-x="438" d="M93.05 455.91 L107.85 455.91 L282.32 719.71 L382.65 455.91 L397.45 455.91 L287.38 738.01 L282.41 738.01 L93.05 455.91 Z " />
<glyph glyph-name="underscore" unicode="&#x5f;" horiz-adv-x="463" d="M19.16 -34.25 L357.82 -34.25 L359.54 -22.01 L20.88 -22.01 L19.16 -34.25 Z " />
<glyph glyph-name="a" unicode="a" horiz-adv-x="479" d="M380.86 0 L394.93 0 L285.41 584.01 L276.65 584.01 L2.91 0 L16.85 0 L96.01 169.68 L349.39 169.68 L380.86 0 Z M101.55 181.55 L277.31 558.3 L347.19 181.55 L101.55 181.55 Z " />
<glyph glyph-name="b" unicode="b" horiz-adv-x="448" d="M51.86 0 L185.65 0 C296.1 0 358.07 51.32 372.62 154.85 C384.78 241.37 352.85 294.71 274.23 304.33 C340.03 317.1 377.57 365.13 388.25 441.13 C401.68 536.65 362.13 584 268.94 584 L133.94 584 L51.86 0 Z M108.37 309.85 L145.23 572.14 L267.04 572.14 C352.62 572.14 387.8 529.24 375.4 441.01 C363 352.75 315.25 309.85 228.46 309.85 L108.37 309.85 Z M66.5 11.91 L106.7 297.98 L228.28 297.98 C330.52 297.98 373.09 251.19 359.56 154.91 C346.04 58.6801 289.96 11.91 187.12 11.91 L66.5 11.91 Z " />
<glyph glyph-name="c" unicode="c" horiz-adv-x="435" d="M230.71 -8 C272.93 -8 311.59 1.07001 340.23 17.31 L338.68 30.5 C312.26 13.18 275.82 3.99001 231.34 3.99001 C102.34 3.99001 54.48 95.65 81.75 289.74 C109.44 486.74 183.95 580.17 315.55 580.17 C350.03 580.17 380.62 571.18 402.45 553.54 L407.25 565.86 C383.81 582.47 351.89 592.14 315.79 592.14 C178.79 592.14 97.1 492.48 68.8 291.09 C40.71 91.23 94.46 -8.01001 230.71 -8.01001 L230.71 -8 Z " />
<glyph glyph-name="d" unicode="d" horiz-adv-x="496" d="M51.86 0 L186.22 0 C319.87 0 399.64 96.25 426.93 290.41 C454.52 486.69 401.94 584 268.3 584 L133.93 584 L51.86 0 Z M66.57 11.93 L145.29 572.09 L266.62 572.09 C392.79 572.09 440.44 480.11 413.78 290.41 C387.43 102.87 314.07 11.93 187.9 11.93 L66.57 11.93 Z " />
<glyph glyph-name="e" unicode="e" horiz-adv-x="430" d="M406.99 572.11 L408.66 584 L133.93 584 L51.86 0 L333.48 0 L335.16 11.93 L66.57 11.93 L105.66 290.11 L346.8 290.11 L348.46 301.97 L107.33 301.97 L145.3 572.11 L406.99 572.11 Z " />
<glyph glyph-name="f" unicode="f" horiz-adv-x="402" d="M389.86 572.05 L391.54 584 L133.93 584 L51.86 0 L64.93 0 L104.78 283.55 L328.73 283.55 L330.41 295.46 L106.45 295.46 L145.32 572.05 L389.86 572.05 Z " />
<glyph glyph-name="g" unicode="g" horiz-adv-x="485" d="M318.43 580.06 C358.52 580.06 390.14 572.09 413.82 556.02 L419.07 568.84 C391.16 584.32 358.3 592 319.92 592 C180.3 592 97.04 492.04 68.7 290.41 C40.72 91.34 90.93 -8.00003 219.05 -8.00003 C278.63 -8.00003 327.03 16.83 364.42 66.92 L365.24 66.92 L356.9 -3.05176e-05 L365.12 -3.05176e-05 L404.38 279.3 L247.63 279.3 L246.09 268.32 L391.12 268.32 L365.19 83.81 C328.87 30.52 281.43 3.98 222.12 3.98 C99.53 3.98 54.71 97.51 81.82 290.41 C109.24 485.48 186 580.06 318.43 580.06 L318.43 580.06 Z " />
<glyph glyph-name="h" unicode="h" horiz-adv-x="514" d="M449.03 584 L409.62 303.61 L107.56 303.61 L146.97 584 L133.93 584 L51.86 0 L64.89 0 L105.87 291.59 L407.93 291.59 L366.95 0 L379.99 0 L462.06 584 L449.03 584 Z " />
<glyph glyph-name="i" unicode="i" horiz-adv-x="199" d="M51.86 0 L65.04 0 L147.12 584 L133.93 584 L51.86 0 Z " />
<glyph glyph-name="j" unicode="j" horiz-adv-x="333" d="M81.68 -8 C159.84 -8 205.81 45.25 220.95 153.01 L281.52 584 L268.52 584 L207.93 152.88 C193.92 53.24 152.57 3.90001 83.01 3.90001 C54.06 3.90001 23.85 10.31 0.0800018 21.49 L-3.61 10.4 C22.83 -1.29999 53.9 -7.99998 81.68 -7.99998 L81.68 -8 Z " />
<glyph glyph-name="k" unicode="k" horiz-adv-x="454" d="M429.61 584 L411.49 584 L107.02 299.78 L146.97 584 L133.93 584 L51.86 0 L64.89 0 L106.43 295.54 L351.32 0 L369.21 0 L121.16 297.61 L429.61 584 Z " />
<glyph glyph-name="l" unicode="l" horiz-adv-x="394" d="M66.67 12.11 L147.04 584 L133.93 584 L51.86 0 L323.19 0 L324.89 12.11 L66.67 12.11 Z " />
<glyph glyph-name="m" unicode="m" horiz-adv-x="576" d="M25.87 0 L38.92 0 L155.56 560.22 L254.26 89.6 L263.15 89.6 L496.85 560.98 L455.72 1.52588e-05 L468.73 1.52588e-05 L511.05 583.96 L495.26 583.96 L261.85 113.69 L163.42 584 L147.7 584 L25.87 0 Z " />
<glyph glyph-name="n" unicode="n" horiz-adv-x="504" d="M44.86 0 L57.19 0 L135.58 556.96 L366.5 0 L378 0 L460.08 584 L447.79 584 L369.39 27.03 L138.51 584 L126.94 584 L44.86 0 Z " />
<glyph glyph-name="o" unicode="o" horiz-adv-x="511" d="M213.33 -8 C338.07 -8 413.8 90.9 441.84 290.41 C470.18 492.04 422.39 592 297.65 592 C172.92 592 97.04 492.04 68.7 290.41 C40.66 90.9 88.6 -8 213.33 -8 L213.33 -8 Z M215.02 4.06 C97.84 4.06 54.75 97.58 81.85 290.41 C109.25 485.4 178.78 579.96 295.96 579.96 C413.15 579.96 456.09 485.4 428.69 290.41 C401.59 97.58 332.21 4.06 215.02 4.06 L215.02 4.06 Z " />
<glyph glyph-name="p" unicode="p" horiz-adv-x="435" d="M270.46 584 L133.93 584 L51.86 0 L64.89 0 L100.17 251.02 L222.33 251.02 C319.09 251.02 374.83 306.32 390.51 417.89 C406.11 528.94 366.33 584 270.46 584 L270.46 584 Z M377.62 417.89 C362.96 313.57 312.9 262.9 223.71 262.9 L101.84 262.9 L145.3 572.13 L268.51 572.13 C356.79 572.13 392.21 521.71 377.62 417.89 L377.62 417.89 Z " />
<glyph glyph-name="q" unicode="q" horiz-adv-x="511" d="M441.83 290.41 C470.16 492.04 422.38 592 297.65 592 C172.92 592 97.04 492.04 68.7 290.41 C40.44 89.3 85.89 -8 213.32 -8 C230.38 -8 246.56 -6.11 261.85 -2.31 C269.36 -62.68 301.65 -99.04 359.21 -112 L363.97 -98.58 C312.01 -88.58 281.47 -55.73 271.89 0.490005 C361.31 28.33 418.53 124.68 441.83 290.41 L441.83 290.41 Z M215 4.26001 C95.29 4.26001 54.92 96.06 82.18 290 C109.58 484.99 178.75 579.96 295.96 579.96 C413.14 579.96 456.09 485.4 428.69 290.41 C401.59 97.59 331.26 4.26001 215 4.26001 L215 4.26001 Z " />
<glyph glyph-name="r" unicode="r" horiz-adv-x="443" d="M51.86 0 L64.89 0 L102.21 265.56 L215.38 265.56 L336.42 0 L352.19 0 L229.4 265.85 C326.36 268.5 386.42 326.04 400.35 425.16 C414.57 526.38 368.36 584 272.58 584 L133.93 584 L51.86 0 Z M103.79 277.29 L145.24 572.23 L270.64 572.23 C359.11 572.23 400.68 519.47 387.43 425.16 C374.1 330.33 317.19 277.29 227.85 277.29 L103.79 277.29 Z " />
<glyph glyph-name="s" unicode="s" horiz-adv-x="409" d="M151.04 -8 C254.32 -8 312.61 43.58 327.28 147.98 C339.87 237.6 298.64 262.77 207.13 306.77 C122.68 347.38 86.62 367.38 98.11 449.15 C110.47 537.08 157.44 580.03 242.08 580.03 C287.7 580.03 326.2 569.82 357.97 548.88 L362.17 561.41 C327.06 581.74 287.43 591.98 242.26 591.98 C150.5 591.98 98.6 545.18 85.28 450.44 C72.65 360.59 115.97 337.02 201.35 295.18 C291.33 251.07 325.8 230.69 314.33 149.06 C300.63 51.56 247.51 3.94995 151.48 3.94995 C99.12 3.94995 56.53 13.66 23.26 33.58 L19.08 21.07 C55.04 1.72997 98.66 -8.01004 151.04 -8.01004 L151.04 -8 Z " />
<glyph glyph-name="t" unicode="t" horiz-adv-x="378" d="M388.57 584 L71.01 584 L69.31 571.94 L221.54 571.94 L141.16 0 L154.27 0 L234.65 571.94 L386.87 571.94 L388.57 584 Z " />
<glyph glyph-name="u" unicode="u" horiz-adv-x="502" d="M211.83 -8 C319.9 -8 382.74 57.94 401.44 190.96 L456.68 584 L443.72 584 L388.49 190.97 C370.81 65.19 313.95 4.12 213.53 4.12 C113.53 4.12 74.05 65.19 91.73 190.97 L146.97 584 L133.93 584 L78.69 190.96 C60 57.94 104.12 -8 211.83 -8 L211.83 -8 Z " />
<glyph glyph-name="v" unicode="v" horiz-adv-x="477" d="M192.68 0 L202.94 0 L474.72 584.01 L460.82 584.01 L200.68 21.69 L98.75 584.01 L85.07 584.01 L192.68 0 Z " />
<glyph glyph-name="w" unicode="w" horiz-adv-x="736" d="M164.45 0 L174.54 0 L406.04 559.35 L480.03 0 L490.1 0 L733.82 584.01 L719.6 584.01 L488.54 26.48 L415.44 584.01 L403.25 584.01 L173.09 25.69 L99.04 584.01 L85.06 584.01 L164.45 0 Z " />
<glyph glyph-name="x" unicode="x" horiz-adv-x="438" d="M-6.2 0 L8.46001 0 L217.8 290.25 L346.74 0 L361.75 0 L227.38 298.82 L428.34 584 L413.68 584 L220.18 307.52 L104.5 584 L89.5 584 L210.48 298.19 L-6.2 0 Z " />
<glyph glyph-name="y" unicode="y" horiz-adv-x="427" d="M166.27 0 L178.93 0 L211.97 234.38 L431.99 584 L416.93 584 L207.27 247.01 L91.5 584 L77.11 584 L199.31 234.19 L166.27 0 Z " />
<glyph glyph-name="z" unicode="z" horiz-adv-x="414" d="M14.9 0 L316.97 0 L318.68 12.11 L32.07 12.11 L397.57 573.3 L398.96 584 L107.75 584 L106.06 571.94 L383.13 571.94 L16.29 10.72 L14.9 0 Z " />
<glyph glyph-name="braceleft" unicode="&#x7b;" horiz-adv-x="243" d="M117.59 -130 L163.51 -130 L162.17 -118.75 L121.62 -118.75 C66.56 -118.75 45.49 -86.97 55.06 -18.89 C68.26 75.05 102.76 147.96 115.54 238.9 C120.11 271.42 106.15 288.54 93.1 292 C107.04 294.88 125.75 311.61 130.32 344.09 C143.15 435.37 129.2 508.62 142.45 602.88 C152.01 670.96 182.02 702.75 237.07 702.75 L277.62 702.75 L282.13 714 L236.21 714 C177.55 714 140.53 675.48 130.48 603.94 C118.3 517.31 131.92 441.7 118.77 348.1 C113.42 310.05 93.89 298.11 70.94 298.11 L62.78 298.11 L61.06 285.89 L69.22 285.89 C92.17 285.89 108.34 273.94 103 235.89 C89.84 142.29 54.97 66.68 42.8 -19.95 C32.74 -91.48 58.93 -130 117.59 -130 L117.59 -130 Z " />
<glyph glyph-name="bar" unicode="&#x7c;" horiz-adv-x="273" d="M67.6 -180 L78.86 -180 L218.55 814 L207.29 814 L67.6 -180 Z " />
<glyph glyph-name="braceright" unicode="&#x7d;" horiz-adv-x="243" d="M6.60001 -130 C65.25 -130 102.27 -91.48 112.33 -19.95 C124.5 66.68 110.88 142.29 124.04 235.89 C129.38 273.94 148.91 285.89 171.86 285.89 L180.02 285.89 L181.74 298.11 L173.58 298.11 C150.63 298.11 134.46 310.05 139.8 348.1 C152.96 441.7 187.83 517.31 200.01 603.94 C210.06 675.48 183.87 714 125.21 714 L79.29 714 L80.63 702.75 L121.18 702.75 C176.24 702.75 197.31 670.96 187.74 602.88 C174.49 508.62 139.95 435.37 127.13 344.09 C122.56 311.61 136.57 294.88 149.7 292 C135.68 288.54 116.91 271.42 112.34 238.9 C99.56 147.96 113.56 75.05 100.36 -18.89 C90.79 -86.97 60.79 -118.75 5.72997 -118.75 L-34.82 -118.75 L-39.32 -130 L6.60001 -130 Z " />
<glyph glyph-name="asciitilde" unicode="&#x7e;" horiz-adv-x="411" d="M279.06 332.86 C311.63 332.86 338.52 350.48 360.18 386.02 L349.98 391.09 C333.29 360.35 310.37 345.1 280.77 345.1 C231.08 345.1 218.55 403.1 162.09 403.1 C125.96 403.1 98 384.49 77.73 346.95 L88.09 342.87 C105.28 374.95 129.23 390.86 160.38 390.86 C211.01 390.86 223.56 332.86 279.06 332.86 L279.06 332.86 Z " />
<glyph glyph-name="uni00A0" unicode="&#xa0;" horiz-adv-x="207" d="" />
<glyph glyph-name="exclamdown" unicode="&#xa1;" horiz-adv-x="253" d="M162.43 548 C146.58 548 139.94 541.53 137.43 523.65 C134.92 505.78 139.75 499.3 155.63 499.3 C171.47 499.3 178.11 505.77 180.62 523.62 C183.13 541.53 178.3 548 162.43 548 L162.43 548 Z M136.26 394.36 L72.67 -44 L86.16 -44 L145.79 394.36 L136.26 394.36 Z " />
<glyph glyph-name="cent" unicode="&#xa2;" horiz-adv-x="351" d="M244.83 476.7 C275.61 476.7 300.99 468.63 323.34 452.35 L327.96 465.07 C304.42 480.78 277.01 488.6 245.43 488.6 C243.31 488.6 241.2 488.57 239.12 488.51 L250.77 571.43 L240.06 571.43 L228.33 487.94 C137.85 480.87 84.38 416.21 67.06 293.04 C49.75 169.86 85.05 105.21 173.55 98.13 L161.13 9.77 L171.83 9.77 L184.17 97.57 C186.24 97.51 188.34 97.48 190.46 97.48 C223.2 97.48 255.29 103.93 287.28 116.93 L286.28 129.7 C257.28 116.11 226.43 109.38 193.21 109.38 C190.72 109.38 188.27 109.42 185.86 109.51 L237.45 476.57 C239.88 476.65 242.35 476.7 244.84 476.7 L244.83 476.7 Z M175.25 110.18 C94.78 117.66 63.96 177.71 80.17 293.04 C96.38 408.36 144.07 468.42 226.65 475.9 L175.25 110.18 Z " />
<glyph glyph-name="sterling" unicode="&#xa3;" horiz-adv-x="382" d="M255.12 578.98 C290.71 578.98 321.97 569.12 349.46 549.23 L354.14 562.08 C325 581.39 292.63 590.96 256.47 590.96 C164.74 590.96 114.06 531 97.06 410.04 L81.26 297.65 L25.77 297.65 L24.23 286.65 L79.71 286.65 L41.11 11.93 L-14.67 9.87 L-16.06 0 L283.89 0 L285.57 11.95 L53.39 11.95 L91.99 286.65 L241.63 286.65 L243.17 297.65 L93.54 297.65 L109.35 410.15 C125.31 523.69 170.57 578.98 255.12 578.98 L255.12 578.98 Z " />
<glyph glyph-name="currency" unicode="&#xa4;" horiz-adv-x="508" d="M457.89 493.25 L451.03 501.56 L384.63 434.29 C361.48 464.08 325.95 480.89 280.73 480.89 C235.28 480.89 194.83 464.05 163.18 434.22 L115.64 501.56 L106.45 493.25 L154.57 425.55 C124.25 392.97 103.3 347.46 95.65 293.04 C88.31 240.79 95.53 196.76 114.84 164.5 L45.12 94.18 L51.98 85.87 L120.74 155.54 C143.89 123.42 180.63 105.18 227.92 105.18 C274.98 105.18 316.67 123.39 348.72 155.47 L397.85 85.87 L407.04 94.18 L357.12 164.45 C385.42 196.72 404.99 240.76 412.33 293.04 C419.99 347.5 411.87 393.02 390.79 425.61 L457.89 493.25 Z M399.28 293.04 C384.25 186.08 318.43 117.43 229.64 117.43 C140.45 117.43 93.68 186.08 108.71 293.04 C123.74 400.01 189.81 468.67 279.01 468.67 C367.8 468.67 414.31 400.01 399.28 293.04 L399.28 293.04 Z " />
<glyph glyph-name="yen" unicode="&#xa5;" horiz-adv-x="422" d="M427.82 582.87 L414.04 582.87 L204.9 245.56 L90.48 582.87 L75.84 582.87 L170.91 308.2 L101.81 308.2 L100.34 297.76 L174.52 297.76 L196.68 233.73 L193.39 210.31 L88.05 210.31 L86.58 199.87 L191.92 199.87 L163.82 0 L176.47 0 L204.55 199.87 L309.83 199.87 L311.29 210.31 L206.02 210.31 L209.34 233.93 L249.3 297.76 L323.62 297.76 L325.09 308.2 L255.84 308.2 L427.82 582.87 Z " />
<glyph glyph-name="brokenbar" unicode="&#xa6;" horiz-adv-x="239" d="M140.42 458.97 L151.68 458.97 L201.57 814 L190.31 814 L140.42 458.97 Z M50.62 -180 L61.88 -180 L111.77 175.03 L100.51 175.03 L50.62 -180 Z " />
<glyph glyph-name="section" unicode="&#xa7;" horiz-adv-x="525" d="M332.58 747.73 C384.69 747.73 432.36 735.79 476.39 711.72 L481.32 724.98 C433.35 748.38 384.55 759.97 334.08 759.97 C223.18 759.97 161.35 711.22 147.53 612.86 C135.85 529.73 158.66 494.62 222.46 467.46 C133.08 439.32 82.98 384.27 70.98 298.91 C56.14 193.33 93.42 142.88 211.75 109.91 C336.82 75.02 382.16 51.19 365.85 -64.9 C350.54 -173.84 285.48 -227.74 167.3 -227.74 C111.03 -227.74 62.52 -217.13 20.94 -195.72 L16.89 -208.99 C63.15 -229.72 112.45 -240 165.64 -240 C291.81 -240 362.51 -181.97 378.97 -64.89 C391.84 26.72 367.96 64.57 300.17 94.03 C393.47 122.63 445.6 178.5 457.76 265.03 C472.4 369.21 432.32 419.05 310.13 453.04 C189.54 486.54 145.74 507.11 160.6 612.87 C173.28 703.08 229.63 747.73 332.58 747.73 L332.58 747.73 Z M444.51 264.99 C432.85 181.98 379.71 128.71 282.29 101.25 C262.83 108.6 240.4 115.63 214.85 123.15 C104.47 155.66 70.57 202.13 84.18 298.95 C95.92 382.51 146.6 435.22 238.84 460.98 C258.09 453.84 280.44 447.06 306.02 439.81 C421.37 407.12 457.92 360.38 444.51 264.99 L444.51 264.99 Z " />
<glyph glyph-name="dieresis" unicode="&#xa8;" horiz-adv-x="199" d="M97.12 647.93 C113.42 647.93 121.08 654.87 123.77 674.04 C126.47 693.21 120.77 700.15 104.48 700.15 C88.18 700.15 80.53 693.21 77.83 674.04 C75.14 654.87 80.84 647.93 97.12 647.93 L97.12 647.93 Z M207.57 647.93 C223.87 647.93 231.53 654.87 234.22 674.04 C236.92 693.21 231.21 700.15 214.93 700.15 C198.63 700.15 190.98 693.21 188.28 674.04 C185.59 654.87 191.29 647.93 207.57 647.93 L207.57 647.93 Z " />
<glyph glyph-name="copyright" unicode="&#xa9;" horiz-adv-x="635" d="M275.56 -8 C438.8 -8 533.5 90.1 561.31 288 C589.88 491.24 523.12 592 359.89 592 C196.22 592 100.93 491.24 72.36 288 C44.55 90.1 111.9 -8 275.56 -8 L275.56 -8 Z M277.26 4.10001 C120.02 4.10001 57.97 96.83 84.84 288.03 C112.47 484.62 200.95 579.96 358.19 579.96 C514.99 579.96 576.47 484.62 548.85 288.03 C521.97 96.83 434.06 4.10001 277.26 4.10001 L277.26 4.10001 Z M307.82 126.6 C338.2 126.6 370.67 133.68 398.92 145.56 L398.05 157.97 C374.02 146 340.54 138.11 310.15 138.11 C232.38 138.11 202.24 189.24 217.01 294.39 C231.79 399.53 276.31 450.67 354.07 450.67 C382.3 450.67 405.76 444.28 427.54 427.67 L432.46 439.31 C410.8 454.3 385.41 462.17 354.98 462.17 C270.53 462.17 220.85 406.56 205.08 294.39 C189.32 182.21 223.37 126.6 307.82 126.6 L307.82 126.6 Z " />
<glyph glyph-name="ordfeminine" unicode="&#xaa;" horiz-adv-x="319" d="M162.74 407 C201.59 407 239.33 426.17 276.04 464.61 L276.85 464.61 L271.18 413 L279.78 413 L311.23 636.8 C321.73 711.48 300.36 743 238.98 743 C208.22 743 177.25 734.69 145.52 717.94 L146.62 705.71 C176.77 722.87 206.64 731.39 236.78 731.39 C290.57 731.39 308.92 703.78 299.56 637.18 L290.47 572.51 C260.66 583.57 229.52 589.09 196.73 589.09 C134.59 589.09 99.48 558.48 90.91 497.52 C82.41 437 106.21 407 162.74 407 L162.74 407 Z M166.48 418.65 C115.78 418.65 95.46 444.17 103.02 497.94 C110.61 551.96 140.83 577.57 197.25 577.57 C229.99 577.57 260.64 572.36 288.98 561.93 L276.89 475.91 C240.13 437.59 203.49 418.65 166.49 418.65 L166.48 418.65 Z " />
<glyph glyph-name="guillemotleft" unicode="&#xab;" horiz-adv-x="475" d="M205.07 66.91 L215.82 75.1 L72.47 291.94 L276.9 508.79 L269.03 516.98 L56.92 291.94 L205.07 66.91 Z M394.84 66.91 L405.6 75.1 L262.25 291.94 L466.68 508.79 L458.81 516.98 L246.69 291.94 L394.84 66.91 Z " />
<glyph glyph-name="logicalnot" unicode="&#xac;" horiz-adv-x="404" d="M351.84 374.14 L81.55 374.14 L79.83 361.89 L338.17 361.89 L325.23 269.82 L337.18 269.82 L350.12 361.89 L351.84 374.14 Z " />
<glyph glyph-name="registered" unicode="&#xae;" horiz-adv-x="635" d="M275.56 -8 C438.8 -8 533.5 90.1 561.31 288 C589.88 491.24 523.12 592 359.89 592 C196.22 592 100.93 491.24 72.36 288 C44.55 90.1 111.9 -8 275.56 -8 L275.56 -8 Z M277.28 4.23 C120.04 4.23 57.98 96.93 84.84 288.03 C112.45 484.47 200.93 579.77 358.17 579.77 C514.97 579.77 576.45 484.47 548.85 288.03 C521.99 96.93 434.08 4.23 277.28 4.23 L277.28 4.23 Z M209.38 129.26 L220.83 129.26 L240.07 266.16 L315.77 266.16 L389.66 129.26 L403.47 129.26 L328.21 266.26 C382.41 266.56 420.5 298.2 429.7 363.64 C438.71 427.75 414.51 459.53 356.69 459.53 L255.8 459.53 L209.38 129.26 Z M241.61 277.14 L265.7 448.52 L353.97 448.52 C404.84 448.52 426.12 420.48 418.14 363.64 C410 305.72 380.34 277.14 328.62 277.14 L241.61 277.14 Z " />
<glyph glyph-name="degree" unicode="&#xb0;" horiz-adv-x="313" d="M187.77 493.96 C262.23 493.96 312.56 546.48 325.42 638 C338.29 729.52 303.52 782.03 228.31 782.03 C153.86 782.03 103.54 729.52 90.67 638 C77.67 545.48 113.35 493.96 187.77 493.96 L187.77 493.96 Z M189.5 506.19 C122.43 506.19 90.57 553.57 102.43 638 C114.16 721.43 159.48 769.8 226.58 769.8 C294.45 769.8 325.39 721.43 313.66 638 C301.94 554.56 256.61 506.19 189.5 506.19 L189.5 506.19 Z " />
<glyph glyph-name="plusminus" unicode="&#xb1;" horiz-adv-x="429" d="M236.32 384.2 L255.98 524.12 L244.06 524.12 L224.4 384.2 L82.97 384.2 L81.25 371.95 L222.67 371.95 L203.01 232.04 L214.93 232.04 L234.59 371.95 L376.02 371.95 L377.74 384.2 L236.32 384.2 Z M50.31 151.83 L345.08 151.83 L346.81 164.08 L52.03 164.08 L50.31 151.83 Z " />
<glyph glyph-name="uni00B5" unicode="&#xb5;" horiz-adv-x="496" d="M440.23 540 L378.41 100.12 C318.41 37.65 250.41 2.28 190.78 2.28 C110.66 2.28 79.15 61.79 96.05 182.04 L146.36 540 L133.83 540 L25.61 -230 L37.49 -230 L81.71 84.67 C91.2 21.43 126.83 -10 188.25 -10 C250.39 -10 318.26 25.42 376.73 85.95 L377.56 85.95 L367.58 0 L376.66 0 L452.55 540 L440.23 540 Z " />
<glyph glyph-name="paragraph" unicode="&#xb6;" horiz-adv-x="414" d="M376.83 730 L225.56 730 C165.81 730 126.11 691.19 116.59 623.46 C107.12 556.03 135.6 517.26 195.6 516.93 L103.28 -140 L115.29 -140 L235.84 717.74 L363.08 717.74 L242.53 -140 L254.55 -140 L376.83 730 Z " />
<glyph glyph-name="periodcentered" unicode="&#xb7;" horiz-adv-x="183" d="M93.26 282.87 C111.43 282.87 119.91 290.61 122.91 312 C125.91 333.39 119.61 341.13 101.46 341.13 C83.3 341.13 74.82 333.39 71.82 312 C68.82 290.61 75.11 282.87 93.26 282.87 L93.26 282.87 Z " />
<glyph glyph-name="ordmasculine" unicode="&#xba;" horiz-adv-x="361" d="M200.08 407 C281.19 407 329.31 462.8 345.08 575 C360.85 687.2 328.41 743 247.3 743 C165.69 743 117.57 687.2 101.8 575 C86.03 462.8 118.47 407 200.08 407 L200.08 407 Z M201.71 418.62 C127.05 418.62 99.35 467.68 114.43 575 C129.52 682.35 171.01 731.42 245.68 731.42 C319.85 731.42 347.53 682.35 332.45 575 C317.36 467.68 275.88 418.62 201.71 418.62 L201.71 418.62 Z " />
<glyph glyph-name="guillemotright" unicode="&#xbb;" horiz-adv-x="474" d="M17.05 66.91 L228.46 291.94 L79.59 516.98 L69.42 508.79 L212.9 291.94 L8.60001 75.1 L17.05 66.91 Z M206.83 66.91 L418.23 291.94 L269.37 516.98 L259.2 508.79 L402.68 291.94 L198.38 75.1 L206.83 66.91 Z " />
<glyph glyph-name="onequarter" unicode="&#xbc;" horiz-adv-x="554" d="M95.08 -8.3 L444.68 585.44 L428.04 590.96 L78.43 -2.75999 L95.08 -8.3 Z M124.23 233.23 L135.9 233.23 L185.03 582.82 L174.73 582.82 L72.56 531.08 L75.62 521.61 L171.47 569.39 L124.23 233.23 Z M423.83 0 L435.37 0 L446.45 78.87 L485.05 78.87 L486.6 89.89 L448 89.89 L484.5 349.59 L473.77 349.59 L278.5 88.97 L277.08 78.87 L434.92 78.87 L423.83 0 Z M290.95 89.89 L470.11 328.45 L436.58 89.89 L290.95 89.89 Z " />
<glyph glyph-name="onehalf" unicode="&#xbd;" horiz-adv-x="587" d="M85.69 -8.3 L446.58 585.44 L437.42 590.96 L76.53 -2.75999 L85.69 -8.3 Z M124.23 233.23 L135.9 233.23 L185.03 582.82 L174.73 582.82 L72.56 531.08 L75.62 521.61 L171.47 569.39 L124.23 233.23 Z M312.32 0 L506.86 0 L508.44 11.23 L328.11 11.2 L448.77 130.98 C515.19 197.04 534.98 225.09 540.9 267.25 C548.7 322.76 520.4 354.57 463.2 354.57 C430.69 354.57 399.01 346.27 367.63 329.51 L369.01 317.93 C399.06 334.97 429.53 343.42 460.94 343.42 C512.01 343.42 535.61 316.68 528.58 266.68 C523.25 228.7 505.98 202.92 441.61 138.11 L313.51 9.15999 L312.32 0 Z " />
<glyph glyph-name="threequarters" unicode="&#xbe;" horiz-adv-x="609" d="M140.71 -8.3 L501.6 585.44 L492.44 590.96 L131.55 -2.75999 L140.71 -8.3 Z M103.44 228.24 C175.59 228.24 215.92 260.78 225.13 326.36 C232.33 377.55 209.74 408.38 162.54 411.97 C202.77 416.79 229.46 447.83 237.2 502.96 C245.18 559.68 220.26 587.79 162.01 587.79 C135.89 587.79 112.55 583 91.55 573.32 L92.98 562.11 C113.76 571.88 135.88 576.72 159.71 576.72 C211.49 576.72 232.3 552.89 225.15 502.01 C217.03 444.23 188.35 416.78 135.74 416.78 L102.89 416.78 L101.4 406.23 L135.01 406.23 C195.56 406.23 220.54 380.71 212.99 327.01 C204.61 267.37 170.03 239.36 104.39 239.36 C77.54 239.36 54.84 243.55 35.85 252.01 L31.69 240.28 C52.47 232.22 76.23 228.24 103.44 228.24 L103.44 228.24 Z M478.85 -0.00996399 L490.39 -0.00996399 L501.47 78.86 L540.07 78.86 L541.62 89.88 L503.02 89.88 L539.52 349.58 L528.79 349.58 L333.52 88.96 L332.1 78.86 L489.93 78.86 L478.85 -0.00996399 Z M345.97 89.88 L525.12 328.44 L491.6 89.88 L345.97 89.88 Z " />
<glyph glyph-name="questiondown" unicode="&#xbf;" horiz-adv-x="312" d="M213.33 548 C197.45 548 190.8 541.53 188.28 523.62 C185.77 505.77 190.6 499.3 206.44 499.3 C222.31 499.3 228.97 505.78 231.48 523.65 C233.99 541.53 229.17 548 213.33 548 L213.33 548 Z M212.4 395.16 L201.27 392.51 C201.27 392.51 205.27 373.8 202.04 350.81 C192.98 286.31 149.35 246.96 105.76 207 C62.65 167.55 18.98 128.52 10.24 66.29 C-0.860016 -12.63 34.14 -52 114.42 -52 C153.31 -52 189.63 -43.26 225 -25.45 L223.26 -12.86 C190.09 -31.21 154.79 -40.22 115.98 -40.22 C42.79 -40.22 12.44 -5.20001 22.53 66.6 C30.72 124.88 68.44 160.84 112.96 199.88 C157.8 239.46 203.19 280.83 213.02 350.81 C216.57 376.08 212.4 395.16 212.4 395.16 L212.4 395.16 Z " />
<glyph glyph-name="Agrave" unicode="&#xc0;" horiz-adv-x="548" d="M375.02 785.34 L248.99 881.69 L241.14 870.06 L369.58 777.28 L375.02 785.34 Z M454.61 0 L468.8 0 L343.02 730 L335.03 730 L4.00999 0 L18.11 0 L114.68 213.83 L418.14 213.83 L454.61 0 Z M120.21 226.08 L334.96 701.6 L416.05 226.08 L120.21 226.08 Z " />
<glyph glyph-name="Aacute" unicode="&#xc1;" horiz-adv-x="548" d="M476.26 870.06 L471.67 881.69 L318.56 785.34 L321.73 777.28 L476.26 870.06 Z M335.03 730 L4.00999 0 L18.11 0 L114.68 213.83 L418.14 213.83 L454.61 0 L468.8 0 L343.02 730 L335.03 730 Z M120.21 226.08 L334.96 701.6 L416.05 226.08 L120.21 226.08 Z " />
<glyph glyph-name="Acircumflex" unicode="&#xc2;" horiz-adv-x="548" d="M359.46 875.48 L445.3 769.28 L462.32 769.28 L366.99 885.39 L354.71 885.39 L226.75 769.28 L243.76 769.28 L359.46 875.48 Z M454.61 0 L468.8 0 L343.02 730 L335.03 730 L4.00999 0 L18.11 0 L114.68 213.83 L418.14 213.83 L454.61 0 Z M120.21 226.08 L334.96 701.6 L416.05 226.08 L120.21 226.08 Z " />
<glyph glyph-name="Atilde" unicode="&#xc3;" horiz-adv-x="548" d="M486.82 887.11 C470.13 856.36 447.21 841.12 417.61 841.12 C367.92 841.12 355.39 899.12 298.93 899.12 C262.8 899.12 234.84 880.51 214.57 842.96 L224.93 838.89 C242.12 870.97 266.07 886.88 297.22 886.88 C347.85 886.88 360.4 828.88 415.9 828.88 C448.47 828.88 475.36 846.49 497.02 882.04 L486.82 887.11 Z M335.03 730 L4.00998 0 L18.11 0 L114.68 213.83 L418.14 213.83 L454.61 0 L468.8 0 L343.02 730 L335.03 730 Z M120.21 226.08 L334.96 701.6 L416.05 226.08 L120.21 226.08 Z " />
<glyph glyph-name="Adieresis" unicode="&#xc4;" horiz-adv-x="548" d="M287.68 787.97 C303.97 787.97 311.63 794.91 314.33 814.08 C317.02 833.25 311.32 840.19 295.04 840.19 C278.74 840.19 271.08 833.25 268.39 814.08 C265.69 794.91 271.39 787.97 287.68 787.97 L287.68 787.97 Z M406.21 787.97 C422.51 787.97 430.17 794.91 432.86 814.08 C435.56 833.25 429.86 840.19 413.57 840.19 C397.28 840.19 389.62 833.25 386.92 814.08 C384.23 794.91 389.93 787.97 406.21 787.97 L406.21 787.97 Z M454.61 0 L468.8 0 L343.02 730 L335.03 730 L4.00998 0 L18.11 0 L114.68 213.83 L418.14 213.83 L454.61 0 Z M120.21 226.08 L334.96 701.6 L416.05 226.08 L120.21 226.08 Z " />
<glyph glyph-name="Aring" unicode="&#xc5;" horiz-adv-x="548" d="M454.61 0 L468.8 0 L344.21 723.13 C392.02 726.13 423.94 761.23 432.28 820.53 C440.72 880.61 416.44 915.04 365.61 915.04 C314.05 915.04 279.58 880.05 271 818.98 C262.73 760.18 284.87 725.56 331.89 723.07 L4.00999 -1.52588e-05 L18.11 -1.52588e-05 L114.68 213.83 L418.14 213.83 L454.61 0 Z M281.76 818.98 C289.35 872.96 319.02 903.84 363.95 903.84 C408.25 903.84 428.95 873.45 421.48 820.32 C413.78 765.49 384.04 734.12 339.11 734.12 C294.81 734.12 274.17 765 281.76 818.98 L281.76 818.98 Z M120.21 226.08 L334.96 701.6 L416.05 226.08 L120.21 226.08 Z " />
<glyph glyph-name="AE" unicode="&#xc6;" horiz-adv-x="816" d="M814.77 717.74 L816.49 730 L495.53 730 L4.00999 0 L19.19 0 L162.88 213.83 L426.17 213.83 L396.12 0 L722.08 0 L723.8 12.26 L411.01 12.26 L460.43 363.88 L740.55 363.88 L742.28 376.13 L462.15 376.13 L510.15 717.74 L814.77 717.74 Z M427.88 226.08 L171.11 226.08 L495.78 709.21 L427.88 226.08 Z " />
<glyph glyph-name="Ccedilla" unicode="&#xc7;" horiz-adv-x="497" d="M381.66 727.92 C422.88 727.92 459.36 716.49 485.16 694.17 L490.28 707.02 C462.72 727.98 424.85 740.18 382.02 740.18 C219.41 740.18 121.49 615.52 86.09 363.69 C51.67 118.72 111.49 -5.24001 266.31 -9.87001 L251.12 -63.11 L263.84 -63.11 C315.88 -63.11 338.14 -85.26 331.85 -129.98 C325.1 -178.04 298.61 -201.83 251.36 -201.83 C224.31 -201.83 202.06 -195.86 184.22 -183.81 L179.6 -197.02 C198.6 -208.39 221.55 -214.03 248.85 -214.03 C304.32 -214.03 335.73 -186.18 343.63 -130 C350.96 -77.82 325.3 -51.96 266.21 -51.96 L278.01 -9.99001 C327.28 -9.61 372.41 1.81 405.86 21.8 L404.28 35.46 C372.77 13.76 329.19 2.26001 276.04 2.26001 C122.07 2.26001 65 119.34 99.15 362.34 C133.79 608.8 224.68 727.92 381.66 727.92 L381.66 727.92 Z " />
<glyph glyph-name="Egrave" unicode="&#xc8;" horiz-adv-x="493" d="M365.94 785.34 L239.92 881.69 L232.06 870.06 L360.5 777.28 L365.94 785.34 Z M490.76 717.74 L492.48 730 L166.54 730 L63.95 0 L398.07 0 L399.79 12.26 L78.85 12.26 L128.26 363.88 L416.55 363.88 L418.27 376.13 L129.98 376.13 L178 717.74 L490.76 717.74 Z " />
<glyph glyph-name="Eacute" unicode="&#xc9;" horiz-adv-x="493" d="M467.18 870.06 L462.59 881.69 L309.49 785.34 L312.66 777.28 L467.18 870.06 Z M490.76 717.74 L492.48 730 L166.54 730 L63.95 0 L398.07 0 L399.79 12.26 L78.85 12.26 L128.26 363.88 L416.55 363.88 L418.27 376.13 L129.98 376.13 L178 717.74 L490.76 717.74 Z " />
<glyph glyph-name="Ecircumflex" unicode="&#xca;" horiz-adv-x="493" d="M350.38 875.48 L436.22 769.28 L453.24 769.28 L357.92 885.39 L345.63 885.39 L217.67 769.28 L234.68 769.28 L350.38 875.48 Z M490.76 717.74 L492.48 730 L166.54 730 L63.95 0 L398.07 0 L399.79 12.26 L78.85 12.26 L128.26 363.88 L416.55 363.88 L418.27 376.13 L129.98 376.13 L178 717.74 L490.76 717.74 Z " />
<glyph glyph-name="Edieresis" unicode="&#xcb;" horiz-adv-x="493" d="M278.6 787.97 C294.9 787.97 302.55 794.91 305.25 814.08 C307.94 833.25 302.24 840.19 285.96 840.19 C269.66 840.19 262 833.25 259.31 814.08 C256.61 794.91 262.31 787.97 278.6 787.97 L278.6 787.97 Z M397.14 787.97 C413.44 787.97 421.09 794.91 423.79 814.08 C426.48 833.25 420.78 840.19 404.5 840.19 C388.2 840.19 380.54 833.25 377.85 814.08 C375.15 794.91 380.85 787.97 397.14 787.97 L397.14 787.97 Z M490.76 717.74 L492.48 730 L166.54 730 L63.95 0 L398.07 0 L399.79 12.26 L78.85 12.26 L128.26 363.88 L416.55 363.88 L418.27 376.13 L129.98 376.13 L178 717.74 L490.76 717.74 Z " />
<glyph glyph-name="Igrave" unicode="&#xcc;" horiz-adv-x="217" d="M203.75 777.28 L209.19 785.34 L83.16 881.69 L75.31 870.06 L203.75 777.28 Z M63.95 0 L77.22 0 L179.81 730 L166.55 730 L63.95 0 Z " />
<glyph glyph-name="Iacute" unicode="&#xcd;" horiz-adv-x="217" d="M155.55 777.28 L310.08 870.06 L305.49 881.69 L152.38 785.34 L155.55 777.28 Z M63.6 0 L76.87 0 L179.47 730 L166.2 730 L63.6 0 Z " />
<glyph glyph-name="Icircumflex" unicode="&#xce;" horiz-adv-x="217" d="M61.08 769.28 L78.1 769.28 L193.79 875.48 L279.63 769.28 L296.65 769.28 L201.33 885.39 L189.04 885.39 L61.08 769.28 Z M64.12 0 L77.39 0 L179.98 730 L166.71 730 L64.12 0 Z " />
<glyph glyph-name="Idieresis" unicode="&#xcf;" horiz-adv-x="216" d="M121.58 787.97 C137.88 787.97 145.54 794.91 148.23 814.08 C150.93 833.25 145.23 840.19 128.94 840.19 C112.64 840.19 104.99 833.25 102.29 814.08 C99.6 794.91 105.3 787.97 121.58 787.97 L121.58 787.97 Z M240.12 787.97 C256.42 787.97 264.08 794.91 266.77 814.08 C269.47 833.25 263.76 840.19 247.48 840.19 C231.18 840.19 223.53 833.25 220.83 814.08 C218.14 794.91 223.84 787.97 240.12 787.97 L240.12 787.97 Z M63.69 0 L76.96 0 L179.56 730 L166.29 730 L63.69 0 Z " />
<glyph glyph-name="Eth" unicode="&#xd0;" horiz-adv-x="586" d="M340.34 730 L181.57 730 L131.62 374.62 L44.68 374.62 L43.1 363.38 L130.04 363.38 L78.97 -1.52588e-05 L237.75 -1.52588e-05 C396.43 -1.52588e-05 491.99 120.31 526.1 363 C560.59 608.36 499.02 730 340.34 730 L340.34 730 Z M512.86 363 C479.88 128.35 390.21 12.26 239.47 12.26 L93.87 12.26 L143.21 363.38 L281.5 363.38 L283.08 374.62 L144.79 374.62 L193.02 717.74 L338.62 717.74 C489.36 717.74 546.21 600.33 512.86 363 L512.86 363 Z " />
<glyph glyph-name="Ntilde" unicode="&#xd1;" horiz-adv-x="580" d="M431.81 828.88 C464.38 828.88 491.26 846.49 512.93 882.04 L502.73 887.11 C486.04 856.36 463.11 841.12 433.52 841.12 C383.83 841.12 371.29 899.12 314.84 899.12 C278.7 899.12 250.75 880.51 230.48 842.96 L240.84 838.89 C258.02 870.97 281.98 886.88 313.13 886.88 C363.76 886.88 376.3 828.88 431.81 828.88 L431.81 828.88 Z M54.96 0 L67.3 0 L166.12 702.33 L437.92 0 L449.69 0 L552.28 730 L539.97 730 L441.15 27.67 L169.38 730 L157.55 730 L54.96 0 Z " />
<glyph glyph-name="Ograve" unicode="&#xd2;" horiz-adv-x="588" d="M389.4 777.28 L394.84 785.34 L268.81 881.69 L260.96 870.06 L389.4 777.28 Z M254.83 -10 C402.75 -10 493.46 113.62 528.51 363 C563.93 615.05 508.16 740 360.24 740 C212.31 740 121.42 615.05 86 363 C50.95 113.62 106.91 -10 254.83 -10 L254.83 -10 Z M256.55 2.27 C116.62 2.27 65.33 121.67 99.24 363 C133.54 607 218.57 727.72 358.51 727.72 C498.45 727.72 549.55 607 515.26 363 C481.34 121.67 396.49 2.27 256.55 2.27 L256.55 2.27 Z " />
<glyph glyph-name="Oacute" unicode="&#xd3;" horiz-adv-x="588" d="M341.55 777.28 L496.07 870.06 L491.49 881.69 L338.38 785.34 L341.55 777.28 Z M254.83 -10 C402.75 -10 493.46 113.62 528.51 363 C563.93 615.05 508.16 740 360.24 740 C212.31 740 121.42 615.05 86 363 C50.95 113.62 106.91 -10 254.83 -10 L254.83 -10 Z M256.55 2.27 C116.62 2.27 65.33 121.67 99.24 363 C133.54 607 218.57 727.72 358.51 727.72 C498.45 727.72 549.55 607 515.26 363 C481.34 121.67 396.49 2.27 256.55 2.27 L256.55 2.27 Z " />
<glyph glyph-name="Ocircumflex" unicode="&#xd4;" horiz-adv-x="588" d="M246.56 769.28 L263.58 769.28 L379.27 875.48 L465.12 769.28 L482.13 769.28 L386.81 885.39 L374.52 885.39 L246.56 769.28 Z M254.83 -10 C402.75 -10 493.46 113.62 528.51 363 C563.93 615.05 508.16 740 360.24 740 C212.31 740 121.42 615.05 86 363 C50.95 113.62 106.91 -10 254.83 -10 L254.83 -10 Z M256.55 2.27 C116.62 2.27 65.33 121.67 99.24 363 C133.54 607 218.57 727.72 358.51 727.72 C498.45 727.72 549.55 607 515.26 363 C481.34 121.67 396.49 2.27 256.55 2.27 L256.55 2.27 Z " />
<glyph glyph-name="Otilde" unicode="&#xd5;" horiz-adv-x="588" d="M435.72 828.88 C468.29 828.88 495.18 846.49 516.84 882.04 L506.64 887.11 C489.95 856.36 467.02 841.12 437.43 841.12 C387.74 841.12 375.21 899.12 318.75 899.12 C282.61 899.12 254.66 880.51 234.39 842.96 L244.75 838.89 C261.94 870.97 285.89 886.88 317.04 886.88 C367.67 886.88 380.21 828.88 435.72 828.88 L435.72 828.88 Z M254.83 -10 C402.75 -10 493.46 113.62 528.51 363 C563.93 615.05 508.16 740 360.24 740 C212.31 740 121.42 615.05 86 363 C50.95 113.62 106.91 -10 254.83 -10 L254.83 -10 Z M256.55 2.27 C116.62 2.27 65.33 121.67 99.24 363 C133.54 607 218.57 727.72 358.51 727.72 C498.45 727.72 549.55 607 515.26 363 C481.34 121.67 396.49 2.27 256.55 2.27 L256.55 2.27 Z " />
<glyph glyph-name="Odieresis" unicode="&#xd6;" horiz-adv-x="588" d="M307.49 787.97 C323.79 787.97 331.45 794.91 334.14 814.08 C336.84 833.25 331.14 840.19 314.85 840.19 C298.55 840.19 290.9 833.25 288.2 814.08 C285.51 794.91 291.21 787.97 307.49 787.97 L307.49 787.97 Z M426.03 787.97 C442.33 787.97 449.99 794.91 452.68 814.08 C455.38 833.25 449.67 840.19 433.39 840.19 C417.09 840.19 409.44 833.25 406.74 814.08 C404.05 794.91 409.75 787.97 426.03 787.97 L426.03 787.97 Z M254.83 -10 C402.75 -10 493.46 113.62 528.51 363 C563.93 615.05 508.16 740 360.24 740 C212.31 740 121.42 615.05 86 363 C50.95 113.62 106.91 -10 254.83 -10 L254.83 -10 Z M256.55 2.27 C116.62 2.27 65.33 121.67 99.2401 363 C133.54 607 218.57 727.72 358.51 727.72 C498.45 727.72 549.55 607 515.26 363 C481.34 121.67 396.49 2.27 256.55 2.27 L256.55 2.27 Z " />
<glyph glyph-name="multiply" unicode="&#xd7;" horiz-adv-x="360" d="M320.73 466.64 L313.48 475.32 L190.9 347.51 L104.25 475.32 L94.55 466.64 L181.78 338 L58.4 209.35 L65.65 200.68 L188.23 328.48 L274.88 200.68 L284.57 209.35 L197.35 338 L320.73 466.64 Z " />
<glyph glyph-name="Oslash" unicode="&#xd8;" horiz-adv-x="588" d="M550.05 784.36 L541.24 790 L485.03 690.4 C455.57 723.5 413.99 740 360.24 740 C212.31 740 121.42 615.05 86 363 C64.8 212.15 76.9 107.31 122.51 48.02 L64.85 -54.15 L73.54 -60 L129.65 39.42 C159.18 6.44 200.89 -10 254.83 -10 C402.75 -10 493.46 113.62 528.51 363 C549.98 515.82 537.94 621.91 492.15 681.77 L550.05 784.36 Z M99.24 363 C133.54 607 218.57 727.72 358.51 727.72 C410.48 727.72 450.19 711.07 477.84 677.64 L129.93 61.17 C89.05 118.96 79.06 219.39 99.24 362.99 L99.24 363 Z M515.26 362.99 C481.34 121.66 396.49 2.26001 256.55 2.26001 C204.4 2.26001 164.55 18.85 136.85 52.16 L484.73 668.6 C525.78 610.24 535.72 508.55 515.26 362.99 L515.26 362.99 Z " />
<glyph glyph-name="Ugrave" unicode="&#xd9;" horiz-adv-x="578" d="M388.08 777.28 L393.52 785.34 L267.49 881.69 L259.64 870.06 L388.08 777.28 Z M253.53 -10 C381.71 -10 456.81 72.21 480.12 238.06 L549.25 730 L536.13 730 L467 238.06 C444.83 80.33 375.38 2.28001 255.26 2.28001 C135.67 2.28001 88.41 80.33 110.58 238.06 L179.72 730 L166.54 730 L97.41 238.06 C74.1 72.21 125.84 -10 253.53 -10 L253.53 -10 Z " />
<glyph glyph-name="Uacute" unicode="&#xda;" horiz-adv-x="578" d="M340.23 777.28 L494.75 870.06 L490.17 881.69 L337.06 785.34 L340.23 777.28 Z M253.53 -10 C381.71 -10 456.81 72.21 480.12 238.06 L549.25 730 L536.13 730 L467 238.06 C444.83 80.33 375.38 2.28001 255.26 2.28001 C135.67 2.28001 88.41 80.33 110.58 238.06 L179.72 730 L166.54 730 L97.41 238.06 C74.1 72.21 125.84 -10 253.53 -10 L253.53 -10 Z " />
<glyph glyph-name="Ucircumflex" unicode="&#xdb;" horiz-adv-x="578" d="M245.24 769.28 L262.26 769.28 L377.95 875.48 L463.8 769.28 L480.81 769.28 L385.49 885.39 L373.2 885.39 L245.24 769.28 Z M253.53 -10 C381.71 -10 456.81 72.21 480.12 238.06 L549.25 730 L536.13 730 L467 238.06 C444.83 80.33 375.38 2.28001 255.26 2.28001 C135.67 2.28001 88.41 80.33 110.58 238.06 L179.72 730 L166.54 730 L97.41 238.06 C74.1 72.21 125.84 -10 253.53 -10 L253.53 -10 Z " />
<glyph glyph-name="Udieresis" unicode="&#xdc;" horiz-adv-x="578" d="M306.17 787.97 C322.47 787.97 330.13 794.91 332.82 814.08 C335.52 833.25 329.82 840.19 313.53 840.19 C297.23 840.19 289.58 833.25 286.88 814.08 C284.19 794.91 289.89 787.97 306.17 787.97 L306.17 787.97 Z M424.71 787.97 C441.01 787.97 448.67 794.91 451.36 814.08 C454.06 833.25 448.35 840.19 432.07 840.19 C415.77 840.19 408.12 833.25 405.42 814.08 C402.73 794.91 408.43 787.97 424.71 787.97 L424.71 787.97 Z M253.53 -10 C381.71 -10 456.81 72.21 480.12 238.06 L549.25 730 L536.13 730 L467 238.06 C444.83 80.33 375.38 2.28001 255.26 2.28001 C135.67 2.28001 88.41 80.33 110.58 238.06 L179.72 730 L166.54 730 L97.41 238.06 C74.1 72.21 125.84 -10 253.53 -10 L253.53 -10 Z " />
<glyph glyph-name="Yacute" unicode="&#xdd;" horiz-adv-x="490" d="M293.08 777.28 L447.6 870.06 L443.01 881.69 L289.9 785.34 L293.08 777.28 Z M201.04 0 L213.95 0 L255.15 292.41 L520.1 730 L505.8 730 L250.42 305.21 L114.48 730 L99.72 730 L242.36 293.18 L201.04 0 Z " />
<glyph glyph-name="Thorn" unicode="&#xde;" horiz-adv-x="513" d="M319.45 577.05 L158.22 577.05 L179.72 730 L166.54 730 L63.95 0 L77.12 0 L100.73 167.94 L260.34 167.94 C370.84 167.94 435.08 235.24 454.16 371 C473.52 508.76 428.87 577.05 319.45 577.05 L319.45 577.05 Z M441.08 371 C423.14 243.36 364.33 180.2 261.91 180.2 L102.45 180.2 L156.5 564.8 L317.58 564.8 C418.91 564.8 459.3 500.65 441.08 371 L441.08 371 Z " />
<glyph glyph-name="germandbls" unicode="&#xdf;" horiz-adv-x="449" d="M209.68 -8 C304.15 -8 358.6 46.2 373.97 155.55 C396.12 313.15 249.95 325.06 249.95 325.06 L400.95 574.33 L402.31 584 L257.55 584 C174.89 584 127.32 537.02 114 442.27 L51.85 1.52588e-05 L64.19 1.52588e-05 L126.36 442.34 C138.59 529.4 181.14 572.13 255.94 572.13 L386.96 572.13 L237.38 324.64 L236.14 315.81 C236.14 315.81 382.14 306.98 360.87 155.61 C346.52 53.54 297.62 3.92 210.71 3.92 C168.91 3.92 136.72 11.91 113.6 28.02 L109.6 15.17 C135.03 -0.320007 168.23 -8 209.66 -8 L209.68 -8 Z " />
<glyph glyph-name="agrave" unicode="&#xe0;" horiz-adv-x="479" d="M334.77 666.12 L228.58 790.63 L219.04 780.29 L328.17 658.96 L334.77 666.12 Z M380.86 -1.52588e-05 L394.93 -1.52588e-05 L285.41 584.01 L276.65 584.01 L2.91002 -1.52588e-05 L16.85 -1.52588e-05 L96.01 169.68 L349.39 169.68 L380.86 -1.52588e-05 Z M101.55 181.55 L277.31 558.3 L347.19 181.55 L101.55 181.55 Z " />
<glyph glyph-name="aacute" unicode="&#xe1;" horiz-adv-x="479" d="M396.8 781.29 L390.17 791.63 L248.98 667.12 L253.57 659.96 L396.8 781.29 Z M276.65 584.01 L2.90999 0 L16.85 0 L96.01 169.68 L349.39 169.68 L380.86 0 L394.93 0 L285.41 584.01 L276.65 584.01 Z M101.55 181.55 L277.31 558.3 L347.19 181.55 L101.55 181.55 Z " />
<glyph glyph-name="acircumflex" unicode="&#xe2;" horiz-adv-x="479" d="M306.99 768.89 L378.06 656.96 L394.43 656.96 L314.56 779.03 L302.28 779.03 L188.09 656.96 L204.46 656.96 L306.99 768.89 Z M380.86 0 L394.93 0 L285.41 584.01 L276.65 584.01 L2.91 0 L16.85 0 L96.01 169.68 L349.39 169.68 L380.86 0 Z M101.55 181.55 L277.31 558.3 L347.19 181.55 L101.55 181.55 Z " />
<glyph glyph-name="atilde" unicode="&#xe3;" horiz-adv-x="479" d="M412.4 741.11 C397.37 710.36 377.24 695.12 351.58 695.12 C308.44 695.12 298.55 753.12 249.21 753.12 C217.35 753.12 192.46 734.51 174.09 696.96 L184 692.89 C199.48 724.97 220.53 740.88 247.51 740.88 C291.47 740.88 301.39 682.88 349.87 682.88 C378.62 682.88 402.57 700.49 422.13 736.04 L412.4 741.11 Z M276.65 584.01 L2.90999 0 L16.85 0 L96.01 169.68 L349.39 169.68 L380.86 0 L394.93 0 L285.41 584.01 L276.65 584.01 Z M101.55 181.55 L277.31 558.3 L347.19 181.55 L101.55 181.55 Z " />
<glyph glyph-name="adieresis" unicode="&#xe4;" horiz-adv-x="479" d="M240.95 691.93 C257.25 691.93 264.9 698.87 267.6 718.04 C270.29 737.21 264.59 744.15 248.31 744.15 C232.01 744.15 224.35 737.21 221.66 718.04 C218.96 698.87 224.67 691.93 240.95 691.93 L240.95 691.93 Z M351.4 691.93 C367.7 691.93 375.35 698.87 378.05 718.04 C380.74 737.21 375.04 744.15 358.76 744.15 C342.46 744.15 334.8 737.21 332.11 718.04 C329.41 698.87 335.11 691.93 351.4 691.93 L351.4 691.93 Z M380.86 0 L394.93 0 L285.41 584.01 L276.65 584.01 L2.90999 0 L16.85 0 L96.01 169.68 L349.39 169.68 L380.86 0 Z M101.55 181.55 L277.31 558.3 L347.19 181.55 L101.55 181.55 Z " />
<glyph glyph-name="aring" unicode="&#xe5;" horiz-adv-x="479" d="M380.86 0 L394.93 0 L286.51 578.14 C334.24 581.21 366.09 616.3 374.42 675.53 C382.86 735.61 358.58 770.04 307.76 770.04 C256.19 770.04 221.72 735.05 213.14 673.98 C204.88 615.25 226.96 580.63 273.87 578.07 L2.91 -1.52588e-05 L16.85 -1.52588e-05 L96.01 169.68 L349.39 169.68 L380.86 0 Z M223.9 673.98 C231.49 727.96 261.16 758.84 306.09 758.84 C350.39 758.84 371.09 728.45 363.62 675.32 C355.92 620.48 326.18 589.12 281.25 589.12 C236.95 589.12 216.31 620 223.9 673.98 L223.9 673.98 Z M101.55 181.55 L277.31 558.3 L347.19 181.55 L101.55 181.55 Z " />
<glyph glyph-name="ae" unicode="&#xe6;" horiz-adv-x="704" d="M684 572.11 L685.67 584 L414.38 584 L6 0 L21 0 L139.49 169.68 L359.57 169.68 L335.72 0 L610.49 0 L612.17 11.93 L350.43 11.93 L389.52 290.11 L623.8 290.11 L625.47 301.97 L391.19 301.97 L429.15 572.11 L684 572.11 Z M361.24 181.55 L147.77 181.55 L415.03 564.29 L361.24 181.55 Z " />
<glyph glyph-name="ccedilla" unicode="&#xe7;" horiz-adv-x="435" d="M315.55 580.18 C350.03 580.18 380.62 571.19 402.45 553.55 L407.25 565.87 C383.81 582.48 351.89 592.15 315.79 592.15 C178.79 592.15 97.1 492.49 68.8 291.1 C41.3 95.46 92.23 -3.77 222.2 -7.87001 L206.43 -63.11 L219.16 -63.11 C271.2 -63.11 293.45 -85.26 287.17 -129.98 C280.41 -178.04 253.92 -201.83 206.67 -201.83 C179.63 -201.83 157.37 -195.86 139.53 -183.81 L134.92 -197.02 C153.92 -208.39 176.87 -214.03 204.16 -214.03 C259.64 -214.03 291.05 -186.18 298.95 -130 C306.28 -77.82 280.62 -51.96 221.52 -51.96 L233.89 -7.99001 C274.87 -7.54001 312.31 1.48 340.23 17.31 L338.68 30.5 C312.26 13.18 275.82 3.98999 231.34 3.98999 C102.34 3.98999 54.4799 95.65 81.75 289.74 C109.44 486.74 183.95 580.17 315.55 580.17 L315.55 580.18 Z " />
<glyph glyph-name="egrave" unicode="&#xe8;" horiz-adv-x="430" d="M325.42 666.12 L219.22 790.63 L209.69 780.29 L318.82 658.96 L325.42 666.12 Z M406.99 572.11 L408.66 584 L133.93 584 L51.86 -1.52588e-05 L333.48 -1.52588e-05 L335.16 11.93 L66.57 11.93 L105.66 290.11 L346.8 290.11 L348.46 301.97 L107.33 301.97 L145.3 572.11 L406.99 572.11 Z " />
<glyph glyph-name="eacute" unicode="&#xe9;" horiz-adv-x="430" d="M387.45 781.29 L380.82 791.63 L239.63 667.12 L244.22 659.96 L387.45 781.29 Z M406.99 572.11 L408.66 584 L133.93 584 L51.86 -1.52588e-05 L333.48 -1.52588e-05 L335.16 11.93 L66.57 11.93 L105.66 290.11 L346.8 290.11 L348.46 301.97 L107.33 301.97 L145.3 572.11 L406.99 572.11 Z " />
<glyph glyph-name="ecircumflex" unicode="&#xea;" horiz-adv-x="430" d="M297.64 768.89 L368.71 656.96 L385.08 656.96 L305.21 779.03 L292.93 779.03 L178.74 656.96 L195.11 656.96 L297.64 768.89 Z M406.99 572.11 L408.66 584 L133.93 584 L51.86 0 L333.48 0 L335.16 11.93 L66.57 11.93 L105.66 290.11 L346.8 290.11 L348.46 301.97 L107.33 301.97 L145.3 572.11 L406.99 572.11 Z " />
<glyph glyph-name="edieresis" unicode="&#xeb;" horiz-adv-x="430" d="M231.6 691.93 C247.89 691.93 255.55 698.87 258.25 718.04 C260.94 737.21 255.24 744.15 238.95 744.15 C222.66 744.15 215 737.21 212.3 718.04 C209.61 698.87 215.31 691.93 231.6 691.93 L231.6 691.93 Z M342.05 691.93 C358.34 691.93 366 698.87 368.69 718.04 C371.39 737.21 365.69 744.15 349.4 744.15 C333.1 744.15 325.45 737.21 322.75 718.04 C320.06 698.87 325.76 691.93 342.05 691.93 L342.05 691.93 Z M406.99 572.11 L408.66 584 L133.93 584 L51.86 -1.52588e-05 L333.48 -1.52588e-05 L335.16 11.93 L66.57 11.93 L105.66 290.11 L346.8 290.11 L348.46 301.97 L107.33 301.97 L145.3 572.11 L406.99 572.11 Z " />
<glyph glyph-name="igrave" unicode="&#xec;" horiz-adv-x="199" d="M187.73 658.96 L194.33 666.12 L88.13 790.63 L78.6 780.29 L187.73 658.96 Z M51.9 1.52588e-05 L65.09 1.52588e-05 L147.17 584 L133.98 584 L51.9 1.52588e-05 Z " />
<glyph glyph-name="iacute" unicode="&#xed;" horiz-adv-x="200" d="M113.25 659.96 L256.48 781.29 L249.85 791.63 L108.65 667.12 L113.25 659.96 Z M52.02 1.52588e-05 L65.21 1.52588e-05 L147.29 584 L134.1 584 L52.02 1.52588e-05 Z " />
<glyph glyph-name="icircumflex" unicode="&#xee;" horiz-adv-x="198" d="M161.39 779.03 L47.2 656.96 L63.57 656.96 L166.1 768.89 L237.17 656.96 L253.54 656.96 L173.67 779.03 L161.39 779.03 Z M51.45 0 L64.64 0 L146.72 584 L133.53 584 L51.45 0 Z " />
<glyph glyph-name="idieresis" unicode="&#xef;" horiz-adv-x="198" d="M100 691.93 C116.3 691.93 123.96 698.87 126.65 718.04 C129.35 737.21 123.64 744.15 107.36 744.15 C91.06 744.15 83.41 737.21 80.71 718.04 C78.02 698.87 83.72 691.93 100 691.93 L100 691.93 Z M210.45 691.93 C226.75 691.93 234.41 698.87 237.1 718.04 C239.79 737.21 234.09 744.15 217.81 744.15 C201.51 744.15 193.85 737.21 191.16 718.04 C188.47 698.87 194.17 691.93 210.45 691.93 L210.45 691.93 Z M51.4 0 L64.59 0 L146.66 584 L133.48 584 L51.4 0 Z " />
<glyph glyph-name="eth" unicode="&#xf0;" horiz-adv-x="495" d="M269.24 584 L134.88 584 L95.05 300.63 L24.2 300.63 L22.67 289.76 L93.52 289.76 L52.8 1.52588e-05 L187.16 1.52588e-05 C320.81 1.52588e-05 400.59 96.25 427.88 290.41 C455.46 486.69 402.89 584 269.24 584 L269.24 584 Z M414.73 290.41 C388.37 102.87 315.01 11.93 188.84 11.93 L67.51 11.93 L106.56 289.76 L224.05 289.76 L225.58 300.63 L108.09 300.63 L146.24 572.09 L267.57 572.09 C393.74 572.09 441.39 480.11 414.73 290.41 L414.73 290.41 Z " />
<glyph glyph-name="ntilde" unicode="&#xf1;" horiz-adv-x="504" d="M362.37 682.88 C391.12 682.88 415.06 700.49 434.62 736.04 L424.89 741.11 C409.86 710.36 389.73 695.12 364.07 695.12 C320.93 695.12 311.04 753.12 261.7 753.12 C229.85 753.12 204.95 734.51 186.58 696.96 L196.49 692.89 C211.98 724.97 233.02 740.88 260 740.88 C303.96 740.88 313.88 682.88 362.37 682.88 L362.37 682.88 Z M44.86 0 L57.19 0 L135.58 556.96 L366.5 0 L378 0 L460.08 584 L447.79 584 L369.39 27.03 L138.51 584 L126.94 584 L44.86 0 Z " />
<glyph glyph-name="ograve" unicode="&#xf2;" horiz-adv-x="511" d="M343.68 658.96 L350.29 666.12 L244.09 790.63 L234.55 780.29 L343.68 658.96 Z M213.33 -7.99998 C338.07 -7.99998 413.8 90.9 441.84 290.41 C470.18 492.04 422.39 592 297.65 592 C172.92 592 97.04 492.04 68.7 290.41 C40.66 90.9 88.6 -7.99998 213.33 -7.99998 L213.33 -7.99998 Z M215.02 4.06001 C97.84 4.06001 54.75 97.58 81.85 290.41 C109.25 485.4 178.78 579.96 295.96 579.96 C413.15 579.96 456.09 485.4 428.69 290.41 C401.59 97.58 332.21 4.06001 215.02 4.06001 L215.02 4.06001 Z " />
<glyph glyph-name="oacute" unicode="&#xf3;" horiz-adv-x="511" d="M269.08 659.96 L412.32 781.29 L405.69 791.63 L264.49 667.12 L269.08 659.96 Z M213.33 -7.99998 C338.07 -7.99998 413.8 90.9 441.84 290.41 C470.18 492.04 422.39 592 297.65 592 C172.92 592 97.04 492.04 68.7 290.41 C40.66 90.9 88.6 -7.99998 213.33 -7.99998 L213.33 -7.99998 Z M215.02 4.06001 C97.84 4.06001 54.75 97.58 81.85 290.41 C109.25 485.4 178.78 579.96 295.96 579.96 C413.15 579.96 456.09 485.4 428.69 290.41 C401.59 97.58 332.21 4.06001 215.02 4.06001 L215.02 4.06001 Z " />
<glyph glyph-name="ocircumflex" unicode="&#xf4;" horiz-adv-x="511" d="M317.79 779.03 L203.6 656.96 L219.98 656.96 L322.51 768.89 L393.58 656.96 L409.95 656.96 L330.07 779.03 L317.79 779.03 Z M213.33 -8 C338.07 -8 413.8 90.9 441.84 290.41 C470.18 492.04 422.39 592 297.65 592 C172.92 592 97.04 492.04 68.7 290.41 C40.66 90.9 88.6 -8 213.33 -8 L213.33 -8 Z M215.02 4.06 C97.84 4.06 54.75 97.58 81.85 290.41 C109.25 485.4 178.78 579.96 295.96 579.96 C413.15 579.96 456.09 485.4 428.69 290.41 C401.59 97.58 332.21 4.06 215.02 4.06 L215.02 4.06 Z " />
<glyph glyph-name="otilde" unicode="&#xf5;" horiz-adv-x="511" d="M365.39 682.88 C394.14 682.88 418.08 700.49 437.64 736.04 L427.91 741.11 C412.89 710.36 392.75 695.12 367.09 695.12 C323.96 695.12 314.07 753.12 264.73 753.12 C232.87 753.12 207.97 734.51 189.61 696.96 L199.51 692.89 C215 724.97 236.05 740.88 263.02 740.88 C306.99 740.88 316.9 682.88 365.39 682.88 L365.39 682.88 Z M213.33 -8 C338.07 -8 413.8 90.9 441.84 290.41 C470.18 492.04 422.39 592 297.65 592 C172.92 592 97.04 492.04 68.7 290.41 C40.66 90.9 88.6 -8 213.33 -8 L213.33 -8 Z M215.02 4.06 C97.84 4.06 54.75 97.58 81.85 290.41 C109.25 485.4 178.78 579.96 295.96 579.96 C413.15 579.96 456.09 485.4 428.69 290.41 C401.59 97.58 332.21 4.06 215.02 4.06 L215.02 4.06 Z " />
<glyph glyph-name="odieresis" unicode="&#xf6;" horiz-adv-x="511" d="M256.46 691.93 C272.76 691.93 280.42 698.87 283.11 718.04 C285.81 737.21 280.11 744.15 263.82 744.15 C247.52 744.15 239.87 737.21 237.17 718.04 C234.48 698.87 240.18 691.93 256.46 691.93 L256.46 691.93 Z M366.91 691.93 C383.21 691.93 390.87 698.87 393.56 718.04 C396.26 737.21 390.56 744.15 374.27 744.15 C357.97 744.15 350.32 737.21 347.62 718.04 C344.93 698.87 350.63 691.93 366.91 691.93 L366.91 691.93 Z M213.33 -8 C338.07 -8 413.8 90.9 441.84 290.41 C470.18 492.04 422.39 592 297.65 592 C172.92 592 97.04 492.04 68.7 290.41 C40.66 90.9 88.6 -8 213.33 -8 L213.33 -8 Z M215.02 4.06 C97.84 4.06 54.75 97.58 81.8501 290.41 C109.25 485.4 178.78 579.96 295.96 579.96 C413.15 579.96 456.09 485.4 428.69 290.41 C401.59 97.58 332.21 4.06 215.02 4.06 L215.02 4.06 Z " />
<glyph glyph-name="divide" unicode="&#xf7;" horiz-adv-x="445" d="M260.34 474.97 C278.45 474.97 286.91 482.71 289.91 504.09 C292.91 525.47 286.64 533.21 268.54 533.21 C250.43 533.21 241.97 525.47 238.97 504.09 C235.97 482.71 242.25 474.97 260.34 474.97 L260.34 474.97 Z M75.62 331.88 L386.84 331.88 L388.56 344.12 L77.34 344.12 L75.62 331.88 Z M215.34 154.77 C233.45 154.77 241.91 162.51 244.91 183.89 C247.91 205.27 241.63 213.01 223.54 213.01 C205.43 213.01 196.97 205.27 193.97 183.89 C190.97 162.51 197.24 154.77 215.34 154.77 L215.34 154.77 Z " />
<glyph glyph-name="oslash" unicode="&#xf8;" horiz-adv-x="511" d="M457.92 627.17 L450.12 632 L403.29 552.21 C378.24 578.76 343.04 592 297.65 592 C172.92 592 97.04 492.04 68.7 290.41 C51.71 169.56 62.61 85.62 101.56 38.22 L53.88 -43.01 L61.58 -48 L107.97 31.02 C133.04 4.98001 168.14 -7.99998 213.33 -7.99998 C338.07 -7.99998 413.8 90.9 441.84 290.41 C458.96 412.25 448.29 496.96 409.64 544.93 L457.92 627.17 Z M81.85 290.41 C109.25 485.4 178.78 579.96 295.96 579.96 C339.64 579.96 373.01 566.82 396.26 540.24 L108.79 50.54 C74.44 96.19 65.73 175.74 81.85 290.41 L81.85 290.41 Z M428.69 290.41 C401.59 97.58 332.21 4.06 215.02 4.06 C171.55 4.06 138.27 16.93 114.99 42.98 L402.4 532.59 C436.45 486.37 444.94 406.05 428.69 290.41 L428.69 290.41 Z " />
<glyph glyph-name="ugrave" unicode="&#xf9;" horiz-adv-x="502" d="M342.14 658.96 L348.75 666.12 L242.55 790.63 L233.01 780.29 L342.14 658.96 Z M211.83 -7.99998 C319.9 -7.99998 382.74 57.94 401.44 190.96 L456.68 584 L443.72 584 L388.49 190.97 C370.81 65.19 313.95 4.12001 213.53 4.12001 C113.53 4.12001 74.05 65.19 91.73 190.97 L146.97 584 L133.93 584 L78.69 190.96 C60 57.94 104.12 -7.99998 211.83 -7.99998 L211.83 -7.99998 Z " />
<glyph glyph-name="uacute" unicode="&#xfa;" horiz-adv-x="502" d="M267.54 659.96 L410.78 781.29 L404.15 791.63 L262.95 667.12 L267.54 659.96 Z M211.83 -7.99998 C319.9 -7.99998 382.74 57.94 401.44 190.96 L456.68 584 L443.72 584 L388.49 190.97 C370.81 65.19 313.95 4.12001 213.53 4.12001 C113.53 4.12001 74.05 65.19 91.73 190.97 L146.97 584 L133.93 584 L78.69 190.96 C60 57.94 104.12 -7.99998 211.83 -7.99998 L211.83 -7.99998 Z " />
<glyph glyph-name="ucircumflex" unicode="&#xfb;" horiz-adv-x="502" d="M316.25 779.03 L202.07 656.96 L218.44 656.96 L320.97 768.89 L392.04 656.96 L408.41 656.96 L328.53 779.03 L316.25 779.03 Z M211.83 -8 C319.9 -8 382.74 57.94 401.44 190.96 L456.68 584 L443.72 584 L388.49 190.97 C370.81 65.19 313.95 4.12 213.53 4.12 C113.53 4.12 74.05 65.19 91.73 190.97 L146.97 584 L133.93 584 L78.69 190.96 C60 57.94 104.12 -8 211.83 -8 L211.83 -8 Z " />
<glyph glyph-name="udieresis" unicode="&#xfc;" horiz-adv-x="502" d="M254.92 691.93 C271.22 691.93 278.88 698.87 281.57 718.04 C284.27 737.21 278.57 744.15 262.28 744.15 C245.98 744.15 238.33 737.21 235.63 718.04 C232.94 698.87 238.64 691.93 254.92 691.93 L254.92 691.93 Z M365.37 691.93 C381.67 691.93 389.33 698.87 392.02 718.04 C394.72 737.21 389.01 744.15 372.73 744.15 C356.43 744.15 348.78 737.21 346.08 718.04 C343.39 698.87 349.09 691.93 365.37 691.93 L365.37 691.93 Z M211.83 -8 C319.9 -8 382.74 57.94 401.44 190.96 L456.68 584 L443.72 584 L388.49 190.97 C370.81 65.19 313.95 4.12 213.53 4.12 C113.53 4.12 74.05 65.19 91.73 190.97 L146.97 584 L133.93 584 L78.69 190.96 C60 57.94 104.12 -8 211.83 -8 L211.83 -8 Z " />
<glyph glyph-name="yacute" unicode="&#xfd;" horiz-adv-x="427" d="M227.49 659.96 L370.73 781.29 L364.1 791.63 L222.9 667.12 L227.49 659.96 Z M166.27 1.52588e-05 L178.93 1.52588e-05 L211.97 234.38 L431.99 584 L416.93 584 L207.27 247.01 L91.5 584 L77.11 584 L199.31 234.19 L166.27 1.52588e-05 Z " />
<glyph glyph-name="thorn" unicode="&#xfe;" horiz-adv-x="447" d="M264.37 462.1 L129.84 462.1 L146.97 584 L133.93 584 L51.86 0 L64.89 0 L83.71 133.89 L216.91 133.89 C309.96 133.89 363.68 187.88 378.99 296.8 C394.52 407.31 356.53 462.1 264.37 462.1 L264.37 462.1 Z M366.1 296.8 C351.82 195.16 303.71 145.77 218.29 145.77 L85.38 145.77 L128.17 450.23 L262.41 450.23 C346.93 450.23 380.62 400.06 366.1 296.8 L366.1 296.8 Z " />
<glyph glyph-name="ydieresis" unicode="&#xff;" horiz-adv-x="427" d="M214.87 691.93 C231.17 691.93 238.83 698.87 241.52 718.04 C244.22 737.21 238.52 744.15 222.23 744.15 C205.93 744.15 198.28 737.21 195.58 718.04 C192.89 698.87 198.59 691.93 214.87 691.93 L214.87 691.93 Z M325.32 691.93 C341.62 691.93 349.27 698.87 351.97 718.04 C354.67 737.21 348.96 744.15 332.68 744.15 C316.38 744.15 308.73 737.21 306.03 718.04 C303.34 698.87 309.04 691.93 325.32 691.93 L325.32 691.93 Z M166.27 0 L178.93 0 L211.97 234.38 L431.99 584 L416.93 584 L207.27 247.01 L91.5 584 L77.11 584 L199.31 234.19 L166.27 0 Z " />
<glyph glyph-name="Amacron" unicode="&#x100;" horiz-adv-x="548" d="M228.13 870.11 L226.41 857.88 L487.56 857.88 L489.28 870.11 L228.13 870.11 Z M335.03 730 L4.00999 0 L18.11 0 L114.68 213.83 L418.14 213.83 L454.61 0 L468.8 0 L343.02 730 L335.03 730 Z M120.21 226.08 L334.96 701.6 L416.05 226.08 L120.21 226.08 Z " />
<glyph glyph-name="amacron" unicode="&#x101;" horiz-adv-x="479" d="M181.69 724.11 L179.97 711.88 L418.01 711.88 L419.73 724.11 L181.69 724.11 Z M276.65 584.01 L2.90999 0 L16.85 0 L96.01 169.68 L349.39 169.68 L380.86 0 L394.93 0 L285.41 584.01 L276.65 584.01 Z M101.55 181.55 L277.31 558.3 L347.19 181.55 L101.55 181.55 Z " />
<glyph glyph-name="Abreve" unicode="&#x102;" horiz-adv-x="548" d="M454.61 0 L468.8 0 L344.58 720.98 C402.83 723.52 440.09 754.62 456.95 814.76 L445.92 814.56 C430.72 759.88 395.25 732.91 338.46 732.91 C282.42 732.91 254.84 759.46 254.91 813.29 L243.92 813.29 C244 753.4 272.83 722.77 330.91 720.9 L4.01003 1.52588e-05 L18.11 1.52588e-05 L114.68 213.83 L418.14 213.83 L454.61 0 Z M120.21 226.08 L334.96 701.6 L416.05 226.08 L120.21 226.08 Z " />
<glyph glyph-name="abreve" unicode="&#x103;" horiz-adv-x="479" d="M380.86 0 L394.93 0 L286.39 578.79 C338.06 581.08 371.76 613.75 388.04 677.32 L377.37 677.11 C362.74 619.44 331.56 590.9 282.29 590.9 C233.66 590.9 210.77 619 212.24 675.77 L201.6 675.77 C200.14 613.4 224.22 581.24 274.21 578.81 L2.91 1.52588e-05 L16.85 1.52588e-05 L96.01 169.68 L349.39 169.68 L380.86 0 Z M101.55 181.55 L277.31 558.3 L347.19 181.55 L101.55 181.55 Z " />
<glyph glyph-name="Aogonek" unicode="&#x104;" horiz-adv-x="548" d="M395.2 -179.86 C365.09 -179.86 350.85 -158.77 356.03 -121.95 C362.9 -73.04 403.81 -28.62 468.8 0 L343.02 730 L335.03 730 L4.00998 0 L18.11 0 L114.68 213.83 L418.14 213.83 L454.2 2.36 C391.86 -25.72 351.21 -71.61 344.13 -122.03 C337.96 -165.93 355.54 -191.09 392.4 -191.09 C409.99 -191.09 427.83 -186.77 446.24 -178.07 L443.4 -165.83 C428.71 -175.21 412.73 -179.86 395.2 -179.86 L395.2 -179.86 Z M120.21 226.08 L334.96 701.6 L416.05 226.08 L120.21 226.08 Z " />
<glyph glyph-name="aogonek" unicode="&#x105;" horiz-adv-x="479" d="M321.33 -179.86 C291.22 -179.86 276.98 -158.77 282.16 -121.95 C289.03 -73.04 329.94 -28.62 394.93 0 L285.41 584.01 L276.65 584.01 L2.90999 0 L16.85 0 L96.01 169.68 L349.39 169.68 L380.41 2.39 C318.02 -25.68 277.34 -71.59 270.26 -122.03 C264.08 -165.93 281.67 -191.09 318.53 -191.09 C336.12 -191.09 353.96 -186.77 372.37 -178.07 L369.53 -165.83 C354.84 -175.21 338.86 -179.86 321.33 -179.86 L321.33 -179.86 Z M101.55 181.55 L277.31 558.3 L347.19 181.55 L101.55 181.55 Z " />
<glyph glyph-name="Cacute" unicode="&#x106;" horiz-adv-x="497" d="M357.44 777.28 L511.96 870.06 L507.37 881.69 L354.26 785.34 L357.44 777.28 Z M275.44 -10 C325.71 -10 371.83 1.46001 405.86 21.8 L404.28 35.46 C372.77 13.76 329.19 2.26001 276.04 2.26001 C122.07 2.26001 65 119.34 99.15 362.34 C133.79 608.8 224.68 727.92 381.66 727.92 C422.88 727.92 459.36 716.49 485.16 694.17 L490.28 707.02 C462.72 727.98 424.85 740.18 382.02 740.18 C219.41 740.18 121.49 615.52 86.09 363.69 C51 113.96 113.84 -9.99998 275.44 -9.99998 L275.44 -10 Z " />
<glyph glyph-name="cacute" unicode="&#x107;" horiz-adv-x="435" d="M282.1 659.96 L425.33 781.29 L418.7 791.63 L277.51 667.12 L282.1 659.96 Z M230.71 -7.99998 C272.93 -7.99998 311.59 1.07002 340.23 17.31 L338.68 30.5 C312.26 13.18 275.82 3.99002 231.34 3.99002 C102.34 3.99002 54.48 95.65 81.75 289.74 C109.44 486.74 183.95 580.17 315.55 580.17 C350.03 580.17 380.62 571.18 402.45 553.54 L407.25 565.86 C383.81 582.47 351.89 592.14 315.79 592.14 C178.79 592.14 97.1 492.48 68.8 291.09 C40.71 91.23 94.46 -8.00999 230.71 -8.00999 L230.71 -7.99998 Z " />
<glyph glyph-name="Ccircumflex" unicode="&#x108;" horiz-adv-x="497" d="M262.45 769.28 L279.46 769.28 L395.16 875.48 L481 769.28 L498.02 769.28 L402.69 885.39 L390.41 885.39 L262.45 769.28 Z M275.44 -10 C325.71 -10 371.83 1.46001 405.86 21.8 L404.28 35.46 C372.77 13.76 329.19 2.26001 276.04 2.26001 C122.07 2.26001 65 119.34 99.15 362.34 C133.79 608.8 224.68 727.92 381.66 727.92 C422.88 727.92 459.36 716.49 485.16 694.17 L490.28 707.02 C462.72 727.98 424.85 740.18 382.02 740.18 C219.41 740.18 121.49 615.52 86.09 363.69 C51 113.96 113.84 -9.99998 275.44 -9.99998 L275.44 -10 Z " />
<glyph glyph-name="ccircumflex" unicode="&#x109;" horiz-adv-x="435" d="M330.81 779.03 L216.62 656.96 L232.99 656.96 L335.52 768.89 L406.59 656.96 L422.97 656.96 L343.09 779.03 L330.81 779.03 Z M230.71 -8 C272.93 -8 311.59 1.07001 340.23 17.31 L338.68 30.5 C312.26 13.18 275.82 3.99001 231.34 3.99001 C102.34 3.99001 54.48 95.65 81.75 289.74 C109.44 486.74 183.95 580.17 315.55 580.17 C350.03 580.17 380.62 571.18 402.45 553.54 L407.25 565.86 C383.81 582.47 351.89 592.14 315.79 592.14 C178.79 592.14 97.1 492.48 68.8 291.09 C40.71 91.23 94.46 -8.01001 230.71 -8.01001 L230.71 -8 Z " />
<glyph glyph-name="Cdotaccent" unicode="&#x10a;" horiz-adv-x="497" d="M382.89 787.96 C399.25 787.96 406.93 794.9 409.63 814.09 C412.32 833.27 406.6 840.21 390.25 840.21 C373.88 840.21 366.19 833.27 363.49 814.08 C360.8 794.9 366.53 787.96 382.89 787.96 L382.89 787.96 Z M275.44 -10 C325.71 -10 371.83 1.46001 405.86 21.8 L404.28 35.46 C372.77 13.76 329.19 2.26001 276.04 2.26001 C122.07 2.26001 65 119.34 99.15 362.34 C133.79 608.8 224.68 727.92 381.66 727.92 C422.88 727.92 459.36 716.49 485.16 694.17 L490.28 707.02 C462.72 727.98 424.85 740.18 382.02 740.18 C219.41 740.18 121.49 615.52 86.09 363.69 C51 113.96 113.84 -9.99998 275.44 -9.99998 L275.44 -10 Z " />
<glyph glyph-name="cdotaccent" unicode="&#x10b;" horiz-adv-x="435" d="M324.74 691.92 C341.1 691.92 348 698.86 350.69 718.05 C353.39 737.23 348.45 744.17 332.11 744.17 C315.73 744.17 308.83 737.22 306.13 718.04 C303.43 698.86 308.38 691.92 324.74 691.92 L324.74 691.92 Z M230.71 -7.99998 C272.93 -7.99998 311.59 1.07002 340.23 17.31 L338.68 30.5 C312.26 13.18 275.82 3.99002 231.34 3.99002 C102.34 3.99002 54.48 95.65 81.75 289.74 C109.44 486.74 183.95 580.17 315.55 580.17 C350.03 580.17 380.62 571.18 402.45 553.54 L407.25 565.86 C383.81 582.47 351.89 592.14 315.79 592.14 C178.79 592.14 97.1 492.48 68.8 291.09 C40.71 91.23 94.46 -8.00999 230.71 -8.00999 L230.71 -7.99998 Z " />
<glyph glyph-name="Ccaron" unicode="&#x10c;" horiz-adv-x="497" d="M374.09 769.28 L386.38 769.28 L514.34 885.39 L497.32 885.39 L381.63 779.2 L295.78 885.39 L278.77 885.39 L374.09 769.28 Z M275.44 -10 C325.71 -10 371.83 1.46001 405.86 21.8 L404.28 35.46 C372.77 13.76 329.19 2.26001 276.04 2.26001 C122.07 2.26001 65 119.34 99.15 362.34 C133.79 608.8 224.68 727.92 381.66 727.92 C422.88 727.92 459.36 716.49 485.16 694.17 L490.28 707.02 C462.72 727.98 424.85 740.18 382.02 740.18 C219.41 740.18 121.49 615.52 86.09 363.69 C51 113.96 113.84 -9.99998 275.44 -9.99998 L275.44 -10 Z " />
<glyph glyph-name="ccaron" unicode="&#x10d;" horiz-adv-x="435" d="M313.66 656.96 L325.93 656.96 L440.12 779.03 L423.75 779.03 L321.22 667.11 L250.15 779.03 L233.78 779.03 L313.66 656.96 Z M230.71 -7.99998 C272.93 -7.99998 311.59 1.07002 340.23 17.31 L338.68 30.5 C312.26 13.18 275.82 3.99002 231.34 3.99002 C102.34 3.99002 54.48 95.65 81.75 289.74 C109.44 486.74 183.95 580.17 315.55 580.17 C350.03 580.17 380.62 571.18 402.45 553.54 L407.25 565.86 C383.81 582.47 351.89 592.14 315.79 592.14 C178.79 592.14 97.1 492.48 68.8 291.09 C40.71 91.23 94.46 -8.00999 230.71 -8.00999 L230.71 -7.99998 Z " />
<glyph glyph-name="Dcaron" unicode="&#x10e;" horiz-adv-x="571" d="M317.5 769.28 L329.79 769.28 L457.75 885.39 L440.73 885.39 L325.04 779.2 L239.19 885.39 L222.18 885.39 L317.5 769.28 Z M63.95 0 L222.73 0 C381.4 0 476.97 120.31 511.08 363 C545.56 608.36 484 730 325.32 730 L166.54 730 L63.95 0 Z M78.85 12.26 L177.99 717.74 L323.6 717.74 C474.34 717.74 531.19 600.33 497.83 363 C464.86 128.35 375.19 12.26 224.45 12.26 L78.85 12.26 Z " />
<glyph glyph-name="dcaron" unicode="&#x10f;" horiz-adv-x="496" d="M266.31 656.96 L278.59 656.96 L392.78 779.03 L376.41 779.03 L273.88 667.11 L202.81 779.03 L186.44 779.03 L266.31 656.96 Z M51.86 1.52588e-05 L186.22 1.52588e-05 C319.87 1.52588e-05 399.64 96.25 426.93 290.41 C454.52 486.69 401.94 584 268.3 584 L133.93 584 L51.86 1.52588e-05 Z M66.57 11.93 L145.29 572.09 L266.62 572.09 C392.79 572.09 440.44 480.11 413.78 290.41 C387.43 102.87 314.07 11.93 187.9 11.93 L66.57 11.93 Z " />
<glyph glyph-name="Dcroat" unicode="&#x110;" horiz-adv-x="586" d="M340.34 730 L181.57 730 L131.62 374.62 L44.68 374.62 L43.1 363.38 L130.04 363.38 L78.97 -1.52588e-05 L237.75 -1.52588e-05 C396.43 -1.52588e-05 491.99 120.31 526.1 363 C560.59 608.36 499.02 730 340.34 730 L340.34 730 Z M512.86 363 C479.88 128.35 390.21 12.26 239.47 12.26 L93.87 12.26 L143.21 363.38 L281.5 363.38 L283.08 374.62 L144.79 374.62 L193.02 717.74 L338.62 717.74 C489.36 717.74 546.21 600.33 512.86 363 L512.86 363 Z " />
<glyph glyph-name="dcroat" unicode="&#x111;" horiz-adv-x="495" d="M269.24 584 L134.88 584 L95.05 300.63 L24.2 300.63 L22.67 289.76 L93.52 289.76 L52.8 1.52588e-05 L187.16 1.52588e-05 C320.81 1.52588e-05 400.59 96.25 427.88 290.41 C455.46 486.69 402.89 584 269.24 584 L269.24 584 Z M414.73 290.41 C388.37 102.87 315.01 11.93 188.84 11.93 L67.51 11.93 L106.56 289.76 L224.05 289.76 L225.58 300.63 L108.09 300.63 L146.24 572.09 L267.57 572.09 C393.74 572.09 441.39 480.11 414.73 290.41 L414.73 290.41 Z " />
<glyph glyph-name="Emacron" unicode="&#x112;" horiz-adv-x="493" d="M480.21 870.11 L219.05 870.11 L217.33 857.88 L478.49 857.88 L480.21 870.11 Z M490.76 717.74 L492.48 730 L166.54 730 L63.95 0 L398.07 0 L399.79 12.26 L78.85 12.26 L128.26 363.88 L416.55 363.88 L418.27 376.13 L129.98 376.13 L178 717.74 L490.76 717.74 Z " />
<glyph glyph-name="emacron" unicode="&#x113;" horiz-adv-x="430" d="M410.37 724.11 L172.34 724.11 L170.62 711.88 L408.65 711.88 L410.37 724.11 Z M408.65 584 L133.92 584 L51.85 0 L333.47 0 L335.15 11.93 L66.56 11.93 L105.65 290.11 L346.79 290.11 L348.45 301.97 L107.32 301.97 L145.29 572.11 L406.98 572.11 L408.65 584 Z " />
<glyph glyph-name="Ebreve" unicode="&#x114;" horiz-adv-x="493" d="M336.01 771.35 C398.82 771.35 438.68 802.48 456.3 865.3 L445.27 865.1 C430.07 810.42 394.6 783.45 337.8 783.45 C281.76 783.45 254.19 810 254.26 863.83 L243.26 863.83 C243.35 802 274.09 771.35 336.01 771.35 L336.01 771.35 Z M490.76 717.74 L492.48 730 L166.54 730 L63.95 3.05176e-05 L398.07 3.05176e-05 L399.79 12.26 L78.85 12.26 L128.26 363.88 L416.55 363.88 L418.27 376.13 L129.98 376.13 L178 717.74 L490.76 717.74 Z " />
<glyph glyph-name="ebreve" unicode="&#x115;" horiz-adv-x="430" d="M283.77 668.66 C338.8 668.66 374.45 701.36 391.34 767.32 L380.67 767.11 C366.03 709.44 334.86 680.9 285.58 680.9 C236.96 680.9 214.07 709 215.54 765.77 L204.9 765.77 C203.38 700.85 229.52 668.66 283.77 668.66 L283.77 668.66 Z M406.99 572.11 L408.66 584 L133.93 584 L51.86 1.52588e-05 L333.48 1.52588e-05 L335.16 11.93 L66.57 11.93 L105.66 290.11 L346.8 290.11 L348.46 301.97 L107.33 301.97 L145.3 572.11 L406.99 572.11 Z " />
<glyph glyph-name="Edotaccent" unicode="&#x116;" horiz-adv-x="493" d="M338.11 787.96 C354.47 787.96 362.15 794.9 364.85 814.09 C367.54 833.27 361.82 840.21 345.47 840.21 C329.1 840.21 321.41 833.27 318.71 814.08 C316.02 794.9 321.75 787.96 338.11 787.96 L338.11 787.96 Z M490.76 717.74 L492.48 730 L166.54 730 L63.95 0 L398.07 0 L399.79 12.26 L78.85 12.26 L128.26 363.88 L416.55 363.88 L418.27 376.13 L129.98 376.13 L178 717.74 L490.76 717.74 Z " />
<glyph glyph-name="edotaccent" unicode="&#x117;" horiz-adv-x="430" d="M286.86 691.92 C303.22 691.92 310.11 698.86 312.81 718.05 C315.51 737.23 310.57 744.17 294.22 744.17 C277.84 744.17 270.94 737.22 268.25 718.04 C265.55 698.86 270.5 691.92 286.86 691.92 L286.86 691.92 Z M406.99 572.11 L408.66 584 L133.93 584 L51.86 1.52588e-05 L333.48 1.52588e-05 L335.16 11.93 L66.57 11.93 L105.66 290.11 L346.8 290.11 L348.46 301.97 L107.33 301.97 L145.3 572.11 L406.99 572.11 Z " />
<glyph glyph-name="Eogonek" unicode="&#x118;" horiz-adv-x="492" d="M490.76 717.74 L492.48 730 L166.54 730 L63.95 0 L378.38 0 C318.92 -28.25 280.29 -73 273.4 -122.03 C267.23 -165.93 284.81 -191.09 321.67 -191.09 C339.26 -191.09 357.1 -186.77 375.52 -178.07 L372.68 -165.83 C357.99 -175.21 342.01 -179.86 324.47 -179.86 C294.36 -179.86 280.13 -158.77 285.3 -121.95 C292.17 -73.04 333.08 -28.62 398.07 1.52588e-05 L399.79 12.26 L78.85 12.26 L128.26 363.88 L416.55 363.88 L418.27 376.13 L129.98 376.13 L178 717.74 L490.76 717.74 Z " />
<glyph glyph-name="eogonek" unicode="&#x119;" horiz-adv-x="430" d="M406.99 572.11 L408.66 584 L133.93 584 L51.86 0 L313.79 0 C254.33 -28.25 215.7 -73 208.81 -122.03 C202.64 -165.93 220.22 -191.09 257.08 -191.09 C274.67 -191.09 292.51 -186.77 310.93 -178.07 L308.09 -165.83 C293.4 -175.21 277.42 -179.86 259.88 -179.86 C229.77 -179.86 215.54 -158.77 220.71 -121.95 C227.58 -73.04 268.49 -28.62 333.48 1.52588e-05 L335.16 11.93 L66.57 11.93 L105.66 290.11 L346.8 290.11 L348.46 301.97 L107.33 301.97 L145.3 572.11 L406.99 572.11 Z " />
<glyph glyph-name="Ecaron" unicode="&#x11a;" horiz-adv-x="493" d="M341.6 769.28 L469.56 885.39 L452.54 885.39 L336.85 779.2 L251 885.39 L233.99 885.39 L329.31 769.28 L341.6 769.28 Z M490.76 717.74 L492.48 730 L166.54 730 L63.95 0 L398.07 0 L399.79 12.26 L78.85 12.26 L128.26 363.88 L416.55 363.88 L418.27 376.13 L129.98 376.13 L178 717.74 L490.76 717.74 Z " />
<glyph glyph-name="ecaron" unicode="&#x11b;" horiz-adv-x="430" d="M288.05 656.96 L402.24 779.03 L385.86 779.03 L283.34 667.11 L212.27 779.03 L195.89 779.03 L275.77 656.96 L288.05 656.96 Z M406.99 572.11 L408.66 584 L133.93 584 L51.86 0 L333.48 0 L335.16 11.93 L66.57 11.93 L105.66 290.11 L346.8 290.11 L348.46 301.97 L107.33 301.97 L145.3 572.11 L406.99 572.11 Z " />
<glyph glyph-name="Gcircumflex" unicode="&#x11c;" horiz-adv-x="558" d="M395.53 875.67 L481.37 769.48 L498.39 769.48 L403.07 885.59 L390.78 885.59 L262.82 769.48 L279.84 769.48 L395.53 875.67 Z M385.14 727.74 C432.95 727.74 470.57 717.79 498.66 697.73 L504.23 711 C471.18 730.39 432.24 740 386.75 740 C221.1 740 121.42 615.05 86 363 C50.96 113.67 109.74 -10 262.48 -10 C333.58 -10 391.53 21.14 436.51 83.97 L437.33 83.97 L426.66 0 L435.28 0 L484.2 348.1 L298.26 348.1 L296.68 336.85 L470.66 336.85 L437.53 101.11 C393.55 34.69 336.44 2.26001 265.06 2.26001 C118.64 2.26001 65.31 121.66 99.23 363 C133.52 607 227.25 727.73 385.14 727.73 L385.14 727.74 Z " />
<glyph glyph-name="gcircumflex" unicode="&#x11d;" horiz-adv-x="485" d="M335.78 769.04 L406.85 657.12 L423.22 657.12 L343.34 779.19 L331.06 779.19 L216.87 657.12 L233.25 657.12 L335.78 769.04 Z M68.7 290.41 C40.72 91.34 90.93 -8.00002 219.05 -8.00002 C278.63 -8.00002 327.03 16.83 364.42 66.92 L365.24 66.92 L356.9 -1.52588e-05 L365.12 -1.52588e-05 L404.38 279.3 L247.63 279.3 L246.09 268.32 L391.12 268.32 L364.91 81.82 C328.73 29.52 281.45 3.98 222.14 3.98 C99.53 3.98 54.71 97.51 81.82 290.41 C109.24 485.48 186 580.06 318.43 580.06 C358.52 580.06 390.14 572.09 413.82 556.02 L419.07 568.84 C391.16 584.32 358.3 592 319.92 592 C180.3 592 97.04 492.04 68.7 290.41 L68.7 290.41 Z " />
<glyph glyph-name="Gbreve" unicode="&#x11e;" horiz-adv-x="558" d="M381.16 771.54 C443.97 771.54 483.83 802.68 501.45 865.49 L490.42 865.29 C475.22 810.61 439.75 783.64 382.95 783.64 C326.91 783.64 299.34 810.19 299.41 864.02 L288.41 864.02 C288.5 802.19 319.23 771.54 381.16 771.54 L381.16 771.54 Z M385.14 727.74 C432.95 727.74 470.57 717.79 498.66 697.73 L504.23 711 C471.18 730.39 432.24 740 386.75 740 C221.1 740 121.42 615.05 86 363 C50.96 113.67 109.74 -9.99998 262.48 -9.99998 C333.58 -9.99998 391.53 21.14 436.51 83.97 L437.33 83.97 L426.66 1.52588e-05 L435.28 1.52588e-05 L484.2 348.1 L298.26 348.1 L296.68 336.85 L470.66 336.85 L437.53 101.11 C393.55 34.69 336.44 2.26003 265.06 2.26003 C118.64 2.26003 65.31 121.66 99.23 363 C133.52 607 227.25 727.73 385.14 727.73 L385.14 727.74 Z " />
<glyph glyph-name="gbreve" unicode="&#x11f;" horiz-adv-x="485" d="M321.91 668.82 C376.93 668.82 412.58 701.52 429.47 767.48 L418.8 767.27 C404.17 709.6 372.99 681.05 323.72 681.05 C275.09 681.05 252.21 709.15 253.68 765.93 L243.03 765.93 C241.52 701 267.66 668.82 321.91 668.82 L321.91 668.82 Z M68.7 290.41 C40.72 91.34 90.93 -7.99998 219.05 -7.99998 C278.63 -7.99998 327.03 16.83 364.42 66.92 L365.24 66.92 L356.9 1.52588e-05 L365.12 1.52588e-05 L404.38 279.3 L247.63 279.3 L246.09 268.32 L391.12 268.32 L364.91 81.82 C328.73 29.52 281.45 3.98003 222.14 3.98003 C99.53 3.98003 54.71 97.51 81.82 290.41 C109.24 485.48 186 580.06 318.43 580.06 C358.52 580.06 390.14 572.09 413.82 556.02 L419.07 568.84 C391.16 584.32 358.3 592 319.92 592 C180.3 592 97.04 492.04 68.7 290.41 L68.7 290.41 Z " />
<glyph glyph-name="Gdotaccent" unicode="&#x120;" horiz-adv-x="558" d="M383.26 788.15 C399.62 788.15 407.3 795.09 410 814.28 C412.69 833.46 406.97 840.4 390.62 840.4 C374.25 840.4 366.56 833.46 363.87 814.28 C361.17 795.09 366.9 788.15 383.26 788.15 L383.26 788.15 Z M385.14 727.74 C432.95 727.74 470.57 717.79 498.66 697.73 L504.23 711 C471.18 730.39 432.24 740 386.75 740 C221.1 740 121.42 615.05 86 363 C50.96 113.67 109.74 -10 262.48 -10 C333.58 -10 391.53 21.14 436.51 83.97 L437.33 83.97 L426.66 0 L435.28 0 L484.2 348.1 L298.26 348.1 L296.68 336.85 L470.66 336.85 L437.53 101.11 C393.55 34.69 336.44 2.26001 265.06 2.26001 C118.64 2.26001 65.31 121.66 99.23 363 C133.52 607 227.25 727.73 385.14 727.73 L385.14 727.74 Z " />
<glyph glyph-name="gdotaccent" unicode="&#x121;" horiz-adv-x="485" d="M324.99 692.07 C341.35 692.07 348.25 699.01 350.95 718.2 C353.64 737.38 348.7 744.32 332.36 744.32 C315.98 744.32 309.08 737.38 306.38 718.2 C303.69 699.01 308.63 692.07 324.99 692.07 L324.99 692.07 Z M318.43 580.06 C358.52 580.06 390.14 572.09 413.82 556.02 L419.07 568.84 C391.16 584.32 358.3 592 319.92 592 C180.3 592 97.04 492.04 68.7 290.41 C40.72 91.34 90.93 -8.00002 219.05 -8.00002 C278.63 -8.00002 327.03 16.83 364.42 66.92 L365.24 66.92 L356.9 -1.52588e-05 L365.12 -1.52588e-05 L404.38 279.3 L247.63 279.3 L246.09 268.32 L391.12 268.32 L364.91 81.82 C328.73 29.52 281.45 3.98 222.14 3.98 C99.53 3.98 54.71 97.51 81.82 290.41 C109.24 485.48 186 580.06 318.43 580.06 L318.43 580.06 Z " />
<glyph glyph-name="Gcommaaccent" unicode="&#x122;" horiz-adv-x="558" d="M385.14 727.74 C432.95 727.74 470.57 717.79 498.66 697.73 L504.23 711 C471.18 730.39 432.24 740 386.75 740 C221.1 740 121.42 615.05 86 363 C50.96 113.67 109.74 -9.99998 262.48 -9.99998 C333.58 -9.99998 391.53 21.14 436.51 83.97 L437.33 83.97 L426.66 1.52588e-05 L435.28 1.52588e-05 L484.2 348.1 L298.26 348.1 L296.68 336.85 L470.66 336.85 L437.53 101.11 C393.55 34.69 336.44 2.26003 265.06 2.26003 C118.64 2.26003 65.31 121.66 99.23 363 C133.52 607 227.25 727.73 385.14 727.73 L385.14 727.74 Z M254.7 -67.93 C238.39 -67.93 230.66 -75.14 227.86 -95.05 C225.07 -114.97 230.53 -122.18 246 -122.18 C251.66 -122.18 255.59 -120.44 259.45 -116.94 C258.13 -123.66 250.63 -148.17 226.95 -169.34 L236.4 -176.92 C257.49 -154.22 270.69 -129.15 274.91 -99.09 C278.1 -76.41 272.25 -67.93 254.7 -67.93 L254.7 -67.93 Z " />
<glyph glyph-name="gcommaaccent" unicode="&#x123;" horiz-adv-x="485" d="M318.43 580.06 C358.52 580.06 390.14 572.09 413.82 556.02 L419.07 568.84 C391.16 584.32 358.3 592 319.92 592 C180.3 592 97.04 492.04 68.7 290.41 C40.72 91.34 90.93 -8.00003 219.05 -8.00003 C278.63 -8.00003 327.03 16.83 364.42 66.92 L365.24 66.92 L356.9 -3.05176e-05 L365.12 -3.05176e-05 L404.38 279.3 L247.63 279.3 L246.09 268.32 L391.12 268.32 L364.91 81.82 C328.73 29.52 281.45 3.97998 222.14 3.97998 C99.53 3.97998 54.71 97.51 81.82 290.41 C109.24 485.48 186 580.06 318.43 580.06 L318.43 580.06 Z M210.9 -67.92 C194.58 -67.92 186.85 -75.13 184.06 -95.04 C181.26 -114.96 186.72 -122.17 202.19 -122.17 C207.85 -122.17 211.78 -120.43 215.64 -116.93 C214.32 -123.65 206.82 -148.16 183.14 -169.33 L192.59 -176.91 C213.68 -154.21 227.17 -128.15 231.26 -99.08 C234.44 -76.4 228.44 -67.92 210.9 -67.92 L210.9 -67.92 Z " />
<glyph glyph-name="Hcircumflex" unicode="&#x124;" horiz-adv-x="593" d="M381.37 875.48 L467.22 769.28 L484.24 769.28 L388.91 885.39 L376.63 885.39 L248.66 769.28 L265.68 769.28 L381.37 875.48 Z M542.16 730 L492.71 378.13 L130.27 378.13 L179.72 730 L166.54 730 L63.95 0 L77.12 0 L128.54 365.86 L490.99 365.86 L439.57 0 L452.74 0 L555.34 730 L542.16 730 Z " />
<glyph glyph-name="hcircumflex" unicode="&#x125;" horiz-adv-x="514" d="M323.96 768.89 L395.03 656.96 L411.4 656.96 L331.53 779.03 L319.25 779.03 L205.06 656.96 L221.43 656.96 L323.96 768.89 Z M449.03 584 L409.62 303.61 L107.56 303.61 L146.97 584 L133.93 584 L51.86 0 L64.89 0 L105.87 291.59 L407.93 291.59 L366.95 0 L379.99 0 L462.06 584 L449.03 584 Z " />
<glyph glyph-name="Hbar" unicode="&#x126;" horiz-adv-x="579" d="M592.39 580.09 L527.35 580.09 L548.42 730 L535.25 730 L514.18 580.09 L151.73 580.09 L172.8 730 L159.63 730 L138.56 580.09 L73.55 580.09 L71.98 568.9 L136.99 568.9 L57.03 0 L70.21 0 L121.63 365.86 L484.07 365.86 L432.65 0 L445.83 0 L525.78 568.9 L590.82 568.9 L592.39 580.09 Z M485.8 378.13 L123.35 378.13 L150.16 568.9 L512.61 568.9 L485.8 378.13 Z " />
<glyph glyph-name="hbar" unicode="&#x127;" horiz-adv-x="466" d="M480.03 488.63 L424.91 488.63 L438.31 584 L425.27 584 L411.87 488.63 L109.81 488.63 L123.22 584 L110.18 584 L96.78 488.63 L41.62 488.63 L40.15 478.18 L95.31 478.18 L28.1 1.52588e-05 L41.14 1.52588e-05 L82.12 291.59 L384.18 291.59 L343.2 1.52588e-05 L356.23 1.52588e-05 L423.44 478.18 L478.57 478.18 L480.03 488.63 Z M385.87 303.61 L83.81 303.61 L108.34 478.18 L410.4 478.18 L385.87 303.61 Z " />
<glyph glyph-name="Itilde" unicode="&#x128;" horiz-adv-x="217" d="M249.77 828.88 C282.34 828.88 309.23 846.49 330.89 882.04 L320.69 887.11 C304 856.36 281.07 841.12 251.48 841.12 C201.79 841.12 189.26 899.12 132.8 899.12 C96.67 899.12 68.71 880.51 48.44 842.96 L58.8 838.89 C75.99 870.97 99.94 886.88 131.09 886.88 C181.72 886.88 194.26 828.88 249.77 828.88 L249.77 828.88 Z M63.65 0 L76.92 0 L179.52 730 L166.25 730 L63.65 0 Z " />
<glyph glyph-name="itilde" unicode="&#x129;" horiz-adv-x="198" d="M208.61 682.88 C237.36 682.88 261.3 700.49 280.86 736.04 L271.14 741.11 C256.11 710.36 235.97 695.12 210.31 695.12 C167.18 695.12 157.29 753.12 107.95 753.12 C76.09 753.12 51.19 734.51 32.83 696.96 L42.73 692.89 C58.22 724.97 79.27 740.88 106.24 740.88 C150.21 740.88 160.12 682.88 208.61 682.88 L208.61 682.88 Z M51.08 0 L64.27 0 L146.34 584 L133.16 584 L51.08 0 Z " />
<glyph glyph-name="Imacron" unicode="&#x12a;" horiz-adv-x="217" d="M60.59 857.88 L321.75 857.88 L323.47 870.11 L62.31 870.11 L60.59 857.88 Z M63.97 0 L77.24 0 L179.83 730 L166.56 730 L63.97 0 Z " />
<glyph glyph-name="imacron" unicode="&#x12b;" horiz-adv-x="198" d="M38.97 711.88 L277.01 711.88 L278.73 724.11 L40.69 724.11 L38.97 711.88 Z M51.35 0 L64.54 0 L146.61 584 L133.43 584 L51.35 0 Z " />
<glyph glyph-name="Ibreve" unicode="&#x12c;" horiz-adv-x="217" d="M179.14 771.35 C241.95 771.35 281.82 802.48 299.43 865.3 L288.41 865.1 C273.21 810.42 237.73 783.45 180.94 783.45 C124.9 783.45 97.33 810 97.4 863.83 L86.4 863.83 C86.48 802 117.22 771.35 179.14 771.35 L179.14 771.35 Z M63.84 3.05176e-05 L77.11 3.05176e-05 L179.71 730 L166.44 730 L63.84 3.05176e-05 Z " />
<glyph glyph-name="ibreve" unicode="&#x12d;" horiz-adv-x="199" d="M152.4 668.66 C207.43 668.66 243.07 701.36 259.96 767.32 L249.29 767.11 C234.66 709.44 203.49 680.9 154.21 680.9 C105.58 680.9 82.69 709 84.17 765.77 L73.52 765.77 C72.01 700.85 98.15 668.66 152.4 668.66 L152.4 668.66 Z M51.62 1.52588e-05 L64.81 1.52588e-05 L146.88 584 L133.7 584 L51.62 1.52588e-05 Z " />
<glyph glyph-name="Iogonek" unicode="&#x12e;" horiz-adv-x="218" d="M77.62 0 L180.21 730 L166.94 730 L64.79 3.14 C1.45 -24.86 -39.9 -71.14 -47.06 -122.03 C-53.23 -165.93 -35.64 -191.09 1.21999 -191.09 C18.8 -191.09 36.65 -186.77 55.06 -178.07 L52.22 -165.83 C37.53 -175.21 21.55 -179.86 4.02 -179.86 C-26.09 -179.86 -40.33 -158.77 -35.15 -121.95 C-28.28 -73.04 12.63 -28.62 77.62 1.52588e-05 L77.62 0 Z " />
<glyph glyph-name="iogonek" unicode="&#x12f;" horiz-adv-x="198" d="M64.52 0 L146.59 584 L133.41 584 L51.78 3.17999 C-11.62 -24.82 -53 -71.11 -60.16 -122.03 C-66.33 -165.93 -48.74 -191.09 -11.88 -191.09 C5.70001 -191.09 23.55 -186.77 41.96 -178.07 L39.12 -165.83 C24.43 -175.21 8.45003 -179.86 -9.07997 -179.86 C-39.19 -179.86 -53.43 -158.77 -48.25 -121.95 C-41.38 -73.04 -0.469986 -28.62 64.52 1.52588e-05 L64.52 0 Z " />
<glyph glyph-name="Idotaccent" unicode="&#x130;" horiz-adv-x="216" d="M180.8 787.96 C197.16 787.96 204.84 794.9 207.53 814.09 C210.23 833.27 204.51 840.21 188.16 840.21 C171.78 840.21 164.1 833.27 161.4 814.08 C158.71 794.9 164.43 787.96 180.8 787.96 L180.8 787.96 Z M63.39 0 L76.66 0 L179.26 730 L165.99 730 L63.39 0 Z " />
<glyph glyph-name="IJ" unicode="&#x132;" horiz-adv-x="545" d="M63.95 0 L77.22 0 L179.81 730 L166.54 730 L63.95 0 Z M271.86 -10 C361.15 -10 414.74 56.32 433.54 190.11 L509.42 730 L496.24 730 L420.36 190.1 C402.71 64.45 354.51 2.28001 273.41 2.28001 C237.09 2.28001 206.68 12.22 181.64 32.28 L176.68 18 C204.39 -0.719986 235.94 -9.99998 271.86 -9.99998 L271.86 -10 Z " />
<glyph glyph-name="ij" unicode="&#x133;" horiz-adv-x="516" d="M51.86 0 L65.04 0 L147.12 584 L133.93 584 L51.86 0 Z M264.14 -8 C342.29 -8 388.26 45.25 403.4 153.01 L463.97 584 L450.97 584 L390.38 152.88 C376.37 53.24 335.02 3.90001 265.46 3.90001 C236.51 3.90001 206.3 10.31 182.53 21.49 L178.84 10.4 C205.28 -1.29999 236.35 -7.99998 264.14 -7.99998 L264.14 -8 Z " />
<glyph glyph-name="Jcircumflex" unicode="&#x134;" horiz-adv-x="374" d="M220 769.28 L237.02 769.28 L352.71 875.48 L438.56 769.28 L455.57 769.28 L360.25 885.39 L347.96 885.39 L220 769.28 Z M101.71 -10 C191 -10 244.58 56.32 263.39 190.11 L339.26 730 L326.09 730 L250.21 190.1 C232.55 64.45 184.36 2.28001 103.26 2.28001 C66.94 2.28001 36.52 12.22 11.49 32.28 L6.52997 18 C34.24 -0.719986 65.78 -9.99998 101.71 -9.99998 L101.71 -10 Z " />
<glyph glyph-name="jcircumflex" unicode="&#x135;" horiz-adv-x="334" d="M295.92 779.03 L181.73 656.96 L198.1 656.96 L300.63 768.89 L371.7 656.96 L388.08 656.96 L308.2 779.03 L295.92 779.03 Z M81.68 -8 C159.84 -8 205.81 45.25 220.95 153.01 L281.52 584 L268.52 584 L207.93 152.88 C193.92 53.24 152.57 3.90001 83.01 3.90001 C54.06 3.90001 23.85 10.31 0.0800018 21.49 L-3.61 10.4 C22.83 -1.29999 53.9 -7.99998 81.68 -7.99998 L81.68 -8 Z " />
<glyph glyph-name="Kcommaaccent" unicode="&#x136;" horiz-adv-x="504" d="M516.3 730 L498.64 730 L129.82 374.97 L179.72 730 L166.54 730 L63.95 0 L77.12 0 L129 369.14 L421.19 0 L439.64 0 L142.78 372 L516.3 730 Z M245.54 -67.92 C229.22 -67.92 221.5 -75.13 218.7 -95.04 C215.9 -114.96 221.36 -122.17 236.83 -122.17 C242.49 -122.17 246.42 -120.43 250.28 -116.93 C248.96 -123.65 241.46 -148.16 217.78 -169.33 L227.23 -176.91 C248.32 -154.21 261.49 -129.15 265.72 -99.08 C268.9 -76.4 263.08 -67.92 245.54 -67.92 L245.54 -67.92 Z " />
<glyph glyph-name="kcommaaccent" unicode="&#x137;" horiz-adv-x="454" d="M429.61 584 L411.49 584 L107.02 299.78 L146.97 584 L133.93 584 L51.86 0 L64.89 0 L106.43 295.54 L351.32 0 L369.21 0 L121.16 297.61 L429.61 584 Z M203.72 -67.92 C187.41 -67.92 179.68 -75.13 176.88 -95.04 C174.08 -114.96 179.54 -122.17 195.02 -122.17 C200.67 -122.17 204.6 -120.43 208.46 -116.93 C207.15 -123.65 199.65 -148.16 175.97 -169.33 L185.41 -176.91 C206.5 -154.21 219.67 -129.15 223.9 -99.08 C227.09 -76.4 221.26 -67.92 203.72 -67.92 L203.72 -67.92 Z " />
<glyph glyph-name="Lacute" unicode="&#x139;" horiz-adv-x="450" d="M310.07 870.06 L305.49 881.69 L152.38 785.34 L155.55 777.28 L310.07 870.06 Z M78.57 12.28 L179.44 730 L166.22 730 L63.62 0 L385.5 0 L387.22 12.28 L78.57 12.28 Z " />
<glyph glyph-name="lacute" unicode="&#x13a;" horiz-adv-x="394" d="M256.48 781.29 L249.85 791.63 L108.65 667.12 L113.24 659.96 L256.48 781.29 Z M66.87 12.11 L147.24 584 L134.13 584 L52.06 -1.52588e-05 L323.39 -1.52588e-05 L325.09 12.11 L66.87 12.11 Z " />
<glyph glyph-name="Lcommaaccent" unicode="&#x13b;" horiz-adv-x="451" d="M78.9 12.28 L179.76 730 L166.54 730 L63.95 0 L385.82 0 L387.55 12.28 L78.9 12.28 Z M214.76 -67.92 C198.45 -67.92 190.72 -75.13 187.92 -95.04 C185.12 -114.96 190.58 -122.17 206.06 -122.17 C211.72 -122.17 215.65 -120.43 219.51 -116.93 C218.19 -123.65 210.69 -148.16 187.01 -169.33 L196.46 -176.91 C217.55 -154.21 231.11 -128.15 235.19 -99.08 C238.38 -76.4 232.31 -67.92 214.76 -67.92 L214.76 -67.92 Z " />
<glyph glyph-name="lcommaaccent" unicode="&#x13c;" horiz-adv-x="394" d="M66.67 12.11 L147.04 584 L133.93 584 L51.86 0 L323.19 0 L324.89 12.11 L66.67 12.11 Z M177.45 -67.92 C161.13 -67.92 153.41 -75.13 150.61 -95.04 C147.81 -114.96 153.27 -122.17 168.75 -122.17 C174.4 -122.17 178.33 -120.43 182.19 -116.93 C180.87 -123.65 173.37 -148.16 149.69 -169.33 L159.14 -176.91 C180.23 -154.21 194 -128.15 198.09 -99.08 C201.27 -76.4 194.99 -67.92 177.45 -67.92 L177.45 -67.92 Z " />
<glyph glyph-name="Lcaron" unicode="&#x13d;" horiz-adv-x="451" d="M312.49 655.59 L321.94 648.02 C343.02 670.72 356.69 696.77 360.78 725.85 C363.96 748.52 357.79 757 340.24 757 C323.93 757 316.2 749.8 313.4 729.88 C310.6 709.96 316.06 702.76 331.54 702.76 C337.2 702.76 341.12 704.49 344.99 708 C343.67 701.28 336.17 676.77 312.49 655.59 L312.49 655.59 Z M78.9 12.28 L179.76 730 L166.54 730 L63.95 0 L385.82 0 L387.55 12.28 L78.9 12.28 Z " />
<glyph glyph-name="lcaron" unicode="&#x13e;" horiz-adv-x="394" d="M260.83 509.59 L270.28 502.02 C291.36 524.72 304.94 550.77 309.02 579.85 C312.21 602.52 306.13 611 288.58 611 C272.27 611 264.54 603.8 261.74 583.88 C258.95 563.96 264.4 556.76 279.88 556.76 C285.54 556.76 289.47 558.49 293.33 562 C292.01 555.28 284.51 530.77 260.83 509.59 L260.83 509.59 Z M66.67 12.11 L147.04 584 L133.93 584 L51.86 0 L323.19 0 L324.89 12.11 L66.67 12.11 Z " />
<glyph glyph-name="Ldot" unicode="&#x13f;" horiz-adv-x="451" d="M78.9 12.28 L179.76 730 L166.54 730 L63.95 0 L385.82 0 L387.55 12.28 L78.9 12.28 Z M297.76 283.01 C315.93 283.01 324.41 290.76 327.41 312.15 C330.41 333.53 324.11 341.27 305.96 341.27 C287.8 341.27 279.32 333.53 276.32 312.14 C273.32 290.75 279.61 283.01 297.76 283.01 L297.76 283.01 Z " />
<glyph glyph-name="ldot" unicode="&#x140;" horiz-adv-x="394" d="M66.67 12.11 L147.04 584 L133.93 584 L51.86 0 L323.19 0 L324.89 12.11 L66.67 12.11 Z M247.28 282.87 C265.45 282.87 273.92 290.61 276.92 312 C279.92 333.39 273.63 341.13 255.48 341.13 C237.31 341.13 228.84 333.39 225.84 312 C222.84 290.61 229.14 282.87 247.29 282.87 L247.28 282.87 Z " />
<glyph glyph-name="Lslash" unicode="&#x141;" horiz-adv-x="457" d="M85.45 12.28 L132.69 348.41 L281.49 456.93 L279.37 468.16 L134.69 362.66 L186.32 730 L173.1 730 L119.96 351.92 L26.96 284.09 L29.08 272.86 L117.96 337.67 L70.5 0 L392.38 0 L394.1 12.28 L85.45 12.28 Z " />
<glyph glyph-name="lslash" unicode="&#x142;" horiz-adv-x="387" d="M69.2 12.11 L108.02 288.3 L217.99 364.95 L216.09 375.88 L109.92 301.88 L149.57 584 L136.46 584 L95.39 291.75 L4 228.06 L5.91 217.14 L93.48 278.17 L54.39 -1.52588e-05 L325.72 -1.52588e-05 L327.42 12.11 L69.2 12.11 Z " />
<glyph glyph-name="Nacute" unicode="&#x143;" horiz-adv-x="580" d="M337.64 777.28 L492.16 870.06 L487.58 881.69 L334.47 785.34 L337.64 777.28 Z M54.96 0 L67.3 0 L166.12 702.33 L437.92 0 L449.69 0 L552.28 730 L539.97 730 L441.15 27.67 L169.38 730 L157.55 730 L54.96 0 Z " />
<glyph glyph-name="nacute" unicode="&#x144;" horiz-adv-x="504" d="M266.06 659.96 L409.29 781.29 L402.66 791.63 L261.47 667.12 L266.06 659.96 Z M44.86 1.52588e-05 L57.19 1.52588e-05 L135.58 556.96 L366.5 1.52588e-05 L378 1.52588e-05 L460.08 584 L447.79 584 L369.39 27.03 L138.51 584 L126.94 584 L44.86 1.52588e-05 Z " />
<glyph glyph-name="Ncommaaccent" unicode="&#x145;" horiz-adv-x="580" d="M54.96 0 L67.3 0 L166.12 702.33 L437.92 0 L449.69 0 L552.28 730 L539.97 730 L441.15 27.67 L169.38 730 L157.55 730 L54.96 0 Z M224.33 -176.91 C245.42 -154.21 258.59 -129.15 262.82 -99.08 C266.01 -76.4 260.18 -67.92 242.64 -67.92 C226.33 -67.92 218.6 -75.13 215.8 -95.04 C213 -114.96 218.46 -122.17 233.94 -122.17 C239.59 -122.17 243.52 -120.43 247.38 -116.93 C246.07 -123.65 238.56 -148.16 214.89 -169.33 L224.33 -176.91 Z " />
<glyph glyph-name="ncommaaccent" unicode="&#x146;" horiz-adv-x="504" d="M44.86 0 L57.19 0 L135.58 556.96 L366.5 0 L378 0 L460.08 584 L447.79 584 L369.39 27.03 L138.51 584 L126.94 584 L44.86 0 Z M183.44 -176.91 C204.53 -154.21 217.7 -129.15 221.93 -99.08 C225.11 -76.4 219.29 -67.92 201.75 -67.92 C185.43 -67.92 177.71 -75.13 174.91 -95.04 C172.11 -114.96 177.57 -122.17 193.04 -122.17 C198.7 -122.17 202.63 -120.43 206.49 -116.93 C205.17 -123.65 197.67 -148.16 173.99 -169.33 L183.44 -176.91 Z " />
<glyph glyph-name="Ncaron" unicode="&#x147;" horiz-adv-x="580" d="M354.29 769.28 L366.58 769.28 L494.54 885.39 L477.53 885.39 L361.83 779.2 L275.99 885.39 L258.97 885.39 L354.29 769.28 Z M54.97 0 L67.31 0 L166.13 702.33 L437.93 0 L449.7 0 L552.29 730 L539.98 730 L441.16 27.67 L169.39 730 L157.56 730 L54.97 0 Z " />
<glyph glyph-name="ncaron" unicode="&#x148;" horiz-adv-x="504" d="M297.62 656.96 L309.89 656.96 L424.08 779.03 L407.71 779.03 L305.18 667.11 L234.11 779.03 L217.74 779.03 L297.62 656.96 Z M44.86 1.52588e-05 L57.19 1.52588e-05 L135.58 556.96 L366.5 1.52588e-05 L378 1.52588e-05 L460.08 584 L447.79 584 L369.39 27.03 L138.51 584 L126.94 584 L44.86 1.52588e-05 Z " />
<glyph glyph-name="Eng" unicode="&#x14a;" horiz-adv-x="580" d="M328.4 -240 C387.02 -240 421.78 -197.29 434.03 -110.19 L552.11 730 L539.79 730 L440.97 27.66 L169.41 730 L157.55 730 L54.96 1.52588e-05 L67.31 1.52588e-05 L166.13 702.33 L437.32 0.0800171 L421.81 -109.48 C410.57 -189.47 380.09 -227.74 328.45 -227.74 C300.5 -227.74 281.34 -219.97 265.71 -203.97 L259.82 -215.81 C278.32 -230.81 298.57 -240 328.4 -240 L328.4 -240 Z " />
<glyph glyph-name="eng" unicode="&#x14b;" horiz-adv-x="504" d="M276.4 -192 C326.37 -192 355.74 -157.46 365.65 -86.9 L459.94 584 L447.63 584 L369.23 26.97 L138.54 584 L126.94 584 L44.86 -1.52588e-05 L57.21 -1.52588e-05 L135.61 557.03 L365.77 0.649979 L353.47 -86.07 C344.49 -149.95 319.48 -180.01 276.14 -180.01 C252.92 -180.01 236.83 -173.86 223.67 -161.11 L218.17 -172.68 C233.9 -184.68 251.17 -192 276.4 -192 L276.4 -192 Z " />
<glyph glyph-name="Omacron" unicode="&#x14c;" horiz-adv-x="588" d="M246.23 857.88 L507.38 857.88 L509.1 870.11 L247.95 870.11 L246.23 857.88 Z M254.83 -10 C402.75 -10 493.46 113.62 528.51 363 C563.93 615.05 508.16 740 360.24 740 C212.31 740 121.42 615.05 86 363 C50.95 113.62 106.91 -10 254.83 -10 L254.83 -10 Z M256.55 2.27 C116.62 2.27 65.33 121.67 99.24 363 C133.54 607 218.57 727.72 358.51 727.72 C498.45 727.72 549.55 607 515.26 363 C481.34 121.67 396.49 2.27 256.55 2.27 L256.55 2.27 Z " />
<glyph glyph-name="omacron" unicode="&#x14d;" horiz-adv-x="511" d="M195.49 711.88 L433.52 711.88 L435.24 724.11 L197.21 724.11 L195.49 711.88 Z M213.33 -8 C338.07 -8 413.8 90.9 441.84 290.41 C470.18 492.04 422.39 592 297.65 592 C172.92 592 97.04 492.04 68.7 290.41 C40.66 90.9 88.6 -8 213.33 -8 L213.33 -8 Z M215.02 4.06 C97.84 4.06 54.75 97.58 81.85 290.41 C109.25 485.4 178.78 579.96 295.96 579.96 C413.15 579.96 456.09 485.4 428.69 290.41 C401.59 97.58 332.21 4.06 215.02 4.06 L215.02 4.06 Z " />
<glyph glyph-name="Obreve" unicode="&#x14e;" horiz-adv-x="588" d="M364.9 771.35 C427.71 771.35 467.58 802.48 485.19 865.3 L474.17 865.1 C458.97 810.42 423.49 783.45 366.7 783.45 C310.66 783.45 283.09 810 283.15 863.83 L272.16 863.83 C272.24 802 302.98 771.35 364.9 771.35 L364.9 771.35 Z M254.83 -9.99997 C402.75 -9.99997 493.46 113.62 528.51 363 C563.93 615.05 508.16 740 360.24 740 C212.31 740 121.42 615.05 86 363 C50.95 113.62 106.91 -9.99997 254.83 -9.99997 L254.83 -9.99997 Z M256.55 2.27003 C116.62 2.27003 65.33 121.67 99.24 363 C133.54 607 218.57 727.72 358.51 727.72 C498.45 727.72 549.55 607 515.26 363 C481.34 121.67 396.49 2.27003 256.55 2.27003 L256.55 2.27003 Z " />
<glyph glyph-name="obreve" unicode="&#x14f;" horiz-adv-x="511" d="M308.64 668.66 C363.67 668.66 399.32 701.36 416.2 767.32 L405.53 767.11 C390.9 709.44 359.73 680.9 310.45 680.9 C261.82 680.9 238.94 709 240.41 765.77 L229.77 765.77 C228.25 700.85 254.39 668.66 308.64 668.66 L308.64 668.66 Z M213.33 -7.99998 C338.07 -7.99998 413.8 90.9 441.84 290.41 C470.18 492.04 422.39 592 297.65 592 C172.92 592 97.04 492.04 68.7 290.41 C40.66 90.9 88.6 -7.99998 213.33 -7.99998 L213.33 -7.99998 Z M215.02 4.06001 C97.84 4.06001 54.75 97.58 81.85 290.41 C109.25 485.4 178.78 579.96 295.96 579.96 C413.15 579.96 456.09 485.4 428.69 290.41 C401.59 97.58 332.21 4.06001 215.02 4.06001 L215.02 4.06001 Z " />
<glyph glyph-name="Ohungarumlaut" unicode="&#x150;" horiz-adv-x="588" d="M321.68 759.05 L406.94 941.02 L395.61 945.81 L313.82 762.37 L321.68 759.05 Z M420.65 759.05 L505.92 941.02 L494.58 945.81 L412.79 762.37 L420.65 759.05 Z M254.83 -10 C402.75 -10 493.46 113.62 528.51 363 C563.93 615.05 508.16 740 360.24 740 C212.31 740 121.42 615.05 86 363 C50.95 113.62 106.91 -10 254.83 -10 L254.83 -10 Z M256.55 2.26999 C116.62 2.26999 65.33 121.67 99.24 363 C133.54 607 218.57 727.72 358.51 727.72 C498.45 727.72 549.55 607 515.26 363 C481.34 121.67 396.49 2.26999 256.55 2.26999 L256.55 2.26999 Z " />
<glyph glyph-name="ohungarumlaut" unicode="&#x151;" horiz-adv-x="511" d="M262.19 633.05 L347.46 815.02 L336.12 819.81 L254.33 636.37 L262.19 633.05 Z M361.16 633.05 L446.43 815.02 L435.1 819.81 L353.3 636.37 L361.16 633.05 Z M213.33 -8.00002 C338.07 -8.00002 413.8 90.9 441.84 290.41 C470.18 492.04 422.39 592 297.65 592 C172.92 592 97.04 492.04 68.7 290.41 C40.66 90.9 88.6 -8.00002 213.33 -8.00002 L213.33 -8.00002 Z M215.02 4.05998 C97.84 4.05998 54.75 97.58 81.85 290.41 C109.25 485.4 178.78 579.96 295.96 579.96 C413.15 579.96 456.09 485.4 428.69 290.41 C401.59 97.58 332.21 4.05998 215.02 4.05998 L215.02 4.05998 Z " />
<glyph glyph-name="OE" unicode="&#x152;" horiz-adv-x="877" d="M874.95 717.74 L876.67 730 L559.2 730 L530.36 519.56 C527.32 666.78 473.76 740 360.15 740 C212.71 740 121.41 615 86 363 C51 114 107.31 -10 254.74 -10 C368.24 -10 442.47 62.8 486.72 208.75 L456.61 0 L782.26 0 L783.98 12.26 L471.19 12.26 L520.61 363.88 L800.73 363.88 L802.46 376.13 L522.33 376.13 L570.33 717.74 L874.95 717.74 Z M256.54 2.26999 C116.47 2.26999 65.37 122.02 99.23 363 C133.52 606.98 218.43 727.73 358.5 727.73 C498.4 727.73 541.53 606.9 507.25 363 C473.39 122.1 396.44 2.26999 256.54 2.26999 L256.54 2.26999 Z " />
<glyph glyph-name="oe" unicode="&#x153;" horiz-adv-x="753" d="M729.69 572.11 L731.36 584 L463.97 584 L441.91 421.97 C436.98 535.25 391.43 592 297.48 592 C173.25 592 97.03 492 68.7 290.41 C40.7 91.19 88.92 -8 213.15 -8 C306.94 -8 368.58 48.47 405.26 160.87 L381.9 0 L656.17 0 L657.85 11.93 L396.12 11.93 L435.21 290.11 L669.49 290.11 L671.16 301.97 L436.88 301.97 L474.84 572.11 L729.69 572.11 Z M215.02 4.05998 C97.73 4.05998 54.79 97.85 81.85 290.41 C109.25 485.38 178.67 579.96 295.96 579.96 C412.97 579.96 449.37 484.67 422.07 290.41 C395.1 98.55 332.03 4.05998 215.02 4.05998 L215.02 4.05998 Z " />
<glyph glyph-name="Racute" unicode="&#x154;" horiz-adv-x="507" d="M303.03 777.28 L457.55 870.06 L452.97 881.69 L299.86 785.34 L303.03 777.28 Z M63.95 0 L77.12 0 L123.91 332.9 L260.55 332.9 L403.39 0 L419.46 0 L274.8 333 C390.87 335.7 463.35 407.82 480.79 531.95 C498.49 657.88 443.92 730 330.32 730 L166.54 730 L63.95 0 Z M125.58 345.14 L177.95 717.76 L328.45 717.76 C434.34 717.76 484.3 650.16 467.69 531.95 C450.98 413.1 381.39 345.14 274.48 345.14 L125.58 345.14 Z " />
<glyph glyph-name="racute" unicode="&#x155;" horiz-adv-x="443" d="M236.51 659.96 L379.74 781.29 L373.11 791.63 L231.92 667.12 L236.51 659.96 Z M51.86 1.52588e-05 L64.89 1.52588e-05 L102.21 265.56 L215.38 265.56 L336.42 1.52588e-05 L352.19 1.52588e-05 L229.4 265.85 C326.36 268.5 386.42 326.04 400.35 425.16 C414.57 526.38 368.36 584 272.58 584 L133.93 584 L51.86 1.52588e-05 Z M103.79 277.29 L145.24 572.23 L270.64 572.23 C359.11 572.23 400.68 519.47 387.43 425.16 C374.1 330.33 317.19 277.29 227.85 277.29 L103.79 277.29 Z " />
<glyph glyph-name="Rcommaaccent" unicode="&#x156;" horiz-adv-x="507" d="M63.95 0 L77.12 0 L123.91 332.9 L260.55 332.9 L403.39 0 L419.46 0 L274.8 333 C390.87 335.7 463.35 407.82 480.79 531.95 C498.49 657.88 443.92 730 330.32 730 L166.54 730 L63.95 0 Z M125.58 345.14 L177.95 717.76 L328.45 717.76 C434.34 717.76 484.3 650.16 467.69 531.95 C450.98 413.1 381.39 345.14 274.48 345.14 L125.58 345.14 Z M205.15 -176.91 C226.24 -154.21 239.41 -129.15 243.64 -99.08 C246.82 -76.4001 241 -67.9201 223.46 -67.9201 C207.15 -67.9201 199.42 -75.1301 196.62 -95.0401 C193.82 -114.96 199.28 -122.17 214.76 -122.17 C220.41 -122.17 224.34 -120.43 228.2 -116.93 C226.89 -123.65 219.38 -148.16 195.7 -169.33 L205.15 -176.91 Z " />
<glyph glyph-name="rcommaaccent" unicode="&#x157;" horiz-adv-x="443" d="M51.86 0 L64.89 0 L102.21 265.56 L215.38 265.56 L336.42 0 L352.19 0 L229.4 265.85 C326.36 268.5 386.42 326.04 400.35 425.16 C414.57 526.38 368.36 584 272.58 584 L133.93 584 L51.86 0 Z M103.79 277.29 L145.24 572.23 L270.64 572.23 C359.11 572.23 400.68 519.47 387.43 425.16 C374.1 330.33 317.19 277.29 227.85 277.29 L103.79 277.29 Z M166.83 -176.91 C187.92 -154.21 201.09 -129.15 205.32 -99.08 C208.51 -76.4 202.68 -67.92 185.14 -67.92 C168.83 -67.92 161.1 -75.13 158.3 -95.04 C155.5 -114.96 160.96 -122.17 176.44 -122.17 C182.09 -122.17 186.02 -120.43 189.88 -116.93 C188.57 -123.65 181.07 -148.16 157.39 -169.33 L166.83 -176.91 Z " />
<glyph glyph-name="Rcaron" unicode="&#x158;" horiz-adv-x="507" d="M319.69 769.28 L331.97 769.28 L459.93 885.39 L442.92 885.39 L327.22 779.2 L241.38 885.39 L224.36 885.39 L319.69 769.28 Z M63.95 0 L77.12 0 L123.91 332.9 L260.55 332.9 L403.39 0 L419.46 0 L274.8 333 C390.87 335.7 463.35 407.82 480.79 531.95 C498.49 657.88 443.92 730 330.32 730 L166.54 730 L63.95 0 Z M125.58 345.14 L177.95 717.76 L328.45 717.76 C434.34 717.76 484.3 650.16 467.69 531.95 C450.98 413.1 381.39 345.14 274.48 345.14 L125.58 345.14 Z " />
<glyph glyph-name="rcaron" unicode="&#x159;" horiz-adv-x="443" d="M268.06 656.96 L280.34 656.96 L394.53 779.03 L378.15 779.03 L275.62 667.11 L204.55 779.03 L188.18 779.03 L268.06 656.96 Z M51.86 1.52588e-05 L64.89 1.52588e-05 L102.21 265.56 L215.38 265.56 L336.42 1.52588e-05 L352.19 1.52588e-05 L229.4 265.85 C326.36 268.5 386.42 326.04 400.35 425.16 C414.57 526.38 368.36 584 272.58 584 L133.93 584 L51.86 1.52588e-05 Z M103.79 277.29 L145.24 572.23 L270.64 572.23 C359.11 572.23 400.68 519.47 387.43 425.16 C374.1 330.33 317.19 277.29 227.85 277.29 L103.79 277.29 Z " />
<glyph glyph-name="Sacute" unicode="&#x15a;" horiz-adv-x="465" d="M274.58 777.28 L429.1 870.06 L424.52 881.69 L271.41 785.34 L274.58 777.28 Z M179.13 -10 C301.66 -10 371.29 54.31 389.57 184.39 C405.36 296.72 356.9 327.69 247 382.77 C148.19 432.29 103.74 458.89 118.26 562.25 C133.81 672.83 191.04 727.73 292.34 727.73 C346.82 727.73 392.66 714.99 430.37 688.9 L434.69 701.83 C393.2 727.23 346.23 740 292.64 740 C183.86 740 121.9 681.65 105.31 563.61 C89.51 451.17 140.1 422.03 243.06 370.19 C347.42 317.64 391.06 288.94 376.56 185.73 C359.32 63.11 294.58 2.25999 179.61 2.25999 C117.03 2.25999 66.44 14.36 27.23 39.11 L22.89 26.17 C65.32 2.09 116.99 -10 179.13 -10 L179.13 -10 Z " />
<glyph glyph-name="sacute" unicode="&#x15b;" horiz-adv-x="409" d="M214.32 659.96 L357.55 781.29 L350.92 791.63 L209.73 667.12 L214.32 659.96 Z M151.04 -7.99998 C254.32 -7.99998 312.61 43.58 327.28 147.98 C339.87 237.6 298.64 262.77 207.13 306.77 C122.68 347.38 86.62 367.38 98.11 449.15 C110.47 537.08 157.44 580.03 242.08 580.03 C287.7 580.03 326.2 569.82 357.97 548.88 L362.17 561.41 C327.06 581.74 287.43 591.98 242.26 591.98 C150.5 591.98 98.6 545.18 85.28 450.44 C72.65 360.59 115.97 337.02 201.35 295.18 C291.33 251.07 325.8 230.69 314.33 149.06 C300.63 51.56 247.51 3.94997 151.48 3.94997 C99.12 3.94997 56.53 13.66 23.26 33.58 L19.08 21.07 C55.04 1.72998 98.66 -8.01003 151.04 -8.01003 L151.04 -7.99998 Z " />
<glyph glyph-name="Scircumflex" unicode="&#x15c;" horiz-adv-x="465" d="M179.59 769.28 L196.61 769.28 L312.3 875.48 L398.15 769.28 L415.16 769.28 L319.84 885.39 L307.55 885.39 L179.59 769.28 Z M179.13 -10 C301.66 -10 371.29 54.31 389.57 184.39 C405.36 296.72 356.9 327.69 247 382.77 C148.19 432.29 103.74 458.89 118.26 562.25 C133.81 672.83 191.04 727.73 292.34 727.73 C346.82 727.73 392.66 714.99 430.37 688.9 L434.69 701.83 C393.2 727.23 346.23 740 292.64 740 C183.86 740 121.9 681.65 105.31 563.61 C89.51 451.17 140.1 422.03 243.06 370.19 C347.42 317.64 391.06 288.94 376.56 185.73 C359.32 63.11 294.58 2.25999 179.61 2.25999 C117.03 2.25999 66.44 14.36 27.23 39.11 L22.89 26.17 C65.32 2.09 116.99 -10 179.13 -10 L179.13 -10 Z " />
<glyph glyph-name="scircumflex" unicode="&#x15d;" horiz-adv-x="409" d="M263.02 779.03 L148.84 656.96 L165.21 656.96 L267.74 768.89 L338.81 656.96 L355.18 656.96 L275.3 779.03 L263.02 779.03 Z M151.04 -8 C254.32 -8 312.61 43.58 327.28 147.98 C339.87 237.6 298.64 262.77 207.13 306.77 C122.68 347.38 86.62 367.38 98.11 449.15 C110.47 537.08 157.44 580.03 242.08 580.03 C287.7 580.03 326.2 569.82 357.97 548.88 L362.17 561.41 C327.06 581.74 287.43 591.98 242.26 591.98 C150.5 591.98 98.6 545.18 85.28 450.44 C72.65 360.59 115.97 337.02 201.35 295.18 C291.33 251.07 325.8 230.69 314.33 149.06 C300.63 51.56 247.51 3.94995 151.48 3.94995 C99.12 3.94995 56.53 13.66 23.26 33.58 L19.08 21.07 C55.04 1.72997 98.66 -8.01004 151.04 -8.01004 L151.04 -8 Z " />
<glyph glyph-name="Scedilla" unicode="&#x15e;" horiz-adv-x="465" d="M292.34 727.73 C346.82 727.73 392.66 714.99 430.37 688.9 L434.69 701.83 C393.2 727.23 346.23 740 292.64 740 C183.86 740 121.9 681.65 105.31 563.61 C89.51 451.17 140.1 422.03 243.06 370.19 C347.42 317.64 391.06 288.94 376.56 185.73 C359.32 63.11 294.58 2.25998 179.61 2.25998 C117.03 2.25998 66.44 14.36 27.23 39.11 L22.89 26.17 C63.32 3.22998 112.13 -8.83002 170.39 -9.92001 L155.21 -63.11 L167.94 -63.11 C219.97 -63.11 242.23 -85.26 235.95 -129.98 C229.19 -178.04 202.7 -201.83 155.45 -201.83 C128.4 -201.83 106.15 -195.86 88.31 -183.81 L83.7 -197.02 C102.7 -208.39 125.65 -214.03 152.94 -214.03 C208.41 -214.03 239.83 -186.18 247.72 -130 C255.06 -77.82 229.4 -51.96 170.3 -51.96 L182.1 -9.99001 C302.79 -8.95001 371.44 55.36 389.57 184.39 C405.36 296.72 356.9 327.69 247 382.77 C148.19 432.29 103.74 458.89 118.26 562.25 C133.81 672.83 191.04 727.73 292.34 727.73 L292.34 727.73 Z " />
<glyph glyph-name="scedilla" unicode="&#x15f;" horiz-adv-x="409" d="M242.08 580.04 C287.7 580.04 326.2 569.83 357.97 548.89 L362.17 561.42 C327.06 581.75 287.43 591.99 242.26 591.99 C150.5 591.99 98.6 545.19 85.28 450.45 C72.65 360.6 115.97 337.03 201.35 295.19 C291.33 251.08 325.8 230.7 314.33 149.07 C300.63 51.57 247.51 3.95996 151.48 3.95996 C99.12 3.95996 56.53 13.67 23.26 33.59 L19.08 21.08 C53.12 2.76997 94.03 -6.94003 142.73 -7.92003 L126.98 -63.11 L139.7 -63.11 C191.74 -63.11 213.99 -85.26 207.71 -129.98 C200.96 -178.04 174.47 -201.83 127.22 -201.83 C100.17 -201.83 77.92 -195.86 60.08 -183.81 L55.46 -197.02 C74.46 -208.39 97.41 -214.03 124.71 -214.03 C180.18 -214.03 211.59 -186.18 219.49 -130 C226.82 -77.82 201.16 -51.96 142.07 -51.96 L154.43 -7.98003 C255.59 -6.86003 312.77 44.73 327.28 147.98 C339.87 237.6 298.64 262.77 207.13 306.77 C122.68 347.38 86.62 367.38 98.11 449.15 C110.47 537.08 157.44 580.03 242.08 580.03 L242.08 580.04 Z " />
<glyph glyph-name="Scaron" unicode="&#x160;" horiz-adv-x="465" d="M291.24 769.28 L303.52 769.28 L431.48 885.39 L414.47 885.39 L298.77 779.2 L212.93 885.39 L195.91 885.39 L291.24 769.28 Z M179.13 -10 C301.66 -10 371.29 54.31 389.57 184.39 C405.36 296.72 356.9 327.69 247 382.77 C148.19 432.29 103.74 458.89 118.26 562.25 C133.81 672.83 191.04 727.73 292.34 727.73 C346.82 727.73 392.66 714.99 430.37 688.9 L434.69 701.83 C393.2 727.23 346.23 740 292.64 740 C183.86 740 121.9 681.65 105.31 563.61 C89.51 451.17 140.1 422.03 243.06 370.19 C347.42 317.64 391.06 288.94 376.56 185.73 C359.32 63.11 294.58 2.25999 179.61 2.25999 C117.03 2.25999 66.44 14.36 27.23 39.11 L22.89 26.17 C65.32 2.09 116.99 -10 179.13 -10 L179.13 -10 Z " />
<glyph glyph-name="scaron" unicode="&#x161;" horiz-adv-x="409" d="M245.87 656.96 L258.15 656.96 L372.34 779.03 L355.96 779.03 L253.43 667.11 L182.36 779.03 L165.99 779.03 L245.87 656.96 Z M151.04 -7.99998 C254.32 -7.99998 312.61 43.58 327.28 147.98 C339.87 237.6 298.64 262.77 207.13 306.77 C122.68 347.38 86.62 367.38 98.11 449.15 C110.47 537.08 157.44 580.03 242.08 580.03 C287.7 580.03 326.2 569.82 357.97 548.88 L362.17 561.41 C327.06 581.74 287.43 591.98 242.26 591.98 C150.5 591.98 98.6 545.18 85.28 450.44 C72.65 360.59 115.97 337.02 201.35 295.18 C291.33 251.07 325.8 230.69 314.33 149.06 C300.63 51.56 247.51 3.94997 151.48 3.94997 C99.12 3.94997 56.53 13.66 23.26 33.58 L19.08 21.07 C55.04 1.72998 98.66 -8.01003 151.04 -8.01003 L151.04 -7.99998 Z " />
<glyph glyph-name="uni0162" unicode="&#x162;" horiz-adv-x="430" d="M183.83 0 L284.7 717.72 L466.28 717.72 L468.01 730 L91.62 730 L89.9 717.72 L271.48 717.72 L170.61 0 L171.38 0 L153.37 -63.11 L166.09 -63.11 C218.13 -63.11 240.39 -85.26 234.1 -129.98 C227.35 -178.04 200.86 -201.83 153.61 -201.83 C126.56 -201.83 104.31 -195.86 86.47 -183.81 L81.86 -197.02 C100.85 -208.39 123.8 -214.03 151.1 -214.03 C206.57 -214.03 237.99 -186.18 245.88 -130 C253.21 -77.82 227.56 -51.96 168.46 -51.96 L183.07 1.52588e-05 L183.83 0 Z " />
<glyph glyph-name="uni0163" unicode="&#x163;" horiz-adv-x="378" d="M154.27 0 L234.65 571.94 L386.87 571.94 L388.57 584 L71.01 584 L69.31 571.94 L221.54 571.94 L141.16 0 L141.87 0 L123.86 -63.11 L136.59 -63.11 C188.62 -63.11 210.88 -85.26 204.59 -129.98 C197.84 -178.04 171.35 -201.83 124.1 -201.83 C97.05 -201.83 74.8 -195.86 56.96 -183.81 L52.35 -197.02 C71.35 -208.39 94.3 -214.03 121.59 -214.03 C177.06 -214.03 208.48 -186.18 216.37 -130 C223.71 -77.82 198.05 -51.96 138.95 -51.96 L153.56 1.52588e-05 L154.27 0 Z " />
<glyph glyph-name="Tcaron" unicode="&#x164;" horiz-adv-x="430" d="M291.48 769.28 L419.44 885.39 L402.42 885.39 L286.73 779.2 L200.88 885.39 L183.87 885.39 L279.19 769.28 L291.48 769.28 Z M468.01 730 L91.62 730 L89.9 717.72 L271.48 717.72 L170.61 0 L183.83 0 L284.7 717.72 L466.28 717.72 L468.01 730 Z " />
<glyph glyph-name="tcaron" unicode="&#x165;" horiz-adv-x="378" d="M246.17 656.96 L360.36 779.03 L343.99 779.03 L241.46 667.11 L170.39 779.03 L154.02 779.03 L233.89 656.96 L246.17 656.96 Z M388.57 584 L71.01 584 L69.31 571.94 L221.54 571.94 L141.16 0 L154.27 0 L234.65 571.94 L386.87 571.94 L388.57 584 Z " />
<glyph glyph-name="Tbar" unicode="&#x166;" horiz-adv-x="460" d="M481.27 717.72 L482.99 730 L106.6 730 L104.88 717.72 L286.46 717.72 L238.24 374.6 L133.78 374.6 L132.2 363.37 L236.66 363.37 L185.59 1.52588e-05 L198.82 1.52588e-05 L249.88 363.37 L354.28 363.37 L355.86 374.6 L251.46 374.6 L299.69 717.72 L481.27 717.72 Z " />
<glyph glyph-name="tbar" unicode="&#x167;" horiz-adv-x="389" d="M392.87 571.94 L394.56 584 L77 584 L75.31 571.94 L227.53 571.94 L189.4 300.59 L95.45 300.59 L93.92 289.72 L187.87 289.72 L147.15 0 L160.26 0 L200.98 289.72 L295.51 289.72 L297.04 300.59 L202.51 300.59 L240.64 571.94 L392.87 571.94 Z " />
<glyph glyph-name="Utilde" unicode="&#x168;" horiz-adv-x="578" d="M434.4 828.88 C466.97 828.88 493.86 846.49 515.52 882.04 L505.32 887.11 C488.63 856.36 465.7 841.12 436.11 841.12 C386.42 841.12 373.89 899.12 317.43 899.12 C281.29 899.12 253.34 880.51 233.07 842.96 L243.43 838.89 C260.62 870.97 284.57 886.88 315.72 886.88 C366.35 886.88 378.89 828.88 434.4 828.88 L434.4 828.88 Z M253.53 -10 C381.71 -10 456.81 72.21 480.12 238.06 L549.25 730 L536.13 730 L467 238.06 C444.83 80.33 375.38 2.28001 255.26 2.28001 C135.67 2.28001 88.41 80.33 110.58 238.06 L179.72 730 L166.54 730 L97.41 238.06 C74.1 72.21 125.84 -10 253.53 -10 L253.53 -10 Z " />
<glyph glyph-name="utilde" unicode="&#x169;" horiz-adv-x="502" d="M363.85 682.88 C392.6 682.88 416.54 700.49 436.1 736.04 L426.38 741.11 C411.34 710.36 391.21 695.12 365.55 695.12 C322.42 695.12 312.53 753.12 263.19 753.12 C231.33 753.12 206.43 734.51 188.07 696.96 L197.97 692.89 C213.46 724.97 234.5 740.88 261.48 740.88 C305.45 740.88 315.36 682.88 363.85 682.88 L363.85 682.88 Z M211.83 -8 C319.9 -8 382.74 57.94 401.44 190.96 L456.68 584 L443.72 584 L388.49 190.97 C370.81 65.19 313.95 4.12 213.53 4.12 C113.53 4.12 74.05 65.19 91.73 190.97 L146.97 584 L133.93 584 L78.69 190.96 C60 57.94 104.12 -8 211.83 -8 L211.83 -8 Z " />
<glyph glyph-name="Umacron" unicode="&#x16a;" horiz-adv-x="578" d="M244.91 857.88 L506.06 857.88 L507.78 870.11 L246.63 870.11 L244.91 857.88 Z M253.53 -10 C381.71 -10 456.81 72.21 480.12 238.06 L549.25 730 L536.13 730 L467 238.06 C444.83 80.33 375.38 2.28001 255.26 2.28001 C135.67 2.28001 88.41 80.33 110.58 238.06 L179.72 730 L166.54 730 L97.41 238.06 C74.1 72.21 125.84 -10 253.53 -10 L253.53 -10 Z " />
<glyph glyph-name="umacron" unicode="&#x16b;" horiz-adv-x="502" d="M193.95 711.88 L431.98 711.88 L433.7 724.11 L195.66 724.11 L193.95 711.88 Z M211.83 -8 C319.9 -8 382.74 57.94 401.44 190.96 L456.68 584 L443.72 584 L388.49 190.97 C370.81 65.19 313.95 4.12 213.53 4.12 C113.53 4.12 74.05 65.19 91.73 190.97 L146.97 584 L133.93 584 L78.69 190.96 C60 57.94 104.12 -8 211.83 -8 L211.83 -8 Z " />
<glyph glyph-name="Ubreve" unicode="&#x16c;" horiz-adv-x="578" d="M363.58 771.35 C426.39 771.35 466.26 802.48 483.87 865.3 L472.85 865.1 C457.65 810.42 422.17 783.45 365.38 783.45 C309.34 783.45 281.77 810 281.83 863.83 L270.84 863.83 C270.92 802 301.66 771.35 363.58 771.35 L363.58 771.35 Z M253.53 -9.99997 C381.71 -9.99997 456.81 72.21 480.12 238.06 L549.25 730 L536.13 730 L467 238.06 C444.83 80.33 375.38 2.28004 255.26 2.28004 C135.67 2.28004 88.41 80.33 110.58 238.06 L179.72 730 L166.54 730 L97.41 238.06 C74.1 72.21 125.84 -9.99997 253.53 -9.99997 L253.53 -9.99997 Z " />
<glyph glyph-name="ubreve" unicode="&#x16d;" horiz-adv-x="502" d="M307.1 668.66 C362.13 668.66 397.78 701.36 414.66 767.32 L403.99 767.11 C389.36 709.44 358.19 680.9 308.91 680.9 C260.28 680.9 237.4 709 238.87 765.77 L228.23 765.77 C226.71 700.85 252.85 668.66 307.1 668.66 L307.1 668.66 Z M211.83 -7.99998 C319.9 -7.99998 382.74 57.94 401.44 190.96 L456.68 584 L443.72 584 L388.49 190.97 C370.81 65.19 313.95 4.12001 213.53 4.12001 C113.53 4.12001 74.05 65.19 91.73 190.97 L146.97 584 L133.93 584 L78.69 190.96 C60 57.94 104.12 -7.99998 211.83 -7.99998 L211.83 -7.99998 Z " />
<glyph glyph-name="Uring" unicode="&#x16e;" horiz-adv-x="578" d="M363.67 777.98 C415.24 777.98 449.79 813.54 458.51 875.59 C466.96 935.68 442.67 970.11 391.85 970.11 C340.28 970.11 305.81 935.11 297.23 874.04 C288.65 812.98 312.85 777.98 363.67 777.98 L363.67 777.98 Z M365.34 789.18 C321.04 789.18 300.41 820.06 308 874.04 C315.58 928.02 345.25 958.9 390.18 958.9 C434.48 958.9 455.19 928.51 447.72 875.38 C440.01 820.55 410.27 789.18 365.34 789.18 L365.34 789.18 Z M253.53 -10 C381.71 -10 456.81 72.21 480.12 238.06 L549.25 730 L536.13 730 L467 238.06 C444.83 80.33 375.38 2.28 255.26 2.28 C135.67 2.28 88.41 80.33 110.58 238.06 L179.72 730 L166.54 730 L97.41 238.06 C74.1 72.21 125.84 -10 253.53 -10 L253.53 -10 Z " />
<glyph glyph-name="uring" unicode="&#x16f;" horiz-adv-x="502" d="M301.15 631.98 C352.72 631.98 387.27 667.54 395.99 729.59 C404.44 789.68 380.15 824.11 329.33 824.11 C277.76 824.11 243.29 789.11 234.71 728.04 C226.13 666.98 250.33 631.98 301.15 631.98 L301.15 631.98 Z M302.82 643.18 C258.52 643.18 237.89 674.06 245.47 728.04 C253.06 782.02 282.73 812.9 327.66 812.9 C371.96 812.9 392.67 782.51 385.2 729.38 C377.49 674.55 347.75 643.18 302.82 643.18 L302.82 643.18 Z M211.83 -8.00002 C319.9 -8.00002 382.74 57.94 401.44 190.96 L456.68 584 L443.72 584 L388.49 190.97 C370.81 65.19 313.95 4.11998 213.53 4.11998 C113.53 4.11998 74.05 65.19 91.73 190.97 L146.97 584 L133.93 584 L78.69 190.96 C60 57.94 104.12 -8.00002 211.83 -8.00002 L211.83 -8.00002 Z " />
<glyph glyph-name="Uhungarumlaut" unicode="&#x170;" horiz-adv-x="578" d="M320.36 759.05 L405.62 941.02 L394.29 945.81 L312.5 762.37 L320.36 759.05 Z M419.33 759.05 L504.6 941.02 L493.26 945.81 L411.47 762.37 L419.33 759.05 Z M253.53 -10 C381.71 -10 456.81 72.21 480.12 238.06 L549.25 730 L536.13 730 L467 238.06 C444.83 80.33 375.38 2.28 255.26 2.28 C135.67 2.28 88.41 80.33 110.58 238.06 L179.72 730 L166.54 730 L97.41 238.06 C74.1 72.21 125.84 -10 253.53 -10 L253.53 -10 Z " />
<glyph glyph-name="uhungarumlaut" unicode="&#x171;" horiz-adv-x="502" d="M260.65 633.05 L345.92 815.02 L334.58 819.81 L252.79 636.37 L260.65 633.05 Z M359.62 633.05 L444.89 815.02 L433.56 819.81 L351.76 636.37 L359.62 633.05 Z M211.83 -8.00002 C319.9 -8.00002 382.74 57.94 401.44 190.96 L456.68 584 L443.72 584 L388.49 190.97 C370.81 65.19 313.95 4.11998 213.53 4.11998 C113.53 4.11998 74.05 65.19 91.73 190.97 L146.97 584 L133.93 584 L78.69 190.96 C60 57.94 104.12 -8.00002 211.83 -8.00002 L211.83 -8.00002 Z " />
<glyph glyph-name="Uogonek" unicode="&#x172;" horiz-adv-x="578" d="M536.13 730 L467 238.06 C444.83 80.33 375.38 2.28 255.26 2.28 C135.67 2.28 88.41 80.33 110.58 238.06 L179.72 730 L166.54 730 L97.41 238.06 C75.25 80.42 120.9 -1.66 235.13 -9.40001 C174.94 -37.61 135.8 -82.65 128.86 -132.03 C122.69 -175.93 140.28 -201.09 177.13 -201.09 C194.72 -201.09 212.57 -196.77 230.98 -188.07 L228.14 -175.83 C213.45 -185.21 197.47 -189.86 179.93 -189.86 C149.83 -189.86 135.59 -168.77 140.76 -131.95 C147.64 -83.04 188.54 -38.62 253.53 -10 C381.71 -10 456.81 72.21 480.12 238.06 L549.25 730 L536.13 730 Z " />
<glyph glyph-name="uogonek" unicode="&#x173;" horiz-adv-x="502" d="M443.72 584 L388.49 190.97 C370.81 65.19 313.95 4.12 213.53 4.12 C113.53 4.12 74.05 65.19 91.73 190.97 L146.97 584 L133.93 584 L78.69 190.96 C61.09 65.72 99.17 -0.0599976 193.57 -7.31999 C133.3 -35.53 94.1 -80.61 87.16 -130.03 C80.98 -173.93 98.57 -199.09 135.43 -199.09 C153.01 -199.09 170.86 -194.77 189.27 -186.07 L186.43 -173.83 C171.74 -183.21 155.76 -187.86 138.23 -187.86 C108.12 -187.86 93.88 -166.77 99.06 -129.95 C105.93 -81.04 146.84 -36.62 211.83 -7.99998 C319.9 -7.99998 382.74 57.94 401.44 190.96 L456.68 584 L443.72 584 Z " />
<glyph glyph-name="Wcircumflex" unicode="&#x174;" horiz-adv-x="831" d="M368.35 769.28 L385.36 769.28 L501.06 875.48 L586.9 769.28 L603.92 769.28 L508.59 885.39 L496.31 885.39 L368.35 769.28 Z M194.22 0 L204.13 0 L476.7 701.5 L551.75 0 L561.73 0 L839.62 730 L825.41 730 L561.25 32.44 L485.64 730 L475.36 730 L203.41 31.44 L135.61 730 L121.66 730 L194.22 0 Z " />
<glyph glyph-name="wcircumflex" unicode="&#x175;" horiz-adv-x="736" d="M430.7 779.03 L316.52 656.96 L332.89 656.96 L435.42 768.89 L506.49 656.96 L522.86 656.96 L442.98 779.03 L430.7 779.03 Z M164.45 -0.00999451 L174.54 -0.00999451 L406.04 559.34 L480.03 -0.00999451 L490.1 -0.00999451 L733.82 584 L719.6 584 L488.54 26.47 L415.44 584 L403.25 584 L173.09 25.68 L99.04 584 L85.06 584 L164.45 -0.00999451 Z " />
<glyph glyph-name="Ycircumflex" unicode="&#x176;" horiz-adv-x="490" d="M198.09 769.28 L215.1 769.28 L330.8 875.48 L416.64 769.28 L433.66 769.28 L338.33 885.39 L326.05 885.39 L198.09 769.28 Z M201.04 0 L213.95 0 L255.15 292.41 L520.1 730 L505.8 730 L250.42 305.21 L114.48 730 L99.72 730 L242.36 293.18 L201.04 0 Z " />
<glyph glyph-name="ycircumflex" unicode="&#x177;" horiz-adv-x="427" d="M276.2 779.03 L162.01 656.96 L178.39 656.96 L280.92 768.89 L351.98 656.96 L368.36 656.96 L288.48 779.03 L276.2 779.03 Z M166.27 0 L178.93 0 L211.97 234.38 L431.99 584 L416.93 584 L207.27 247.01 L91.5 584 L77.11 584 L199.31 234.19 L166.27 0 Z " />
<glyph glyph-name="Ydieresis" unicode="&#x178;" horiz-adv-x="490" d="M259.02 787.97 C275.32 787.97 282.97 794.91 285.67 814.08 C288.36 833.25 282.66 840.19 266.38 840.19 C250.08 840.19 242.42 833.25 239.73 814.08 C237.03 794.91 242.73 787.97 259.02 787.97 L259.02 787.97 Z M377.56 787.97 C393.85 787.97 401.51 794.91 404.21 814.08 C406.9 833.25 401.2 840.19 384.92 840.19 C368.62 840.19 360.96 833.25 358.27 814.08 C355.57 794.91 361.27 787.97 377.56 787.97 L377.56 787.97 Z M201.04 0 L213.95 0 L255.15 292.41 L520.1 730 L505.8 730 L250.42 305.21 L114.48 730 L99.72 730 L242.36 293.18 L201.04 0 Z " />
<glyph glyph-name="Zacute" unicode="&#x179;" horiz-adv-x="472" d="M289.83 777.28 L444.35 870.06 L439.77 881.69 L286.66 785.34 L289.83 777.28 Z M19 0 L377.26 0 L378.98 12.28 L36.24 12.28 L478.33 718.79 L479.79 730 L134.42 730 L132.7 717.72 L463.76 717.72 L20.46 11.21 L19 0 Z " />
<glyph glyph-name="zacute" unicode="&#x17a;" horiz-adv-x="414" d="M225.91 659.96 L369.14 781.29 L362.51 791.63 L221.32 667.12 L225.91 659.96 Z M14.9 1.52588e-05 L316.97 1.52588e-05 L318.68 12.11 L32.07 12.11 L397.57 573.3 L398.96 584 L107.75 584 L106.06 571.94 L383.13 571.94 L16.29 10.72 L14.9 1.52588e-05 Z " />
<glyph glyph-name="Zdotaccent" unicode="&#x17b;" horiz-adv-x="472" d="M315.28 787.96 C331.64 787.96 339.32 794.9 342.02 814.09 C344.71 833.27 338.99 840.21 322.65 840.21 C306.27 840.21 298.58 833.27 295.89 814.08 C293.19 794.9 298.92 787.96 315.28 787.96 L315.28 787.96 Z M19 0 L377.26 0 L378.98 12.28 L36.24 12.28 L478.33 718.79 L479.79 730 L134.42 730 L132.7 717.72 L463.76 717.72 L20.46 11.21 L19 0 Z " />
<glyph glyph-name="zdotaccent" unicode="&#x17c;" horiz-adv-x="414" d="M268.55 691.92 C284.91 691.92 291.81 698.86 294.5 718.05 C297.2 737.23 292.26 744.17 275.92 744.17 C259.54 744.17 252.64 737.22 249.94 718.04 C247.24 698.86 252.19 691.92 268.55 691.92 L268.55 691.92 Z M14.9 1.52588e-05 L316.97 1.52588e-05 L318.68 12.11 L32.07 12.11 L397.57 573.3 L398.96 584 L107.75 584 L106.06 571.94 L383.13 571.94 L16.29 10.72 L14.9 1.52588e-05 Z " />
<glyph glyph-name="Zcaron" unicode="&#x17d;" horiz-adv-x="472" d="M306.48 769.28 L318.77 769.28 L446.73 885.39 L429.71 885.39 L314.02 779.2 L228.18 885.39 L211.16 885.39 L306.48 769.28 Z M19 0 L377.26 0 L378.98 12.28 L36.24 12.28 L478.33 718.79 L479.79 730 L134.42 730 L132.7 717.72 L463.76 717.72 L20.46 11.21 L19 0 Z " />
<glyph glyph-name="zcaron" unicode="&#x17e;" horiz-adv-x="414" d="M257.47 656.96 L269.74 656.96 L383.93 779.03 L367.56 779.03 L265.03 667.11 L193.96 779.03 L177.59 779.03 L257.47 656.96 Z M14.9 1.52588e-05 L316.97 1.52588e-05 L318.68 12.11 L32.07 12.11 L397.57 573.3 L398.96 584 L107.75 584 L106.06 571.94 L383.13 571.94 L16.29 10.72 L14.9 1.52588e-05 Z " />
<glyph glyph-name="longs" unicode="&#x17f;" horiz-adv-x="361" d="M287.36 609.61 C223.58 609.61 185.58 564.18 172.7 472.53 L167 432 L112.57 432 L111.02 420.98 L165.45 420.98 L106.29 1.52588e-05 L118.56 1.52588e-05 L185 472.73 C196.82 556.88 229.29 597.75 284.76 597.75 C307.6 597.75 329.61 591.32 345.22 580.11 L351.05 591.97 C331.58 603.76 310.49 609.61 287.36 609.61 L287.36 609.61 Z " />
<glyph glyph-name="uni018F" unicode="&#x18f;" horiz-adv-x="575" d="M327.44 739.75 C277.67 739.75 218.03 725.47 163.81 700.53 L167.13 687.84 C212.69 712.84 270.11 726.9 324.61 726.9 C475.32 726.9 532.83 605.22 498.83 363.28 C497.59 354.48 496.28 345.84 494.9 337.36 C432.46 380.59 363.71 402.03 287.6 402.03 C158.78 402.03 85.22 336.08 66.66 204.06 C47.17 65.46 107.12 -13.45 230.2 -13.45 C383.39 -13.45 476.92 111.37 512.3 363.15 C547.62 614.46 486.43 739.75 327.44 739.75 L327.44 739.75 Z M232.01 -0.590012 C117.77 -0.590012 62.69 74.13 80.95 204.05 C98.27 327.17 166.51 389.08 286.6 389.08 C360.81 389.08 429.09 367.31 492.53 323.4 C454.62 107.97 367.95 -0.590012 232.01 -0.590012 L232.01 -0.590012 Z " />
<glyph glyph-name="florin" unicode="&#x192;" horiz-adv-x="360" d="M299.79 590.96 C235.31 590.96 206.23 543.17 183.61 448.88 L153 322.39 L65.67 322.39 L64.12 311.33 L150.32 311.33 L66.78 -33.9 C45.91 -120.82 21.41 -164.06 -34.28 -164.06 C-57.38 -164.06 -79.62 -157.38 -95.39 -145.77 L-101.25 -157.67 C-81.59 -169.89 -60.31 -175.96 -36.91 -175.96 C27.57 -175.96 56.45 -128.17 79.07 -33.88 L162.61 311.33 L264.05 311.33 L265.61 322.39 L165.29 322.39 L195.9 448.89 C216.83 535.84 241.46 579.05 297.15 579.05 C320.26 579.05 342.54 572.37 358.31 560.76 L364.17 572.67 C344.51 584.92 323.19 590.96 299.79 590.96 L299.79 590.96 Z " />
<glyph glyph-name="uni01C4" unicode="&#x1c4;" horiz-adv-x="1024" d="M860.86 769.28 L873.14 769.28 L1001.1 885.39 L984.09 885.39 L868.39 779.2 L782.55 885.39 L765.53 885.39 L860.86 769.28 Z M63.95 0 L222.73 0 C381.4 0 476.97 120.31 511.08 363 C545.56 608.36 484 730 325.32 730 L166.54 730 L63.95 0 Z M570.94 0 L929.2 0 L930.93 12.28 L588.18 12.28 L1030.27 718.79 L1031.73 730 L686.37 730 L684.64 717.72 L1015.7 717.72 L572.4 11.21 L570.94 0 Z M78.85 12.26 L177.99 717.74 L323.6 717.74 C474.34 717.74 531.19 600.33 497.83 363 C464.86 128.35 375.19 12.26 224.45 12.26 L78.85 12.26 Z " />
<glyph glyph-name="uni01C5" unicode="&#x1c5;" horiz-adv-x="966" d="M809.41 656.96 L821.68 656.96 L935.87 779.03 L919.5 779.03 L816.97 667.11 L745.9 779.03 L729.53 779.03 L809.41 656.96 Z M63.95 1.52588e-05 L222.73 1.52588e-05 C381.4 1.52588e-05 476.97 120.31 511.08 363 C545.56 608.36 484 730 325.32 730 L166.54 730 L63.95 1.52588e-05 Z M78.85 12.26 L177.99 717.74 L323.6 717.74 C474.34 717.74 531.19 600.33 497.83 363 C464.86 128.35 375.19 12.26 224.45 12.26 L78.85 12.26 Z M566.84 1.52588e-05 L868.91 1.52588e-05 L870.62 12.11 L584.01 12.11 L949.51 573.3 L950.9 584 L659.69 584 L658 571.94 L935.07 571.94 L568.23 10.72 L566.84 1.52588e-05 Z " />
<glyph glyph-name="uni01C6" unicode="&#x1c6;" horiz-adv-x="894" d="M737.65 656.96 L749.93 656.96 L864.12 779.03 L847.74 779.03 L745.22 667.11 L674.15 779.03 L657.77 779.03 L737.65 656.96 Z M51.86 1.52588e-05 L186.22 1.52588e-05 C319.87 1.52588e-05 399.64 96.25 426.93 290.41 C454.52 486.69 401.94 584 268.3 584 L133.93 584 L51.86 1.52588e-05 Z M495.08 1.52588e-05 L797.16 1.52588e-05 L798.86 12.11 L513.15 12.11 L877.64 573.3 L879.15 584 L587.94 584 L586.24 571.94 L861.42 571.94 L496.59 10.72 L495.08 1.52588e-05 Z M66.5699 11.93 L145.29 572.09 L266.62 572.09 C392.79 572.09 440.44 480.11 413.78 290.41 C387.43 102.87 314.07 11.93 187.9 11.93 L66.5699 11.93 Z " />
<glyph glyph-name="uni01C7" unicode="&#x1c7;" horiz-adv-x="825" d="M179.76 730 L166.54 730 L63.95 0 L385.82 0 L387.55 12.28 L78.9 12.28 L179.76 730 Z M776.83 730 L700.95 190.1 C683.29 64.45 635.1 2.28001 554 2.28001 C517.68 2.28001 487.26 12.22 462.23 32.28 L457.27 18 C484.98 -0.719986 516.53 -9.99998 552.45 -9.99998 C641.74 -9.99998 695.32 56.32 714.13 190.11 L790 730 L776.83 730 Z " />
<glyph glyph-name="uni01C8" unicode="&#x1c8;" horiz-adv-x="784" d="M176.67 730 L163.45 730 L60.86 0 L382.73 0 L384.46 12.28 L75.8 12.28 L176.67 730 Z M718.78 584 L658.19 152.88 C644.19 53.24 602.84 3.90001 533.27 3.90001 C504.32 3.90001 474.11 10.31 450.35 21.49 L446.65 10.4 C473.09 -1.29999 504.17 -7.99998 531.95 -7.99998 C610.11 -7.99998 656.07 45.25 671.22 153.01 L731.79 584 L718.78 584 Z " />
<glyph glyph-name="uni01C9" unicode="&#x1c9;" horiz-adv-x="727" d="M147.04 584 L133.93 584 L51.86 0 L323.19 0 L324.89 12.11 L66.67 12.11 L147.04 584 Z M662.43 584 L601.84 152.88 C587.84 53.24 546.49 3.90001 476.93 3.90001 C447.97 3.90001 417.77 10.31 394 21.49 L390.31 10.4 C416.75 -1.29999 447.82 -7.99998 475.6 -7.99998 C553.76 -7.99998 599.72 45.25 614.87 153.01 L675.44 584 L662.43 584 Z " />
<glyph glyph-name="uni01CA" unicode="&#x1ca;" horiz-adv-x="935" d="M54.96 0 L67.3 0 L166.12 702.33 L437.92 0 L449.69 0 L552.28 730 L539.97 730 L441.15 27.67 L169.38 730 L157.55 730 L54.96 0 Z M662.78 -10 C752.07 -10 805.65 56.32 824.46 190.11 L900.33 730 L887.16 730 L811.28 190.1 C793.62 64.45 745.42 2.28001 664.32 2.28001 C628.01 2.28001 597.59 12.22 572.56 32.28 L567.6 18 C595.31 -0.719986 626.85 -9.99998 662.78 -9.99998 L662.78 -10 Z " />
<glyph glyph-name="uni01CB" unicode="&#x1cb;" horiz-adv-x="776" d="M54.96 0 L67.3 0 L166.12 702.33 L437.92 0 L449.69 0 L552.28 730 L539.97 730 L441.15 27.67 L169.38 730 L157.55 730 L54.96 0 Z M733.48 647.92 C749.84 647.92 756.74 654.86 759.44 674.05 C762.13 693.23 757.19 700.17 740.85 700.17 C724.47 700.17 717.57 693.22 714.87 674.04 C712.17 654.86 717.12 647.92 733.48 647.92 L733.48 647.92 Z M526.45 -240 C585.66 -240 620.89 -196.86 633.12 -109.84 L724.45 540 L712.13 540 L620.8 -109.83 C609.58 -189.71 579.07 -227.74 527.75 -227.74 C499.54 -227.74 480.98 -219.36 465.04 -203.74 L458.7 -216.01 C477.4 -231.27 497.13 -240 526.45 -240 L526.45 -240 Z " />
<glyph glyph-name="uni01CC" unicode="&#x1cc;" horiz-adv-x="818" d="M44.86 0 L57.19 0 L135.58 556.96 L366.5 0 L378 0 L460.08 584 L447.79 584 L369.39 27.03 L138.51 584 L126.94 584 L44.86 0 Z M566.73 -8 C644.89 -8 690.85 45.25 706 153.01 L766.57 584 L753.56 584 L692.97 152.88 C678.97 53.24 637.62 3.90001 568.05 3.90001 C539.1 3.90001 508.89 10.31 485.13 21.49 L481.43 10.4 C507.87 -1.29999 538.95 -7.99998 566.73 -7.99998 L566.73 -8 Z " />
<glyph glyph-name="uni01CD" unicode="&#x1cd;" horiz-adv-x="548" d="M350.67 769.28 L478.64 885.39 L461.62 885.39 L345.93 779.2 L260.08 885.39 L243.06 885.39 L338.39 769.28 L350.67 769.28 Z M335.03 730 L4.00998 0 L18.11 0 L114.68 213.83 L418.14 213.83 L454.61 0 L468.8 0 L343.02 730 L335.03 730 Z M120.21 226.08 L334.96 701.6 L416.05 226.08 L120.21 226.08 Z " />
<glyph glyph-name="uni01CE" unicode="&#x1ce;" horiz-adv-x="479" d="M297.4 656.96 L411.59 779.03 L395.22 779.03 L292.69 667.11 L221.62 779.03 L205.25 779.03 L285.12 656.96 L297.4 656.96 Z M276.65 584.01 L2.90999 1.52588e-05 L16.85 1.52588e-05 L96.01 169.68 L349.39 169.68 L380.86 1.52588e-05 L394.93 1.52588e-05 L285.41 584.01 L276.65 584.01 Z M101.55 181.55 L277.31 558.3 L347.19 181.55 L101.55 181.55 Z " />
<glyph glyph-name="uni01CF" unicode="&#x1cf;" horiz-adv-x="217" d="M172.72 769.28 L185.01 769.28 L312.97 885.39 L295.95 885.39 L180.26 779.2 L94.41 885.39 L77.4 885.39 L172.72 769.28 Z M64.12 0 L77.39 0 L179.98 730 L166.71 730 L64.12 0 Z " />
<glyph glyph-name="uni01D0" unicode="&#x1d0;" horiz-adv-x="198" d="M144.23 656.96 L156.51 656.96 L270.7 779.03 L254.32 779.03 L151.8 667.11 L80.73 779.03 L64.35 779.03 L144.23 656.96 Z M51.45 1.52588e-05 L64.64 1.52588e-05 L146.72 584 L133.53 584 L51.45 1.52588e-05 Z " />
<glyph glyph-name="uni01D1" unicode="&#x1d1;" horiz-adv-x="588" d="M358.21 769.28 L370.49 769.28 L498.45 885.39 L481.44 885.39 L365.74 779.2 L279.9 885.39 L262.88 885.39 L358.21 769.28 Z M254.83 -10 C402.75 -10 493.46 113.62 528.51 363 C563.93 615.05 508.16 740 360.24 740 C212.31 740 121.42 615.05 86 363 C50.95 113.62 106.91 -10 254.83 -10 L254.83 -10 Z M256.55 2.27 C116.62 2.27 65.33 121.67 99.2401 363 C133.54 607 218.57 727.72 358.51 727.72 C498.45 727.72 549.55 607 515.26 363 C481.34 121.67 396.49 2.27 256.55 2.27 L256.55 2.27 Z " />
<glyph glyph-name="uni01D2" unicode="&#x1d2;" horiz-adv-x="511" d="M300.64 656.96 L312.92 656.96 L427.1 779.03 L410.73 779.03 L308.2 667.11 L237.13 779.03 L220.76 779.03 L300.64 656.96 Z M213.33 -7.99998 C338.07 -7.99998 413.8 90.9 441.84 290.41 C470.18 492.04 422.39 592 297.65 592 C172.92 592 97.04 492.04 68.7 290.41 C40.66 90.9 88.6 -7.99998 213.33 -7.99998 L213.33 -7.99998 Z M215.02 4.06001 C97.84 4.06001 54.75 97.58 81.85 290.41 C109.25 485.4 178.78 579.96 295.96 579.96 C413.15 579.96 456.09 485.4 428.69 290.41 C401.59 97.58 332.21 4.06001 215.02 4.06001 L215.02 4.06001 Z " />
<glyph glyph-name="uni01D3" unicode="&#x1d3;" horiz-adv-x="578" d="M356.89 769.28 L369.17 769.28 L497.13 885.39 L480.12 885.39 L364.42 779.2 L278.58 885.39 L261.56 885.39 L356.89 769.28 Z M253.53 -10 C381.71 -10 456.81 72.21 480.12 238.06 L549.25 730 L536.13 730 L467 238.06 C444.83 80.33 375.38 2.28001 255.26 2.28001 C135.67 2.28001 88.41 80.33 110.58 238.06 L179.72 730 L166.54 730 L97.41 238.06 C74.1 72.21 125.84 -10 253.53 -10 L253.53 -10 Z " />
<glyph glyph-name="uni01D4" unicode="&#x1d4;" horiz-adv-x="502" d="M299.1 656.96 L311.38 656.96 L425.56 779.03 L409.19 779.03 L306.66 667.11 L235.59 779.03 L219.22 779.03 L299.1 656.96 Z M211.83 -7.99998 C319.9 -7.99998 382.74 57.94 401.44 190.96 L456.68 584 L443.72 584 L388.49 190.97 C370.81 65.19 313.95 4.12001 213.53 4.12001 C113.53 4.12001 74.05 65.19 91.73 190.97 L146.97 584 L133.93 584 L78.69 190.96 C60 57.94 104.12 -7.99998 211.83 -7.99998 L211.83 -7.99998 Z " />
<glyph glyph-name="uni01D5" unicode="&#x1d5;" horiz-adv-x="578" d="M258.18 948.05 L519.34 948.05 L521.05 960.29 L259.9 960.29 L258.18 948.05 Z M306.17 787.97 C322.47 787.97 330.13 794.91 332.82 814.08 C335.52 833.25 329.82 840.19 313.53 840.19 C297.23 840.19 289.58 833.25 286.88 814.08 C284.19 794.91 289.89 787.97 306.17 787.97 L306.17 787.97 Z M424.71 787.97 C441.01 787.97 448.67 794.91 451.36 814.08 C454.06 833.25 448.35 840.19 432.07 840.19 C415.77 840.19 408.12 833.25 405.42 814.08 C402.73 794.91 408.43 787.97 424.71 787.97 L424.71 787.97 Z M253.53 -10 C381.71 -10 456.81 72.21 480.12 238.06 L549.25 730 L536.13 730 L467 238.06 C444.83 80.33 375.38 2.28001 255.26 2.28001 C135.67 2.28001 88.41 80.33 110.58 238.06 L179.72 730 L166.54 730 L97.41 238.06 C74.1001 72.21 125.84 -10 253.53 -10 L253.53 -10 Z " />
<glyph glyph-name="uni01D6" unicode="&#x1d6;" horiz-adv-x="502" d="M209.43 822.09 L447.47 822.09 L449.19 834.32 L211.15 834.32 L209.43 822.09 Z M254.92 691.93 C271.22 691.93 278.88 698.87 281.57 718.04 C284.27 737.21 278.57 744.15 262.28 744.15 C245.98 744.15 238.33 737.21 235.63 718.04 C232.94 698.87 238.64 691.93 254.92 691.93 L254.92 691.93 Z M365.37 691.93 C381.67 691.93 389.33 698.87 392.02 718.04 C394.72 737.21 389.01 744.15 372.73 744.15 C356.43 744.15 348.78 737.21 346.08 718.04 C343.39 698.87 349.09 691.93 365.37 691.93 L365.37 691.93 Z M211.83 -8 C319.9 -8 382.74 57.94 401.44 190.96 L456.68 584 L443.72 584 L388.49 190.97 C370.81 65.19 313.95 4.12 213.53 4.12 C113.53 4.12 74.05 65.19 91.73 190.97 L146.97 584 L133.93 584 L78.69 190.96 C60 57.94 104.12 -8 211.83 -8 L211.83 -8 Z " />
<glyph glyph-name="uni01D7" unicode="&#x1d7;" horiz-adv-x="578" d="M379.04 879.4 L533.56 972.18 L528.97 983.81 L375.87 887.45 L379.04 879.4 Z M306.17 787.97 C322.47 787.97 330.13 794.91 332.82 814.08 C335.52 833.25 329.82 840.19 313.53 840.19 C297.23 840.19 289.58 833.25 286.88 814.08 C284.19 794.91 289.89 787.97 306.17 787.97 L306.17 787.97 Z M424.71 787.97 C441.01 787.97 448.67 794.91 451.36 814.08 C454.06 833.25 448.35 840.19 432.07 840.19 C415.77 840.19 408.12 833.25 405.42 814.08 C402.73 794.91 408.43 787.97 424.71 787.97 L424.71 787.97 Z M253.53 -10 C381.71 -10 456.81 72.21 480.12 238.06 L549.25 730 L536.13 730 L467 238.06 C444.83 80.33 375.38 2.28001 255.26 2.28001 C135.67 2.28001 88.41 80.33 110.58 238.06 L179.72 730 L166.54 730 L97.41 238.06 C74.1 72.21 125.84 -10 253.53 -10 L253.53 -10 Z " />
<glyph glyph-name="uni01D8" unicode="&#x1d8;" horiz-adv-x="502" d="M317.07 780.08 L460.3 901.41 L453.67 911.75 L312.48 787.25 L317.07 780.08 Z M254.92 691.93 C271.22 691.93 278.88 698.87 281.57 718.04 C284.27 737.21 278.57 744.15 262.28 744.15 C245.98 744.15 238.33 737.21 235.63 718.04 C232.94 698.87 238.64 691.93 254.92 691.93 L254.92 691.93 Z M365.37 691.93 C381.67 691.93 389.33 698.87 392.02 718.04 C394.72 737.21 389.01 744.15 372.73 744.15 C356.43 744.15 348.78 737.21 346.08 718.04 C343.39 698.87 349.09 691.93 365.37 691.93 L365.37 691.93 Z M211.83 -8 C319.9 -8 382.74 57.94 401.44 190.96 L456.68 584 L443.72 584 L388.49 190.97 C370.81 65.19 313.95 4.12 213.53 4.12 C113.53 4.12 74.05 65.19 91.73 190.97 L146.97 584 L133.93 584 L78.69 190.96 C60 57.94 104.12 -8 211.83 -8 L211.83 -8 Z " />
<glyph glyph-name="uni01D9" unicode="&#x1d9;" horiz-adv-x="578" d="M370.97 869.49 L383.25 869.49 L511.22 985.6 L494.2 985.6 L378.5 879.4 L292.66 985.6 L275.64 985.6 L370.97 869.49 Z M306.17 787.97 C322.47 787.97 330.13 794.91 332.82 814.08 C335.52 833.25 329.82 840.19 313.53 840.19 C297.23 840.19 289.58 833.25 286.88 814.08 C284.19 794.91 289.89 787.97 306.17 787.97 L306.17 787.97 Z M424.71 787.97 C441.01 787.97 448.67 794.91 451.36 814.08 C454.06 833.25 448.35 840.19 432.07 840.19 C415.77 840.19 408.12 833.25 405.42 814.08 C402.73 794.91 408.43 787.97 424.71 787.97 L424.71 787.97 Z M253.53 -10 C381.71 -10 456.81 72.21 480.12 238.06 L549.25 730 L536.13 730 L467 238.06 C444.83 80.33 375.38 2.28001 255.26 2.28001 C135.67 2.28001 88.41 80.33 110.58 238.06 L179.72 730 L166.54 730 L97.41 238.06 C74.1 72.21 125.84 -10 253.53 -10 L253.53 -10 Z " />
<glyph glyph-name="uni01DA" unicode="&#x1da;" horiz-adv-x="502" d="M316.83 783.1 L329.1 783.1 L443.29 905.17 L426.92 905.17 L324.39 793.25 L253.32 905.17 L236.95 905.17 L316.83 783.1 Z M254.92 691.93 C271.22 691.93 278.88 698.87 281.57 718.04 C284.27 737.21 278.57 744.15 262.28 744.15 C245.98 744.15 238.33 737.21 235.63 718.04 C232.94 698.87 238.64 691.93 254.92 691.93 L254.92 691.93 Z M365.37 691.93 C381.67 691.93 389.33 698.87 392.02 718.04 C394.72 737.21 389.01 744.15 372.73 744.15 C356.43 744.15 348.78 737.21 346.08 718.04 C343.39 698.87 349.09 691.93 365.37 691.93 L365.37 691.93 Z M211.83 -7.99998 C319.9 -7.99998 382.74 57.94 401.44 190.96 L456.68 584 L443.72 584 L388.49 190.97 C370.81 65.19 313.95 4.12001 213.53 4.12001 C113.53 4.12001 74.05 65.19 91.73 190.97 L146.97 584 L133.93 584 L78.69 190.96 C60 57.94 104.12 -7.99998 211.83 -7.99998 L211.83 -7.99998 Z " />
<glyph glyph-name="uni01DB" unicode="&#x1db;" horiz-adv-x="578" d="M377.65 877.4 L383.08 885.46 L257.06 981.82 L249.2 970.19 L377.65 877.4 Z M306.17 787.97 C322.47 787.97 330.13 794.91 332.82 814.08 C335.52 833.25 329.82 840.19 313.53 840.19 C297.23 840.19 289.58 833.25 286.88 814.08 C284.19 794.91 289.89 787.97 306.17 787.97 L306.17 787.97 Z M424.71 787.97 C441.01 787.97 448.67 794.91 451.36 814.08 C454.06 833.25 448.35 840.19 432.07 840.19 C415.77 840.19 408.12 833.25 405.42 814.08 C402.73 794.91 408.43 787.97 424.71 787.97 L424.71 787.97 Z M253.53 -10 C381.71 -10 456.81 72.21 480.12 238.06 L549.25 730 L536.13 730 L467 238.06 C444.83 80.33 375.38 2.28 255.26 2.28 C135.67 2.28 88.41 80.33 110.58 238.06 L179.72 730 L166.54 730 L97.41 238.06 C74.1 72.21 125.84 -10 253.53 -10 L253.53 -10 Z " />
<glyph glyph-name="uni01DC" unicode="&#x1dc;" horiz-adv-x="502" d="M326.06 779.08 L332.67 786.25 L226.47 910.75 L216.93 900.41 L326.06 779.08 Z M254.92 691.93 C271.22 691.93 278.88 698.87 281.57 718.04 C284.27 737.21 278.57 744.15 262.28 744.15 C245.98 744.15 238.33 737.21 235.63 718.04 C232.94 698.87 238.64 691.93 254.92 691.93 L254.92 691.93 Z M365.37 691.93 C381.67 691.93 389.33 698.87 392.02 718.04 C394.72 737.21 389.01 744.15 372.73 744.15 C356.43 744.15 348.78 737.21 346.08 718.04 C343.39 698.87 349.09 691.93 365.37 691.93 L365.37 691.93 Z M211.83 -7.99998 C319.9 -7.99998 382.74 57.94 401.44 190.96 L456.68 584 L443.72 584 L388.49 190.97 C370.81 65.19 313.95 4.12001 213.53 4.12001 C113.53 4.12001 74.05 65.19 91.73 190.97 L146.97 584 L133.93 584 L78.69 190.96 C60 57.94 104.12 -7.99998 211.83 -7.99998 L211.83 -7.99998 Z " />
<glyph glyph-name="uni01EA" unicode="&#x1ea;" horiz-adv-x="588" d="M360.24 740 C212.31 740 121.42 615.05 86 363 C50.95 113.62 106.91 -10 254.83 -10 C264.96 -10 274.83 -9.42 284.42 -8.25999 C234.05 -36.57 201.66 -77.54 195.41 -122.03 C189.24 -165.93 206.82 -191.09 243.68 -191.09 C261.27 -191.09 279.11 -186.77 297.53 -178.07 L294.69 -165.83 C280 -175.21 264.02 -179.86 246.48 -179.86 C216.38 -179.86 202.14 -158.77 207.31 -121.95 C213.99 -74.41 252.84 -31.1 314.7 -2.43999 C427.52 27.86 498.46 149.23 528.51 363 C563.93 615.05 508.16 740 360.24 740 L360.24 740 Z M515.26 363 C481.34 121.67 396.49 2.27002 256.55 2.27002 C116.62 2.27002 65.33 121.67 99.24 363 C133.54 607 218.57 727.72 358.51 727.72 C498.45 727.72 549.55 607 515.26 363 L515.26 363 Z " />
<glyph glyph-name="uni01EB" unicode="&#x1eb;" horiz-adv-x="511" d="M297.65 592 C172.92 592 97.04 492.04 68.7 290.41 C40.66 90.9 88.6 -8 213.33 -8 C220.71 -8 227.92 -7.66 234.95 -6.96001 C183.25 -35.31 149.95 -76.85 143.6 -122.03 C137.43 -165.93 155.02 -191.09 191.87 -191.09 C209.46 -191.09 227.3 -186.77 245.72 -178.07 L242.88 -165.83 C228.19 -175.21 212.21 -179.86 194.67 -179.86 C164.57 -179.86 150.33 -158.77 155.5 -121.95 C162.23 -74.08 201.56 -30.51 264.17 -1.84998 C358.89 22.56 417.84 119.63 441.84 290.41 C470.18 492.04 422.39 592 297.65 592 L297.65 592 Z M428.69 290.41 C401.59 97.58 332.21 4.06004 215.02 4.06004 C97.84 4.06004 54.75 97.58 81.85 290.41 C109.25 485.4 178.78 579.96 295.96 579.96 C413.15 579.96 456.09 485.4 428.69 290.41 L428.69 290.41 Z " />
<glyph glyph-name="uni01F1" unicode="&#x1f1;" horiz-adv-x="1024" d="M63.95 0 L222.73 0 C381.4 0 476.97 120.31 511.08 363 C545.56 608.36 484 730 325.32 730 L166.54 730 L63.95 0 Z M570.94 0 L929.2 0 L930.93 12.28 L588.18 12.28 L1030.27 718.79 L1031.73 730 L686.37 730 L684.64 717.72 L1015.7 717.72 L572.4 11.21 L570.94 0 Z M78.85 12.26 L177.99 717.74 L323.6 717.74 C474.34 717.74 531.19 600.33 497.83 363 C464.86 128.35 375.19 12.26 224.45 12.26 L78.85 12.26 Z " />
<glyph glyph-name="uni01F2" unicode="&#x1f2;" horiz-adv-x="966" d="M63.95 0 L222.73 0 C381.4 0 476.97 120.31 511.08 363 C545.56 608.36 484 730 325.32 730 L166.54 730 L63.95 0 Z M78.85 12.26 L177.99 717.74 L323.6 717.74 C474.34 717.74 531.19 600.33 497.83 363 C464.86 128.35 375.19 12.26 224.45 12.26 L78.85 12.26 Z M566.84 0 L868.91 0 L870.62 12.11 L584.01 12.11 L949.51 573.3 L950.9 584 L659.69 584 L658 571.94 L935.07 571.94 L568.23 10.72 L566.84 0 Z " />
<glyph glyph-name="uni01F3" unicode="&#x1f3;" horiz-adv-x="894" d="M51.86 0 L186.22 0 C319.87 0 399.64 96.25 426.93 290.41 C454.52 486.69 401.94 584 268.3 584 L133.93 584 L51.86 0 Z M495.08 0 L797.16 0 L798.86 12.11 L513.15 12.11 L877.64 573.3 L879.15 584 L587.94 584 L586.24 571.94 L861.42 571.94 L496.59 10.72 L495.08 0 Z M66.57 11.93 L145.29 572.09 L266.62 572.09 C392.79 572.09 440.44 480.11 413.78 290.41 C387.43 102.87 314.07 11.93 187.9 11.93 L66.57 11.93 Z " />
<glyph glyph-name="uni01F4" unicode="&#x1f4;" horiz-adv-x="558" d="M512.33 870.26 L507.74 881.89 L354.64 785.53 L357.81 777.47 L512.33 870.26 Z M86 363 C50.96 113.67 109.74 -10 262.48 -10 C333.58 -10 391.53 21.14 436.51 83.97 L437.33 83.97 L426.66 0 L435.28 0 L484.2 348.1 L298.26 348.1 L296.68 336.85 L470.66 336.85 L437.53 101.11 C393.55 34.69 336.44 2.26001 265.06 2.26001 C118.64 2.26001 65.31 121.66 99.23 363 C133.52 607 227.25 727.73 385.14 727.73 C432.95 727.73 470.57 717.78 498.66 697.72 L504.23 710.99 C471.18 730.38 432.24 739.99 386.75 739.99 C221.1 739.99 121.42 615.04 86 362.99 L86 363 Z " />
<glyph glyph-name="uni01F5" unicode="&#x1f5;" horiz-adv-x="485" d="M425.59 781.44 L418.96 791.78 L277.76 667.28 L282.35 660.11 L425.59 781.44 Z M68.7 290.41 C40.72 91.34 90.93 -8 219.05 -8 C278.63 -8 327.03 16.83 364.42 66.92 L365.24 66.92 L356.9 0 L365.12 0 L404.38 279.3 L247.63 279.3 L246.09 268.32 L391.12 268.32 L364.91 81.82 C328.73 29.52 281.45 3.98001 222.14 3.98001 C99.53 3.98001 54.71 97.51 81.82 290.41 C109.24 485.48 186 580.06 318.43 580.06 C358.52 580.06 390.14 572.09 413.82 556.02 L419.07 568.84 C391.16 584.32 358.3 592 319.92 592 C180.3 592 97.04 492.04 68.7 290.41 L68.7 290.41 Z " />
<glyph glyph-name="Aringacute" unicode="&#x1fa;" horiz-adv-x="548" d="M500.16 1040.12 L495.57 1051.75 L342.46 955.39 L345.63 947.34 L500.16 1040.12 Z M432.28 820.53 C440.72 880.61 416.44 915.04 365.61 915.04 C314.05 915.04 279.58 880.05 271 818.98 C262.73 760.18 284.87 725.56 331.89 723.07 L4.00999 -3.05176e-05 L18.11 -3.05176e-05 L114.68 213.83 L418.14 213.83 L454.61 -3.05176e-05 L468.8 -3.05176e-05 L344.21 723.13 C392.02 726.13 423.94 761.23 432.28 820.53 L432.28 820.53 Z M281.76 818.98 C289.35 872.96 319.02 903.84 363.95 903.84 C408.25 903.84 428.95 873.45 421.48 820.32 C413.78 765.49 384.04 734.12 339.11 734.12 C294.81 734.12 274.17 765 281.76 818.98 L281.76 818.98 Z M120.21 226.08 L334.96 701.6 L416.05 226.08 L120.21 226.08 Z " />
<glyph glyph-name="aringacute" unicode="&#x1fb;" horiz-adv-x="479" d="M433.65 927.36 L427.02 937.7 L285.83 813.19 L290.42 806.02 L433.65 927.36 Z M374.42 675.53 C382.86 735.61 358.58 770.04 307.76 770.04 C256.19 770.04 221.72 735.05 213.14 673.98 C204.88 615.25 226.96 580.63 273.87 578.07 L2.90997 -1.52588e-05 L16.85 -1.52588e-05 L96.01 169.68 L349.39 169.68 L380.86 -1.52588e-05 L394.93 -1.52588e-05 L286.51 578.14 C334.24 581.21 366.09 616.3 374.42 675.53 L374.42 675.53 Z M223.9 673.98 C231.49 727.96 261.16 758.84 306.09 758.84 C350.39 758.84 371.09 728.45 363.62 675.32 C355.92 620.48 326.18 589.12 281.25 589.12 C236.95 589.12 216.31 620 223.9 673.98 L223.9 673.98 Z M101.55 181.55 L277.31 558.3 L347.19 181.55 L101.55 181.55 Z " />
<glyph glyph-name="AEacute" unicode="&#x1fc;" horiz-adv-x="816" d="M675.99 870.06 L671.4 881.69 L518.29 785.34 L521.46 777.28 L675.99 870.06 Z M814.77 717.74 L816.49 730 L495.53 730 L4.00999 0 L19.19 0 L162.88 213.83 L426.17 213.83 L396.12 0 L722.08 0 L723.8 12.26 L411.01 12.26 L460.43 363.88 L740.55 363.88 L742.28 376.13 L462.15 376.13 L510.15 717.74 L814.77 717.74 Z M427.88 226.08 L171.11 226.08 L495.78 709.21 L427.88 226.08 Z " />
<glyph glyph-name="aeacute" unicode="&#x1fd;" horiz-adv-x="704" d="M567.07 781.29 L560.44 791.63 L419.25 667.12 L423.84 659.96 L567.07 781.29 Z M684 572.11 L685.67 584 L414.38 584 L6 -1.52588e-05 L21 -1.52588e-05 L139.49 169.68 L359.57 169.68 L335.72 -1.52588e-05 L610.49 -1.52588e-05 L612.17 11.93 L350.43 11.93 L389.52 290.11 L623.8 290.11 L625.47 301.97 L391.19 301.97 L429.15 572.11 L684 572.11 Z M361.24 181.55 L147.77 181.55 L415.03 564.29 L361.24 181.55 Z " />
<glyph glyph-name="Oslashacute" unicode="&#x1fe;" horiz-adv-x="588" d="M496.07 870.06 L491.49 881.69 L338.38 785.34 L341.55 777.28 L496.07 870.06 Z M550.05 784.36 L541.24 790 L485.03 690.4 C455.57 723.5 413.99 740 360.24 740 C212.31 740 121.42 615.05 86 363 C64.8 212.15 76.9 107.31 122.51 48.02 L64.85 -54.15 L73.54 -60 L129.65 39.42 C159.18 6.44 200.89 -10 254.83 -10 C402.75 -10 493.46 113.62 528.51 363 C549.98 515.82 537.94 621.91 492.15 681.77 L550.05 784.36 Z M99.24 363 C133.54 607 218.57 727.72 358.51 727.72 C410.48 727.72 450.19 711.07 477.84 677.64 L129.93 61.17 C89.05 118.96 79.06 219.39 99.24 362.99 L99.24 363 Z M515.26 362.99 C481.34 121.66 396.49 2.26001 256.55 2.26001 C204.4 2.26001 164.55 18.85 136.85 52.16 L484.73 668.6 C525.78 610.24 535.72 508.55 515.26 362.99 L515.26 362.99 Z " />
<glyph glyph-name="oslashacute" unicode="&#x1ff;" horiz-adv-x="511" d="M412.32 781.29 L405.69 791.63 L264.5 667.12 L269.09 659.96 L412.32 781.29 Z M457.92 627.17 L450.12 632 L403.29 552.21 C378.24 578.76 343.04 592 297.65 592 C172.92 592 97.04 492.04 68.7 290.41 C51.71 169.56 62.61 85.62 101.56 38.22 L53.88 -43.01 L61.58 -48 L107.97 31.02 C133.04 4.98001 168.14 -7.99998 213.33 -7.99998 C338.07 -7.99998 413.8 90.9 441.84 290.41 C458.96 412.25 448.29 496.96 409.64 544.93 L457.92 627.17 Z M81.85 290.41 C109.25 485.4 178.78 579.96 295.96 579.96 C339.64 579.96 373.01 566.82 396.26 540.24 L108.79 50.54 C74.44 96.19 65.73 175.74 81.85 290.41 L81.85 290.41 Z M428.69 290.41 C401.59 97.58 332.21 4.06 215.02 4.06 C171.55 4.06 138.27 16.93 114.99 42.98 L402.4 532.59 C436.45 486.37 444.94 406.05 428.69 290.41 L428.69 290.41 Z " />
<glyph glyph-name="uni0200" unicode="&#x200;" horiz-adv-x="548" d="M294.32 762.37 L264.09 945.81 L251.41 941.02 L285.53 759.05 L294.32 762.37 Z M393.3 762.37 L363.07 945.81 L350.39 941.02 L384.51 759.05 L393.3 762.37 Z M454.61 1.52588e-05 L468.8 1.52588e-05 L343.02 730 L335.03 730 L4.01003 1.52588e-05 L18.11 1.52588e-05 L114.68 213.83 L418.14 213.83 L454.61 1.52588e-05 Z M120.21 226.08 L334.96 701.6 L416.05 226.08 L120.21 226.08 Z " />
<glyph glyph-name="uni0201" unicode="&#x201;" horiz-adv-x="479" d="M239.14 636.37 L208.91 819.81 L196.23 815.02 L230.35 633.05 L239.14 636.37 Z M338.11 636.37 L307.88 819.81 L295.2 815.02 L329.32 633.05 L338.11 636.37 Z M380.86 1.52588e-05 L394.93 1.52588e-05 L285.41 584.01 L276.65 584.01 L2.91 1.52588e-05 L16.85 1.52588e-05 L96.01 169.68 L349.39 169.68 L380.86 1.52588e-05 Z M101.55 181.55 L277.31 558.3 L347.19 181.55 L101.55 181.55 Z " />
<glyph glyph-name="uni0202" unicode="&#x202;" horiz-adv-x="548" d="M355.69 851.12 C412.48 851.12 440.38 824.15 440.21 769.47 L451.17 769.27 C451.22 832.08 420.1 863.22 357.29 863.22 C295.37 863.22 256.02 832.57 238.56 770.74 L249.55 770.74 C264.61 824.57 299.65 851.12 355.69 851.12 L355.69 851.12 Z M454.61 1.52588e-05 L468.8 1.52588e-05 L343.02 730 L335.03 730 L4.00998 1.52588e-05 L18.11 1.52588e-05 L114.68 213.83 L418.14 213.83 L454.61 1.52588e-05 Z M120.21 226.08 L334.96 701.6 L416.05 226.08 L120.21 226.08 Z " />
<glyph glyph-name="uni0203" unicode="&#x203;" horiz-adv-x="479" d="M305.98 765.08 C355.26 765.08 378.41 736.54 376.83 678.87 L387.44 678.66 C389.1 744.62 362.64 777.32 307.61 777.32 C253.36 777.32 218.17 745.13 201.44 680.21 L212.08 680.21 C226.57 736.98 257.36 765.08 305.98 765.08 L305.98 765.08 Z M380.86 1.52588e-05 L394.93 1.52588e-05 L285.41 584.01 L276.65 584.01 L2.90999 1.52588e-05 L16.85 1.52588e-05 L96.02 169.68 L349.38 169.68 L380.86 1.52588e-05 Z M101.55 181.55 L277.31 558.26 L347.18 181.55 L101.55 181.55 Z " />
<glyph glyph-name="uni0204" unicode="&#x204;" horiz-adv-x="493" d="M285.25 762.37 L255.02 945.81 L242.34 941.02 L276.45 759.05 L285.25 762.37 Z M384.22 762.37 L353.99 945.81 L341.31 941.02 L375.43 759.05 L384.22 762.37 Z M490.76 717.74 L492.48 730 L166.54 730 L63.95 1.52588e-05 L398.07 1.52588e-05 L399.79 12.26 L78.85 12.26 L128.26 363.88 L416.55 363.88 L418.27 376.13 L129.98 376.13 L178 717.74 L490.76 717.74 Z " />
<glyph glyph-name="uni0205" unicode="&#x205;" horiz-adv-x="430" d="M229.79 636.37 L199.55 819.81 L186.87 815.02 L220.99 633.05 L229.79 636.37 Z M328.76 636.37 L298.53 819.81 L285.85 815.02 L319.97 633.05 L328.76 636.37 Z M406.99 572.11 L408.66 584 L133.93 584 L51.86 1.52588e-05 L333.48 1.52588e-05 L335.16 11.93 L66.57 11.93 L105.66 290.11 L346.8 290.11 L348.47 301.97 L107.33 301.97 L145.3 572.11 L406.99 572.11 Z " />
<glyph glyph-name="uni0206" unicode="&#x206;" horiz-adv-x="493" d="M346.61 851.12 C403.4 851.12 431.3 824.15 431.13 769.47 L442.1 769.27 C442.14 832.08 411.03 863.22 348.22 863.22 C286.29 863.22 246.94 832.57 229.48 770.74 L240.47 770.74 C255.54 824.57 290.57 851.12 346.61 851.12 L346.61 851.12 Z M490.76 717.74 L492.48 730 L166.54 730 L63.95 0 L398.07 0 L399.79 12.26 L78.85 12.26 L128.26 363.88 L416.55 363.88 L418.27 376.13 L129.98 376.13 L178 717.74 L490.76 717.74 Z " />
<glyph glyph-name="uni0207" unicode="&#x207;" horiz-adv-x="430" d="M296.63 765.08 C345.91 765.08 369.06 736.54 367.48 678.87 L378.09 678.66 C379.74 744.62 353.29 777.32 298.26 777.32 C244.01 777.32 208.82 745.13 192.09 680.21 L202.73 680.21 C217.22 736.98 248 765.08 296.63 765.08 L296.63 765.08 Z M406.99 572.11 L408.66 584 L133.93 584 L51.86 1.52588e-05 L333.48 1.52588e-05 L335.16 11.93 L66.57 11.93 L105.66 290.11 L346.8 290.11 L348.46 301.97 L107.33 301.97 L145.3 572.11 L406.99 572.11 Z " />
<glyph glyph-name="uni0208" unicode="&#x208;" horiz-adv-x="218" d="M120.3 759.05 L129.09 762.37 L98.86 945.81 L86.18 941.02 L120.3 759.05 Z M219.27 759.05 L228.06 762.37 L197.83 945.81 L185.15 941.02 L219.27 759.05 Z M64.55 3.05176e-05 L77.82 3.05176e-05 L180.41 730 L167.14 730 L64.55 3.05176e-05 Z " />
<glyph glyph-name="uni0209" unicode="&#x209;" horiz-adv-x="199" d="M89.5 633.05 L98.29 636.37 L68.06 819.81 L55.38 815.02 L89.5 633.05 Z M188.47 633.05 L197.26 636.37 L167.03 819.81 L154.35 815.02 L188.47 633.05 Z M51.5 3.05176e-05 L64.68 3.05176e-05 L146.76 584 L133.57 584 L51.5 3.05176e-05 Z " />
<glyph glyph-name="uni020A" unicode="&#x20a;" horiz-adv-x="217" d="M191.06 863.22 C129.13 863.22 89.78 832.57 72.32 770.74 L83.31 770.74 C98.38 824.57 133.41 851.12 189.45 851.12 C246.24 851.12 274.14 824.15 273.97 769.47 L284.94 769.27 C284.98 832.08 253.87 863.22 191.06 863.22 L191.06 863.22 Z M63.55 1.52588e-05 L76.82 1.52588e-05 L179.41 730 L166.14 730 L63.55 1.52588e-05 Z " />
<glyph glyph-name="uni020B" unicode="&#x20b;" horiz-adv-x="199" d="M167.12 777.32 C112.87 777.32 77.68 745.13 60.95 680.21 L71.59 680.21 C86.08 736.98 116.86 765.08 165.49 765.08 C214.77 765.08 237.92 736.54 236.34 678.87 L246.95 678.66 C248.6 744.62 222.15 777.32 167.12 777.32 L167.12 777.32 Z M51.86 1.52588e-05 L65.04 1.52588e-05 L147.12 584 L133.93 584 L51.86 1.52588e-05 Z " />
<glyph glyph-name="uni020C" unicode="&#x20c;" horiz-adv-x="588" d="M305.35 759.05 L314.14 762.37 L283.91 945.81 L271.23 941.02 L305.35 759.05 Z M404.32 759.05 L413.12 762.37 L382.88 945.81 L370.2 941.02 L404.32 759.05 Z M254.83 -9.99997 C402.75 -9.99997 493.46 113.62 528.51 363 C563.93 615.05 508.16 740 360.24 740 C212.31 740 121.42 615.05 86 363 C50.95 113.62 106.91 -9.99997 254.83 -9.99997 L254.83 -9.99997 Z M256.55 2.27003 C116.62 2.27003 65.33 121.67 99.2401 363 C133.54 607 218.57 727.72 358.51 727.72 C498.45 727.72 549.55 607 515.26 363 C481.34 121.67 396.49 2.27003 256.55 2.27003 L256.55 2.27003 Z " />
<glyph glyph-name="uni020D" unicode="&#x20d;" horiz-adv-x="511" d="M245.86 633.05 L254.65 636.37 L224.42 819.81 L211.74 815.02 L245.86 633.05 Z M344.83 633.05 L353.63 636.37 L323.4 819.81 L310.72 815.02 L344.83 633.05 Z M213.33 -7.99997 C338.07 -7.99997 413.8 90.9 441.84 290.41 C470.18 492.04 422.39 592 297.65 592 C172.92 592 97.04 492.04 68.7 290.41 C40.66 90.9 88.6 -7.99997 213.33 -7.99997 L213.33 -7.99997 Z M215.02 4.06003 C97.84 4.06003 54.75 97.58 81.85 290.41 C109.25 485.4 178.78 579.96 295.96 579.96 C413.15 579.96 456.09 485.4 428.69 290.41 C401.59 97.58 332.21 4.06003 215.02 4.06003 L215.02 4.06003 Z " />
<glyph glyph-name="uni020E" unicode="&#x20e;" horiz-adv-x="588" d="M377.11 863.22 C315.19 863.22 275.83 832.57 258.37 770.74 L269.37 770.74 C284.43 824.57 319.46 851.12 375.5 851.12 C432.3 851.12 460.19 824.15 460.02 769.47 L470.99 769.27 C471.03 832.08 439.92 863.22 377.11 863.22 L377.11 863.22 Z M254.83 -9.99998 C402.75 -9.99998 493.46 113.62 528.51 363 C563.93 615.05 508.16 740 360.24 740 C212.31 740 121.42 615.05 86 363 C50.95 113.62 106.91 -9.99998 254.83 -9.99998 L254.83 -9.99998 Z M256.55 2.27002 C116.62 2.27002 65.33 121.67 99.24 363 C133.54 607 218.57 727.72 358.51 727.72 C498.45 727.72 549.55 607 515.26 363 C481.34 121.67 396.49 2.27002 256.55 2.27002 L256.55 2.27002 Z " />
<glyph glyph-name="uni020F" unicode="&#x20f;" horiz-adv-x="511" d="M323.13 777.32 C268.87 777.32 233.69 745.13 216.96 680.21 L227.6 680.21 C242.08 736.98 272.87 765.08 321.5 765.08 C370.77 765.08 393.93 736.54 392.35 678.87 L402.96 678.66 C404.61 744.62 378.15 777.32 323.13 777.32 L323.13 777.32 Z M213.33 -7.99998 C338.07 -7.99998 413.8 90.9 441.84 290.41 C470.18 492.04 422.39 592 297.65 592 C172.92 592 97.04 492.04 68.7 290.41 C40.66 90.9 88.6 -7.99998 213.33 -7.99998 L213.33 -7.99998 Z M215.02 4.06001 C97.84 4.06001 54.75 97.58 81.85 290.41 C109.25 485.4 178.78 579.96 295.96 579.96 C413.15 579.96 456.09 485.4 428.69 290.41 C401.59 97.58 332.21 4.06001 215.02 4.06001 L215.02 4.06001 Z " />
<glyph glyph-name="uni0210" unicode="&#x210;" horiz-adv-x="507" d="M266.83 759.05 L275.62 762.37 L245.39 945.81 L232.71 941.02 L266.83 759.05 Z M365.8 759.05 L374.6 762.37 L344.37 945.81 L331.69 941.02 L365.8 759.05 Z M63.95 3.05176e-05 L77.12 3.05176e-05 L123.91 332.9 L260.55 332.9 L403.39 3.05176e-05 L419.46 3.05176e-05 L274.8 333 C390.87 335.7 463.35 407.82 480.79 531.95 C498.49 657.88 443.92 730 330.32 730 L166.54 730 L63.95 3.05176e-05 Z M125.58 345.14 L177.95 717.76 L328.45 717.76 C434.34 717.76 484.3 650.16 467.69 531.95 C450.98 413.1 381.39 345.14 274.48 345.14 L125.58 345.14 Z " />
<glyph glyph-name="uni0211" unicode="&#x211;" horiz-adv-x="443" d="M213.28 633.05 L222.08 636.37 L191.84 819.81 L179.16 815.02 L213.28 633.05 Z M312.26 633.05 L321.05 636.37 L290.82 819.81 L278.14 815.02 L312.26 633.05 Z M51.86 3.05176e-05 L64.89 3.05176e-05 L102.21 265.56 L215.38 265.56 L336.42 3.05176e-05 L352.19 3.05176e-05 L229.4 265.85 C326.36 268.5 386.42 326.04 400.35 425.16 C414.57 526.38 368.36 584 272.58 584 L133.93 584 L51.86 3.05176e-05 Z M103.79 277.29 L145.24 572.23 L270.64 572.23 C359.11 572.23 400.68 519.47 387.43 425.16 C374.1 330.33 317.19 277.29 227.85 277.29 L103.79 277.29 Z " />
<glyph glyph-name="uni0212" unicode="&#x212;" horiz-adv-x="507" d="M338.59 863.22 C276.67 863.22 237.32 832.57 219.85 770.74 L230.85 770.74 C245.91 824.57 280.95 851.12 336.99 851.12 C393.78 851.12 421.67 824.15 421.5 769.47 L432.47 769.27 C432.51 832.08 401.4 863.22 338.59 863.22 L338.59 863.22 Z M63.95 1.52588e-05 L77.12 1.52588e-05 L123.91 332.9 L260.55 332.9 L403.39 1.52588e-05 L419.46 1.52588e-05 L274.8 333 C390.87 335.7 463.35 407.82 480.79 531.95 C498.49 657.88 443.92 730 330.32 730 L166.54 730 L63.95 1.52588e-05 Z M125.58 345.14 L177.95 717.76 L328.45 717.76 C434.34 717.76 484.3 650.16 467.69 531.95 C450.98 413.1 381.39 345.14 274.48 345.14 L125.58 345.14 Z " />
<glyph glyph-name="uni0213" unicode="&#x213;" horiz-adv-x="443" d="M290.55 777.32 C236.3 777.32 201.11 745.13 184.38 680.21 L195.02 680.21 C209.51 736.98 240.29 765.08 288.92 765.08 C338.2 765.08 361.35 736.54 359.77 678.87 L370.38 678.66 C372.03 744.62 345.57 777.32 290.55 777.32 L290.55 777.32 Z M51.86 1.52588e-05 L64.89 1.52588e-05 L102.21 265.56 L215.38 265.56 L336.42 1.52588e-05 L352.19 1.52588e-05 L229.4 265.85 C326.36 268.5 386.42 326.04 400.35 425.16 C414.57 526.38 368.36 584 272.58 584 L133.93 584 L51.86 1.52588e-05 Z M103.79 277.29 L145.24 572.23 L270.64 572.23 C359.11 572.23 400.68 519.47 387.43 425.16 C374.1 330.33 317.19 277.29 227.85 277.29 L103.79 277.29 Z " />
<glyph glyph-name="uni0214" unicode="&#x214;" horiz-adv-x="578" d="M304.03 759.05 L312.82 762.37 L282.59 945.81 L269.91 941.02 L304.03 759.05 Z M403 759.05 L411.8 762.37 L381.56 945.81 L368.88 941.02 L403 759.05 Z M253.53 -9.99997 C381.71 -9.99997 456.81 72.21 480.12 238.06 L549.25 730 L536.13 730 L467 238.06 C444.83 80.33 375.38 2.28004 255.26 2.28004 C135.67 2.28004 88.41 80.33 110.58 238.06 L179.72 730 L166.54 730 L97.41 238.06 C74.1 72.21 125.84 -9.99997 253.53 -9.99997 L253.53 -9.99997 Z " />
<glyph glyph-name="uni0215" unicode="&#x215;" horiz-adv-x="502" d="M244.32 633.05 L253.11 636.37 L222.88 819.81 L210.2 815.02 L244.32 633.05 Z M343.29 633.05 L352.09 636.37 L321.86 819.81 L309.18 815.02 L343.29 633.05 Z M211.83 -7.99997 C319.9 -7.99997 382.74 57.94 401.44 190.96 L456.68 584 L443.72 584 L388.49 190.97 C370.81 65.19 313.95 4.12003 213.53 4.12003 C113.53 4.12003 74.05 65.19 91.73 190.97 L146.97 584 L133.93 584 L78.69 190.96 C60 57.94 104.12 -7.99997 211.83 -7.99997 L211.83 -7.99997 Z " />
<glyph glyph-name="uni0216" unicode="&#x216;" horiz-adv-x="578" d="M375.79 863.22 C313.87 863.22 274.51 832.57 257.05 770.74 L268.05 770.74 C283.11 824.57 318.14 851.12 374.18 851.12 C430.98 851.12 458.87 824.15 458.7 769.47 L469.67 769.27 C469.71 832.08 438.6 863.22 375.79 863.22 L375.79 863.22 Z M253.53 -9.99998 C381.71 -9.99998 456.81 72.21 480.12 238.06 L549.25 730 L536.13 730 L467 238.06 C444.83 80.33 375.38 2.28003 255.26 2.28003 C135.67 2.28003 88.41 80.33 110.58 238.06 L179.72 730 L166.54 730 L97.41 238.06 C74.1 72.21 125.84 -9.99998 253.53 -9.99998 L253.53 -9.99998 Z " />
<glyph glyph-name="uni0217" unicode="&#x217;" horiz-adv-x="502" d="M321.59 777.32 C267.34 777.32 232.15 745.13 215.42 680.21 L226.06 680.21 C240.54 736.98 271.33 765.08 319.96 765.08 C369.23 765.08 392.39 736.54 390.81 678.87 L401.42 678.66 C403.07 744.62 376.61 777.32 321.59 777.32 L321.59 777.32 Z M211.83 -7.99998 C319.9 -7.99998 382.74 57.94 401.44 190.96 L456.68 584 L443.72 584 L388.49 190.97 C370.81 65.19 313.95 4.12001 213.53 4.12001 C113.53 4.12001 74.05 65.19 91.73 190.97 L146.97 584 L133.93 584 L78.69 190.96 C60 57.94 104.12 -7.99998 211.83 -7.99998 L211.83 -7.99998 Z " />
<glyph glyph-name="Scommaaccent" unicode="&#x218;" horiz-adv-x="465" d="M179.13 -10 C301.66 -10 371.29 54.31 389.57 184.39 C405.36 296.72 356.9 327.69 247 382.77 C148.19 432.29 103.74 458.89 118.26 562.25 C133.81 672.83 191.04 727.73 292.34 727.73 C346.82 727.73 392.66 714.99 430.37 688.9 L434.69 701.83 C393.2 727.23 346.23 740 292.64 740 C183.86 740 121.9 681.65 105.31 563.61 C89.51 451.17 140.1 422.03 243.06 370.19 C347.42 317.64 391.06 288.94 376.56 185.73 C359.32 63.11 294.58 2.25999 179.61 2.25999 C117.03 2.25999 66.44 14.36 27.23 39.11 L22.89 26.17 C65.32 2.09 116.99 -10 179.13 -10 L179.13 -10 Z M151.07 -176.91 C172.16 -154.21 185.33 -129.15 189.56 -99.08 C192.74 -76.4 186.92 -67.92 169.38 -67.92 C153.07 -67.92 145.34 -75.13 142.54 -95.04 C139.74 -114.96 145.2 -122.17 160.68 -122.17 C166.33 -122.17 170.26 -120.43 174.12 -116.93 C172.81 -123.65 165.3 -148.16 141.62 -169.33 L151.07 -176.91 Z " />
<glyph glyph-name="scommaaccent" unicode="&#x219;" horiz-adv-x="409" d="M151.04 -8 C254.32 -8 312.61 43.58 327.28 147.98 C339.87 237.6 298.64 262.77 207.13 306.77 C122.68 347.38 86.62 367.38 98.11 449.15 C110.47 537.08 157.44 580.03 242.08 580.03 C287.7 580.03 326.2 569.82 357.97 548.88 L362.17 561.41 C327.06 581.74 287.43 591.98 242.26 591.98 C150.5 591.98 98.6 545.18 85.28 450.44 C72.65 360.59 115.97 337.02 201.35 295.18 C291.33 251.07 325.8 230.69 314.33 149.06 C300.63 51.56 247.51 3.94995 151.48 3.94995 C99.12 3.94995 56.53 13.66 23.26 33.58 L19.08 21.07 C55.04 1.72997 98.66 -8.01004 151.04 -8.01004 L151.04 -8 Z M122.84 -176.92 C143.92 -154.22 157.1 -129.16 161.32 -99.09 C164.51 -76.41 158.69 -67.9301 141.14 -67.9301 C124.83 -67.9301 117.1 -75.1401 114.3 -95.0501 C111.5 -114.97 116.96 -122.18 132.44 -122.18 C138.1 -122.18 142.02 -120.44 145.88 -116.94 C144.57 -123.66 137.07 -148.17 113.39 -169.34 L122.84 -176.92 Z " />
<glyph glyph-name="uni021A" unicode="&#x21a;" horiz-adv-x="430" d="M468.01 730 L91.62 730 L89.9 717.72 L271.48 717.72 L170.61 0 L183.83 0 L284.7 717.72 L466.28 717.72 L468.01 730 Z M167.54 -67.92 C151.22 -67.92 143.5 -75.13 140.7 -95.04 C137.9 -114.96 143.36 -122.17 158.83 -122.17 C164.49 -122.17 168.42 -120.43 172.28 -116.93 C170.96 -123.65 163.46 -148.16 139.78 -169.33 L149.23 -176.91 C170.32 -154.21 183.8 -128.15 187.89 -99.08 C191.07 -76.4 185.08 -67.92 167.54 -67.92 L167.54 -67.92 Z " />
<glyph glyph-name="uni021B" unicode="&#x21b;" horiz-adv-x="378" d="M388.57 584 L71.01 584 L69.31 571.94 L221.54 571.94 L141.16 0 L154.27 0 L234.65 571.94 L386.87 571.94 L388.57 584 Z M138.03 -67.92 C121.72 -67.92 113.99 -75.13 111.19 -95.04 C108.39 -114.96 113.85 -122.17 129.33 -122.17 C134.98 -122.17 138.91 -120.43 142.77 -116.93 C141.46 -123.65 133.95 -148.16 110.27 -169.33 L119.72 -176.91 C140.81 -154.21 154 -129.15 158.23 -99.08 C161.41 -76.4 155.57 -67.92 138.03 -67.92 L138.03 -67.92 Z " />
<glyph glyph-name="uni0259" unicode="&#x259;" horiz-adv-x="495" d="M267.02 591.8 C225 591.8 175 580.42 129.6 560.55 L132.48 548.04 C170.54 567.93 218.42 579.26 264.33 579.26 C390.94 579.26 439.37 483.52 412.24 290.49 C411.34 284.06 410.38 277.73 409.38 271.52 C356.82 305.66 299.19 322.59 235.71 322.59 C127.56 322.59 65.87 270.07 50.96 164.06 C35.32 52.86 86.41 -10.76 190.26 -10.76 C319.21 -10.76 397.29 89.14 425.59 290.52 C453.89 491.82 401.46 591.8 267.03 591.8 L267.02 591.8 Z M192.03 1.75 C96.37 1.75 49.79 61.12 64.26 164.05 C78.02 261.85 134.73 310.09 234.84 310.09 C296.7 310.09 353.83 292.92 407.14 258.31 C376.66 86.99 305.56 1.74998 192.03 1.74998 L192.03 1.75 Z " />
<glyph glyph-name="caron" unicode="&#x2c7;" horiz-adv-x="294" d="M189.22 612.96 L201.5 612.96 L315.69 735.03 L299.32 735.03 L196.79 623.11 L125.72 735.03 L109.35 735.03 L189.22 612.96 Z " />
<glyph glyph-name="gravecomb" unicode="&#x300;" d="M12.92 614.96 L19.53 622.12 L-86.67 746.63 L-96.21 736.29 L12.92 614.96 Z " />
<glyph glyph-name="acutecomb" unicode="&#x301;" d="M-125.56 615.96 L17.67 737.29 L11.04 747.63 L-130.15 623.12 L-125.56 615.96 Z " />
<glyph glyph-name="uni0302" unicode="&#x302;" d="M-87.95 735.03 L-202.14 612.96 L-185.77 612.96 L-83.24 724.89 L-12.17 612.96 L4.21001 612.96 L-75.67 735.03 L-87.95 735.03 Z " />
<glyph glyph-name="tildecomb" unicode="&#x303;" d="M-56.93 638.88 C-28.18 638.88 -4.23999 656.49 15.32 692.04 L5.59001 697.11 C-9.43999 666.36 -29.57 651.12 -55.23 651.12 C-98.37 651.12 -108.25 709.12 -157.59 709.12 C-189.45 709.12 -214.35 690.51 -232.71 652.96 L-222.81 648.89 C-207.32 680.97 -186.28 696.88 -159.3 696.88 C-115.33 696.88 -105.42 638.88 -56.93 638.88 L-56.93 638.88 Z " />
<glyph glyph-name="uni0304" unicode="&#x304;" d="M-234.07 667.88 L3.95999 667.88 L5.67999 680.11 L-232.35 680.11 L-234.07 667.88 Z " />
<glyph glyph-name="uni0306" unicode="&#x306;" d="M-87.84 624.66 C-32.82 624.66 2.83 657.36 19.72 723.32 L9.05 723.11 C-5.58 665.44 -36.76 636.9 -86.03 636.9 C-134.66 636.9 -157.55 665 -156.08 721.77 L-166.72 721.77 C-168.24 656.85 -142.09 624.66 -87.84 624.66 L-87.84 624.66 Z " />
<glyph glyph-name="uni0307" unicode="&#x307;" d="M-12.14 647.92 C4.22 647.92 11.12 654.86 13.82 674.05 C16.51 693.23 11.57 700.17 -4.77 700.17 C-21.15 700.17 -28.05 693.22 -30.75 674.04 C-33.44 654.86 -28.5 647.92 -12.14 647.92 L-12.14 647.92 Z " />
<glyph glyph-name="uni0308" unicode="&#x308;" d="M-101.41 647.93 C-85.11 647.93 -77.46 654.87 -74.76 674.04 C-72.07 693.21 -77.77 700.15 -94.05 700.15 C-110.35 700.15 -118.01 693.21 -120.7 674.04 C-123.4 654.87 -117.7 647.93 -101.41 647.93 L-101.41 647.93 Z M9.03998 647.93 C25.33 647.93 32.99 654.87 35.69 674.04 C38.38 693.21 32.68 700.15 16.4 700.15 C0.0999756 700.15 -7.56003 693.21 -10.25 674.04 C-12.95 654.87 -7.25003 647.93 9.03996 647.93 L9.03998 647.93 Z " />
<glyph glyph-name="uni030A" unicode="&#x30a;" d="M-80.41 587.98 C-28.84 587.98 6.71001 623.54 15.43 685.59 C23.87 745.68 -1.40999 780.11 -52.23 780.11 C-103.8 780.11 -139.27 745.11 -147.85 684.04 C-156.43 622.98 -131.23 587.98 -80.41 587.98 L-80.41 587.98 Z M-78.74 599.18 C-123.03 599.18 -143.67 630.06 -136.09 684.04 C-128.5 738.02 -98.83 768.9 -53.9 768.9 C-9.60001 768.9 11.11 738.51 3.64 685.38 C-4.07001 630.55 -33.81 599.18 -78.74 599.18 L-78.74 599.18 Z " />
<glyph glyph-name="uni030B" unicode="&#x30b;" d="M-161.84 589.05 L-76.58 771.02 L-87.91 775.81 L-169.7 592.37 L-161.84 589.05 Z M-62.87 589.05 L22.4 771.02 L11.07 775.81 L-70.73 592.37 L-62.87 589.05 Z " />
<glyph glyph-name="uni030C" unicode="&#x30c;" d="M-105.1 612.96 L-92.83 612.96 L21.36 735.03 L4.99001 735.03 L-97.54 623.11 L-168.61 735.03 L-184.98 735.03 L-105.1 612.96 Z " />
<glyph glyph-name="uni030F" unicode="&#x30f;" d="M-140.28 589.05 L-131.48 592.37 L-161.72 775.81 L-174.39 771.02 L-140.28 589.05 Z M-41.3 589.05 L-32.51 592.37 L-62.74 775.81 L-75.42 771.02 L-41.3 589.05 Z " />
<glyph glyph-name="uni0312" unicode="&#x312;" d="M10.3 734.73 C-10.79 712.03 -23.99 686.11 -28.08 657.04 C-31.26 634.36 -25.55 625.74 -8.00998 625.74 C8.31003 625.74 16.04 632.95 18.83 652.87 C21.63 672.78 16.17 679.99 0.700012 679.99 C-4.95999 679.99 -8.88998 678.25 -12.75 674.75 C-11.43 681.47 -3.92998 705.98 19.75 727.15 L10.3 734.73 Z " />
<glyph glyph-name="dotbelowcomb" unicode="&#x323;" d="M-125.71 -160.13 C-109.35 -160.13 -102.46 -153.19 -99.76 -134.01 C-97.06 -114.83 -102 -107.89 -118.35 -107.89 C-134.73 -107.89 -141.63 -114.83 -144.32 -134.01 C-147.02 -153.19 -142.08 -160.13 -125.71 -160.13 L-125.71 -160.13 Z " />
<glyph glyph-name="uni0326" unicode="&#x326;" d="M-140.32 -176.91 C-119.24 -154.21 -106.07 -129.15 -101.84 -99.08 C-98.65 -76.4 -104.48 -67.92 -122.02 -67.92 C-138.33 -67.92 -146.06 -75.13 -148.86 -95.04 C-151.66 -114.96 -146.2 -122.17 -130.72 -122.17 C-125.06 -122.17 -121.14 -120.43 -117.28 -116.93 C-118.59 -123.65 -126.09 -148.16 -149.77 -169.33 L-140.32 -176.91 Z " />
<glyph glyph-name="uni0327" unicode="&#x327;" d="M-194.99 -214.03 C-139.51 -214.03 -108.1 -186.18 -100.2 -130 C-92.87 -77.82 -118.53 -51.96 -177.63 -51.96 L-162.44 2.03999 L-174.12 2.03999 L-192.72 -63.11 L-179.99 -63.11 C-127.96 -63.11 -105.7 -85.26 -111.98 -129.98 C-118.74 -178.04 -145.23 -201.83 -192.48 -201.83 C-219.52 -201.83 -241.78 -195.86 -259.62 -183.81 L-264.23 -197.02 C-245.23 -208.39 -222.28 -214.03 -194.99 -214.03 L-194.99 -214.03 Z " />
<glyph glyph-name="uni0328" unicode="&#x328;" d="M-160.81 -191.09 C-143.22 -191.09 -125.38 -186.77 -106.97 -178.07 L-109.81 -165.83 C-124.5 -175.21 -140.48 -179.86 -158.01 -179.86 C-188.12 -179.86 -202.36 -158.77 -197.18 -121.95 C-190.31 -73.04 -149.4 -28.62 -84.41 1.52588e-05 L-90.49 6.02002 C-157.64 -21.62 -201.68 -69.35 -209.08 -122.03 C-215.25 -165.93 -197.67 -191.09 -160.81 -191.09 L-160.81 -191.09 Z " />
<glyph glyph-name="uni0394" unicode="&#x394;" horiz-adv-x="629" d="M28.97 0 L524.04 0 L525.62 11.23 L383.18 730 L375 730 L30.55 11.23 L28.97 0 Z M44.82 12.28 L376.22 706.56 L511.66 12.28 L44.82 12.28 Z " />
<glyph glyph-name="delta" unicode="&#x3b4;" horiz-adv-x="495" d="M0.919998 0 L412.73 0 L414.17 10.91 L293.19 584 L284.39 584 L2.36 10.91 L0.919998 0 Z M16.62 12.08 L286.34 562.01 L400.65 12.08 L16.62 12.08 Z " />
<glyph glyph-name="uni03BC" unicode="&#x3bc;" horiz-adv-x="496" d="M440.23 540 L378.41 100.12 C318.41 37.65 250.41 2.28 190.78 2.28 C110.66 2.28 79.15 61.79 96.05 182.04 L146.36 540 L133.83 540 L25.61 -230 L37.49 -230 L81.71 84.67 C91.2 21.43 126.83 -10 188.25 -10 C250.39 -10 318.26 25.42 376.73 85.95 L377.56 85.95 L367.58 0 L376.66 0 L452.55 540 L440.23 540 Z " />
<glyph glyph-name="pi" unicode="&#x3c0;" horiz-adv-x="565" d="M469.44 527.75 L534.46 527.75 L536.18 540 L104.86 540 L103.14 527.75 L168.17 527.75 L94 0 L106.26 0 L180.43 527.75 L457.18 527.75 L395.68 90.18 C387.8 34.11 403.95 0.899979 444.41 -10.01 L449.17 2.28998 C414.32 10.95 400.95 40.39 408.09 91.26 L469.44 527.75 Z " />
<glyph glyph-name="uni1E0C" unicode="&#x1e0c;" horiz-adv-x="571" d="M63.95 0 L222.73 0 C381.4 0 476.97 120.31 511.08 363 C545.56 608.36 484 730 325.32 730 L166.54 730 L63.95 0 Z M78.85 12.26 L177.99 717.74 L323.6 717.74 C474.34 717.74 531.19 600.33 497.83 363 C464.86 128.35 375.19 12.26 224.45 12.26 L78.85 12.26 Z M192.4 -160.13 C208.76 -160.13 215.66 -153.19 218.35 -134.01 C221.05 -114.83 216.11 -107.89 199.77 -107.89 C183.39 -107.89 176.49 -114.83 173.79 -134.01 C171.09 -153.19 176.04 -160.13 192.4 -160.13 L192.4 -160.13 Z " />
<glyph glyph-name="uni1E0D" unicode="&#x1e0d;" horiz-adv-x="496" d="M51.86 0 L186.22 0 C319.87 0 399.64 96.25 426.93 290.41 C454.52 486.69 401.94 584 268.3 584 L133.93 584 L51.86 0 Z M66.57 11.93 L145.29 572.09 L266.62 572.09 C392.79 572.09 440.44 480.11 413.78 290.41 C387.43 102.87 314.07 11.93 187.9 11.93 L66.57 11.93 Z M157.11 -160.13 C173.47 -160.13 180.37 -153.19 183.06 -134.01 C185.76 -114.83 180.82 -107.89 164.48 -107.89 C148.1 -107.89 141.2 -114.83 138.5 -134.01 C135.8 -153.19 140.75 -160.13 157.11 -160.13 L157.11 -160.13 Z " />
<glyph glyph-name="uni1E24" unicode="&#x1e24;" horiz-adv-x="593" d="M542.16 730 L492.71 378.13 L130.27 378.13 L179.72 730 L166.54 730 L63.95 0 L77.12 0 L128.54 365.86 L490.99 365.86 L439.57 0 L452.74 0 L555.34 730 L542.16 730 Z M243.19 -107.89 C226.82 -107.89 219.91 -114.83 217.22 -134.01 C214.52 -153.19 219.47 -160.13 235.83 -160.13 C252.19 -160.13 259.09 -153.19 261.78 -134.01 C264.48 -114.83 259.54 -107.89 243.19 -107.89 L243.19 -107.89 Z " />
<glyph glyph-name="uni1E25" unicode="&#x1e25;" horiz-adv-x="514" d="M449.03 584 L409.62 303.61 L107.56 303.61 L146.97 584 L133.93 584 L51.86 0 L64.89 0 L105.87 291.59 L407.93 291.59 L366.95 0 L379.99 0 L462.06 584 L449.03 584 Z M200.77 -107.89 C184.39 -107.89 177.48 -114.83 174.79 -134.01 C172.09 -153.19 177.04 -160.13 193.4 -160.13 C209.76 -160.13 216.66 -153.19 219.35 -134.01 C222.05 -114.83 217.11 -107.89 200.77 -107.89 L200.77 -107.89 Z " />
<glyph glyph-name="uni1E44" unicode="&#x1e44;" horiz-adv-x="580" d="M363.09 787.96 C379.45 787.96 387.13 794.9 389.83 814.09 C392.53 833.27 386.8 840.21 370.46 840.21 C354.08 840.21 346.39 833.27 343.7 814.08 C341 794.9 346.73 787.96 363.09 787.96 L363.09 787.96 Z M54.96 0 L67.3 0 L166.12 702.33 L437.92 0 L449.69 0 L552.28 730 L539.97 730 L441.15 27.67 L169.38 730 L157.55 730 L54.96 0 Z " />
<glyph glyph-name="uni1E45" unicode="&#x1e45;" horiz-adv-x="504" d="M308.7 691.92 C325.06 691.92 331.96 698.86 334.66 718.05 C337.35 737.23 332.41 744.17 316.07 744.17 C299.69 744.17 292.79 737.22 290.09 718.04 C287.39 698.86 292.34 691.92 308.7 691.92 L308.7 691.92 Z M44.86 1.52588e-05 L57.19 1.52588e-05 L135.58 556.96 L366.5 1.52588e-05 L378 1.52588e-05 L460.08 584 L447.79 584 L369.39 27.03 L138.51 584 L126.94 584 L44.86 1.52588e-05 Z " />
<glyph glyph-name="uni1E5A" unicode="&#x1e5a;" horiz-adv-x="507" d="M63.95 0 L77.12 0 L123.91 332.9 L260.55 332.9 L403.39 0 L419.46 0 L274.8 333 C390.87 335.7 463.35 407.82 480.79 531.95 C498.49 657.88 443.92 730 330.32 730 L166.54 730 L63.95 0 Z M125.58 345.14 L177.95 717.76 L328.45 717.76 C434.34 717.76 484.3 650.16 467.69 531.95 C450.98 413.1 381.39 345.14 274.48 345.14 L125.58 345.14 Z M212.6 -146.16 C228.96 -146.16 235.86 -139.22 238.55 -120.04 C241.25 -100.86 236.31 -93.9101 219.96 -93.9101 C203.59 -93.9101 196.68 -100.86 193.99 -120.04 C191.29 -139.22 196.24 -146.16 212.6 -146.16 L212.6 -146.16 Z " />
<glyph glyph-name="uni1E5B" unicode="&#x1e5b;" horiz-adv-x="443" d="M51.86 0 L64.89 0 L102.21 265.56 L215.38 265.56 L336.42 0 L352.19 0 L229.4 265.85 C326.36 268.5 386.42 326.04 400.35 425.16 C414.57 526.38 368.36 584 272.58 584 L133.93 584 L51.86 0 Z M103.79 277.29 L145.24 572.23 L270.64 572.23 C359.11 572.23 400.68 519.47 387.43 425.16 C374.1 330.33 317.19 277.29 227.85 277.29 L103.79 277.29 Z M172.31 -160.13 C188.68 -160.13 195.57 -153.19 198.27 -134.01 C200.97 -114.83 196.03 -107.89 179.68 -107.89 C163.3 -107.89 156.4 -114.83 153.71 -134.01 C151.01 -153.19 155.95 -160.13 172.31 -160.13 L172.31 -160.13 Z " />
<glyph glyph-name="uni1E62" unicode="&#x1e62;" horiz-adv-x="465" d="M179.13 -10 C301.66 -10 371.29 54.31 389.57 184.39 C405.36 296.72 356.9 327.69 247 382.77 C148.19 432.29 103.74 458.89 118.26 562.25 C133.81 672.83 191.04 727.73 292.34 727.73 C346.82 727.73 392.66 714.99 430.37 688.9 L434.69 701.83 C393.2 727.23 346.23 740 292.64 740 C183.86 740 121.9 681.65 105.31 563.61 C89.51 451.17 140.1 422.03 243.06 370.19 C347.42 317.64 391.06 288.94 376.56 185.73 C359.32 63.11 294.58 2.25999 179.61 2.25999 C117.03 2.25999 66.44 14.36 27.23 39.11 L22.89 26.17 C65.32 2.09 116.99 -10 179.13 -10 L179.13 -10 Z M158.52 -146.16 C174.88 -146.16 181.77 -139.22 184.47 -120.04 C187.17 -100.86 182.23 -93.91 165.88 -93.91 C149.5 -93.91 142.6 -100.86 139.91 -120.04 C137.21 -139.22 142.16 -146.16 158.52 -146.16 L158.52 -146.16 Z " />
<glyph glyph-name="uni1E63" unicode="&#x1e63;" horiz-adv-x="409" d="M151.04 -8 C254.32 -8 312.61 43.58 327.28 147.98 C339.87 237.6 298.64 262.77 207.13 306.77 C122.68 347.38 86.62 367.38 98.11 449.15 C110.47 537.08 157.44 580.03 242.08 580.03 C287.7 580.03 326.2 569.82 357.97 548.88 L362.17 561.41 C327.06 581.74 287.43 591.98 242.26 591.98 C150.5 591.98 98.6 545.18 85.28 450.44 C72.65 360.59 115.97 337.02 201.35 295.18 C291.33 251.07 325.8 230.69 314.33 149.06 C300.63 51.56 247.51 3.94995 151.48 3.94995 C99.12 3.94995 56.53 13.66 23.26 33.58 L19.08 21.07 C55.04 1.72997 98.66 -8.01004 151.04 -8.01004 L151.04 -8 Z M128.32 -160.14 C144.68 -160.14 151.57 -153.2 154.27 -134.02 C156.97 -114.84 152.03 -107.9 135.68 -107.9 C119.3 -107.9 112.4 -114.84 109.71 -134.02 C107.01 -153.2 111.96 -160.14 128.32 -160.14 L128.32 -160.14 Z " />
<glyph glyph-name="uni1E6C" unicode="&#x1e6c;" horiz-adv-x="430" d="M468.01 730 L91.62 730 L89.9 717.72 L271.48 717.72 L170.61 0 L183.83 0 L284.7 717.72 L466.28 717.72 L468.01 730 Z M162.08 -107.89 C145.7 -107.89 138.8 -114.83 136.1 -134.01 C133.4 -153.19 138.35 -160.13 154.71 -160.13 C171.07 -160.13 177.97 -153.19 180.67 -134.01 C183.36 -114.83 178.42 -107.89 162.08 -107.89 L162.08 -107.89 Z " />
<glyph glyph-name="uni1E6D" unicode="&#x1e6d;" horiz-adv-x="378" d="M388.57 584 L71.01 584 L69.31 571.94 L221.54 571.94 L141.16 0 L154.27 0 L234.65 571.94 L386.87 571.94 L388.57 584 Z M132.57 -107.89 C116.19 -107.89 109.29 -114.83 106.59 -134.01 C103.9 -153.19 108.84 -160.13 125.2 -160.13 C141.56 -160.13 148.46 -153.19 151.16 -134.01 C153.85 -114.83 148.91 -107.89 132.57 -107.89 L132.57 -107.89 Z " />
<glyph glyph-name="Wgrave" unicode="&#x1e80;" horiz-adv-x="831" d="M511.18 777.28 L516.62 785.34 L390.59 881.69 L382.74 870.06 L511.18 777.28 Z M194.22 0 L204.13 0 L476.7 701.5 L551.75 0 L561.73 0 L839.62 730 L825.41 730 L561.25 32.44 L485.64 730 L475.36 730 L203.41 31.44 L135.61 730 L121.66 730 L194.22 0 Z " />
<glyph glyph-name="wgrave" unicode="&#x1e81;" horiz-adv-x="736" d="M456.59 658.96 L463.2 666.12 L357 790.63 L347.46 780.29 L456.59 658.96 Z M164.46 -0.00999451 L174.55 -0.00999451 L406.05 559.34 L480.04 -0.00999451 L490.11 -0.00999451 L733.83 584 L719.61 584 L488.55 26.47 L415.45 584 L403.26 584 L173.1 25.68 L99.05 584 L85.07 584 L164.46 -0.00999451 Z " />
<glyph glyph-name="Wacute" unicode="&#x1e82;" horiz-adv-x="831" d="M463.33 777.28 L617.86 870.06 L613.27 881.69 L460.16 785.34 L463.33 777.28 Z M194.22 0 L204.13 0 L476.7 701.5 L551.75 0 L561.73 0 L839.62 730 L825.41 730 L561.25 32.44 L485.64 730 L475.36 730 L203.41 31.44 L135.61 730 L121.66 730 L194.22 0 Z " />
<glyph glyph-name="wacute" unicode="&#x1e83;" horiz-adv-x="736" d="M381.99 659.96 L525.23 781.29 L518.6 791.63 L377.4 667.12 L381.99 659.96 Z M164.45 -0.00999451 L174.54 -0.00999451 L406.04 559.34 L480.03 -0.00999451 L490.1 -0.00999451 L733.82 584 L719.6 584 L488.54 26.47 L415.44 584 L403.25 584 L173.09 25.68 L99.04 584 L85.06 584 L164.45 -0.00999451 Z " />
<glyph glyph-name="Wdieresis" unicode="&#x1e84;" horiz-adv-x="831" d="M429.28 787.97 C445.57 787.97 453.23 794.91 455.93 814.08 C458.62 833.25 452.92 840.19 436.64 840.19 C420.34 840.19 412.68 833.25 409.99 814.08 C407.29 794.91 412.99 787.97 429.28 787.97 L429.28 787.97 Z M547.82 787.97 C564.11 787.97 571.77 794.91 574.46 814.08 C577.16 833.25 571.46 840.19 555.17 840.19 C538.88 840.19 531.22 833.25 528.52 814.08 C525.83 794.91 531.53 787.97 547.82 787.97 L547.82 787.97 Z M194.22 0 L204.13 0 L476.7 701.5 L551.75 0 L561.73 0 L839.62 730 L825.41 730 L561.25 32.44 L485.64 730 L475.36 730 L203.41 31.44 L135.61 730 L121.66 730 L194.22 0 Z " />
<glyph glyph-name="wdieresis" unicode="&#x1e85;" horiz-adv-x="736" d="M369.37 691.93 C385.67 691.93 393.33 698.87 396.02 718.04 C398.72 737.21 393.02 744.15 376.73 744.15 C360.43 744.15 352.78 737.21 350.08 718.04 C347.39 698.87 353.09 691.93 369.37 691.93 L369.37 691.93 Z M479.82 691.93 C496.12 691.93 503.78 698.87 506.47 718.04 C509.17 737.21 503.47 744.15 487.18 744.15 C470.88 744.15 463.23 737.21 460.53 718.04 C457.84 698.87 463.54 691.93 479.82 691.93 L479.82 691.93 Z M164.45 -0.0100098 L174.54 -0.0100098 L406.04 559.34 L480.03 -0.0100098 L490.1 -0.0100098 L733.82 584 L719.6 584 L488.54 26.47 L415.44 584 L403.25 584 L173.09 25.68 L99.04 584 L85.06 584 L164.45 -0.0100098 Z " />
<glyph glyph-name="uni1E92" unicode="&#x1e92;" horiz-adv-x="472" d="M19 0 L377.26 0 L378.98 12.28 L36.24 12.28 L478.33 718.79 L479.79 730 L134.42 730 L132.7 717.72 L463.76 717.72 L20.46 11.21 L19 0 Z M177.58 -146.16 C193.94 -146.16 200.84 -139.22 203.53 -120.04 C206.23 -100.86 201.29 -93.91 184.94 -93.91 C168.57 -93.91 161.66 -100.86 158.97 -120.04 C156.27 -139.22 161.22 -146.16 177.58 -146.16 L177.58 -146.16 Z " />
<glyph glyph-name="uni1E93" unicode="&#x1e93;" horiz-adv-x="414" d="M14.9 0 L316.97 0 L318.68 12.11 L32.07 12.11 L397.57 573.3 L398.96 584 L107.75 584 L106.06 571.94 L383.13 571.94 L16.29 10.72 L14.9 0 Z M143.42 -160.13 C159.78 -160.13 166.68 -153.19 169.37 -134.01 C172.07 -114.83 167.13 -107.89 150.79 -107.89 C134.41 -107.89 127.51 -114.83 124.81 -134.01 C122.11 -153.19 127.06 -160.13 143.42 -160.13 L143.42 -160.13 Z " />
<glyph glyph-name="uni1E9E" unicode="&#x1e9e;" horiz-adv-x="515" d="M250.29 -10 C362.65 -10 427.85 57.62 447.03 194.04 C474.77 391.43 299.87 406.4 299.87 406.4 L482.82 719.81 L484.26 730 L312.79 730 C215 730 158.34 671.63 141.79 553.89 L63.95 0 L76.31 0 L154.15 553.9 C169.55 663.48 221.33 717.74 311.1 717.74 L468.9 717.74 L286.8 405.48 L285.5 396.26 C285.5 396.26 460.54 384.29 433.8 194.04 C415.77 65.75 355.97 2.25999 251.66 2.25999 C201.44 2.25999 162.83 12.2 135.18 32.27 L131.16 18.99 C161.39 -0.389999 200.89 -10 250.29 -10 L250.29 -10 Z " />
<glyph glyph-name="uni1EA0" unicode="&#x1ea0;" horiz-adv-x="548" d="M468.8 0 L343.02 730 L335.03 730 L4.00999 0 L18.11 0 L114.68 213.83 L418.14 213.83 L454.61 0 L468.8 0 Z M120.21 226.08 L334.96 701.6 L416.05 226.08 L120.21 226.08 Z M223.02 -93.91 C206.64 -93.91 199.74 -100.86 197.04 -120.04 C194.34 -139.22 199.29 -146.16 215.65 -146.16 C232.01 -146.16 238.91 -139.22 241.61 -120.04 C244.3 -100.86 239.36 -93.91 223.02 -93.91 L223.02 -93.91 Z " />
<glyph glyph-name="uni1EA1" unicode="&#x1ea1;" horiz-adv-x="479" d="M394.93 0 L285.41 584.01 L276.65 584.01 L2.90999 0 L16.85 0 L96.01 169.68 L349.39 169.68 L380.86 0 L394.93 0 Z M101.55 181.55 L277.31 558.3 L347.19 181.55 L101.55 181.55 Z M183.6 -107.89 C167.23 -107.89 160.32 -114.83 157.63 -134.01 C154.93 -153.19 159.88 -160.13 176.24 -160.13 C192.6 -160.13 199.5 -153.19 202.19 -134.01 C204.89 -114.83 199.95 -107.89 183.6 -107.89 L183.6 -107.89 Z " />
<glyph glyph-name="uni1EA4" unicode="&#x1ea4;" horiz-adv-x="548" d="M495.9 1004.14 L491.32 1015.77 L338.21 919.41 L341.38 911.36 L495.9 1004.14 Z M359.31 874.98 L445.15 768.78 L462.17 768.78 L366.84 884.89 L354.56 884.89 L226.6 768.78 L243.61 768.78 L359.31 874.98 Z M335.03 730 L4.00996 0 L18.11 0 L114.68 213.83 L418.14 213.83 L454.61 0 L468.8 0 L343.02 730 L335.03 730 Z M120.21 226.08 L334.96 701.6 L416.05 226.08 L120.21 226.08 Z " />
<glyph glyph-name="uni1EA5" unicode="&#x1ea5;" horiz-adv-x="479" d="M442.12 941.34 L435.49 951.68 L294.3 827.17 L298.89 820.01 L442.12 941.34 Z M306.99 768.89 L378.06 656.96 L394.43 656.96 L314.56 779.03 L302.28 779.03 L188.09 656.96 L204.46 656.96 L306.99 768.89 Z M276.65 584.01 L2.90999 1.52588e-05 L16.85 1.52588e-05 L96.01 169.68 L349.39 169.68 L380.86 1.52588e-05 L394.93 1.52588e-05 L285.41 584.01 L276.65 584.01 Z M101.55 181.55 L277.31 558.3 L347.19 181.55 L101.55 181.55 Z " />
<glyph glyph-name="uni1EA6" unicode="&#x1ea6;" horiz-adv-x="548" d="M393.06 919.41 L267.04 1015.77 L259.18 1004.14 L387.63 911.36 L393.06 919.41 Z M359.47 874.98 L445.32 768.78 L462.33 768.78 L367.01 884.89 L354.72 884.89 L226.76 768.78 L243.78 768.78 L359.47 874.98 Z M454.61 0 L468.8 0 L343.02 730 L335.03 730 L4.00998 0 L18.11 0 L114.68 213.83 L418.14 213.83 L454.61 0 Z M120.21 226.08 L334.96 701.6 L416.05 226.08 L120.21 226.08 Z " />
</font>
</svg>
